<?xml version="1.0" encoding="utf-8"?>
<!-- Generator: Adobe Illustrator 21.1.0, SVG Export Plug-In . SVG Version: 6.00 Build 0)  -->
<svg version="1.1" xmlns="http://www.w3.org/2000/svg" xmlns:xlink="http://www.w3.org/1999/xlink" x="0px" y="0px"
	 viewBox="0 0 898.7 572" style="enable-background:new 0 0 898.7 572;" xml:space="preserve">
<style type="text/css">
	.st0{fill:#978970;}
	.st1{font-family:'NiagaraEngraved-Reg';}
	.st2{font-size:86.322px;}
</style>
<g id="Layer_1">
	<g>
		<path class="st0" d="M381.6,26.1c17-5.6,34.2-3.3,45.6,2.8c8,4.3-0.7,14.8-9.4,18.3c-1.3,0.5-17.8-7.7-36.8-14.4
			c-6.8,1.8-19.8,10.9-32.2,51.6c-18.1,59-44,85.3-54.7,74.5c-4.5-4.6-11.5-21.7-2.5-44v-0.1c3.7-0.5,17.1,2.3,15.9,6.4
			c-0.3,1.1-14.7,31.2-12.2,32.6c10.2,5.3,19.8-9.5,36.9-69.3c8.3-29.2,23.7-46,40.1-54.4c-7.9-2.4-16.1-4.3-23.4-5
			c-27.3-2.4-48.6,19-55.6,41.6c-7.6,24-3.7,39.1,10,39.2c2.9,0,4.1-6.8,5.6-18.7c0.4-4.2,16.2-0.3,18.6,2.6v0.1
			c-4,11-15.5,19.4-26.8,19.9c-13.8,0.5-33.3-12.1-22.7-43.5c9.4-28.1,40.1-48.4,74.6-45.4C366.6,22.2,376,24.1,381.6,26.1z"/>
		<path class="st0" d="M353.5,114c3.1-12.8,16.6-57.2,19.2-68.7c0.1-0.4,16.4,1.1,15,5.6c-0.5,1.6-5.7,14.2-10.8,29.7
			c-2,6.2-3.9,12.2-5.6,17.7c5.7-11.6,12-20,18.1-20c8.9,0,10.1,8.4,3.6,28.7c-5.3,16.7-5,22.9-1.6,20.2c2.5-2.1,6.7-9.1,10.3-16.1
			c1.9-3.8,2.5-4.2,2.5-2.2c0,0.7-0.2,2.2-1.5,4.5c-3.3,5.8-6.8,11.6-10.2,15.4c-4,4.4-7.3,6.1-9.9,5c-3.4-1.4-8-10.5-2.8-26.9
			c4.7-15.6,8.9-21,5.2-21c-5.3,0-12.5,14-21,41.9c-1.4,6.6-1.6,7.1-1.6,7.1C354.7,136.3,349.1,131.9,353.5,114z"/>
		<path class="st0" d="M409.2,113.6c-1.7,8.7-1.3,14.9,2.4,15.4c4.5,0.9,16.3-5.9,22.4-17.8c1.9-3.8,2.6-4.2,2.6-2.2
			c0,0.7-0.3,2.2-1.6,4.5c-6.2,11.1-18.9,21.2-27.8,21.2c-9.6,0-13.8-14.2-9.4-28.7c6.6-21.9,25.1-39.3,29.8-34.5
			c1.5,1.5,9.1,5.5,8.2,10.3C434.7,88.3,421.9,104,409.2,113.6z M410.1,109.8C421.9,98.1,430,77,426.8,75.2
			c-4.4-2.3-12.1,17.9-15.6,30.7C410.8,107.2,410.4,108.6,410.1,109.8z"/>
		<path class="st0" d="M538.7,38.8c-4.4,16.9-23.1,32.3-45.1,32.6h-3.7c-1.7,5.6-3.6,11.6-5.5,18.3c3.2-6.2,7-11.4,10.7-11.4
			c8.7,0,13.1,14.3,8.5,28.7c-5.9,18.6-26.8,29.9-35,26.9c-3.7-1.3-7.3-7.8-4.4-19.9c4-16.6,8-30.9,12.2-42.9
			c-11.1-0.7-14-1.3-22.7,2.8c-0.9,0.4-12.4-11.3-5.6-14.3c8.3-3.5,18.5,2,30.5,5.4c11.9-32.1,24.8-47.1,40.8-49.2
			C531.1,14.4,542.2,25,538.7,38.8z M479.1,108.6l-2.6,9.7c-1.9,7.3-2.7,11.9,0.2,11.9c3.9,0,8.7-7,13.6-23.2
			c3.8-12.7,5.2-22.1,1.3-22.1C488.4,84.9,483.2,96.3,479.1,108.6z M491.1,67.4c1.1,0.1,2.2,0.1,3.2,0.1
			c16.7-0.1,29.5-13.8,31.9-27.9c2.3-12.6-2.5-20.9-9.3-19.7C510.3,21,502.6,32.4,491.1,67.4z"/>
		<path class="st0" d="M516.4,113.6c-1.7,8.7-1.3,14.9,2.4,15.4c4.5,0.9,16.3-5.9,22.4-17.8c1.9-3.8,2.6-4.2,2.6-2.2
			c0,0.7-0.3,2.2-1.6,4.5c-6.2,11.1-18.9,21.2-27.8,21.2c-9.6,0-13.8-14.2-9.4-28.7c6.6-21.9,25.1-39.3,29.8-34.5
			c1.5,1.5,9.1,5.5,8.2,10.3C541.8,88.3,529,104,516.4,113.6z M517.2,109.8C529,98.1,537.1,77,533.9,75.2
			c-4.4-2.3-12.1,17.9-15.6,30.7C517.9,107.2,517.5,108.6,517.2,109.8z"/>
		<path class="st0" d="M569.8,116.2c3-1.2,5.4-3,6.6-5c2.3-3.7,2.6-4.2,2.6-2.2c0,0.7-0.2,2.2-1.6,4.4c-1.6,2.6-4.7,4.5-8.3,5.5
			c-5,14.2-22.8,20.1-27,15.8c-4.4-4.5,2.8-14.4,13.5-16.4c1.3-7.8-0.2-15.3-2.5-21.9c-3.2,5.7-6.7,11-9.1,15.6
			c-1.2,2.4-2.3,3.5-2.7,3.8c-1.7,1.1-1.7,0.4,0.3-3.4c4.3-7.9,7.2-15.6,8.8-22.4c-2.6-5.8-5.2-10.2-5.5-12.1
			c-1.2-5.6,15.4-6.4,15.5-6.1c0.4,4.9-0.9,10.1-2.9,15.1c5.8,7.1,12.8,16.9,12.8,24.2C570.3,112.9,570.1,114.6,569.8,116.2z
			 M554.8,121.2l0.2-0.9c-7.2,1.4-9.2,7.4-7.1,9.6C550.3,132.5,551.9,132.3,554.8,121.2z"/>
		<path class="st0" d="M598.8,70.7c-1.5,3.8-3.1,8.3-4.7,13.2c-5.1,15.6-8.6,29.7-9.8,36.9c-1.3,8.1-0.8,7.9,2.6,5.1
			c2-1.6,5.7-7.9,9.3-14.9c2-3.8,2.6-4.2,2.6-2.2c0,0.7-0.3,2.2-1.6,4.5c-3.2,5.8-6.7,11.6-10.2,15.4c-4,4.4-7.3,6.1-9.9,5
			c-4-1.6-6.4-10.2-3.8-20.7c1.4-6.1,6.6-22.3,11.9-42.1c-1.8,0-3.7,0-5.8-0.1c-1.4-2.7,0.3-6.4,3.7-6.7h3.9c1.1-4,2-8.3,3.1-12.6
			c0.1-0.4,17-0.1,15,5.1c-0.1,0.2-1.5,3-3.4,7.4h10.8c0.2,0,0.2,0.2-0.1,0.8C609.2,68.4,605.9,70,598.8,70.7z"/>
	</g>
	<path class="st0" d="M107.1,102.4c1,0.9-1.3,4.7-1.2,4.7c-7.7-7.2-10,16.3-0.5,10.6c22.1-13.4,123.1-55.1,147.9-21.6
		c6.7,9.2,3.5,34.1,2.7,32.4c-23-49.9-131-16-148.1-6.9C86.2,133.3,94.2,91.1,107.1,102.4z"/>
	<path class="st0" d="M765.5,121.6c-17.1-9.1-125.1-43-148.1,6.9c-0.8,1.6-4-23.2,2.7-32.4c24.7-33.5,125.8,8.1,147.9,21.6
		c9.5,5.7,7.2-17.8-0.5-10.6c0.1,0-2.2-3.8-1.2-4.7C779.2,91.1,787.2,133.3,765.5,121.6z"/>
	<path class="st0" d="M707,410.9c-75.6,16.3-90.9,34.7-73.5,51.4c0.8,0.7,0.8,4.9-1.4,2.8c-20-19.7-9.4-57.9,71.2-75.4
		c63.9-13.9,110.6-13.7,127-39.9c6-9.7,7.2-22.9,5.3-35.4c-11.2,6.8-24.2,9.8-35.7,9c-23.4-1.4-32.9-28.6-22-44.3
		c11-16,41.1-28.2,57.7-9.3c6.8,8,10.4,19.4,10.8,31.8c10.1-11.2,15.9-27.8,11.5-50.6c-0.2-0.8,2.2-4.3,2.8-0.9
		c4.9,25.4-2.3,44-14.4,56c-0.5,14.8-4.9,30.9-13.1,44.2C814.6,380.9,772.2,396.8,707,410.9z M835.1,310.9
		c-2.1-11.1-6.5-21.3-12.2-27.7c-12.9-14.3-32.6-14.4-41.7-0.9c-10.1,15.1-1,36.4,20.6,37.4C812.1,320.2,824.5,317.5,835.1,310.9z"
		/>
	<path class="st0" d="M51,336.4c-8.2-13.3-12.6-29.4-13.1-44.2c-12.1-12.1-19.3-30.6-14.4-56c0.6-3.4,3,0.1,2.8,0.9
		c-4.4,22.8,1.4,39.4,11.5,50.6c0.4-12.5,3.9-23.9,10.8-31.8c16.6-18.8,46.7-6.7,57.7,9.3c10.8,15.8,1.4,42.9-22,44.3
		c-11.5,0.8-24.5-2.2-35.7-9c-1.8,12.5-0.6,25.7,5.3,35.4c16.4,26.2,63.1,26,127,39.9c80.6,17.5,91.2,55.7,71.2,75.4
		c-2.2,2.1-2.2-2.2-1.4-2.8c17.4-16.7,2.1-35-73.5-51.4C112.1,383,69.7,367.1,51,336.4z M82.6,305.9c21.5-1,30.7-22.3,20.6-37.4
		c-9.1-13.5-28.8-13.4-41.7,0.9c-5.7,6.4-10.1,16.6-12.2,27.7C59.8,303.6,72.2,306.4,82.6,305.9z"/>
	<g>
		<path class="st0" d="M190.1,331.6c0.3-5.5,0.6-11,0.9-16.5c-0.7,0.2-1.9,0.4-3.6,0.6c-1.7,0.2-3.7,0-6-0.5c-2.2-0.5-4.6-1.5-7.1-3
			c-2.5-1.5-5-3.8-7.3-6.8c4.4,0.5,8.4,0.3,11.9-0.6c1.5-0.4,3-1,4.5-1.8c1.5-0.8,2.8-1.8,4-3.2c1.2-1.3,2.2-3,3-5
			c0.8-2,1.3-4.3,1.4-6.9c0.3-5.3-0.5-9.6-2.5-12.8c-1.9-3.2-4.3-5.6-7.2-7.3c-2.9-1.6-6.1-2.7-9.5-3.1c-3.4-0.5-6.4-0.7-9.1-0.7
			c-3,0.2-6,0.4-9,0.6c-4.8-0.3-9.5-0.6-14.3-0.8c0,0.6,0,1.3,0,1.9c2.4,0.3,3.9,0.8,4.6,1.6c-0.1,7-0.1,13.9-0.2,20.9
			c-0.9-0.1-1.6-0.1-2.2,0.2c-0.6,0.3-0.9,0.7-0.9,1.2c0,0.5,0.3,1,0.9,1.5c0.6,0.4,1.3,0.8,2.2,0.9c-0.1,6.9-0.1,13.8-0.2,20.8
			c-0.6,0.5-2.1,0.6-4.2,0.1c0,0.6,0,1.3,0,1.9c4.4,1.4,8.8,2.7,13.3,3.9c4.4,1.7,8.8,3.4,13.2,5c0-0.7,0.1-1.5,0.1-2.2
			c-1-0.4-1.9-0.9-2.7-1.4c-0.8-0.5-1.3-1-1.6-1.6c0.1-4,0.3-7.9,0.4-11.9c1.5,3.1,3.6,6.1,6.1,9.1c1,1.3,2.2,2.6,3.6,4
			c1.4,1.4,3,2.8,4.7,4.3c1.7,1.4,3.6,2.8,5.7,4.1C185.3,329.3,187.6,330.5,190.1,331.6z M163,300.9c0.3-11.1,0.7-22.2,1-33.3
			c0.3,0,0.7,0,1,0c0.6,0,1.4,0.1,2.4,0.1c1,0.1,1.9,0.2,2.8,0.3c0.9,0.2,1.7,0.4,2.3,0.7c0.7,0.3,1,0.7,1,1.2
			c-0.4,10.1-0.8,20.1-1.2,30.2c-0.1,0.5-0.5,0.9-1.3,1.1c-0.7,0.2-1.6,0.3-2.9,0.4C167,301.6,165.2,301.3,163,300.9z"/>
		<path class="st0" d="M192.2,277.7c0.7,1.6,1.2,3.3,1.6,5.3c0.4,2,0.5,4.2,0.3,6.6c-0.2,4.6-1.4,8.3-3.5,10.8
			c-2.1,2.5-4.4,4.3-7,5.4c-2.6,1.1-5.2,1.6-7.7,1.7c-2.5,0.1-4.3,0-5.6-0.1c0.4,0.4,0.8,0.7,1.1,1.1c0.4,0.3,0.7,0.7,1.1,1
			c1.2,0.1,3.1,0.1,5.6,0.1c2.5-0.1,5.1-0.6,7.6-1.7c2.6-1.1,4.9-2.9,6.9-5.4c2.1-2.5,3.2-6.2,3.5-10.9c0.2-4.2-0.2-7.7-1.3-10.5
			c-1.1-2.8-2.5-5.2-4.4-7.1c0.3,0.6,0.6,1.2,0.9,1.7C191.7,276.4,191.9,277,192.2,277.7z"/>
		<path class="st0" d="M170.8,270.9c0.4,0,0.8,0.1,1.2,0.1c0-0.4,0-0.7,0-1.1c0-0.1-0.1-0.1-0.2-0.3c-1.3-0.2-2.5-0.3-3.7-0.4
			c-0.6,0-1.1,0-1.7-0.1c-0.3,10.4-0.7,20.7-1,31.1c0.7,0.1,1.4,0.2,2.2,0.3c0.4-9.9,0.7-19.8,1.1-29.8c0.3,0,0.7,0,1,0
			C170,270.8,170.4,270.9,170.8,270.9z"/>
		<path class="st0" d="M192.2,334c-1-0.5-1.9-1-2.9-1.4c-1-0.5-1.9-1-2.8-1.6c-1-0.6-2-1.1-3-1.7c-1-0.6-1.9-1.2-2.7-1.8
			c1.8,1.6,3.8,3.1,6.1,4.7c2.2,1.5,4.8,2.9,7.6,4.2c0.3-5.6,0.6-11.3,0.9-16.9c-0.5,0.2-1.3,0.4-2.4,0.5
			C192.7,324.7,192.5,329.4,192.2,334z"/>
		<path class="st0" d="M169.1,325.8c-4.5-1.7-8.9-3.4-13.3-5.1c-3.8-1.1-7.5-2.1-11.2-3.3c0,0.5,0,1,0,1.5c4.4,1.4,8.8,2.7,13.3,4
			c4.4,1.8,8.9,3.6,13.3,5.3c0-0.8,0.1-1.5,0.1-2.3c-0.9-0.3-1.6-0.7-2.1-1.2C169.2,325,169.1,325.4,169.1,325.8z"/>
		<path class="st0" d="M165,319.2c0.4,0.3,1.1,0.8,2.1,1.2c0.1-1.8,0.1-3.6,0.2-5.4c-0.9-1-1.6-1.9-2.1-2.9
			C165.2,314.5,165.1,316.8,165,319.2z"/>
		<path class="st0" d="M243.1,271.9c-0.2,0-0.3,0.1-0.5,0.1c0.2,0.1,0.3,0.1,0.5,0.2c0.2,0,0.3,0.1,0.5,0.2
			c-0.1-0.1-0.1-0.2-0.2-0.2C243.4,272.1,243.3,272,243.1,271.9z"/>
		<path class="st0" d="M238.6,269.6c-1.4-0.3-2.9-0.6-4.3-0.7c-1.4-0.1-2.7-0.2-3.7-0.2c-0.5,0-1,0-1.5,0c0,0.2,0,0.4,0,0.6
			c-0.2,4-0.5,8.1-0.7,12.1c0.8,0,1.6,0.1,2.4,0.1c0.2-3.4,0.4-6.8,0.6-10.3c0-0.2,0-0.4,0-0.5c0.5,0,0.9,0,1.4-0.1
			c2.1,0.1,4.7,0.3,7.6,0.8C239.8,270.5,239.2,269.9,238.6,269.6z"/>
		<path class="st0" d="M222,338.8c5,1.2,10,2.3,15,3.4c2.1-1.8,4.2-3.6,6.2-5.4c-0.8-0.7-1.6-1.5-2.4-2.2c-0.7,0.5-1.5,0.8-2.2,1
			c-0.8,0.2-1.5,0.3-2.2,0.3c-2.1-0.1-4.2-0.3-6.3-0.6c-2.1-0.3-3.8-0.7-5.2-1c-0.2,0-0.3-0.1-0.5-0.1c-0.5-0.1-1-0.2-1.5-0.3
			c0-0.1,0-0.2,0-0.3c0.9-15.3,1.9-30.6,2.8-45.9c3.3,0.3,6.7,0.5,10.1,0.8c1.1,0.1,2.3,0.2,3.4,0.3c0.1,0.2,0.1,0.5,0.2,0.8
			c0.1,0.3,0.1,0.7,0.2,1c1.1,0.1,2.1,0.2,3.2,0.2c-0.3-1.6-0.6-3.2-0.9-4.8c0.5-1.5,1-3,1.4-4.5c-1.1-0.1-2.1-0.1-3.2-0.2
			c-0.2,0.7-0.4,1.3-0.6,1.7c-4.5-0.3-9-0.5-13.5-0.8c0.3-5,0.6-10.1,0.9-15.1c0-0.2,0-0.4,0-0.6c0.5,0,1,0,1.5,0c0,0,0.1,0,0.1,0
			c1.2,0,2.7,0.1,4.4,0.3c1.7,0.2,3.5,0.4,5.1,0.8c0,0-0.1,0-0.1,0c1.4,0.2,2.7,1.3,3.8,3.2c1-0.3,2-0.6,3-0.9
			c-0.1-0.4-0.3-0.9-0.6-1.7c-0.3-0.7-0.5-1.5-0.7-2.4c-0.3-0.9-0.6-1.9-0.8-2.9c-5.3,0-10.7,0-16,0c-3.3,0.3-6.5,0.5-9.8,0.8
			c-5-0.3-10-0.6-15.1-0.9c0,0.8-0.1,1.6-0.1,2.3c1.2,0.2,2.2,0.5,3,0.8c0.8,0.3,1.3,0.8,1.7,1.3c-0.5,9.5-1.1,19-1.6,28.4
			c-0.9-0.1-1.7,0-2.3,0.4c-0.6,0.4-0.9,0.9-1,1.7c0,0.7,0.2,1.4,0.8,1.9c0.6,0.6,1.3,0.9,2.2,1.1c-0.5,9.5-1.1,19.1-1.6,28.6
			c-0.7,0.8-2.3,1.1-4.7,0.8c0,0.7-0.1,1.5-0.1,2.2c4.9,1.1,9.7,2.1,14.6,3C215.7,336.7,218.8,337.8,222,338.8z"/>
		<path class="st0" d="M244.8,285.8c-0.3,0.8-0.5,1.7-0.8,2.5c0.3,1.6,0.6,3.2,0.9,4.8c-1.1-0.1-2.1-0.2-3.2-0.3
			c0-0.3,0-0.6-0.1-0.8c-0.7-0.1-1.4-0.1-2.2-0.2c-0.4,0-0.8-0.1-1.1-0.1c-0.1-0.3-0.1-0.7-0.2-1c-3.4-0.3-6.9-0.5-10.3-0.8
			c-0.9,14.5-1.8,28.9-2.7,43.4c0.3,0.1,0.7,0.1,1.1,0.2c0.4,0,0.8,0.1,1.2,0.2c0.9-13.8,1.8-27.7,2.7-41.5c4.5,0.4,9,0.8,13.5,1.2
			c0.1,0.2,0.1,0.4,0.2,0.8c0.1,0.4,0.1,0.7,0.2,0.9c1.1,0.1,2.1,0.2,3.2,0.3c-0.3-1.6-0.7-3.2-1-4.7c0.5-1.5,1-3.1,1.6-4.7
			C246.8,285.9,245.8,285.9,244.8,285.8z"/>
		<path class="st0" d="M244.8,340c-1.9,1.7-3.7,3.3-5.6,4.9c-5.1-1.1-10.1-2.3-15.1-3.5c-3.2-1.1-6.3-2.1-9.4-3.2
			c-4.2-0.8-8.3-1.7-12.4-2.5c0,0.7-0.1,1.3-0.1,2c4.9,1.1,9.8,2.1,14.7,3.1c3.2,1.1,6.4,2.2,9.6,3.3c5,1.2,10,2.4,15,3.5
			c2.1-1.8,4.2-3.6,6.3-5.4c-0.8-0.7-1.6-1.5-2.4-2.2C245.1,339.8,244.9,339.8,244.8,340z"/>
		<path class="st0" d="M247.1,272.1c0,0-0.1,0-0.1,0c0,0,0.1,0.1,0.1,0.1c-0.9,0.2-1.8,0.5-2.7,0.7c0.7,0.6,1.3,1.3,1.8,2.2
			c1-0.3,2.1-0.5,3.1-0.8c0,0,0-0.1,0-0.1c-0.1-0.4-0.3-1-0.6-1.7c-0.3-0.8-0.5-1.6-0.7-2.4c-0.3-0.9-0.6-1.9-0.8-3
			c-0.6,0-1.1,0-1.7,0c0.3,0.8,0.6,1.7,0.9,2.8C246.7,270.9,246.9,271.7,247.1,272.1z"/>
		<path class="st0" d="M278.4,317.5c-0.3-0.4-0.6-0.9-0.9-1.3c-0.3-0.4-0.6-0.8-1-1.3c-0.2,0.1-0.4,0.1-0.8,0
			c-0.3,0-0.6-0.1-0.8-0.2c0.3,1.6,1.3,2.5,3,2.6C278.1,317.5,278.2,317.5,278.4,317.5z"/>
		<path class="st0" d="M273.5,331.1c-0.1,0.6-0.2,1-0.3,1.3c-0.2,0.7-0.4,1.9-0.6,3.7c-0.2,1.8-0.2,3.5,0,5.1
			c0.1,0.1,0.2,0.2,0.2,0.3c0.6,0.7,1.2,1.2,2,1.7c-0.1-1.6,0-3.3,0.2-4.9c0.2-1.6,0.4-2.7,0.6-3.3c0-0.3,0.1-0.8,0.3-1.4
			c0.2-0.6,0.3-1.2,0.5-1.8c0.2-0.6,0.3-1.2,0.5-1.6c0.2-0.5,0.2-0.8,0.3-0.9c-0.4,0-0.9,0-1.4,0.1c-0.5,0-1,0.1-1.6,0.1
			C273.8,330,273.6,330.5,273.5,331.1z"/>
		<path class="st0" d="M306.7,326.3c-0.3-2.3-1.1-4.6-2.2-6.9c-0.3-0.6-0.7-1.3-1.1-1.9c-0.4-0.6-0.8-1.3-1.2-1.9
			c0.3,0.7,0.6,1.4,0.7,2c0.2,0.7,0.3,1.3,0.5,2c0.2,0.7,0.4,1.4,0.6,2c0.2,0.7,0.3,1.3,0.3,2c0.2,1.1,0.4,2.3,0.5,3.4
			c0.1,1.1,0.1,2.2,0.1,3.3c-0.1,2.3-0.5,4.6-1,6.9c-0.6,2.3-1.4,4.5-2.6,6.5c-1.1,2-2.7,3.8-4.8,5.4c-2.1,1.6-5,2.7-8.6,3.3
			c-3.4,0.7-7.2,0.5-11.3-0.4c-1.5-0.3-2.8-0.8-4.2-1.4c-1.3-0.6-2.6-1.2-3.7-1.8c-0.7-0.3-1.4-0.6-2-1c-0.7-0.4-1.3-0.7-2-1.1
			c0.7,0.6,1.3,1.2,2,1.8c0.7,0.6,1.4,1.1,2.2,1.7c1.2,0.9,2.8,1.7,4.5,2.5c1.8,0.8,3.6,1.5,5.4,2c4.2,0.9,8,1,11.4,0.3
			c3.6-0.6,6.5-1.7,8.6-3.3c2.1-1.6,3.7-3.4,4.8-5.3c1.2-2.1,2-4.3,2.6-6.6c0.6-2.3,0.9-4.7,1-7c0.1-1.1,0-2.2-0.1-3.4
			C306.9,328.5,306.8,327.4,306.7,326.3z"/>
		<path class="st0" d="M278.1,277.2c0.1-0.6,0.3-1.2,0.5-1.7c0.2-0.6,0.5-1,0.9-1.4c1-0.9,2.3-1.4,3.8-1.6c-0.2-1-0.6-1.7-1.3-2.2
			c-0.3,0-0.5,0-0.8,0c-0.9,0.1-1.7,0.3-2.3,0.6c-0.6,0.3-1.2,0.7-1.6,1.1c-0.7,0.7-1.2,1.8-1.5,3.2c-0.3,1.4-0.4,2.4-0.3,3
			c0,0.6,0.1,1.3,0.1,1.9c0,0.6,0.1,1.2,0.2,1.9c0.6,1.2,1.6,2.9,2.9,4.9c-0.5-1.1-0.7-2.1-0.8-3.2c-0.1-1.1-0.2-2.1-0.2-3.2
			c0-0.2,0.1-0.6,0.1-1.2C277.9,278.4,278,277.8,278.1,277.2z"/>
		<path class="st0" d="M274.3,349.6c0.5,0.1,1,0.2,1.5,0.3c3.4,0.6,6.7,0.7,9.8,0.1c3.6-0.6,6.5-1.7,8.6-3.3
			c2.1-1.6,3.7-3.4,4.8-5.4c1.2-2.1,2-4.2,2.6-6.5c0.6-2.3,0.9-4.6,1-6.9c0.1-1.2,0-2.3-0.1-3.4c-0.2-1.1-0.3-2.2-0.4-3.3
			c-0.1-1.2-0.4-2.4-0.7-3.5c-0.4-1.1-0.8-2.2-1.4-3.4c-1.1-2-2.4-4-4-5.9c-1.5-1.9-3.2-3.8-4.9-5.6c0.6-0.6,0.8-1.3,0.9-1.9
			c0.1-0.9-0.2-1.7-0.8-2.4c-0.6-0.7-1.4-1-2.3-1.1c-0.9-0.1-1.6,0.2-2.4,0.8c-0.6-0.7-1.3-1.3-1.8-1.9c-0.6-0.6-1.1-1.2-1.7-1.8
			c-0.6-0.7-1.4-1.6-2.3-2.8c-0.9-1.2-1.7-2.3-2.6-3.5c-0.8-1.2-1.6-2.3-2.3-3.5c-0.7-1.2-1.2-2.1-1.5-2.8c-0.5-1-0.7-2-0.8-3.1
			c-0.1-1.1-0.2-2.2-0.2-3.2c-0.1-0.6,0-1.5,0.3-2.9c0.3-1.4,0.7-2.5,1.5-3.3c0.5-0.4,1-0.7,1.6-1c0.6-0.3,1.4-0.4,2.3-0.5
			c0.1,0,0.3,0,0.4,0c1.4,0,2.5,0.4,3.4,1.1c1.1,0.8,1.7,1.8,1.9,2.9c0.2,1.1,0.2,2.1,0.1,3c0,0.7-0.2,1.5-0.5,2.4
			c-0.3,1-0.6,1.9-0.9,2.9c-0.4,1.1-0.8,2.3-1.2,3.5c6.4-1.3,12.8-2.6,19.2-4.1c-0.1-0.7-0.2-1.3-0.4-1.9c-0.1-0.5-0.3-1-0.6-1.6
			c-0.2-0.6-0.4-1-0.6-1.5c-0.5-1-1.2-2-1.8-3.1c-0.7-1-1.5-2-2.5-2.9c-1.6-1.6-3.8-3-6.6-4.1c-2.8-1.1-6-1.7-9.6-1.7
			c-0.4,0-0.8,0-1.2,0c-3.7,0.2-6.9,0.8-9.7,1.9c-2.8,1.1-5.2,2.4-7.2,3.8c-2.2,1.6-3.6,3.3-4.2,5c-0.6,1.8-1,3.4-1.4,5
			c-0.4,1.8-0.3,3.5,0.2,5.3c0.5,1.8,1.1,3.6,2,5.5c0.8,2,1.8,3.9,2.9,5.6c0.6,0.9,1.3,1.8,2,2.6c0.7,0.8,1.5,1.7,2.3,2.7
			c1,1.2,2,2.3,3.1,3.4c1.1,1.1,2.2,2.2,3.4,3.3c-0.6,0.6-0.9,1.3-0.9,2.1c-0.1,0.9,0.2,1.6,0.8,2.2c0.6,0.6,1.3,1,2.3,1.1
			c0.8,0.1,1.6-0.1,2.4-0.6c0.2,0.2,0.3,0.4,0.4,0.5c0.1,0.2,0.3,0.4,0.4,0.5c0.9,1.1,1.7,2.2,2.5,3.3c0.8,1.1,1.5,2.3,2.1,3.5
			c0.5,1.1,1,2.2,1.2,3.4c0.3,1.1,0.6,2.2,0.8,3.3c0.1,0.5,0.1,1.3,0.2,2.5c0.1,1.2,0.1,2.4,0,3.7c0,1.3-0.1,2.6-0.2,3.9
			c-0.1,1.3-0.2,2.3-0.3,3c-0.2,0.9-0.5,1.8-0.9,2.8c-0.4,1-1.3,1.7-2.7,2.2c-1.1,0.4-2.2,0.5-3.5,0.3c-0.5-0.1-0.9-0.2-1.2-0.3
			c-0.9-0.3-1.5-0.7-2-1.1c-0.5-0.4-0.9-0.8-1.3-1.3c-0.7-0.7-1.1-1.6-1.3-2.8c-0.2-1.2-0.3-2.4-0.2-3.7c0-1.2,0.1-2.4,0.3-3.5
			c0.2-1.1,0.4-1.9,0.5-2.5c0.1-0.3,0.2-0.8,0.4-1.3c0.2-0.6,0.3-1.2,0.5-1.8c0.2-0.6,0.3-1.1,0.5-1.6c0.2-0.5,0.2-0.8,0.2-0.9
			c-1.3,0.1-3.1,0.2-5.5,0.4c-2.3,0.2-4.6,0.4-6.9,0.6c-2.7,0.2-5.5,0.4-8.5,0.6c0.1,0.1,0.1,0.2,0.1,0.2c0,0.2,0,0.4,0.1,0.5
			c0,0.2,0.1,0.5,0.3,1.2c0.2,0.6,0.5,1.3,0.7,2c0.3,0.7,0.5,1.4,0.8,2.1c0.3,0.7,0.5,1.2,0.6,1.5c0.5,1.1,1.1,2.2,1.7,3.3
			c0.6,1.1,1.2,1.9,1.7,2.5c0.9,1,1.9,2.1,3,3.1c1.1,1.1,2.4,2.1,3.8,3.1c1.2,0.9,2.7,1.7,4.5,2.5
			C270.6,348.5,272.4,349.2,274.3,349.6z"/>
		<path class="st0" d="M295.2,305.2c0.3,0.4,0.7,0.8,1.1,1.3c0.1-0.2,0.2-0.4,0.2-0.7c0.1-1.6-0.7-2.7-2.3-3.2
			c0.1,0.2,0.1,0.4,0.1,0.8c0,0.3-0.1,0.5-0.2,0.6C294.5,304.4,294.9,304.8,295.2,305.2z"/>
		<path class="st0" d="M302.9,279.6c0.1,0.4,0.2,0.8,0.3,1.2c0.1,0.4,0.3,0.9,0.3,1.3c-5.3,1.2-10.6,2.3-15.9,3.4
			c-0.2,0.4-0.3,0.8-0.5,1.2c-0.1,0.4-0.2,0.7-0.3,1c-0.1,0.3-0.2,0.6-0.3,0.9c6.4-1.3,12.9-2.7,19.3-4.1c-0.1-0.7-0.3-1.3-0.5-1.9
			c-0.1-0.5-0.3-1.1-0.5-1.6c-0.2-0.6-0.4-1-0.5-1.5c-0.6-1.3-1.5-2.7-2.6-4.1c0.3,1,0.6,2,0.9,3.1
			C302.7,278.8,302.8,279.3,302.9,279.6z"/>
		<path class="st0" d="M360.8,271.4c-1.4-0.4-2.9-0.6-4.3-0.8c-1.5-0.1-2.7-0.2-3.7-0.2c-0.5,0-1,0-1.5,0
			c-0.4,11.4-0.9,22.9-1.3,34.3c1.3,0.8,2,1.9,2.2,3.4c0.4-11.7,0.9-23.5,1.3-35.2c0.5,0,1,0,1.5,0c2.1,0,4.7,0.3,7.7,0.9
			C362,272.6,361.4,271.8,360.8,271.4z"/>
		<path class="st0" d="M366.3,269.8c-0.3-1-0.5-1.9-0.7-3c-0.3-1.1-0.6-2.3-0.9-3.6c-3.6,0-7.2,0-10.8,0c-5.1,0.4-10.1,0.9-15.2,1.3
			c-5.1-0.5-10.1-0.9-15.2-1.3c-3.5,0-7.1,0-10.6,0c-0.5,1.2-0.9,2.3-1.3,3.3c-0.4,0.9-0.7,1.9-1,2.8c-0.3,0.9-0.5,1.6-0.7,2
			c1,0.4,1.9,0.8,2.9,1.2c1.3-2.1,2.7-3.3,4.2-3.6c1.7-0.4,3.7-0.7,5.9-0.9c2.2-0.2,3.9-0.2,5.1-0.2c0.1,0,0.2,0,0.3,0
			c-0.6,12.2-1.1,24.4-1.7,36.6c-1-0.1-1.8,0.2-2.4,0.9c-0.7,0.6-1,1.4-1.1,2.4c0,1,0.2,1.8,0.9,2.4c0.6,0.7,1.4,1,2.4,1.1
			c-0.6,13.5-1.2,26.9-1.9,40.4c-0.8,1.2-2.4,1.9-5,2.1c0,1-0.1,2-0.1,3c5.1,0.3,10.2,0.5,15.3,0.7c5.1,0.9,10.2,1.8,15.3,2.6
			c0-1.1,0.1-2.3,0.1-3.4c-0.7-0.2-1.5-0.6-2.4-1.1c-0.9-0.5-1.6-1.1-2-1.7c0.5-13.8,1.1-27.6,1.6-41.4c1,0,1.7-0.2,2.4-0.8
			c0.6-0.6,1-1.4,1-2.4c0-1-0.2-1.8-0.8-2.5c-0.6-0.7-1.3-1.1-2.3-1.1c0.5-12.5,1-25,1.5-37.5c0.5,0,1,0,1.5,0c0,0,0.1,0,0.1,0
			c1.2,0,2.6,0.1,4.4,0.3c1.7,0.2,3.4,0.5,5.1,1c1.4,0.3,2.7,1.6,3.9,3.9c1-0.4,2-0.8,3-1.2C366.8,271.4,366.6,270.7,366.3,269.8z"
			/>
		<path class="st0" d="M349.5,314.9c-0.5,13-1,26-1.5,39.1c0.8,0.6,1.6,1,2.3,1.2c0.5-12.5,0.9-25,1.4-37.5c1,0.1,1.8-0.2,2.5-0.9
			c0.7-0.6,1-1.5,1.1-2.5c0.1-1.7-0.7-2.8-2.4-3.4c0,0.2,0,0.3,0.1,0.4c0,0.1,0.1,0.2,0,0.4c0,1-0.4,1.8-1.1,2.4
			C351.3,314.7,350.5,314.9,349.5,314.9z"/>
		<path class="st0" d="M323.8,273.4c0.9-0.1,1.8-0.3,2.7-0.4c0-0.9,0.1-1.8,0.1-2.6c-1.2,0.2-2.5,0.3-3.8,0.4
			c-1.3,0.1-2.6,0.3-3.7,0.5c0,0,0,0.1,0,0.1c-1.5,0.2-2.8,1.3-4,3.4c-0.1,0-0.2-0.1-0.3-0.1c-0.2,0.3-0.3,0.5-0.4,0.7
			c-0.1,0.2-0.1,0.4-0.2,0.6c0,0,0.1,0,0.1,0c0,0-0.1,0.1-0.1,0.1c1,0.4,2,0.7,3,1.1c1.3-2.1,2.7-3.3,4.2-3.4c0,0-0.1,0-0.1,0
			C322.1,273.6,322.9,273.5,323.8,273.4z"/>
		<path class="st0" d="M352.2,362.6c-5.1-0.8-10.1-1.7-15.2-2.6c-4.4-0.2-8.7-0.4-13.1-0.6c0,0.8-0.1,1.7-0.1,2.5
			c5.1,0.3,10.3,0.6,15.5,0.9c5.1,0.9,10.1,1.7,15.2,2.5c0-1.1,0.1-2.2,0.1-3.3c-0.9-0.3-1.7-0.6-2.4-1
			C352.2,361.6,352.2,362.1,352.2,362.6z"/>
		<path class="st0" d="M369.2,274.4c-0.9,0.4-1.7,0.7-2.6,1.1c0.7,0.6,1.3,1.4,1.8,2.6c1-0.4,2.1-0.7,3.1-1.1c0,0,0-0.1,0-0.1
			c-0.2-0.5-0.4-1.2-0.6-2.1c-0.3-0.9-0.5-1.9-0.7-2.9c-0.3-1.1-0.6-2.3-0.9-3.6c-0.6,0-1.1,0-1.7,0c0.3,1,0.6,2.1,0.9,3.4
			C368.8,273,369.1,273.8,369.2,274.4z"/>
		<path class="st0" d="M384.7,362.6c0,0.6,0,1.1,0,1.7c-3.1-0.6-6.2-1.1-9.3-1.7c-2.3,0.1-4.5,0.2-6.8,0.3c0,0.9-0.1,1.8-0.1,2.8
			c3.1-0.1,6.2-0.2,9.4-0.3c3.1,0.5,6.2,1.1,9.3,1.6c0-1.1,0.1-2.2,0.1-3.3c-0.4-0.2-0.9-0.4-1.3-0.5
			C385.6,363,385.2,362.8,384.7,362.6z"/>
		<path class="st0" d="M414,309.2c-1.8-13.9-3.6-27.7-5.4-41.6c-0.6,0-1.3,0.1-1.9,0.1c1.7,13.3,3.4,26.6,5.1,40
			C412.6,308.2,413.4,308.7,414,309.2z"/>
		<path class="st0" d="M424.8,364.7c-0.7-0.2-1.3-0.4-1.7-0.6c0,0.6,0,1.1,0,1.7c-5.1-0.5-10.2-1-15.2-1.6
			c-4.2,0.2-8.4,0.3-12.6,0.5c0,0.9,0,1.8-0.1,2.7c5-0.1,10.1-0.2,15.1-0.3c5,0.5,10.1,1,15.1,1.4c0-1.1,0-2.3,0-3.4
			c-0.2,0-0.4,0-0.7,0C424.8,364.9,424.8,364.8,424.8,364.7z"/>
		<path class="st0" d="M413.2,318.8c1.6,12.8,3.3,25.5,5,38.3c0.3,0.2,0.6,0.4,1,0.5c0.4,0.2,0.8,0.3,1.3,0.4
			c-1.7-12.2-3.3-24.3-4.9-36.5c0.8-0.2,1.5-0.6,2.1-1.2c0.6-0.6,0.9-1.4,0.9-2.2c0-1.9-0.8-3.1-2.5-3.6c0,0.2,0,0.3,0.1,0.4
			c0,0.1,0.1,0.2,0.1,0.4c0,0.9-0.3,1.7-0.9,2.4C414.7,318.4,414,318.7,413.2,318.8z"/>
		<path class="st0" d="M384.1,349.8c0.2-1.2,0.4-2.4,0.6-3.6c2.5,0.1,5,0.2,7.6,0.4c-0.1-0.8-0.2-1.7-0.3-2.5
			c-3.2-0.1-6.4-0.3-9.7-0.4c-0.2,1.6-0.4,3.1-0.6,4.6c-0.2,1.3-0.4,2.6-0.6,4.1c-0.2,1.4-0.4,2.6-0.6,3.7c0.6,0.4,1.4,0.7,2.2,0.8
			c0.1,0,0.3,0,0.4,0c0.2-1,0.4-2.2,0.5-3.5C383.7,351.9,383.9,350.8,384.1,349.8z"/>
		<path class="st0" d="M420.7,363.2c0-1.2,0-2.4,0-3.5c-2.1-0.3-3.6-1.1-4.5-2.4c-1.8-13.7-3.7-27.4-5.4-41.1
			c1.9-0.2,2.9-1.4,2.9-3.5c0-1-0.3-1.9-0.9-2.6c-0.6-0.7-1.4-1-2.3-1c-0.2,0-0.3,0-0.5,0c-2-15.6-4-31.2-5.9-46.7
			c-3.3,0.4-6.6,0.7-9.9,1.1c-3.2-0.4-6.4-0.7-9.6-1.1c-2.5,15.4-5.1,30.7-7.7,45.9c-0.2,0-0.3,0-0.5,0c-1,0-1.7,0.3-2.4,0.9
			c-0.6,0.6-1,1.4-1,2.5c-0.1,2,0.9,3.2,2.8,3.6c-2.2,12.8-4.5,25.6-6.8,38.3c0,0.1,0,0.2,0,0.3c0,0.1,0,0.2-0.1,0.3
			c0,0.1-0.1,0.2-0.1,0.3c-0.6,1.4-2.2,2.3-5,2.5c0,1.1-0.1,2.3-0.1,3.4c3.1-0.1,6.2-0.3,9.3-0.4c3.1,0.6,6.2,1.2,9.3,1.7
			c0-1.2,0.1-2.3,0.1-3.5c-2.4-0.6-3.9-1.6-4.6-2.9c0-0.5,0.1-1.5,0.4-3c0.3-1.6,0.5-3.2,0.7-5c0.3-1.9,0.6-4.1,1-6.5
			c4.4,0.2,8.8,0.4,13.2,0.6c0.7,4.9,1.4,9.9,2.1,14.8c-0.9,1.3-2.5,2.1-4.8,2.4c0,1.2-0.1,2.3-0.1,3.5c5-0.1,10.1-0.3,15.1-0.4
			C410.5,362.2,415.6,362.8,420.7,363.2z M380.6,336.3c2.1-14.5,4.2-29.1,6.2-43.7c1.9,14.7,3.7,29.5,5.7,44.3
			C388.5,336.6,384.6,336.4,380.6,336.3z"/>
		<path class="st0" d="M386.3,334.8c0.7-5.5,1.5-10.9,2.2-16.4c-0.4-3.4-0.8-6.7-1.2-10.1c-1.3,8.8-2.5,17.6-3.8,26.3
			C384.5,334.8,385.4,334.8,386.3,334.8z"/>
		<path class="st0" d="M459.5,322.2c1,0,1.8-0.3,2.4-1c0.6-0.7,0.9-1.5,0.9-2.6c0-1.9-0.9-3.1-2.5-3.5c0.1,0.2,0.1,0.5,0.1,0.8
			c0,1-0.3,1.9-1,2.6c-0.7,0.7-1.5,1.1-2.4,1.1c0,6.6,0.1,13.2,0.1,19.8c0,1.3,0.1,2.6,0.2,3.9c0.1,1.3,0.2,2.5,0.4,3.7
			c0.7,1.3,1.6,2.3,2.5,2.9c-0.3-1.3-0.5-2.6-0.6-4c-0.1-1.3-0.2-2.6-0.2-4c0-6.6-0.1-13.3-0.1-19.9
			C459.4,322.2,459.4,322.2,459.5,322.2z"/>
		<path class="st0" d="M456.7,272.3c0.1,12.2,0.1,24.4,0.2,36.6c1.3,0.7,2.1,1.9,2.4,3.5c-0.1-12.5-0.2-25.1-0.2-37.6
			c0.8-1.4,2.3-2.4,4.6-2.8c0-1.2,0-2.4,0-3.7c-0.8,0-1.5,0.1-2.3,0.1c0,0.3,0,0.7,0,1c-1.1,0.2-2.1,0.5-2.9,1
			C457.6,271,457,271.6,456.7,272.3z"/>
		<path class="st0" d="M453.2,363.4c1.3,0.2,2.2,0.3,2.7,0.3c1.9,0.3,3.7,0.4,5.5,0.3c4.7-0.1,8.7-0.8,11.8-2c3.1-1.2,5.6-2.9,7.5-5
			c1.8-2.1,3.1-4.5,3.9-7.3c0.8-2.8,1.1-5.8,1-9.1c0-2.5-0.1-4.9-0.1-7.1c0-2.2-0.1-4.7-0.2-7.6c-0.1-2.9-0.2-6-0.2-9.3
			c1-0.1,1.8-0.5,2.4-1.2c0.6-0.7,1-1.5,0.9-2.5c0-1-0.4-1.9-1-2.5c-0.7-0.6-1.5-1-2.4-0.9c-0.2-13.3-0.5-26.6-0.7-39.9
			c0.7-1.5,2.2-2.5,4.7-3c0-1.2,0-2.4-0.1-3.6c-2.9,0.5-5.7,0.9-8.6,1.4c-3-0.5-6.1-0.9-9.1-1.4c0,1.2,0,2.4,0,3.7
			c2.4,0.5,4,1.5,4.7,2.9c0.2,13.3,0.4,26.7,0.6,40c-1,0-1.8,0.4-2.4,1c-0.6,0.7-1,1.5-0.9,2.6c0,1,0.4,1.9,1,2.6
			c0.7,0.7,1.5,1,2.4,1c0.1,7.5,0.2,14.9,0.3,22.4c0,2.5-0.3,4.8-1,6.8c-0.7,1.7-1.7,3.3-3.2,4.7c-1.4,1.4-3.7,2.2-6.7,2.3
			c-2.7,0.1-4.8-0.4-6.3-1.4c-1.5-1-2.7-2.2-3.4-3.8c-0.8-1.5-1.2-3.3-1.4-5.2c-0.2-1.9-0.3-3.8-0.3-5.7c0-6.6-0.1-13.2-0.1-19.8
			c1,0,1.8-0.4,2.4-1.1c0.7-0.7,1-1.6,1-2.6c0-1-0.3-1.9-1-2.5c-0.7-0.7-1.5-1-2.4-1c-0.1-13.4-0.1-26.9-0.2-40.3
			c0.8-1.4,2.3-2.4,4.6-2.8c0-1.2,0-2.5,0-3.7c-4.8,0.5-9.7,0.9-14.5,1.4c-4.9-0.5-9.7-0.9-14.6-1.4c0,1.2,0,2.5,0,3.7
			c2.4,0.5,3.9,1.5,4.6,3c0,1.6,0,3.9,0,6.8c0,2.9,0,6.2-0.1,9.8c-0.1,3.6-0.1,7.4-0.2,11.5c-0.1,4.1-0.1,8.1-0.2,12.1
			c-1,0-1.8,0.3-2.4,1c-0.7,0.7-1,1.5-1,2.5c0,1,0.3,1.9,1,2.6c0.7,0.7,1.5,1.1,2.4,1.1c0,3.5-0.1,6.8-0.1,9.8c-0.1,3,0,5.6,0,7.6
			c0,0.2,0,0.5,0,0.7c0,0.6,0,1.2,0,1.8c0,4.1,0.4,7.5,1.4,10.4c0.9,2.9,2.1,5.3,3.6,7.2c1.5,1.9,3.1,3.5,4.9,4.7
			c1.7,1.2,3.5,2.1,5.1,2.7C450.5,362.8,451.9,363.2,453.2,363.4z"/>
		<path class="st0" d="M490.7,314.6c0.1,0.2,0.1,0.5,0.1,0.8c0,1-0.3,1.9-0.9,2.6c-0.6,0.7-1.4,1.1-2.3,1.1c0.1,8,0.3,16,0.4,24
			c0.1,3.3-0.3,6.3-1,9.1c-0.7,2.8-2,5.2-3.9,7.3c-1.8,2.1-4.3,3.7-7.5,5c-3.2,1.2-7.1,1.9-11.7,2c-1,0-1.9,0-2.8,0
			c-0.9,0-1.8-0.1-2.7-0.2c-0.6-0.1-1.7-0.3-3.2-0.5c-1.5-0.3-3.2-0.8-5.1-1.7c-0.7-0.2-1.4-0.4-2.1-0.6c-0.7-0.2-1.3-0.5-1.9-0.9
			c1.4,1.3,2.9,2.4,4.4,3.2c1.5,0.8,3,1.4,4.4,1.9c1.4,0.5,2.6,0.7,3.7,0.9c1.1,0.1,1.8,0.2,2.3,0.3c0.9,0.1,1.8,0.1,2.7,0.2
			c0.9,0,1.8,0,2.8,0c4.6-0.1,8.5-0.8,11.7-2c3.2-1.2,5.6-2.9,7.5-5c1.8-2.1,3.1-4.5,3.9-7.3c0.7-2.8,1.1-5.8,1-9.1
			c-0.2-8-0.3-16-0.5-23.9c1,0,1.7-0.4,2.3-1c0.6-0.7,0.9-1.5,0.9-2.5C493.2,316.2,492.4,315.1,490.7,314.6z"/>
		<path class="st0" d="M491.4,269.4c-2.4,0.5-3.9,1.4-4.6,2.8c0.2,12.1,0.4,24.2,0.7,36.3c1.4,0.9,2.2,2.2,2.4,4
			c-0.2-12.6-0.5-25.2-0.7-37.8c0.7-1.4,2.3-2.3,4.6-2.8c0-1.2-0.1-2.4-0.1-3.6c-0.8,0.1-1.5,0.2-2.3,0.3
			C491.4,268.9,491.4,269.2,491.4,269.4z"/>
		<path class="st0" d="M549.7,284c0.9,2.1,1.6,4.5,2.2,7.3c0.6,2.7,1,5.8,1.1,9.1c0.3,6.5-0.5,11.7-2.3,15.9c-1.8,4.1-4,7.4-6.7,9.9
			c-2.6,2.5-5.2,4.3-7.8,5.3c-2.6,1.1-4.5,1.8-5.8,2.2c0.5,0.4,0.9,0.8,1.3,1.2c0.4,0.4,0.8,0.7,1.3,1.1c1.3-0.4,3.3-1.1,5.9-2.2
			c2.6-1.1,5.2-2.9,7.7-5.3c2.5-2.5,4.7-5.8,6.5-9.9c1.8-4.1,2.6-9.4,2.3-15.8c-0.3-5.7-1.1-10.5-2.5-14.2c-1.4-3.8-3.2-6.9-5.2-9.5
			c0.4,0.8,0.7,1.6,1.1,2.4C549.1,282.2,549.4,283.1,549.7,284z"/>
		<path class="st0" d="M525.8,354.7c0.5,0.3,1.3,0.6,2.4,0.8c-0.1-2.9-0.2-5.8-0.3-8.7c-1-1.1-1.8-2.3-2.5-3.5
			C525.6,347,525.7,350.9,525.8,354.7z"/>
		<path class="st0" d="M556.2,361.9c-1.1-0.1-2.1-0.3-3.2-0.4c-1.1-0.1-2.1-0.4-3.1-0.7c-1.2-0.2-2.3-0.5-3.3-0.8
			c-1.1-0.3-2.1-0.7-3.1-1.1c2.1,1.3,4.4,2.5,6.9,3.4c2.5,0.9,5.3,1.5,8.4,1.8c-0.3-7.7-0.7-15.4-1-23.2c-0.5,0.5-1.3,1.1-2.4,1.7
			C555.7,349,555.9,355.4,556.2,361.9z"/>
		<path class="st0" d="M553.7,359.6c-0.3-7.7-0.7-15.4-1-23.2c-0.7,0.5-1.9,1.3-3.7,2.3c-1.8,1-3.9,1.6-6.3,1.8
			c-2.4,0.2-5-0.3-7.8-1.4c-2.8-1.2-5.6-3.6-8.4-7.5c4.7-1,8.8-2.9,12.4-5.5c1.5-1.2,3-2.6,4.5-4.2c1.5-1.6,2.7-3.6,3.8-5.8
			c1.1-2.3,1.9-4.9,2.5-7.8c0.6-3,0.8-6.3,0.7-10.1c-0.3-7.5-1.6-13.4-3.9-17.8c-2.3-4.4-5-7.8-8.1-10.1c-3.1-2.3-6.4-3.8-9.8-4.5
			c-3.4-0.7-6.5-1-9.1-1c-3,0.4-6,0.8-8.9,1.3c-4.8-0.4-9.6-0.8-14.4-1.2c0,1.2,0.1,2.4,0.1,3.6c2.4,0.5,4,1.4,4.7,2.8
			c0.3,13,0.6,26,1,38.9c-1,0-1.7,0.4-2.3,1.1c-0.6,0.7-0.9,1.6-0.9,2.6c0,1,0.3,1.9,1,2.5c0.6,0.6,1.4,0.9,2.4,0.9
			c0.3,12.9,0.6,25.8,0.9,38.7c-0.7,1.4-2.3,2.5-4.7,3c0,1.2,0.1,2.4,0.1,3.6c5-0.7,10-1.4,15-2.2c4.9,0.1,9.9,0.1,14.8,0.1
			c0-1.2-0.1-2.4-0.1-3.6c-1.2-0.1-2.2-0.3-3-0.7c-0.9-0.4-1.5-0.9-1.8-1.6c-0.2-6.5-0.4-13.1-0.6-19.6c1.9,4.4,4.3,8.3,7.3,11.7
			c1.2,1.5,2.6,2.9,4.3,4.4c1.6,1.5,3.4,2.8,5.4,4c1.9,1.2,4.1,2.2,6.5,3C548.4,358.9,551,359.4,553.7,359.6z M522.1,326
			c-0.6-18.3-1.2-36.7-1.8-55c0.3,0,0.7,0,1,0c0.6,0,1.4,0,2.4,0.1c1,0,1.9,0.2,2.8,0.4c0.9,0.2,1.7,0.6,2.4,1
			c0.7,0.4,1.1,1,1.1,1.8c0.6,15.7,1.1,31.5,1.7,47.2c-0.1,0.8-0.5,1.5-1.2,2.1c-0.7,0.6-1.7,1.1-3,1.6
			C526.3,325.5,524.5,325.8,522.1,326z"/>
		<path class="st0" d="M530.9,362.8c-5,0-9.9,0-14.9,0c-4.2,0.7-8.4,1.3-12.6,2c0,0.9,0,1.9,0.1,2.8c5-0.8,10-1.6,15-2.4
			c5,0.1,10,0.1,14.9,0.1c0-1.2-0.1-2.4-0.1-3.5c-1,0-1.8-0.2-2.4-0.6C530.8,361.6,530.9,362.2,530.9,362.8z"/>
		<path class="st0" d="M527.4,275.9c0.4,0,0.8,0.1,1.2,0.1c0-0.6,0-1.2-0.1-1.8c0-0.1-0.1-0.2-0.3-0.4c-1.3-0.3-2.5-0.4-3.7-0.4
			c-0.6,0-1.1,0-1.7,0c0.6,16.9,1.1,33.8,1.7,50.6c0.7,0,1.5-0.2,2.3-0.4c-0.5-15.9-1.1-31.9-1.6-47.8c0.3,0,0.7,0,1,0
			C526.6,275.8,527,275.8,527.4,275.9z"/>
		<path class="st0" d="M621.5,348.7c-0.7,0-1.3-0.1-1.7-0.2c0,0.5,0.1,1,0.1,1.4c-4.9,0.6-9.8,1.1-14.8,1.6c-4,1-8.1,1.9-12.1,2.8
			c0,0.8,0.1,1.6,0.1,2.4c4.9-1.1,9.8-2.2,14.6-3.3c4.9-0.6,9.8-1.2,14.6-1.8c-0.1-1-0.1-1.9-0.2-2.9c-0.2,0-0.4,0.1-0.6,0.1
			C621.6,348.9,621.6,348.8,621.5,348.7z"/>
		<path class="st0" d="M617.5,348.3c-0.1-1-0.1-2-0.2-3c-2.1,0.1-3.6-0.3-4.5-1.2c-2.6-11.4-5.3-23-7.9-34.8
			c1.9-0.4,2.8-1.5,2.7-3.3c-0.1-0.9-0.4-1.6-1-2.1c-0.6-0.5-1.4-0.7-2.4-0.7c-0.2,0-0.3,0-0.5,0c-3-13.4-5.9-27-8.9-40.8
			c-3.3,0.3-6.5,0.7-9.8,1c-3.2-0.3-6.4-0.7-9.7-1c-1.4,14.2-2.8,28.6-4.3,43.1c-0.2,0-0.3,0-0.5,0c-1,0.1-1.7,0.4-2.3,1.1
			c-0.6,0.6-0.8,1.4-0.8,2.4c0.1,1.9,1.1,2.9,3,3.1c-1.3,12.3-2.5,24.6-3.8,37.1c0,0.1,0,0.2,0,0.3c0,0.1,0,0.2-0.1,0.3
			c0,0.1-0.1,0.2-0.1,0.3c-0.5,1.5-2,2.6-4.7,3.3c0.1,1.1,0.1,2.2,0.2,3.3c3.1-0.7,6.1-1.4,9.1-2.2c3.1,0,6.1-0.1,9.2-0.2
			c-0.1-1.1-0.1-2.1-0.2-3.2c-2.4-0.1-3.9-0.7-4.7-1.9c0-0.4,0-1.4,0.2-2.9c0.1-1.5,0.3-3.1,0.4-4.7c0.2-1.8,0.3-3.9,0.5-6.2
			c4.3-0.5,8.7-1,13-1.5c1,4.3,2,8.7,3.1,12.9c-0.8,1.3-2.3,2.3-4.5,3.1c0.1,1.1,0.1,2.1,0.2,3.2c4.9-1.1,9.8-2.1,14.6-3.3
			C607.7,349.4,612.6,348.8,617.5,348.3z M576.7,331c1-13.8,2-27.4,3-41c2.9,13.4,5.8,26.6,8.7,39.7
			C584.5,330.2,580.6,330.7,576.7,331z"/>
		<path class="st0" d="M607.5,311.3c2.4,10.9,4.8,21.6,7.2,32.2c0.3,0.1,0.6,0.2,1,0.3c0.4,0.1,0.8,0.1,1.2,0.1
			c-2.3-10.1-4.7-20.2-7-30.5c0.8-0.2,1.4-0.7,1.9-1.3c0.5-0.6,0.8-1.3,0.7-2c-0.1-1.6-1-2.5-2.6-2.8c0,0.2,0,0.3,0.1,0.4
			c0,0.1,0.1,0.2,0.1,0.4c0,0.8-0.2,1.5-0.7,2.1C608.9,310.7,608.3,311.1,607.5,311.3z"/>
		<path class="st0" d="M607.7,302.9c-2.7-11.8-5.3-23.8-8-35.9c-0.6,0-1.3,0.1-1.9,0.1c2.5,11.7,5.1,23.3,7.7,34.7
			C606.3,302.1,607.1,302.5,607.7,302.9z"/>
		<path class="st0" d="M581.1,343c0.1-1.1,0.2-2.3,0.3-3.4c2.5-0.3,4.9-0.6,7.4-0.9c-0.2-0.7-0.3-1.5-0.5-2.2
			c-3.2,0.4-6.3,0.8-9.5,1.1c-0.1,1.5-0.2,2.9-0.3,4.3c-0.1,1.2-0.2,2.5-0.3,3.9c-0.1,1.3-0.2,2.5-0.3,3.5c0.6,0.3,1.4,0.4,2.3,0.4
			c0.1,0,0.3,0,0.4-0.1c0.1-1,0.2-2,0.2-3.3C580.9,345,581,343.9,581.1,343z"/>
		<path class="st0" d="M582.2,328.9c0.3-5.1,0.7-10.2,1-15.2c-0.6-3-1.3-6.1-1.9-9.1c-0.6,8.2-1.2,16.4-1.8,24.6
			C580.4,329.1,581.3,329,582.2,328.9z"/>
		<path class="st0" d="M582.7,354.6c0,0.5,0.1,1,0.1,1.5c-3.1,0.1-6.1,0.2-9.2,0.2c-2.2,0.6-4.4,1.1-6.7,1.7c0,0.9,0.1,1.7,0.1,2.6
			c3.1-0.7,6.1-1.4,9.1-2.1c3.1-0.1,6.1-0.3,9.2-0.4c-0.1-1-0.1-2-0.2-3.1c-0.4-0.1-0.9-0.2-1.3-0.2
			C583.5,354.8,583.1,354.7,582.7,354.6z"/>
		<path class="st0" d="M681.5,267.2c-2.3,0.4-3.8,1.1-4.5,2.1c0.5,8.8,1,17.6,1.5,26.4c1.3,0.4,2.1,1.1,2.4,2.2
			c-0.5-9-1-17.9-1.6-26.9c0.6-1,2.1-1.6,4.5-2c0-0.8-0.1-1.6-0.1-2.5c-0.8,0.1-1.5,0.2-2.3,0.3C681.5,267,681.5,267.1,681.5,267.2z
			"/>
		<path class="st0" d="M666.8,303.3c-7.7-11.2-15.5-23.3-23.4-36.2c-0.3,0-0.5,0.1-0.8,0.1c8.1,13.3,16.2,25.8,24.2,37.4
			C666.8,304.2,666.8,303.8,666.8,303.3z"/>
		<path class="st0" d="M640.7,339.3c0.5,0.2,1.3,0.3,2.5,0.3c-0.7-11.1-1.4-22.2-2.1-33.3c-0.9-1.3-1.8-2.7-2.7-4.1
			C639.2,314.6,640,327,640.7,339.3z"/>
		<path class="st0" d="M676.5,301.8c0,0,0.1,0,0.1,0c0.9-0.1,1.7-0.5,2.2-1c0.6-0.5,0.8-1.2,0.8-1.9c0-0.7-0.4-1.3-1-1.8
			c-0.6-0.4-1.4-0.6-2.3-0.5c0,0-0.1,0-0.1,0c-0.2-3.3-0.4-6.4-0.5-9.5c-0.1-3.1-0.3-5.9-0.4-8.5c-0.2-2.6-0.3-4.8-0.4-6.8
			c-0.1-1.9-0.2-3.4-0.3-4.3c0.7-1,2.2-1.7,4.5-2.1c0-0.8-0.1-1.7-0.1-2.5c-3,0.4-6,0.9-9,1.4c-2.9-0.4-5.8-0.9-8.7-1.3
			c0.1,0.9,0.1,1.8,0.2,2.7c1.1,0.1,2.1,0.4,2.9,0.7c0.8,0.3,1.4,0.8,1.8,1.3c0.9,14,1.7,28.1,2.6,42.1
			c-9.9-14.2-20.1-29.9-30.3-46.8c-3,0.5-5.9,1-8.9,1.5c-3-0.5-6-1-8.9-1.5c0.1,1,0.1,2,0.2,3c2.4,0.4,4,1.1,4.8,2.3
			c0.7,11.1,1.4,22.3,2.1,33.4c-0.9,0.2-1.7,0.5-2.2,1.1c-0.5,0.6-0.8,1.3-0.7,2.2c0.1,0.9,0.4,1.5,1,2c0.6,0.5,1.4,0.7,2.3,0.6
			c0.7,11.2,1.4,22.4,2.1,33.5c-0.7,1.3-2.2,2.4-4.5,3.2c0.1,1,0.1,2,0.2,3c2.9-1.1,5.7-2.2,8.6-3.3c3,0,6-0.1,9-0.2
			c-0.1-0.9-0.1-1.9-0.2-2.8c-2.3,0.1-3.9-0.4-4.7-1.4c-0.9-14.8-1.8-29.7-2.8-44.5c9.8,15.8,19.6,30.6,29.2,43.9
			c4.5-1.1,9.1-2.2,13.6-3.4C677.8,324.3,677.1,313.1,676.5,301.8z"/>
		<path class="st0" d="M681.9,299.8c0,0.1,0,0.2,0.1,0.3c0,0.1,0.1,0.2,0.1,0.3c0,0.7-0.2,1.4-0.8,2c-0.6,0.6-1.4,1-2.3,1.1
			c0.7,11.1,1.3,22.3,2,33.4c-4.1,1.1-8.3,2.2-12.4,3.2c0.4,0.5,0.8,1.1,1.2,1.6c4.5-1.2,9-2.4,13.5-3.6c-0.6-11-1.3-22.1-1.9-33.1
			c0.9-0.1,1.7-0.5,2.3-1.1c0.6-0.6,0.9-1.2,0.8-2C684.4,300.6,683.5,299.9,681.9,299.8z"/>
		<path class="st0" d="M645.7,344c0,0.4,0.1,0.9,0.1,1.3c-3,0.2-6,0.3-9,0.4c-2.1,0.8-4.1,1.5-6.2,2.3c0.1,0.9,0.1,1.7,0.2,2.6
			c2.8-1.1,5.6-2.2,8.4-3.3c3-0.1,6.1-0.3,9.1-0.5c-0.1-0.9-0.1-1.9-0.2-2.8c-0.4,0-0.8,0-1.2,0C646.5,344.1,646.1,344.1,645.7,344z
			"/>
		<path class="st0" d="M746.3,269c-0.3-0.5-0.6-1-0.8-1.5c-0.3-0.6-0.7-1.2-1-1.9c-0.6,0-1.1,0-1.7,0c0.3,0.5,0.7,1.1,1,1.8
			c0.3,0.7,0.6,1.1,0.8,1.4c-0.8,0.2-1.7,0.5-2.5,0.7c0.7,0.3,1.3,0.7,1.9,1.3c1-0.2,2-0.5,3-0.7c0,0,0,0,0-0.1
			C746.8,269.8,746.5,269.5,746.3,269z"/>
		<path class="st0" d="M727.3,294.1c0.2,7.9,0.4,15.7,0.7,23.6c0.7,0.1,1.4,0.1,2.2-0.1c-0.2-7.4-0.4-14.9-0.6-22.3
			c0.9-0.2,1.7-0.5,2.3-1c0.6-0.5,0.9-1,0.9-1.6c0-1-0.8-1.5-2.4-1.5c0,0.1,0,0.2,0.1,0.2c0,0,0.1,0.1,0.1,0.2
			c0,0.6-0.3,1.1-0.9,1.6C729,293.6,728.2,294,727.3,294.1z"/>
		<path class="st0" d="M699.6,270.2c0.8-0.1,1.7-0.3,2.7-0.4c0-0.6-0.1-1.2-0.1-1.8c-1.2,0.2-2.4,0.3-3.8,0.4
			c-1.3,0.1-2.5,0.3-3.6,0.5c0,0,0,0.1,0,0.1c-1.4,0.2-2.7,1.1-3.7,2.7c-0.1,0-0.2-0.1-0.3-0.1c-0.2,0.2-0.3,0.4-0.3,0.5
			c0,0.2-0.1,0.3-0.2,0.4c0,0,0.1,0,0.1,0c0,0-0.1,0.1-0.1,0.1c1,0.2,2.1,0.4,3.1,0.6c1.1-1.6,2.4-2.5,3.8-2.7c0,0-0.1,0-0.1,0
			C698,270.4,698.8,270.3,699.6,270.2z"/>
		<path class="st0" d="M741.5,266.5c-0.3-0.5-0.6-1.1-0.8-1.6c-0.3-0.6-0.7-1.3-1-2c-3.6,0-7.2,0-10.8,0c-5,0.3-10.1,0.6-15.1,0.9
			c-5.1-0.3-10.2-0.5-15.3-0.8c-3.5,0-7.1,0-10.6,0c-0.4,0.9-0.7,1.7-1,2.5c-0.3,0.7-0.5,1.4-0.7,2.1c-0.2,0.7-0.3,1.2-0.5,1.5
			c1,0.3,2,0.5,3,0.8c1.1-1.6,2.4-2.6,3.8-2.8c1.7-0.3,3.6-0.6,5.8-0.8c2.2-0.2,3.9-0.2,5.1-0.3c0.1,0,0.2,0,0.3,0
			c0.4,8.4,0.8,16.9,1.2,25.3c-0.9,0.1-1.7,0.4-2.3,1c-0.6,0.5-0.9,1.2-0.9,1.8c0,0.7,0.4,1.2,1,1.5c0.6,0.3,1.4,0.4,2.3,0.3
			c0.4,9.3,0.9,18.6,1.3,27.9c-0.6,1.1-2.1,2.1-4.4,3.1c0,0.7,0.1,1.4,0.1,2.1c4.7-1.6,9.4-3.2,14-4.9c4.7-1.2,9.3-2.4,13.9-3.8
			c0-0.7,0-1.3-0.1-2c-0.6,0.1-1.4,0.2-2.2,0.2c-0.8,0-1.5-0.1-1.9-0.4c-0.3-8.5-0.5-16.9-0.8-25.4c0.9-0.1,1.6-0.5,2.2-0.9
			c0.6-0.5,0.8-1,0.8-1.6c0-0.6-0.3-1.1-0.9-1.4c-0.6-0.3-1.3-0.4-2.3-0.3c-0.2-7.7-0.5-15.3-0.7-23c0.5,0,1,0,1.5,0
			c0,0,0.1,0,0.1,0c1.2,0,2.6,0,4.3,0.1c1.7,0.1,3.4,0.2,5.1,0.4c1.4,0.1,2.8,0.8,4,2c1-0.3,1.9-0.5,2.9-0.8
			C742.1,267.4,741.8,267,741.5,266.5z"/>
		<path class="st0" d="M732.2,321.3c-4.5,1.3-9.1,2.6-13.7,3.9c-4,1.5-7.9,2.9-11.9,4.3c0,0.6,0.1,1.2,0.1,1.7
			c4.7-1.7,9.4-3.4,14-5.1c4.6-1.3,9.1-2.7,13.7-4.1c0-0.6,0-1.3,0-1.9c-0.8,0.2-1.5,0.3-2.1,0.3C732.1,320.7,732.1,321,732.2,321.3
			z"/>
		<path class="st0" d="M736.1,267.6c-1.4-0.2-2.9-0.3-4.3-0.3c-1.4,0-2.7-0.1-3.7,0c-0.5,0-1,0-1.5,0c0.2,6.9,0.4,13.8,0.6,20.7
			c1.3,0.3,2,0.8,2.3,1.6c-0.2-7-0.4-14-0.5-21c0.5,0,1,0,1.5-0.1c2.1-0.1,4.7,0,7.6,0.2C737.4,268.2,736.7,267.7,736.1,267.6z"/>
	</g>
	<g>
		<path class="st0" d="M665,382.8c0,0,0.3-0.4,0.8-1.1c0.2-0.4,0.6-0.8,1-1.3c0.4-0.5,0.8-1.1,1.4-1.7c2.1-2.4,5.7-5.7,10.6-8.5
			c4.9-2.9,11.1-5.3,18-7.2c6.9-1.9,14.4-3.2,22-4.4c7.6-1.1,15.2-2,22.4-3c7.2-1,13.9-2.1,19.6-3.4c5.7-1.3,10.4-3,13.6-4.5
			c3.3-1.5,5.2-2.9,6-3.3c3.1-2,5.7-3.8,8.1-5.2c2.3-1.4,4.4-2.4,6.1-1.7c1.6,0.7,2.4,3.2,1.4,6.8c-0.9,3.6-4.1,8-8.7,11
			c-1.1,0.7-4,2.4-8.3,3.9c-4.3,1.5-9.9,2.9-16.2,3.7c-12.7,1.7-28.2,1.6-43.2,2.2c-7.5,0.3-14.9,0.8-21.7,1.9c-6.8,1.1-13,2.8-18,5
			c-5,2.2-8.7,4.9-11.1,7.1c-0.6,0.5-1.1,1-1.5,1.5c-0.4,0.4-0.8,0.8-1.1,1.2C665.3,382.5,665,382.8,665,382.8z"/>
	</g>
	<g>
		<path class="st0" d="M223.7,371.9c0,0-0.3-0.3-0.9-1c-0.3-0.3-0.6-0.7-1.1-1.2c-0.4-0.4-0.9-1-1.5-1.5c-2.4-2.2-6.1-4.9-11.1-7.1
			c-5-2.2-11.2-3.9-18-5c-6.8-1.1-14.2-1.6-21.7-1.9c-15-0.6-30.6-0.4-43.2-2.2c-6.3-0.8-11.9-2.2-16.2-3.7
			c-4.3-1.5-7.2-3.2-8.3-3.9c-4.6-2.9-7.7-7.3-8.7-11c-1-3.6-0.2-6.2,1.4-6.8c1.6-0.7,3.7,0.3,6.1,1.7c2.3,1.4,4.9,3.2,8.1,5.2
			c0.8,0.5,2.7,1.8,6,3.3c3.3,1.5,7.9,3.1,13.6,4.5c5.7,1.4,12.4,2.5,19.6,3.4c7.2,1,14.8,1.9,22.4,3c7.6,1.1,15.1,2.5,22,4.4
			c6.9,1.9,13.1,4.3,18,7.2c4.9,2.8,8.4,6,10.6,8.5c0.6,0.6,1,1.2,1.4,1.7c0.4,0.5,0.7,0.9,1,1.3
			C223.4,371.5,223.7,371.9,223.7,371.9z"/>
	</g>
	<g>
		<path class="st0" d="M659.2,517c0,0-96.5,4.4-215.5,4.4c-119,0-215.5-4.4-215.5-4.4s96.5-4.4,215.5-4.4
			C562.7,512.6,659.2,517,659.2,517z"/>
	</g>
	<g>
		<path class="st0" d="M721.3,121.1c0,0-1.1-0.5-2.9-1.5c-0.9-0.5-2-1.1-3.4-1.7c-1.3-0.6-2.8-1.2-4.5-1.9c-0.8-0.4-1.7-0.6-2.6-0.9
			c-0.9-0.3-1.9-0.6-2.8-0.9c-1-0.3-2-0.6-3-0.8c-1-0.2-2.1-0.5-3.2-0.7c-1.1-0.2-2.2-0.3-3.3-0.5c-0.6-0.1-1.1-0.2-1.7-0.2
			l-0.9-0.1l-0.9-0.1c-2.3-0.1-4.7-0.3-7.1-0.2c-4.8,0-9.5,0.7-14,1.6c-2.2,0.5-4.4,0.9-6.5,1.6c-1,0.3-2,0.6-3,0.9
			c-1,0.3-1.9,0.6-2.8,0.9c-7.3,2.5-12.5,4.8-13.9,5.3c-5.4,2.1-10.4,2.3-11.3,0.1c-0.9-2.1,2.8-5.8,8.4-7.9c1.4-0.5,7-2.5,15-4.3
			c1-0.2,2-0.5,3.1-0.7c1.1-0.2,2.2-0.4,3.3-0.6c2.2-0.4,4.6-0.6,7-0.9c4.8-0.4,10-0.6,15-0.1c2.5,0.1,5,0.6,7.4,1l0.9,0.2l0.9,0.2
			c0.6,0.1,1.2,0.3,1.8,0.4c1.2,0.3,2.3,0.6,3.4,0.9c1.1,0.4,2.2,0.7,3.2,1.1c1,0.4,2.1,0.7,3,1.2c1,0.4,1.9,0.8,2.8,1.2
			c0.9,0.4,1.8,0.8,2.6,1.2c1.6,0.9,3,1.7,4.3,2.4c1.3,0.7,2.3,1.5,3.2,2C720.3,120.4,721.3,121.1,721.3,121.1z"/>
	</g>
	<g>
		<path class="st0" d="M152.5,121.1c0,0,1-0.7,2.7-1.8c0.9-0.6,1.9-1.3,3.2-2c1.3-0.7,2.7-1.5,4.3-2.4c0.8-0.5,1.7-0.8,2.6-1.2
			c0.9-0.4,1.8-0.8,2.8-1.2c0.9-0.5,2-0.8,3-1.2c1-0.4,2.1-0.7,3.2-1.1c1.1-0.4,2.2-0.6,3.4-0.9c0.6-0.1,1.2-0.3,1.8-0.4l0.9-0.2
			l0.9-0.2c2.4-0.4,4.9-0.9,7.4-1c5-0.5,10.1-0.3,15,0.1c2.4,0.3,4.8,0.5,7,0.9c1.1,0.2,2.2,0.4,3.3,0.6c1.1,0.2,2.1,0.5,3.1,0.7
			c7.9,1.8,13.6,3.8,15,4.3c5.6,2.2,9.3,5.8,8.4,7.9c-0.9,2.1-5.9,1.9-11.3-0.1c-1.4-0.5-6.6-2.8-13.9-5.3c-0.9-0.3-1.9-0.6-2.8-0.9
			c-1-0.3-2-0.6-3-0.9c-2.1-0.6-4.2-1-6.5-1.6c-4.5-0.8-9.3-1.6-14-1.6c-2.4-0.1-4.7,0.1-7.1,0.2l-0.9,0.1l-0.9,0.1
			c-0.6,0.1-1.1,0.2-1.7,0.2c-1.1,0.2-2.3,0.3-3.3,0.5c-1.1,0.2-2.1,0.5-3.2,0.7c-1,0.2-2.1,0.4-3,0.8c-1,0.3-1.9,0.6-2.8,0.9
			c-0.9,0.3-1.8,0.6-2.6,0.9c-1.6,0.7-3.1,1.3-4.5,1.9c-1.3,0.6-2.4,1.2-3.4,1.7C153.6,120.5,152.5,121.1,152.5,121.1z"/>
	</g>
	<g>
		<g>
			<path class="st0" d="M315.4,551.7l0.1-0.1h0.8l0.1,0.1c0.1,1.4,0.1,2.3,0.2,2.6c0.1,0.3,0.4,0.7,0.9,1c0.5,0.4,1.2,0.6,2,0.9
				c0.8,0.2,1.7,0.3,2.5,0.3c1.2,0,2.2-0.2,3.1-0.7c0.9-0.4,1.6-1.1,2.2-1.9c0.5-0.8,0.8-1.8,0.8-2.8c0-0.7-0.1-1.4-0.4-1.9
				s-0.6-1-1-1.3c-0.4-0.3-1-0.6-1.5-0.7c-0.6-0.2-1.4-0.3-2.5-0.5c-1.1-0.2-2-0.3-2.6-0.5c-0.6-0.1-1.2-0.4-1.8-0.7
				c-0.6-0.3-1.1-0.7-1.5-1.1c-0.4-0.5-0.7-1-1-1.7c-0.2-0.7-0.4-1.4-0.4-2.2c0-2.1,0.7-3.8,2.1-5.1c1.4-1.3,3.3-2,5.7-2
				c1,0,2,0.1,3.1,0.4c1.1,0.2,2.1,0.6,3.1,1.1l0.1,0.2c-0.2,1-0.4,2.5-0.4,4.4l-0.1,0.1H328l-0.1-0.1c0-1.3-0.1-2.2-0.1-2.5
				c0-0.3-0.5-0.8-1.5-1.3c-1-0.5-2-0.8-3.1-0.8c-0.9,0-1.8,0.2-2.6,0.6c-0.8,0.4-1.4,1-1.8,1.8c-0.4,0.8-0.6,1.6-0.6,2.5
				c0,0.7,0.1,1.2,0.4,1.7c0.3,0.5,0.6,0.9,1,1.2c0.4,0.3,0.9,0.5,1.4,0.7c0.5,0.1,1.5,0.3,2.9,0.5c1.9,0.3,3.4,0.6,4.2,1
				c0.9,0.4,1.6,1,2.1,1.9c0.5,0.9,0.8,1.9,0.8,3.1c0,2.4-1,4.3-2.9,5.9c-1.9,1.6-4.2,2.4-6.9,2.4c-2.3,0-4.3-0.4-6-1.2l-0.1-0.2
				C315.2,555.9,315.3,554.3,315.4,551.7z"/>
			<path class="st0" d="M342.1,533.9l2.1,0.1c1.3,0,2.2,0.1,2.6,0.1c0.4,0,1.9,0,4.7-0.1l0.1,0.1v0.8l-0.1,0.1
				c-0.8,0-1.3,0.1-1.8,0.1c-0.4,0-0.7,0.1-0.9,0.3c-0.2,0.1-0.3,0.4-0.4,0.9c-0.1,0.5-0.1,1.1-0.1,1.9l0,3.8v7.7l0,3.3
				c0,1.3,0,2.1,0.1,2.4c0.1,0.4,0.1,0.6,0.2,0.7c0.1,0.1,0.3,0.2,0.6,0.3s1,0.1,2.2,0.2l0.1,0.1v0.8l-0.1,0.1c-0.1,0-1,0-2.9-0.1
				c-0.8,0-1.4,0-1.8,0c-0.3,0-1.9,0-4.7,0.1l-0.1-0.1v-0.8l0.1-0.1c1,0,1.7-0.1,2-0.2c0.3-0.1,0.6-0.2,0.7-0.3
				c0.1-0.1,0.2-0.3,0.3-0.7c0.1-0.3,0.1-1.1,0.1-2.3l0-3.5v-7.7l0-3.3c0-1.3,0-2.1-0.1-2.5c0-0.4-0.1-0.6-0.2-0.7
				c-0.1-0.1-0.3-0.2-0.6-0.3c-0.3-0.1-1-0.1-2.2-0.2l-0.1-0.1V534L342.1,533.9z"/>
			<path class="st0" d="M363,557.5l-0.1-0.2v-0.8l0.1-0.1c0.7,0,1.2,0,1.6-0.1c0.4-0.1,0.7-0.2,0.8-0.3c0.1-0.2,0.2-0.4,0.2-0.8
				c0-0.3,0.1-1.1,0.1-2.3c0-1.2,0.1-2.1,0.1-2.6v-13.5c0-0.6-0.1-1-0.3-1.3s-0.5-0.4-0.8-0.5c-0.4-0.1-0.9-0.1-1.8-0.1l-0.1-0.1
				v-0.8l0.1-0.2c1.5,0.1,2.5,0.1,3,0.1c1.1,0,2,0,2.7-0.1l5.2,6.9l7.7,9.8c0.9,1.2,1.9,2.3,2.8,3.4v-12.9c0-0.4,0-1.3-0.1-2.6
				c0-1.3-0.1-2.1-0.1-2.5c-0.1-0.4-0.2-0.6-0.3-0.7c-0.1-0.1-0.4-0.2-0.8-0.3c-0.4-0.1-0.9-0.1-1.5-0.1l-0.1-0.1v-0.8l0.1-0.2
				c0.9,0.1,2.2,0.1,3.8,0.1c1.5,0,2.6,0,3.3-0.1l0.1,0.2v0.8l-0.1,0.1c-0.7,0-1.3,0.1-1.7,0.1s-0.6,0.2-0.7,0.4
				c-0.1,0.2-0.2,0.4-0.2,0.7c0,0.3-0.1,1.1-0.1,2.3c0,1.2-0.1,2.1-0.1,2.6v7.9l0,4.6c0,1.5,0,3,0.1,4.5c-0.5-0.2-1.5-0.4-2.8-0.7
				l-1.2-1.4l-3.5-4.3l-11.1-14.1v12.8c0,0.5,0,1.4,0.1,2.7c0,1.3,0.1,2.1,0.1,2.4c0.1,0.3,0.1,0.5,0.2,0.6c0.1,0.1,0.3,0.2,0.6,0.3
				c0.3,0.1,0.9,0.1,1.8,0.2l0.1,0.1v0.8l-0.1,0.1c-0.6-0.1-1.5-0.1-2.8-0.1C365.7,557.4,364.2,557.5,363,557.5z"/>
			<path class="st0" d="M422.2,554.6l-0.6,1.6c-2.4,1.3-5,1.9-7.8,1.9c-4,0-7.2-1.1-9.6-3.4c-2.5-2.3-3.7-5.3-3.7-8.9
				c0-2.5,0.6-4.7,1.8-6.6c1.2-1.9,2.9-3.3,4.9-4.3c2-0.9,4.3-1.4,6.8-1.4c1.5,0,2.9,0.2,4.3,0.5c1.4,0.3,2.6,0.7,3.6,1.1l0.1,0.2
				c-0.3,0.6-0.5,2.2-0.7,4.6l-0.1,0.1h-0.8l-0.1-0.1l-0.2-2.8c-0.8-0.6-1.8-1.1-2.9-1.5c-1.1-0.4-2.3-0.5-3.5-0.5
				c-1.9,0-3.5,0.4-5,1.2c-1.5,0.8-2.6,2-3.4,3.5c-0.8,1.5-1.2,3.4-1.2,5.6c0,2.2,0.5,4.2,1.4,5.9c1,1.7,2.3,3,3.9,3.9
				c1.6,0.9,3.6,1.4,5.8,1.4c1,0,1.9-0.1,2.8-0.3c0.9-0.2,1.6-0.4,2.2-0.7c0.6-0.3,1.2-0.6,1.7-1L422.2,554.6z"/>
			<path class="st0" d="M433.8,534l0.1-0.1c3.8,0.1,6.2,0.1,7.2,0.1c3.6,0,6.8,0,9.6-0.1l0.1,0.1c-0.3,1.1-0.5,2.7-0.6,5l-0.1,0.1
				h-0.8l-0.1-0.1c0-0.1,0-0.2,0-0.3c0-0.9-0.1-1.8-0.2-2.7c-0.7-0.3-1.6-0.5-2.9-0.6c-1.2-0.1-2.1-0.1-2.8-0.1
				c-0.9,0-2,0.1-3.3,0.2l-0.1,2.7l0,3.1l0,3.4c1.2,0.1,2.3,0.1,3.3,0.1c1,0,1.9,0,2.5-0.1s1.1-0.1,1.2-0.2c0.1-0.1,0.2-0.2,0.3-0.4
				c0.1-0.2,0.1-0.6,0.2-1.1l0.1-1l0.1-0.1h0.8l0.1,0.1c0,1.2,0,2.4-0.1,3.7l0.1,3.8l-0.1,0.1h-0.8l-0.1-0.1l-0.1-1
				c-0.1-0.8-0.2-1.2-0.2-1.4s-0.1-0.3-0.3-0.4c-0.2-0.1-0.6-0.2-1.2-0.3c-0.7-0.1-1.6-0.1-2.7-0.1c-0.6,0-1.6,0-2.9,0.1
				c-0.1,0.9-0.1,2.5-0.1,4.7c0,2.3,0,4.1,0.1,5.2h3c2.7,0,4.3,0,5-0.1c0.7-0.1,1.3-0.2,1.9-0.5c0.1-0.3,0.3-0.8,0.5-1.8
				c0.2-0.9,0.4-1.5,0.4-1.7l0.2-0.1h0.8l0.1,0.1c-0.1,0.5-0.2,1.3-0.3,2.5c-0.1,1.2-0.1,2.2-0.1,3.1l-0.1,0.1
				c-2.1-0.1-4.8-0.1-8.2-0.1l-4.5,0c-1,0-2.1,0-3.3,0.1l-0.1-0.1v-0.6l0.1-0.2c0.6-0.3,1-0.5,1.1-0.6c0.1-0.1,0.2-1.1,0.2-2.9
				c0.1-1.9,0.1-3.3,0.1-4.3v-6.1l0-3.8c0-0.8,0-1.5,0-2c0-0.5-0.1-0.9-0.1-1.1c-0.1-0.2-0.1-0.4-0.2-0.5c-0.1-0.1-0.2-0.2-0.3-0.2
				c-0.2-0.1-0.4-0.1-0.8-0.2l-1.2-0.1l-0.1-0.1V534z"/>
			<path class="st0" d="M481.2,557.6l-0.2-0.2v-0.8l5.5-5.9c2.3-2.4,3.7-4.3,4.4-5.7c0.7-1.3,1-2.6,1-3.7c0-1.4-0.4-2.5-1.2-3.4
				c-0.8-0.9-1.9-1.4-3.3-1.4c-0.9,0-1.7,0.1-2.3,0.4c-0.7,0.3-1.1,0.6-1.3,0.9c-0.2,0.3-0.6,1.3-1,2.9l-0.1,0.1H482l-0.2-0.2
				c0.3-1.5,0.4-3,0.5-4.5c1-1,2-1.7,2.9-2c0.9-0.3,1.8-0.4,2.8-0.4c1.2,0,2.3,0.2,3.3,0.7c1.1,0.4,1.9,1.2,2.6,2.2
				c0.6,1,1,2.1,1,3.5c0,1-0.2,2-0.6,2.9s-0.9,1.9-1.7,2.9s-1.7,2-3,3.3l-5.1,5.3h6.5c2,0,3.7-0.1,5-0.2l0.1,0.1
				c-0.1,0.4-0.1,0.9-0.1,1.5c0,0.6,0,1,0.1,1.3l-0.1,0.2c-0.8,0-2-0.1-3.6-0.1c-1.6,0-2.7,0-3.2,0c-1.1,0-2.5,0-4.3,0
				C483.1,557.5,481.8,557.5,481.2,557.6z"/>
			<path class="st0" d="M507.7,547.2c0-2,0.1-3.8,0.3-5.3c0.2-1.6,0.6-3,1.3-4.2c0.7-1.2,1.5-2.2,2.5-2.8c1-0.6,2.2-0.9,3.5-0.9
				c1.5,0,2.8,0.4,3.9,1.2c1.1,0.8,1.9,1.9,2.4,3.5c0.5,1.6,0.7,3.8,0.7,6.5c0,4.4-0.7,7.7-2,9.8c-1.3,2.1-3.2,3.2-5.6,3.2
				c-1.2,0-2.2-0.3-3.2-0.8c-0.9-0.5-1.7-1.3-2.3-2.3c-0.6-1-1-2.2-1.2-3.5C507.8,550.2,507.7,548.8,507.7,547.2z M510.5,546.3
				c0,2.1,0.2,4,0.5,5.8c0.3,1.7,0.8,3,1.6,3.7s1.6,1.1,2.6,1.1c1,0,1.8-0.3,2.4-1c0.7-0.7,1.1-1.8,1.4-3.5c0.3-1.6,0.5-3.7,0.5-6.1
				c0-3.8-0.4-6.6-1.1-8.4c-0.7-1.8-1.9-2.7-3.5-2.7c-1.4,0-2.5,0.7-3.3,2.1C510.9,538.7,510.5,541.7,510.5,546.3z"/>
			<path class="st0" d="M534,547.2c0-2,0.1-3.8,0.3-5.3c0.2-1.6,0.6-3,1.3-4.2c0.7-1.2,1.5-2.2,2.5-2.8c1-0.6,2.2-0.9,3.5-0.9
				c1.5,0,2.8,0.4,3.9,1.2c1.1,0.8,1.9,1.9,2.4,3.5c0.5,1.6,0.7,3.8,0.7,6.5c0,4.4-0.7,7.7-2,9.8c-1.3,2.1-3.2,3.2-5.6,3.2
				c-1.2,0-2.2-0.3-3.2-0.8c-0.9-0.5-1.7-1.3-2.3-2.3c-0.6-1-1-2.2-1.2-3.5C534.1,550.2,534,548.8,534,547.2z M536.8,546.3
				c0,2.1,0.2,4,0.5,5.8c0.3,1.7,0.8,3,1.6,3.7c0.7,0.8,1.6,1.1,2.6,1.1c1,0,1.8-0.3,2.4-1c0.7-0.7,1.1-1.8,1.4-3.5
				c0.3-1.6,0.5-3.7,0.5-6.1c0-3.8-0.4-6.6-1.1-8.4c-0.7-1.8-1.9-2.7-3.5-2.7c-1.4,0-2.5,0.7-3.3,2.1
				C537.2,538.7,536.8,541.7,536.8,546.3z"/>
			<path class="st0" d="M561.3,557.2c-0.3-0.9-0.8-2.3-1.6-4.3l0-0.2l0.6-0.3l0.2,0c0.9,1.7,1.5,2.6,1.7,2.9
				c0.2,0.2,0.7,0.5,1.5,0.8c0.8,0.3,1.6,0.5,2.5,0.5c1.1,0,2.1-0.2,2.9-0.7c0.9-0.5,1.5-1.2,1.9-2.2c0.4-1,0.6-2,0.6-3.3
				c0-1.2-0.2-2.2-0.6-3.1c-0.4-0.9-1-1.5-1.9-2c-0.8-0.4-1.8-0.7-2.7-0.7c-0.6,0-1.2,0.1-1.7,0.2c-0.5,0.2-0.9,0.4-1.2,0.6
				c-0.3,0.3-0.7,0.6-1.2,1.2l-0.7-0.2l0.2-3.6c0-0.7,0.1-1.4,0.1-2.1v-3c0-0.9,0-1.7-0.1-2.6c0-0.5,0-0.8,0-1l0.2-0.2
				c1.7,0.1,3.6,0.2,5.7,0.2c1.6,0,3.6-0.1,5.9-0.2l0.1,0.2c-0.1,0.5-0.1,1.1-0.1,1.5c0,0.2,0,0.6,0,1.2l-0.2,0.1
				c-1.2-0.1-2.9-0.1-5-0.1c-2.9,0-4.5,0-5,0c-0.2,1.3-0.3,3.6-0.3,6.9c0.9-0.7,1.7-1.1,2.4-1.4c0.7-0.2,1.5-0.4,2.4-0.4
				c1.2,0,2.3,0.3,3.4,0.8c1.1,0.6,1.9,1.4,2.5,2.4c0.5,1.1,0.8,2.2,0.8,3.4c0,2.3-0.9,4.3-2.8,6.2c-1.8,1.9-4.2,2.8-7,2.8
				c-0.8,0-1.4-0.1-1.9-0.2C562.5,557.7,561.9,557.5,561.3,557.2z"/>
		</g>
		<g>
			<path class="st0" d="M649.9,554.5c-3.8,0-8.6-6.8-8.6-6.8s4.8-6.8,8.6-6.8c3.8,0,5.1,3,5.1,6.8
				C655,551.5,653.7,554.5,649.9,554.5z"/>
			<g>
				<rect x="584" y="547.8" class="st0" width="59.1" height="0.6"/>
			</g>
		</g>
		<g>
			<path class="st0" d="M237.4,541c3.8,0,8.6,6.8,8.6,6.8s-4.8,6.8-8.6,6.8c-3.8,0-5.1-3-5.1-6.8C232.3,544,233.6,541,237.4,541z"/>
			<g>
				<rect x="244.3" y="547.2" class="st0" width="59.1" height="0.6"/>
			</g>
		</g>
	</g>
	<g>
		<path class="st0" d="M307.8,452.7c-5,8.3-12.4,12.1-17.6,12.1c-6.6,0-11.1-10.1-7.9-20.5c4.8-15.9,18-22.5,21.3-18.8
			c0.6,0.7,1.2,1.5,1.7,2.3c5.5,0.7,8.9,7.7,5.9,17.3c-0.6,1.9-1.4,3.7-2.1,5.4c2.5-1.1,4.5-3.7,6.8-8c2-4.2,2.5-8.5,2.5-12.3
			c-3.4-1.6-6.1-3.3-6.5-5.7c-0.8-4,10.9-5.1,10.9-4.8c0.2,2.8,0.1,5.8-0.5,8.7l2.4,0.9c7.2,2.7,9.9,2.6,7.6,9.5
			c-2.1,6.3-2.8,9.1-4.1,16.3c-0.8,4.4,0,5.1,1.1,4.4c1.8-1.4,4.8-6.5,7.4-11.4c1.4-2.7,1.8-3,1.8-1.5c0,0.4-0.2,1.5-1.2,3.1
			c-2.4,4.2-4.8,8.3-7.3,11c-2.8,3.1-5.2,4.4-7.1,3.6c-2.8-1.2-5.8-7.2-2.5-18.3c3.8-13.1,4.7-13.1,2.7-13.9l-1.5-0.5
			c-1.2,4.7-3.2,9.3-5.9,14.2C314.2,448,311.3,451.5,307.8,452.7z M299.8,451c-4.9-5.2-2.8-20.6,2.9-23c-3.8-1.8-8.1,6.1-11,16.3
			c-2.5,9.1-3.3,18.3-0.2,18.3C294.7,462.6,297.6,457.5,299.8,451z M300.9,447.7c0.3-0.9,0.5-1.7,0.8-2.6c2.5-9,3.6-14.9,1-14.9
			C300.6,430.1,298.3,442,300.9,447.7z"/>
		<path class="st0" d="M351.1,449.4c-1.8,5.4-4.3,15.4-9.9,15.4c-6.3,0-10.1-10.1-6.9-20.5c4.8-15.6,16.6-22.4,19.8-18.8
			c1.2,1.3,2.2,3,2.9,4.4c3.1,0.3,7.9,1.6,7.5,3.5c-0.6,3.3-5.4,19.5-10.2,34.3c17.1-2.3,34.8,0.3,46,7.1c8.8,5.4,4.4,14.9,3.4,13.9
			c-12.7-12.2-33.1-17.8-50.9-16.2c-5.8,16.3-15.8,35.2-29.2,35.2c-16.3,0-13.9-19.6,0.2-29.2c6.3-4.3,13.7-7.2,21.6-9.2
			c0.7-2,1.3-4,1.9-5.6C351.9,449.9,351.2,449.2,351.1,449.4z M343.6,474.1c-5.5,1.3-10.5,3.5-14.7,6.5
			c-12.2,8.7-13.5,24.9-3.5,24.9C332,505.5,338.7,488.2,343.6,474.1z M355,430.1c-0.5-0.7-1.1-1.3-1.6-1.6c-3.1-1.7-7,6.7-9.6,15.8
			c-2.6,9.1-2.9,15.7-0.2,15.7c2.7,0,3.8-3.9,6.8-14.1c1.8-6.4,3.5-11.7,4.4-14.7C354.8,430.7,355,430.3,355,430.1z"/>
		<path class="st0" d="M395.8,446.5c0,0.5-0.2,1.6-1.2,3.2c-2.3,4.2-4.8,8.3-7.3,11c-2.8,3.1-5.2,5.1-7.1,4.4
			c-2.6-1.1-3.2-8.1-1.5-14.8c0.1-0.4,0-0.3-0.1,0c-1.8,5.4-4.5,14.6-10.1,14.6c-6.2,0-10-10.1-6.8-20.5
			c4.8-15.6,18.1-22.3,21.3-18.8c1.2,1.4,8,8.6,6.8,12.5c-0.2,0.6-2.6,6.7-4.3,17c-0.9,5.7-0.9,5.6,1.5,3.7c1.8-1.4,4.5-5.7,7-10.7
			C395.4,445.3,395.8,445.1,395.8,446.5z M382.4,428.5c-3.2-1.6-8.6,6.7-11.1,15.8c-2.6,9.1-3,15.7-0.2,15.7c2.6,0,3.7-3.8,6.8-14.1
			l3.3-11.4C382.1,431.2,383.2,428.9,382.4,428.5z"/>
		<path class="st0" d="M392.2,450.1c2.2-9.1,6.1-20.8,7.9-29c0.1-0.3,11.4,0.5,10.4,3.7c-0.3,0.9-2.7,5.1-6,16
			c4-9.3,8.6-16.2,13.3-16.2c6.1,0,6.5,8.1,2.5,20.5c-3.8,11.9-5.1,19.2-3,16.9c1.8-1.9,7-9,9.5-13.9c1.5-2.7,1.8-3,1.8-1.6
			c0,0.5-0.2,1.6-1.2,3.2c-2.3,4.2-6.7,11.4-9.9,15c-2.9,3.3-6.1,4.6-8,3.6c-3.4-1.8-2.8-10.9,1.2-23.2c3.5-11.1,6.5-14.9,3.8-14.9
			c-3.8,0-9.2,10.3-15.4,30.8c-0.8,3.7-0.8,4.1-0.8,4.1C393,466,389,462.8,392.2,450.1z"/>
		<path class="st0" d="M428.5,431.2c0.3-1,0.4-1.4,0.4-1.4c2.1-0.2,10.1,1.3,9.4,3.7c-0.2,0.6-6.4,15-8.1,25.4
			c-0.9,5.7-0.8,6.9,1.2,4.4c2.1-2.8,6.3-10.4,8.9-15.3c1.4-2.7,1.8-3,1.8-1.5c0,0.4-0.2,1.5-1.2,3.1c-2.3,4.2-6.1,11.2-8.8,14.9
			c-2.5,3.5-5.3,4.7-7.1,4c-2.8-1.2-5.8-7.5-2.5-18.7C424.4,443.5,427.5,434.3,428.5,431.2z M435.1,425.9c-2.7-1-5.4-3.7-4.2-6.5
			c1.1-2.6,5.1-3.9,8.8-2.8c2.8,0.8,5.3,3.4,4.2,6.5C443,425.9,438.6,427.2,435.1,425.9z"/>
		<path class="st0" d="M460.4,445.8c-2.1,0.3-9.8-1.3-9.1-3.7c0.2-0.6,10.1-12.8,8.6-13.6c-4.3-2.3-9.3,6.2-11.9,15.8
			c-2.7,9.3-3.3,19.9,0.7,20.7c4.2,0.9,12.7-8.5,16.7-16.9c1.3-2.8,1.7-3,1.8-1.6c0,0.5-0.2,1.6-1,3.2c-4.1,8-13.2,19.4-20.6,19.4
			c-7.7,0-10.3-14.4-7.1-24.8c4.8-15.6,17.6-23.2,22-18.8C463.1,428.2,465.5,432.9,460.4,445.8L460.4,445.8z"/>
		<path class="st0" d="M484.5,450.8c-4.2-1.4-2.9-6.7,2.1-7.6h0.2c2-6.9,4.3-14.6,6.8-23.3c0.2-0.8,0.5-1.6,0.6-2.3
			c-5.8-2.2-11-5.3-15-9.3c-11.7-11.9-0.3-30,16-30c12.2,0,15.4,14.8,9.7,37.4c11.3,0.6,24.4-3.1,35.8-10.4c1.2-0.8,4.9,9-4.6,12.8
			c-8.9,3.7-21,4.4-32.4,2.1c-0.5,1.9-1.2,3.9-1.8,5.8c-2.8,8.6-4.9,14.9-6.7,20.6l0.5,0.6c6.1-2.2,12.6-8.2,15.3-12.5
			c1.6-2.6,2-2.9,1.9-1.4c0,0.4-0.3,1.5-1.3,3c-2.2,3.3-7.6,9.8-14.7,13c2.6,5.6,3.1,13.7,1.8,20.2c-2.2,10.7-10.3,19.5-16.2,17.3
			c-3.1-1.2-5.5-7.1-3-18.5C480.7,463.9,482.4,458,484.5,450.8z M495.1,414c6.4-24.8,4.5-33.1-1.8-33.1c-8.1,0-18.4,16.7-8.2,27
			C487.8,410.8,491.3,412.8,495.1,414z M493.7,451.6c-1.8,6.4-3.4,12.1-5.3,19.6c-1.7,6.8-2.8,12.7-0.1,12.7c2.9,0,4.8-5.3,6.5-14
			C496,463.7,495.5,456.7,493.7,451.6z"/>
		<path class="st0" d="M532.7,450.5c-4.8,9.9-13,14.3-18.7,14.3c-6.7,0-11.1-10.1-8-20.5c4.8-15.9,18-22.5,21.3-18.8
			c0.5,0.7,1.2,1.5,1.6,2.3c0.2-0.1,0.4-0.1,0.6-0.1c6.1,0,8.4,7.2,5.3,17.4l-1.2,3.2c2.6-1,5-2.9,6.1-4.9c1.5-2.7,1.8-3,1.8-1.6
			c0,0.5-0.2,1.6-1.2,3.2C539.4,446.8,536.2,449.1,532.7,450.5z M523.8,450.2c-5.8-3.9-2.5-18.4,3.3-21.8l-0.5-0.3
			c-3.9-2.1-8.2,5.8-11.1,16.2c-2.6,9.1-3.4,18.3-0.2,18.3C518.6,462.6,521.4,457.2,523.8,450.2z M524.7,447.4l0.7-2.3
			c2.5-9,5.1-14.9,2.5-14.9C525.7,430.1,521.2,442.8,524.7,447.4z"/>
		<path class="st0" d="M563.5,450.5c-4.8,9.9-13,14.3-18.7,14.3c-6.7,0-11.1-10.1-8-20.5c4.8-15.9,18-22.5,21.3-18.8
			c0.5,0.7,1.2,1.5,1.6,2.3c0.2-0.1,0.4-0.1,0.6-0.1c6.1,0,8.4,7.2,5.3,17.4l-1.2,3.2c2.6-1,5-2.9,6.1-4.9c1.5-2.7,1.8-3,1.8-1.6
			c0,0.5-0.2,1.6-1.2,3.2C570.2,446.8,567,449.1,563.5,450.5z M554.6,450.2c-5.8-3.9-2.5-18.4,3.3-21.8l-0.5-0.3
			c-3.9-2.1-8.2,5.8-11.1,16.2c-2.6,9.1-3.4,18.3-0.2,18.3C549.4,462.6,552.2,457.2,554.6,450.2z M555.5,447.4l0.7-2.3
			c2.5-9,5.1-14.9,2.5-14.9C556.5,430.1,552,442.8,555.5,447.4z"/>
		<path class="st0" d="M591.2,421c-7.4,0.9-14.6,0.5-20.5-1.9c-9.6-3.9-5.1-12.8-3.8-12.1c8.4,5.4,17.6,7.9,26.2,8.1
			c5.4-15.3,15.7-33.6,31.6-33.6c16.3,0,8.5,19.6-5.5,29.1c-4.8,3.3-10.7,6-16.9,7.9l-0.2,0.7c-2.7,8.5-9.7,30.5-10.6,35.7
			c-0.9,5.8-0.5,5.5,1.8,3.6c1.5-1.2,4.1-5.5,6.6-10.5c1.5-2.7,1.8-3,1.8-1.6c0,0.5-0.2,1.6-1.2,3.2c-2.3,4.1-4.8,8.3-7.2,11
			c-2.9,3.1-5.3,4.4-7.1,3.6c-2.6-1.2-3.4-8.1-1.6-14.8c0.1-0.4,0-0.3-0.1,0c-1.8,5.4-4.3,15.3-9.9,15.3c-6.3,0-10.1-10.1-6.9-20.5
			c4.8-15.6,18.1-22.3,21.3-18.8l0.6,0.7L591.2,421z M588.8,428.9c-0.2-0.2-0.3-0.3-0.5-0.4c-3.1-1.7-8.5,6.7-11.1,15.8
			c-2.6,9.1-2.9,15.7-0.2,15.7c2.7,0,3.8-3.8,6.8-14.1C584.3,443.9,586.8,435.7,588.8,428.9z M603.6,414.3c5.1-1,9.7-2.9,13.4-5.4
			c12.2-8.8,13.2-24.9,4.2-24.9C613.8,383.9,608.8,398.2,603.6,414.3z"/>
	</g>
</g>
<g id="Warstwa_5">
	<text transform="matrix(3.4967 0 0 1 165.3938 234.6591)" class="st0 st1 st2">TAURUS</text>
</g>
</svg>
