<?xml version="1.0" encoding="utf-8"?>
<!-- Generator: Adobe Illustrator 21.1.0, SVG Export Plug-In . SVG Version: 6.00 Build 0)  -->
<svg version="1.1" id="Warstwa_1" xmlns="http://www.w3.org/2000/svg" xmlns:xlink="http://www.w3.org/1999/xlink" x="0px" y="0px"
	 viewBox="0 0 103.2 66" style="enable-background:new 0 0 103.2 66;" xml:space="preserve">
<style type="text/css">
	.st0{fill:#3C3C3B;}
</style>
<g>
	<path class="st0" d="M97.7,39.6c-5.5-3.9-13.7,1.7-10.9,7.9c-3.3-0.9-6.8-1.6-10.2-2c-0.4-3.4-2.7-7.3-3.9-9.7
		c-3.4-6.9-8-13.2-13.5-18.5C49.3,7.6,34.3-1.7,19.9,2.7C5,7.3,0.8,26,2.4,39.6c1.8,15.3,12.1,25.5,27.9,25
		c9.8-0.4,19.8-2.5,29.2-5.4c5.5-1.7,12.2-3.7,15.5-8.6c3.4,1,6.9,1.9,10.4,2.6c-2.1,4.7,1.6,11.3,7.3,10c5.7-1.3,5.8-8,2.6-11.8
		c2.2-0.1,4.6-1.9,5.4-3.7C102,44.8,100.1,41.3,97.7,39.6z M10.5,55.1c-0.1-0.1-0.2-0.2-0.3-0.4c-0.5-0.6-0.9-1.2-1.2-1.9
		c-0.1-0.1-0.2-0.2-0.3-0.2c-5.6-8.5-6.4-20.8-3.3-31.1c2.6-8.8,8.2-16.3,17.7-18c0.8-0.1,1.6-0.2,2.4-0.3c0.1,0.1,0.1,0.1,0.2,0.1
		c11.5,3.4,6.6,23.8,4.5,32c-1.3,5.2-3.2,10.2-5.5,15c-1.1,2.3-2.4,5.2-4.7,6.6C16.5,59.2,12.9,57.8,10.5,55.1z M74.1,48.9
		c-0.2,0.2-0.3,0.5-0.2,0.7c-5,5.8-13.7,7.8-20.9,9.7c-8.1,2.1-16.8,4-25.2,3.8c-4.9-0.1-8.9-1.4-12.3-3.5c1.3,0.1,2.7,0,4-0.5
		c6.3-2.4,8.9-12.4,10.8-18.2c2.7-8.1,4.6-17.3,4.1-25.9c-0.2-3.8-1.5-9.2-4.9-11.5c6.8,0.6,13.3,3.8,18.9,7.5
		c6.4,4.3,12,9.7,16.6,15.9c2,2.8,3.9,5.7,5.5,8.7C71.9,38,77,46,74.1,48.9z M93.7,49.7c-0.7-0.1-1.2,0.8-0.5,1.2
		c0.2,0.1,0.4,0.2,0.5,0.3c2.3,3,3.8,8.4-1,10.1c-4.9,1.7-7.4-4.3-5.7-8c0.2-0.5,0-0.9-0.4-1.1c-0.1-0.1-0.2-0.1-0.3-0.2
		c-3.5-1-7.2-1.6-10.9-2.2c0,0,0-0.1,0.1-0.1c0.8-0.9,1.2-2,1.2-3.2c3.4,0.9,6.8,1.7,10.2,2.6c0.4,0.1,0.7-0.1,0.9-0.5
		c0.3,0,0.5-0.2,0.4-0.5c-1.5-4.7,2.3-9.8,7.5-7.7c1.7,0.7,3.2,2.2,3.7,4C100,47.5,96.7,50.2,93.7,49.7z"/>
	<path class="st0" d="M21.7,17.7c-0.1,0-0.1-0.1-0.2,0c-0.1,0-0.1,0-0.2,0.1c-0.2,0-0.5,0-0.8,0.1c-0.2,0-0.3,0.2-0.4,0.3
		c-4.3,1.8-5.9,6.8-6.6,11.2c-0.4,2.8-0.9,11.2,4.3,10.1C25.1,38,30.9,17.5,21.7,17.7z M23.5,30.9c-1.1,3-5.9,10.8-8.4,4.5
		c-2.1-5.2,1-12.9,5.4-16.4c0.1,0,0.2,0.1,0.3,0.1C26.9,18.9,24.8,27.4,23.5,30.9z"/>
	<path class="st0" d="M21.6,20.3c-0.3,0-0.5,0.2-0.5,0.5c-3.3,0.8-4.4,5.6-5.1,8.5c-0.3,1.4-1.2,7.2,1.9,6c2.2,0.5,4.4-4.9,5-6.3
		C23.7,26.8,25.9,20.3,21.6,20.3z M17.3,34.4c-1.7-1.1,0-6.2,0.5-7.6c0.7-2.2,1.6-4.4,3.7-5.5c0,0,0,0,0.1,0
		C25.1,21.5,20.4,35.6,17.3,34.4z"/>
</g>
</svg>
