<?xml version="1.0" encoding="utf-8"?>
<!-- Generator: Adobe Illustrator 21.1.0, SVG Export Plug-In . SVG Version: 6.00 Build 0)  -->
<svg version="1.1" id="Warstwa_1" xmlns="http://www.w3.org/2000/svg" xmlns:xlink="http://www.w3.org/1999/xlink" x="0px" y="0px"
	 viewBox="0 0 116.6 82.7" style="enable-background:new 0 0 116.6 82.7;" xml:space="preserve">
<style type="text/css">
	.st0{fill:#3C3C3B;}
</style>
<path class="st0" d="M107.3,4.2C99.1,1,88,2.7,79.6,4.2c-17.3,3.2-34.7,11-49.1,21.6c-0.3-0.1-0.7,0.2-0.7,0.6
	c-1.4,1.1-2.8,2.2-4.2,3.3c-7.7,6.3-14.4,14-18.4,23.2c-3.5,7.9-5.2,18.4,2.1,24.7c0,0.3,0.1,0.6,0.5,0.7c9.8,2.9,19.7,0.1,28.7-3.8
	c9.3-4,18.2-8.7,26.6-14.2c8.5-5.5,16.5-11.6,24-18.3c7.2-6.5,15-13.5,20-21.9C112.2,14.7,114.5,7,107.3,4.2z M91,4.7
	c1.4,1.6,0.6,5.5,0.1,7.3c-0.5,1.8-1.3,3.3-2.4,4.7c0.1-4-0.9-8.2-3-11.6C87.5,4.8,89.2,4.7,91,4.7C91,4.6,91,4.6,91,4.7z M69.5,8.4
	c2.1-0.6,4.2-1.2,6.3-1.7c0.9,2.8,1.5,5.6,1.3,8.6c-0.1,1.7-0.6,6.3-2,8.1c-0.4-5.5-2.3-10.9-6.3-14.8C69.1,8.5,69.3,8.4,69.5,8.4z
	 M61.8,10.9c2.1,2.9,1.5,7.6,1.3,11c-0.2,3.2-0.4,6.4-1.8,9.3c-0.6-6.4-3.1-12.2-7.7-16.9C56.3,13.1,59,12,61.8,10.9z M44.6,18.7
	c2.9,6,6.5,15.1,2.6,21.4c-1.7-6.6-3.1-13.5-8.7-17.8C40.5,21,42.6,19.8,44.6,18.7z M24.4,32.6c1.9-1.7,3.9-3.3,5.9-4.8
	c2.3,4.1,4,8.5,4.3,13.2c0.2,2.5,0,5.1-0.7,7.6c-0.6,2.3-1.5,6.3-2.3,1.9c-1.2-6.3-3.1-12.9-8.1-17.1C23.9,33.1,24.2,32.9,24.4,32.6
	z M15.3,42.4C19.9,48,21,57,18.6,64c-1.4-5.6-3.3-11.1-8.1-14.7C12,46.8,13.6,44.5,15.3,42.4z M103.8,24.5
	C93.3,37.3,79.9,48.3,66.1,57.4C58.4,62.5,50.4,67,42,70.9c-9.9,4.6-20.7,9-31.6,6.2c-7.8-7.6-5.5-18-0.2-27.3
	c4.6,4.5,6.2,10.3,7.6,16.4c0.1,0.5,0.9,0.6,1.1,0.1c3.4-7.5,2.7-18.5-3-24.7c2.4-3,4.9-5.6,7.3-7.8c4.9,6,6.7,12.9,7.8,20.4
	c0.1,0.4,0.5,0.5,0.8,0.5c3.6-0.9,4.1-8.3,4.2-11.3c0.1-5.8-1.8-11.3-4.7-16.3c2.1-1.5,4.2-3,6.4-4.4c5.5,5,6.5,12.4,8.4,19.2
	c0.1,0.5,0.8,0.8,1.2,0.3c5.1-6.4,2.6-17.8-1.8-24.1c2.4-1.3,4.8-2.5,7.3-3.6c0,0.1,0,0.1,0.1,0.2c4.6,5.4,7,11.8,7,18.9
	c0,0.8,0.9,0.9,1.4,0.4c2.9-3.8,3.2-9.1,3.3-13.7c0.1-3.2,0.3-7.1-1.5-9.8c1.7-0.6,3.4-1.2,5.1-1.7c3.3,5,5.4,9.9,5.6,16
	c0,0.4,0.5,0.9,0.9,0.7c2.6-1,3.4-6,3.7-8.3c0.5-3.7,0-7.3-1.4-10.7c2.6-0.6,5.2-1,7.8-1.3c1.8,4.4,2.8,8.5,2.4,13.4
	c-0.1,0.7,0.8,0.9,1.2,0.5c2.4-2.1,3.8-4.8,4.4-7.9c0.4-2,0.8-4.6-0.2-6.6c1.2,0,2.4,0,3.6,0c4.6,0.1,11.6-0.3,13.5,4.7
	C111.8,14.6,107.1,20.5,103.8,24.5z"/>
</svg>
