<?xml version="1.0" encoding="utf-8"?>
<!-- Generator: Adobe Illustrator 21.1.0, SVG Export Plug-In . SVG Version: 6.00 Build 0)  -->
<svg version="1.1" id="Warstwa_1" xmlns="http://www.w3.org/2000/svg" xmlns:xlink="http://www.w3.org/1999/xlink" x="0px" y="0px"
	 viewBox="0 0 257.9 438.5" style="enable-background:new 0 0 257.9 438.5;" xml:space="preserve">
<style type="text/css">
	.st0{fill:#EFEFEF;}
	.st1{fill:#AAAAAA;}
	.st2{fill:#FFFFFF;}
	.st3{fill:#CCCCCC;}
	.st4{fill:#54514F;}
	.st5{fill:#363331;}
	.st6{fill:#E2E2E2;}
	.st7{fill:#E5B380;}
	.st8{opacity:0.7;fill:#EFC494;}
	.st9{fill:#111010;}
	.st10{fill:#EFC494;}
	.st11{fill:#8F513D;}
	.st12{opacity:0.5;fill:#363331;}
	.st13{opacity:0.6;fill:#363331;}
	.st14{opacity:0.3;fill:#EFC494;}
	.st15{opacity:0.78;fill:#D38D60;}
	.st16{fill:#4F2C13;}
	.st17{fill:#130606;}
	.st18{fill:#F1F1F1;}
	.st19{fill:#4E2E13;}
	.st20{opacity:0.5;fill:#4E2E13;}
	.st21{fill:#F19C99;}
	.st22{fill:#811527;}
	.st23{fill:#BDC9CD;}
	.st24{fill:#CA5050;}
	.st25{fill:#995216;}
	.st26{fill:#853F13;}
	.st27{opacity:0.6;fill:#4E2E13;}
	.st28{fill:#B7B0A9;}
	.st29{opacity:0.9;fill:#E2E2E2;}
	.st30{opacity:0.4;fill:#363331;}
	.st31{fill:#1D1D1B;}
	.st32{clip-path:url(#SVGID_2_);}
	.st33{fill:#DDDDDD;}
	.st34{fill:#777777;}
	.st35{clip-path:url(#SVGID_4_);}
</style>
<g>
	<g>
		<g>
			<g>
				<g>
					<path class="st0" d="M189.3,257.5c-2-1.3-5.7-5.7-6.4-15.6c-0.6-9.9,2-17.5,2-17.5c-12.5,4.4-18.3,1.4-30-5.2
						c-6.1-3.4-12.5-6.6-20.3-8.8c-13.2,23.3-43.3,18.2-43.3,18.2c-0.2-7.3,0.8-7.7,6.7-8.9c-4.5-2.5-7.8-6.2-9.7-8.7
						c-38.8,13.7-42.5,62.2-38.4,70.7c5.3,11.1,20.5,4.4,20.5,4.4s-10.3,41.5-9.2,43.7c1.1,2.2,21.7,15.9,53.4,15.4
						c31.7-0.5,49-13.2,49-13.2s-1.7-9.8-3.5-18.5c-1.8-8.7-11.9-66.1-11.9-66.1s13.7,13.7,25.6,13.7
						C185.6,260.9,189.3,257.5,189.3,257.5z"/>
					<g>
						<g>
							<g>
								<path class="st1" d="M78,239.1c0,0-0.1,0.3-0.2,0.8c-0.2,0.5-0.3,1.2-0.6,2.1c-0.1,0.4-0.3,0.9-0.4,1.4
									c-0.2,0.5-0.2,1-0.4,1.6c-0.2,1.1-0.5,2.2-0.8,3.4c-0.2,0.6-0.3,1.1-0.4,1.7c-0.1,0.6-0.2,1.1-0.3,1.7
									c-0.2,1.1-0.5,2.1-0.7,3c-0.2,0.9-0.4,1.6-0.6,2.1c-0.1,0.5-0.2,0.8-0.2,0.8s0-0.3,0.1-0.8c0.1-0.5,0.1-1.3,0.2-2.2
									c0.1-0.9,0.2-1.9,0.4-3.1c0.1-0.6,0.2-1.1,0.3-1.7c0.1-0.6,0.2-1.2,0.4-1.8c0.3-1.2,0.6-2.3,1-3.4c0.2-0.5,0.3-1.1,0.5-1.5
									c0.2-0.5,0.4-0.9,0.6-1.4c0.4-0.8,0.7-1.5,0.9-2C77.8,239.4,78,239.1,78,239.1z"/>
							</g>
						</g>
						<g>
							<g>
								<path class="st1" d="M143.7,229.6c0,0,0.2,0.5,0.5,1.4c0.3,0.9,0.7,2.1,1.2,3.6c0.2,0.8,0.5,1.6,0.7,2.5
									c0.3,0.9,0.5,1.8,0.7,2.8c0.5,1.9,0.9,4,1.4,6c0.2,1,0.5,2.1,0.6,3.1c0.2,1,0.3,2,0.5,3c0.3,1.9,0.6,3.8,0.8,5.3
									c0.2,1.6,0.4,2.9,0.5,3.8c0.1,0.9,0.2,1.4,0.2,1.4s-0.1-0.5-0.3-1.4c-0.2-0.9-0.5-2.2-0.8-3.7c-0.3-1.5-0.7-3.3-1.1-5.3
									c-0.2-1-0.4-2-0.6-3c-0.2-1-0.4-2-0.7-3.1c-0.4-2-0.9-4.1-1.3-6c-0.2-1-0.3-1.9-0.6-2.8c-0.2-0.9-0.4-1.7-0.6-2.5
									c-0.4-1.5-0.6-2.8-0.8-3.7C143.9,230.1,143.7,229.6,143.7,229.6z"/>
							</g>
						</g>
						<g>
							<g>
								<path class="st1" d="M91.3,228.5c0,0-0.2,0.4-0.6,1c-0.4,0.6-0.8,1.6-1.4,2.7c-0.5,1.1-1.1,2.5-1.6,4
									c-0.3,0.7-0.5,1.5-0.7,2.3c-0.2,0.8-0.4,1.6-0.6,2.4c-0.2,0.8-0.3,1.6-0.5,2.4c-0.1,0.8-0.2,1.6-0.4,2.4
									c-0.1,0.8-0.2,1.5-0.2,2.2c-0.1,0.7-0.1,1.4-0.1,2c0,0.6-0.1,1.2-0.1,1.7c0,0.5,0,1,0,1.3c0,0.7,0,1.2,0,1.2
									s-0.1-0.4-0.1-1.1c0-0.4-0.1-0.8-0.1-1.3c-0.1-0.5-0.1-1.1-0.1-1.7c0-0.6-0.1-1.3,0-2c0-0.7,0-1.5,0.1-2.3
									c0.1-0.8,0.2-1.6,0.3-2.4c0.2-0.8,0.3-1.7,0.5-2.5c0.2-0.8,0.4-1.7,0.7-2.4c0.3-0.8,0.5-1.6,0.8-2.3
									c0.3-0.8,0.6-1.4,0.9-2.1c0.3-0.7,0.6-1.3,1-1.8c0.6-1.1,1.3-2,1.7-2.5C91,228.8,91.3,228.5,91.3,228.5z"/>
							</g>
						</g>
					</g>
				</g>
				<path class="st2" d="M103.4,280.1c10.2-2.2,37.4-16.9,32.3-51.7c-0.6-4,7,1,8.6,25.1c1.5,23.6-10.8,40.3-31.7,39.2
					C91.7,291.6,92.4,282.5,103.4,280.1z"/>
				<g>
					<g>
						<path class="st3" d="M130.1,233.2c0,2.1-1.7,3.8-3.8,3.8c-2.1,0-3.8-1.7-3.8-3.8c0-2.1,1.7-3.8,3.8-3.8
							C128.4,229.4,130.1,231.1,130.1,233.2z"/>
						<path class="st4" d="M129.8,233.2c0,1.9-1.5,3.4-3.4,3.4c-1.9,0-3.4-1.5-3.4-3.4c0-1.9,1.5-3.4,3.4-3.4
							C128.2,229.8,129.8,231.4,129.8,233.2z"/>
						<path class="st5" d="M128.8,233.2c0,1.3-1.1,2.4-2.4,2.4s-2.4-1.1-2.4-2.4c0-1.3,1.1-2.4,2.4-2.4S128.8,231.9,128.8,233.2z"/>
						<circle class="st2" cx="125.5" cy="232.4" r="0.5"/>
						<circle class="st2" cx="127.2" cy="232.4" r="0.5"/>
						<circle class="st2" cx="125.5" cy="234.1" r="0.5"/>
						<circle class="st2" cx="127.2" cy="234.1" r="0.5"/>
					</g>
					<g>
						<path class="st3" d="M99.2,234.4c0,2.1-1.7,3.8-3.8,3.8c-2.1,0-3.8-1.7-3.8-3.8c0-2.1,1.7-3.8,3.8-3.8
							C97.5,230.6,99.2,232.3,99.2,234.4z"/>
						<path class="st4" d="M98.8,234.4c0,1.9-1.5,3.4-3.4,3.4c-1.9,0-3.4-1.5-3.4-3.4c0-1.9,1.5-3.4,3.4-3.4
							C97.2,230.9,98.8,232.5,98.8,234.4z"/>
						<circle class="st5" cx="95.4" cy="234.4" r="2.4"/>
						<circle class="st2" cx="94.5" cy="233.6" r="0.5"/>
						<circle class="st2" cx="96.3" cy="233.6" r="0.5"/>
						<circle class="st2" cx="94.5" cy="235.2" r="0.5"/>
						<circle class="st2" cx="96.3" cy="235.2" r="0.5"/>
					</g>
					<g>
						<path class="st3" d="M133.5,258.9c0,2.1-1.7,3.8-3.8,3.8s-3.8-1.7-3.8-3.8c0-2.1,1.7-3.8,3.8-3.8S133.5,256.8,133.5,258.9z"/>
						<path class="st4" d="M133.2,258.9c0,1.9-1.5,3.4-3.4,3.4c-1.9,0-3.4-1.5-3.4-3.4c0-1.9,1.5-3.4,3.4-3.4
							C131.6,255.5,133.2,257,133.2,258.9z"/>
						<path class="st5" d="M132.2,258.9c0,1.3-1.1,2.4-2.4,2.4c-1.3,0-2.4-1.1-2.4-2.4c0-1.3,1.1-2.4,2.4-2.4
							C131.1,256.5,132.2,257.6,132.2,258.9z"/>
						<ellipse class="st2" cx="128.9" cy="258.1" rx="0.5" ry="0.5"/>
						<circle class="st2" cx="130.6" cy="258.1" r="0.5"/>
						<ellipse class="st2" cx="128.9" cy="259.7" rx="0.5" ry="0.5"/>
						<circle class="st2" cx="130.6" cy="259.7" r="0.5"/>
					</g>
					<g>
						<path class="st3" d="M102.3,259.4c0,2.1-1.7,3.8-3.8,3.8s-3.8-1.7-3.8-3.8c0-2.1,1.7-3.8,3.8-3.8S102.3,257.3,102.3,259.4z"/>
						<path class="st4" d="M101.9,259.4c0,1.9-1.5,3.4-3.4,3.4c-1.9,0-3.4-1.5-3.4-3.4c0-1.9,1.5-3.4,3.4-3.4
							C100.3,256,101.9,257.5,101.9,259.4z"/>
						<circle class="st5" cx="98.5" cy="259.4" r="2.4"/>
						<ellipse class="st2" cx="97.6" cy="258.6" rx="0.5" ry="0.5"/>
						<circle class="st2" cx="99.3" cy="258.6" r="0.5"/>
						<ellipse class="st2" cx="97.6" cy="260.2" rx="0.5" ry="0.5"/>
						<circle class="st2" cx="99.3" cy="260.2" r="0.5"/>
					</g>
					<g>
						<path class="st3" d="M136,282c0,2.1-1.7,3.8-3.8,3.8c-2.1,0-3.8-1.7-3.8-3.8c0-2.1,1.7-3.8,3.8-3.8
							C134.3,278.2,136,279.9,136,282z"/>
						<path class="st4" d="M135.6,282c0,1.9-1.5,3.4-3.4,3.4c-1.9,0-3.4-1.5-3.4-3.4c0-1.9,1.5-3.4,3.4-3.4
							C134.1,278.6,135.6,280.1,135.6,282z"/>
						<ellipse class="st5" cx="132.2" cy="282" rx="2.4" ry="2.4"/>
						<circle class="st2" cx="131.3" cy="281.2" r="0.5"/>
						<circle class="st2" cx="133.1" cy="281.2" r="0.5"/>
						<circle class="st2" cx="131.3" cy="282.8" r="0.5"/>
						<circle class="st2" cx="133.1" cy="282.8" r="0.5"/>
					</g>
					<g>
						<path class="st3" d="M98.5,283.3c0,2.1-1.7,3.8-3.8,3.8c-2.1,0-3.8-1.7-3.8-3.8c0-2.1,1.7-3.8,3.8-3.8
							C96.8,279.5,98.5,281.2,98.5,283.3z"/>
						<path class="st4" d="M98.1,283.3c0,1.9-1.5,3.4-3.4,3.4c-1.9,0-3.4-1.5-3.4-3.4c0-1.9,1.5-3.4,3.4-3.4
							C96.6,279.9,98.1,281.4,98.1,283.3z"/>
						<path class="st5" d="M97.1,283.3c0,1.3-1.1,2.4-2.4,2.4c-1.3,0-2.4-1.1-2.4-2.4c0-1.3,1.1-2.4,2.4-2.4
							C96,280.9,97.1,282,97.1,283.3z"/>
						<ellipse class="st2" cx="93.8" cy="282.5" rx="0.5" ry="0.5"/>
						<circle class="st2" cx="95.6" cy="282.5" r="0.5"/>
						<circle class="st2" cx="93.8" cy="284.1" r="0.5"/>
						<circle class="st2" cx="95.6" cy="284.1" r="0.5"/>
					</g>
				</g>
				<path class="st6" d="M189.3,257.5c-2-1.3-5.7-5.7-6.4-15.6c-0.6-9.9,2-17.5,2-17.5c-12.5,4.4-18.3,1.4-30-5.2
					c-6.1-3.4-12.5-6.6-20.3-8.8c-13.2,23.3-43.3,18.2-43.3,18.2c-0.2-7.3,0.8-7.7,6.7-8.9c-4.5-2.5-7.8-6.2-9.7-8.7
					c-38.8,13.7-42.5,62.2-38.4,70.7c5.3,11.1,20.5,4.4,20.5,4.4s-10.3,41.5-9.2,43.7c1.1,2.2,21.7,15.9,53.4,15.4
					c31.7-0.5,49-13.2,49-13.2s-1.7-9.8-3.5-18.5c-1.8-8.7-11.9-66.1-11.9-66.1s13.7,13.7,25.6,13.7
					C185.6,260.9,189.3,257.5,189.3,257.5z M66.2,265.2c-3.3,14.2-5.8,20.2-12.2,18.1c-7.7-2.4-5.4-28.4,6.9-49.4
					c9-15.3,23.3-21,28.3-18c4.9,2.9-3.1,13.8-5.5,25.4c-2.5,11.6-8.8,7-4.9-4.2C78.7,237,69.5,250.9,66.2,265.2z M114.5,342
					C59,342.3,63,304.5,75.9,307.4c9.8,2.2,44.3,7.6,71.3-2C161.8,300.3,163.2,341.7,114.5,342z M143.2,228.5
					c0,0,19.7,66.5-30.3,67.5c-33.2,0.7-33.7-21.7-13.6-21.2c12,0.3,17.4-3,17-9.6c-0.4-6.6,2.2-9.2-1.8-13.3
					c-2.3-2.4,1.7-10.7-5.9-9.6c-8.6,1.3-9.4-7.8,5.9-12.8c21.1-6.9,19.2-18.9,30.6-14.7c13,4.8,13.3,9.9,23.1,12.3
					c4,1,7.7,0.7,10.3,0.3c2.1-0.4,3.1,0.4,2.8,2.4c-0.7,4.5-1.5,12.8,0.6,19.2C184.4,256.8,153.4,250.5,143.2,228.5z"/>
				<path class="st2" d="M77.5,314.1c16,10,36.7,16.9,58.8,11.1c12.1-3.1,1.4,23.5-40.2,12.7C70.3,331.3,66.4,307.2,77.5,314.1z"/>
				<path class="st2" d="M53.4,256.1c3.9-19,16.7-33.2,24.3-37c7.6-3.8-7.6,8.3-14.2,31c-5.7,19.5-2.4,25.8-8,26.6
					C49.9,277.6,51.5,265.6,53.4,256.1z"/>
				<path class="st2" d="M155.6,221.7c12.2,8.8,17.4,7.4,21.3,6.7c3.9-0.7,1.8,11.4-14.4,6.7C149.6,231.4,135.4,207.2,155.6,221.7z"
					/>
			</g>
			<g>
				<g>
					<path class="st5" d="M105.9,217.9c-13.1,3.4-14.9,0.8-14.6,10.6c0,0,30.2,5.2,43.3-18.2c-3.5-1-7.3-1.8-11.4-2.4
						C120.9,210.5,115.4,215.4,105.9,217.9z"/>
					<path class="st5" d="M123.2,208c-2.3,2.6-7.8,7.4-17.3,9.9c-13.1,3.4-14.9,0.8-14.6,10.6c0,0,30.2,5.2,43.3-18.2
						C131.1,209.3,127.4,208.5,123.2,208z M106,227.4c-11.6,1.4-15.3-5.3-10.6-6.2c10.3-2.1,12.6-3,17.1-4.7
						c4.3-1.6,8.6-2.4,10.7-0.6C125.3,217.6,122.3,225.4,106,227.4z"/>
				</g>
				<g>
					<path class="st7" d="M107.2,217.5c8.7-2.6,13.8-7.1,16-9.6c-4.4-0.6-9.3-0.8-14.6-0.7c-2.7,0.1-5.3,0.3-7.8,0.6
						C101.9,210.5,103.9,214.3,107.2,217.5z"/>
					<path class="st8" d="M107.2,217.5c8.7-2.6,13.8-7.1,16-9.6c-4.4-0.6-9.3-0.8-14.6-0.7c-2.7,0.1-5.3,0.3-7.8,0.6
						C101.9,210.5,103.9,214.3,107.2,217.5z"/>
				</g>
				<g>
					<path class="st5" d="M98,219.6c2-0.4,4.6-0.9,8-1.8c0.4-0.1,0.8-0.2,1.2-0.3c-3.3-3.2-5.3-7-6.4-9.6c-4.5,0.6-8.7,1.6-12.5,3
						C90.2,213.4,93.4,217.1,98,219.6z"/>
					<path class="st5" d="M100.8,207.9c-4.5,0.6-8.7,1.6-12.5,3c1.9,2.6,5.1,6.2,9.7,8.7c2-0.4,4.6-0.9,8-1.8
						c0.4-0.1,0.8-0.2,1.2-0.3C103.9,214.3,101.9,210.5,100.8,207.9z M101.8,218.3c-4.5,0.9-9.3-3.9-11-5.6
						c-1.1-1.1-0.8-1.1,0.7-0.9c1.5,0.2,6.4,1,9.8,1.6C104.8,214,106.3,217.3,101.8,218.3z"/>
				</g>
			</g>
			<g>
				<path class="st5" d="M68.2,295.5c1.8,1.4,6.6,8,40.2,7c33.5-1,46.9-8.6,48-9.2c1.1-0.5,3.1,3.8,1,5.7
					c-2.1,1.9-16.7,7.6-48.2,9.1c-31.5,1.4-40.9-6.7-42.3-7.5C65.4,299.6,66.6,294.3,68.2,295.5z"/>
				<path class="st5" d="M156.3,293.3c-1.1,0.5-14.5,8.2-48,9.2c-33.5,1-38.4-5.7-40.2-7c-1.6-1.2-2.8,4.1-1.2,5.1
					c1.3,0.8,10.8,8.9,42.3,7.5c31.5-1.4,46.1-7.1,48.2-9.1C159.4,297.1,157.4,292.8,156.3,293.3z M111.2,306.9
					c-38.9,0.8-43-7.8-34.5-5.7c22.2,5.6,57.4,0.8,70.6-3.4C160.4,293.6,150.1,306.1,111.2,306.9z"/>
			</g>
			<g>
				<g>
					<path class="st5" d="M196.7,217.2c-1.9-1.2-5,0-8.1,1.9c-3.1,1.9-3.7,5.2-3.7,5.2s-2.6,7.7-2,17.5c0.6,9.9,4.4,14.4,6.4,15.6
						c4.8,2.8,13.3-5,14-6.9C191,233,196.7,217.2,196.7,217.2z"/>
					<path class="st9" d="M196.7,217.2c0,0-5.7,15.8,6.6,33.4C208.8,234.8,198.6,218.4,196.7,217.2z"/>
				</g>
				<g>
					<path class="st10" d="M196.9,237.4c-2.2-7.7-1.6-14-0.9-17.5c0,0,8-3.9,9.4-5.2c1.3-1.3-0.4-4.9,2.4-8.5
						c2.8-3.6,9.6-4.9,9.6-4.9s5.8-7.9,11.9-7c6.1,0.9,4.6,5,3.1,7.6c0,0,2.8,5.1-1.3,8.3c0,0,2.6,3.6,1.3,6.4c-1.3,2.8-3.8,3-3.8,3
						s2.4,2.8,0.2,6c-2.2,3.2-4.9,0.7-5.4-1.4c0,0-2.7,7.1-8.9,8.3c-6.1,1.3-7.9-1.1-7.9-1.1L196.9,237.4z"/>
					<g>
						<g>
							<g>
								<path class="st11" d="M215.8,201.8c1-0.4,2-0.8,2.9-1.3c1-0.5,1.8-1,2.8-1.6c0.5-0.3,0.9-0.5,1.4-0.7
									c0.5-0.2,1.1-0.4,1.7-0.4c0.6,0,1.2,0.3,1.7,0.7c0.4,0.3,0.8,0.9,1,1.5c0.1,0.3,0.1,0.6,0.2,0.9c0,0.3,0,0.6,0,0.9
									c-0.1,0.6-0.2,1.1-0.4,1.7c-0.1,0.3-0.2,0.5-0.3,0.8l-0.4,0.7c-0.3,0.5-0.6,0.9-1,1.3c-0.2,0.2-0.4,0.4-0.6,0.6
									c-0.2,0.2-0.4,0.4-0.7,0.5c-0.5,0.3-0.9,0.6-1.4,0.8c-0.5,0.3-1,0.4-1.5,0.6c-0.5,0.2-1.1,0.3-1.6,0.4l0.3-0.6
									c0.3,0.7,0.6,1.4,0.8,2.1c0.2,0.7,0.4,1.4,0.5,2.2c0.2,1.5,0.2,3-0.3,4.4c-0.1,0.3-0.2,0.7-0.4,1c-0.1,0.3-0.3,0.6-0.5,1
									c-0.2,0.3-0.4,0.6-0.7,0.9c-0.2,0.3-0.5,0.5-0.8,0.8c-1.1,0.9-2.4,1.6-3.8,2c1.3-0.5,2.6-1.3,3.6-2.2
									c0.2-0.3,0.5-0.5,0.7-0.8c0.2-0.3,0.4-0.6,0.6-0.9c0.2-0.3,0.3-0.6,0.5-0.9c0.2-0.3,0.2-0.6,0.3-1c0.2-0.7,0.3-1.3,0.3-2
									c0-0.3,0-0.7,0-1c0-0.3-0.1-0.7-0.1-1c-0.1-0.7-0.3-1.4-0.5-2c-0.2-0.7-0.5-1.3-0.8-1.9l-0.2-0.5l0.6-0.1
									c0.5-0.1,1-0.2,1.5-0.4c0.5-0.2,1-0.3,1.4-0.6c0.5-0.2,0.9-0.5,1.3-0.8c0.2-0.1,0.4-0.3,0.6-0.5c0.2-0.2,0.4-0.3,0.6-0.5
									c0.4-0.4,0.7-0.8,1-1.2l0.4-0.6c0.1-0.2,0.2-0.5,0.3-0.7c0.2-0.5,0.3-1,0.3-1.4c0-0.2,0-0.5,0-0.7c0-0.2-0.1-0.5-0.1-0.7
									c-0.1-0.2-0.1-0.5-0.3-0.6c-0.1-0.1-0.1-0.2-0.2-0.3l-0.3-0.3c-0.3-0.2-0.8-0.5-1.2-0.5c-0.9-0.1-1.9,0.4-2.8,0.9
									c-0.9,0.5-1.9,1-2.9,1.4c-0.5,0.2-1,0.4-1.5,0.6C216.8,201.5,216.3,201.6,215.8,201.8z"/>
							</g>
						</g>
						<g>
							<g>
								<path class="st11" d="M226.5,203.8c0,0,0.6,0,1.3-0.1c0.2,0,0.4-0.1,0.6-0.1c0.2,0,0.4-0.1,0.7-0.2c0.4-0.2,0.9-0.3,1.3-0.6
									c0.2-0.1,0.4-0.2,0.6-0.4c0.2-0.1,0.4-0.3,0.6-0.4c0.2-0.2,0.3-0.3,0.5-0.5c0.2-0.1,0.3-0.3,0.4-0.5
									c0.3-0.3,0.5-0.6,0.6-0.7c0.1-0.2,0.2-0.3,0.2-0.3s0,0.1-0.1,0.4c-0.1,0.2-0.1,0.6-0.3,0.9c-0.1,0.2-0.2,0.4-0.3,0.6
									c-0.1,0.2-0.3,0.4-0.5,0.6c-0.2,0.2-0.4,0.4-0.6,0.6c-0.2,0.2-0.5,0.3-0.7,0.5c-0.3,0.1-0.5,0.3-0.8,0.3
									c-0.3,0.1-0.5,0.1-0.8,0.2c-0.5,0.1-1,0.1-1.4,0C227,204.1,226.5,203.8,226.5,203.8z"/>
							</g>
						</g>
						<g>
							<g>
								<path class="st11" d="M225.5,205.4c0,0-0.1,0.2-0.4,0.5c-0.2,0.3-0.5,0.8-0.7,1.5c-0.2,0.6-0.2,1.4,0.2,2.1
									c0.2,0.3,0.4,0.6,0.7,0.9c0.2,0.1,0.3,0.3,0.5,0.3l0.2,0.1l0.3,0.1c0.2,0.1,0.4,0.1,0.6,0.2c0.2,0,0.4,0.1,0.6,0.1
									c0.4,0,0.8,0,1.2-0.1c0.4-0.1,0.8-0.2,1.1-0.3c0.3-0.1,0.7-0.3,1-0.5c0.3-0.2,0.5-0.3,0.8-0.5c0.2-0.2,0.4-0.3,0.5-0.5
									c0.1-0.1,0.2-0.3,0.3-0.4c0.1-0.1,0.1-0.1,0.1-0.1c0,0,0,0.2-0.2,0.6c-0.2,0.4-0.6,0.9-1.1,1.3c-0.3,0.2-0.6,0.5-1,0.7
									c-0.4,0.2-0.8,0.4-1.2,0.5c-0.5,0.1-0.9,0.2-1.4,0.2c-0.3,0-0.5,0-0.8-0.1c-0.2-0.1-0.6-0.1-0.8-0.2l-0.3-0.1
									c-0.2-0.1-0.2-0.1-0.4-0.2c-0.2-0.1-0.4-0.3-0.6-0.5c-0.4-0.3-0.7-0.8-0.9-1.2c-0.2-0.5-0.2-1-0.2-1.4
									c0-0.4,0.2-0.8,0.3-1.2c0.1-0.3,0.3-0.6,0.5-0.9c0.2-0.2,0.4-0.4,0.5-0.6c0.1-0.2,0.3-0.2,0.4-0.3
									C225.5,205.4,225.5,205.4,225.5,205.4z"/>
							</g>
						</g>
						<g>
							<g>
								<path class="st11" d="M226.5,211.7c0,0-0.1,0-0.1,0.1c-0.1,0-0.2,0.1-0.4,0.2c-0.2,0.1-0.4,0.2-0.6,0.4
									c-0.2,0.2-0.4,0.4-0.6,0.7c-0.4,0.5-0.7,1.2-0.8,2c-0.2,0.8-0.1,1.6,0.1,2.4c0.3,0.7,0.8,1.3,1.5,1.6
									c0.3,0.2,0.7,0.3,1.1,0.3c0.4,0.1,0.7,0.1,1,0.1c0.3,0,0.6,0,0.9,0c0.3,0,0.5,0,0.7-0.1c0.4-0.1,0.6-0.1,0.6-0.1
									s-0.2,0.1-0.6,0.2c-0.2,0.1-0.4,0.1-0.7,0.2c-0.3,0.1-0.6,0.2-0.9,0.2c-0.2,0-0.4,0-0.5,0.1c-0.2,0-0.4,0-0.6,0
									c-0.4,0-0.9-0.1-1.3-0.3c-0.4-0.2-0.9-0.4-1.2-0.8c-0.4-0.4-0.6-0.8-0.8-1.3c-0.3-1-0.3-2,0-2.9c0.2-0.9,0.7-1.6,1.2-2.1
									c0.3-0.3,0.5-0.5,0.8-0.6c0.3-0.1,0.5-0.2,0.7-0.3C226.3,211.7,226.5,211.7,226.5,211.7z"/>
							</g>
						</g>
						<g>
							<g>
								<path class="st11" d="M225.7,219.5c0,0-0.1,0.1-0.3,0.1c-0.1,0-0.2,0.1-0.3,0.2c-0.1,0.1-0.2,0.2-0.4,0.3
									c-0.1,0.1-0.2,0.2-0.3,0.4c-0.1,0.2-0.2,0.3-0.3,0.5c-0.1,0.2-0.1,0.4-0.2,0.6c0,0.2-0.1,0.4-0.1,0.6
									c-0.1,0.4-0.1,0.9-0.1,1.3c0,0.4,0,0.8,0.1,1.2c0.1,0.3,0.1,0.6,0.2,0.8c0.1,0.2,0.1,0.3,0.1,0.3s-0.1-0.1-0.3-0.2
									c-0.2-0.2-0.4-0.4-0.5-0.7c-0.2-0.3-0.3-0.8-0.4-1.2c0-0.2-0.1-0.5-0.1-0.7c0-0.3,0-0.5,0.1-0.8c0.1-0.5,0.3-1,0.6-1.5
									c0.1-0.2,0.3-0.4,0.5-0.6c0.2-0.1,0.4-0.3,0.6-0.3c0.2-0.1,0.4-0.1,0.5-0.1c0.2,0,0.3,0,0.4,0
									C225.6,219.4,225.7,219.5,225.7,219.5z"/>
							</g>
						</g>
					</g>
				</g>
				<path class="st12" d="M196.7,217.2c-1.9-1.2-5,0-8.1,1.9c-3.1,1.9-3.7,5.2-3.7,5.2s-2.6,7.7-2,17.5c0.6,9.9,4.4,14.4,6.4,15.6
					c4.8,2.8,13.3-5,14-6.9C191,233,196.7,217.2,196.7,217.2z M192.3,250.6c-7.6,2.5-8.3-6.3-7.5-17.1c1-13.5,8.5-17.5,8.3-6.3
					C192.9,238.3,201.3,247.6,192.3,250.6z"/>
				<path class="st13" d="M186.5,226.3c0.7-3.3,3.8-5.8,1.7,1.4c-2.1,7.2,0.9,18.1,4.8,18.8C196.9,247.1,180.5,254.1,186.5,226.3z"
					/>
				<path class="st8" d="M232.5,202c1.4-2.6,3-6.7-3.1-7.6c-6.1-0.9-11.9,7-11.9,7s-6.8,1.3-9.6,4.9c-2.8,3.6-1.1,7.2-2.4,8.5
					c-1.3,1.3-9.4,5.2-9.4,5.2c-0.7,3.4-1.3,9.8,0.9,17.5l9.7-5.9c0,0,1.8,2.4,7.9,1.1c6.1-1.3,8.9-8.3,8.9-8.3
					c0.5,2.1,3.2,4.6,5.4,1.4c2.2-3.2-0.2-6-0.2-6s2.5-0.2,3.8-3c1.3-2.8-1.3-6.4-1.3-6.4C235.3,207.1,232.5,202,232.5,202z
					 M226.1,195.7c3.1-1.5,5.8-0.7,6.7,1c0.9,1.7-4.2,8.1-4.6,3.7C227.9,195.7,224.1,196.7,226.1,195.7z M217.6,206.4
					c-1.2-0.1,2.4,2.2,2,8.4c-0.4,6.2-5.3,7.7-8.1,7.8c-2.8,0.1,3.8,3.1,7.4-0.9c3.6-4.1,4.4,8.5-6.8,8.9c-5.1,0.2-3.8-2.1-7.1-0.5
					c-3.3,1.6-8.3,2.6-8.9-1.7c-0.6-4.3-0.2-8,1.7-8.6c5.6-1.7,9.3-3.8,8.9-6.7c-0.4-3,0.2-8.2,6.6-9.7c7.2-1.8,9.8-5.1,11.2-4.6
					C225.8,199.2,225.9,206.8,217.6,206.4z M229.3,222.6c0.1,2.2-4.7,5.1-4.8,0.5C224.3,219.3,229.1,220.4,229.3,222.6z M232,213.3
					c1.1,1.2,0.5,5.9-4.6,5.5c-5.1-0.4-3.6-6.2-0.8-5.5C228.8,213.8,231,212.1,232,213.3z M229.9,210.5c-3.8,1.4-6.3-3-2.1-4.6
					c1.9-0.7,4-2.8,4.8-2C233.3,204.7,233.7,209.1,229.9,210.5z"/>
				<path class="st14" d="M204.5,218.1c3.6-2,3.2-2.5,3.2-5.3c0-2.7-0.2-6.5,3.7-8.3c3.9-1.9,7.8-2.3,10.2-4.4
					c2.4-2.1,4.1,4.9-2.4,5.1c-6.5,0.2-0.7,0.4-1.1,7.5c-0.4,7.2-3.1,8.2-8.7,8.5c-5.5,0.3,1.2,3.7,3.8,3.4c2.6-0.4,0.9,3.5-5.9,3.3
					C197.9,227.6,198.1,221.6,204.5,218.1z"/>
			</g>
			<g>
				<g>
					<g>
						<path class="st5" d="M85.1,254c-0.7-1.1-8.6-0.6-10.1,1.3c-12,15.2-7.2,36-7.2,36c8.6,1.4,14.6-2.4,14.6-2.4
							C77.6,270.5,85.1,254,85.1,254z"/>
						<path class="st9" d="M85.1,254c0,0-7.5,16.5-2.7,34.9C89.1,273.1,85.8,255.1,85.1,254z"/>
					</g>
					<g>
						<path class="st10" d="M80.9,271.7c0.5-6.4,2-11.7,3-14.7c0,0,4.5-1.4,5.1-1.4c0,0,0.1-2.1,0.5-6.2c0.5-4.1-4.5-5.9-3.5-9.3
							c1-3.4,6.2-3.4,7,1.2c0.8,4.6,1.4,5.7,2.5,5.4c1.1-0.3,14.5-3.5,16.3-1c1.8,2.4-0.6,6.2-0.6,6.2s2.1,1.6,2.6,3.3
							c0.5,1.7-0.6,4.4-0.6,4.4s2.1,3.6,0.7,7.8c-1.4,4.2-10.2,5.4-15,6.1c-4.9,0.7-9-2.5-9.4-3.8L80.9,271.7z"/>
						<g>
							<g>
								<g>
									<path class="st11" d="M106.1,250.1c0,0,0.3,0.2,0.8,0.6c0.1,0.1,0.2,0.2,0.4,0.3c0.1,0.1,0.3,0.2,0.4,0.4
										c0.1,0.2,0.2,0.3,0.3,0.5c0.1,0.2,0.1,0.4,0.2,0.6c0.1,0.2,0,0.4,0.1,0.6c0,0.2,0,0.4,0,0.6c-0.1,0.4-0.1,0.7-0.3,1
										c-0.2,0.5-0.5,0.9-0.5,0.9s-0.1-0.4-0.1-1c0-0.3,0-0.6,0-0.9c0-0.2,0-0.3,0-0.5c0-0.2,0-0.3-0.1-0.5c0-0.2-0.1-0.3-0.1-0.5
										c-0.1-0.1-0.1-0.3-0.2-0.4c-0.1-0.3-0.3-0.6-0.4-0.8C106.2,250.5,106.1,250.1,106.1,250.1z"/>
								</g>
							</g>
							<g>
								<g>
									<path class="st11" d="M109.1,259.7c0,0,0,0.1,0,0.4c0,0.1,0.1,0.3,0.1,0.4c0,0.1,0.1,0.3,0.2,0.5c0.1,0.4,0.3,0.8,0.5,1.2
										c0.2,0.5,0.4,1,0.6,1.5c0.1,0.3,0.2,0.5,0.2,0.8c0.1,0.3,0.1,0.6,0.1,0.8c0,0.5,0,1.1-0.2,1.5c0,0.2-0.2,0.4-0.2,0.5
										c-0.1,0.2-0.2,0.3-0.3,0.4c-0.2,0.2-0.3,0.3-0.3,0.3s0-0.1,0.1-0.4c0-0.1,0.1-0.2,0.1-0.4c0-0.2,0.1-0.3,0.1-0.5
										c0-0.4,0-0.8-0.1-1.3c-0.1-0.5-0.3-0.9-0.5-1.4c-0.2-0.5-0.4-1-0.5-1.5c-0.2-0.5-0.3-1-0.3-1.4c0-0.2,0-0.4,0-0.6
										c0-0.2,0-0.3,0.1-0.4C109,259.9,109.1,259.7,109.1,259.7z"/>
								</g>
							</g>
						</g>
					</g>
					<g>
						<path class="st12" d="M85.1,254c-0.7-1.1-8.6-0.6-10.1,1.3c-12,15.2-7.2,36-7.2,36c8.6,1.4,14.6-2.4,14.6-2.4
							C77.6,270.5,85.1,254,85.1,254z M74.3,284.6c-5.9,1.1-7.3-3.9-5.7-11.2c2.9-13,7.1-18.4,11.1-18.3c4,0.1,0.9,6.7,0,12.2
							C78,278.2,80.9,283.4,74.3,284.6z"/>
						<path class="st13" d="M69.4,274.1c1.1-10.9,5.8-17.3,9.4-17.8c2.3-0.3-5.4,5.6-6.6,20C71.5,285.4,68.9,279.7,69.4,274.1z"/>
					</g>
				</g>
				<path class="st8" d="M113.4,259.5c0,0,1-2.7,0.6-4.4c-0.5-1.7-2.6-3.3-2.6-3.3s2.4-3.8,0.6-6.2c-1.8-2.4-15.2,0.7-16.3,1
					c-1.1,0.3-1.7-0.8-2.5-5.4c-0.8-4.6-6.1-4.5-7-1.2c-1,3.4,4,5.2,3.5,9.3c-0.5,4.1-0.5,6.2-0.5,6.2c-0.6,0.1-5.1,1.4-5.1,1.4
					c-1,3.1-2.5,8.3-3,14.7l8.6-2.1c0.4,1.3,4.6,4.5,9.4,3.8c4.9-0.7,13.7-2,15-6.1C115.4,263.1,113.4,259.5,113.4,259.5z
					 M110.5,265.4c0,0,0.2,4.3-9.9,4.9c-10.1,0.6-6.5-5.1-10.9-4.2c-4.4,0.8-6.3-2-6.1-5.3c0.1-3.3,4.3-4,5.5-4.2
					c1.2-0.2-0.1-2.5,1.1-6.4c1.1-3.9-0.1-5-2-7.1c-2.4-2.8,0.2-6,3.3-3.8c3.1,2.2-0.1,6.9,3.1,8.5c1.5,0.8,6.1-1.9,12.3-2.7
					c6.2-0.8,4.7,3.4,2.8,5.1c-1.9,1.8,1.2,1.5,2.7,3.4c1.5,1.9,0.1,3-1.4,5.5c-0.5,0.8,1.9,0.3,2.6,3.9
					C114.6,266.4,111.5,266.7,110.5,265.4z"/>
				<path class="st14" d="M93.5,247.7c1,1.9,3.3,2.3,6.3,0.7c3-1.6,5.3,0.3,5.8,3.5c0.5,3.2-2,3.7,1.1,8.8
					c3.1,5.1-9.5,11.1-14.1,4.1c-1.4-2.1-7.1,0.7-8.2-3.5c-1.1-4.2,6.7-2.9,6.4-5.7c-0.3-2.8,0-4.9,0.7-7.2
					C92.4,246.1,93.1,246.8,93.5,247.7z"/>
			</g>
		</g>
		<g>
			<g>
				<path class="st10" d="M198.2,122.9c-5.5-33-37.2-52.1-81-52.1c-43.8,0-66.9,14.5-77.4,50.3c-6,20.4-0.9,38.4,3,49.1
					c0,0,13.9,41.9,70.7,43.9c59.6,2.1,76.3-41,76.3-41S201.8,144.8,198.2,122.9z"/>
				<path class="st8" d="M86.4,181c0,0,27.8,10.3,59.6-7c0,0,2.7,25.2-29.5,27.3C84.3,203.3,86.4,181,86.4,181z"/>
				<path class="st8" d="M198.2,122.9c-5.5-33-37.2-52.1-81-52.1c-43.8,0-66.9,14.5-77.4,50.3c-6,20.4-0.9,38.4,3,49.1
					c0,0,13.9,41.9,70.7,43.9c59.6,2.1,76.3-41,76.3-41S201.8,144.8,198.2,122.9z M116.4,212.2c-52.2,0-77.6-45.1-73.6-69.7
					c4-24.7,12.7-40,73.3-41.1c60.6-1.2,68.2,10.4,72.4,33.5C192.8,158,177.5,212.2,116.4,212.2z"/>
				<path class="st7" d="M23.3,153.5c-7.5,15.6,13.5,24.7,19.5,16.7c-2-5.5-4.3-12.9-5.3-21.6c-1.1-0.8-2-1.2-2-1.2
					S27.8,144.2,23.3,153.5z"/>
				<path class="st7" d="M189.7,173.1c0,0,6.1,7.8,16-0.2c9.9-8,8.1-23.8-3.4-24.5c-2.2,0.1-4.1,1.1-5.7,2.2
					C194,163.2,189.7,173.1,189.7,173.1z"/>
				<g>
					<path class="st15" d="M145.1,150.6c0,3-2.4,5.5-5.5,5.5c-3,0-5.5-2.5-5.5-5.5c0-3,2.4-5.5,5.5-5.5
						C142.6,145.1,145.1,147.6,145.1,150.6z"/>
					<path class="st16" d="M144.1,150.6c0,2.5-2,4.5-4.5,4.5c-2.5,0-4.5-2-4.5-4.5c0-2.5,2-4.5,4.5-4.5
						C142.1,146,144.1,148.1,144.1,150.6z"/>
					<path class="st17" d="M142.2,150.6c0,1.5-1.2,2.7-2.7,2.7c-1.5,0-2.7-1.2-2.7-2.7c0-1.5,1.2-2.7,2.7-2.7
						C141,147.9,142.2,149.1,142.2,150.6z"/>
					<path class="st18" d="M139.1,149.7c0,0.7-0.6,1.3-1.3,1.3c-0.7,0-1.3-0.6-1.3-1.3c0-0.7,0.6-1.3,1.3-1.3
						C138.5,148.3,139.1,148.9,139.1,149.7z"/>
					<ellipse class="st18" cx="142.3" cy="152.7" rx="0.7" ry="0.7"/>
				</g>
				<g>
					<path class="st15" d="M92.4,152.8c0,3-2.5,5.5-5.5,5.5c-3,0-5.5-2.5-5.5-5.5c0-3,2.4-5.5,5.5-5.5
						C89.9,147.4,92.4,149.8,92.4,152.8z"/>
					<path class="st16" d="M91.4,152.8c0,2.5-2,4.5-4.5,4.5c-2.5,0-4.5-2-4.5-4.5c0-2.5,2-4.5,4.5-4.5
						C89.4,148.3,91.4,150.3,91.4,152.8z"/>
					<path class="st17" d="M89.4,152.9c0,1.5-1.2,2.7-2.7,2.7c-1.5,0-2.7-1.2-2.7-2.7c0-1.5,1.2-2.7,2.7-2.7
						C88.3,150.2,89.4,151.4,89.4,152.9z"/>
					<path class="st18" d="M86.4,151.9c0,0.7-0.6,1.3-1.3,1.3c-0.7,0-1.3-0.6-1.3-1.3c0-0.7,0.6-1.3,1.3-1.3
						C85.8,150.6,86.4,151.2,86.4,151.9z"/>
					<path class="st18" d="M90.4,155c0,0.4-0.3,0.7-0.7,0.7c-0.4,0-0.7-0.3-0.7-0.7c0-0.4,0.3-0.7,0.7-0.7
						C90,154.3,90.4,154.6,90.4,155z"/>
				</g>
				<path class="st19" d="M88.9,134.7c-2.4,1.5-6.6-8.7-14.2,0c0,0,1.6-5.8,6.5-7.1C86.6,126.3,92.4,132.6,88.9,134.7z"/>
				<path class="st19" d="M133,132.9c3,1.5,6.6-8.7,14.2,0c0,0-1.6-5.8-6.5-7.1C135.4,124.4,129.6,131.1,133,132.9z"/>
				<g>
					<g>
						<path class="st11" d="M108.6,204.2c0,0,0.2,0.2,0.6,0.5c0.2,0.1,0.4,0.3,0.7,0.5c0.3,0.1,0.6,0.3,1,0.5
							c0.4,0.1,0.8,0.3,1.2,0.4c0.4,0.1,0.9,0.2,1.4,0.3c0.5,0,1,0.1,1.5,0.1c0.5,0,1.1,0,1.6-0.1c0.1,0,0.3,0,0.4,0l0.4-0.1
							c0.3,0,0.5-0.1,0.8-0.1c0.6-0.1,1-0.3,1.4-0.4c0.5-0.1,0.9-0.4,1.3-0.5c0.4-0.2,0.8-0.4,1.1-0.6c0.3-0.2,0.6-0.4,0.9-0.6
							c0.3-0.2,0.5-0.4,0.7-0.5c0.4-0.3,0.5-0.5,0.5-0.5s-0.1,0.2-0.4,0.6c-0.2,0.2-0.3,0.4-0.6,0.7c-0.2,0.2-0.5,0.5-0.8,0.8
							c-0.3,0.2-0.7,0.6-1.1,0.8c-0.4,0.2-0.8,0.5-1.4,0.7c-0.3,0.1-0.5,0.2-0.8,0.3c-0.1,0-0.3,0.1-0.4,0.1l-0.4,0.1
							c-0.3,0-0.5,0.1-0.8,0.1l-0.4,0.1c-0.2,0-0.3,0-0.5,0c-0.6,0-1.1,0-1.7,0c-0.6,0-1.1-0.1-1.6-0.2c-0.5,0-1-0.3-1.5-0.4
							c-0.5-0.1-0.9-0.4-1.2-0.6c-0.4-0.2-0.7-0.4-1-0.6c-0.3-0.2-0.5-0.4-0.6-0.6c-0.2-0.2-0.3-0.4-0.3-0.4
							C108.6,204.3,108.6,204.2,108.6,204.2z"/>
					</g>
					<path class="st8" d="M107.6,203.4c0,0,2.8,4,8.8,3.4c5.9-0.6,8.2-4.8,8.2-4.8s-0.3,6.7-8.5,7.1
						C108.6,209.4,107.6,203.4,107.6,203.4z"/>
				</g>
				<path class="st20" d="M81.3,127.7c-4.9,1.3-6.5,7.1-6.5,7.1c7.6-8.7,11.9,1.5,14.2,0C92.4,132.6,86.6,126.3,81.3,127.7z
					 M88.7,133.9c-2,0.2-5.9-7.1-12.4-1.6c0,0,2.2-4.7,7.3-4.3C88.8,128.4,90.8,133.7,88.7,133.9z"/>
				<path class="st20" d="M140.7,125.8c-5.3-1.4-11.1,5.3-7.7,7.1c3,1.5,6.6-8.7,14.2,0C147.2,132.9,145.6,127.1,140.7,125.8z
					 M136.8,130.3c-2.2,1.5-3.1,2.5-4,1.9c-0.9-0.5-0.6-2.4,0.9-3.8c6.4-6.2,11.3,1.6,11.3,1.6C141.8,127.8,139,128.8,136.8,130.3z"
					/>
				<g>
					<g>
						<path class="st2" d="M113.4,193.3c15.2-0.4,19.8-7.9,21.1-12.3c-17,6.4-33.3,4.7-41.3,3.2C94.8,187.5,99.7,193.6,113.4,193.3z
							"/>
						<path class="st21" d="M105.9,198.7c2.9,0.6,6.3,0.9,10.1,0.7c5-0.3,9.1-1.3,12.6-2.8C118,194.5,110.5,196.6,105.9,198.7z"/>
						<path class="st22" d="M145.1,175.9c-3.5,2.1-7.1,3.7-10.6,5.1c-1.4,4.4-5.9,11.9-21.1,12.3c-13.6,0.3-18.5-5.8-20.2-9.1
							c-3.3-0.6-5.3-1.2-5.3-1.2s2.5,12.5,18.1,15.7c4.5-2.2,12.1-4.2,22.7-2.1C143.1,190.3,145.1,175.9,145.1,175.9z"/>
					</g>
					<path class="st23" d="M93.1,184.2c1.7,3.3,6.6,9.4,20.2,9.1c15.2-0.4,19.8-7.9,21.1-12.3C117.5,187.4,101.2,185.7,93.1,184.2z
						 M116,192.2c-16.1,1.1-22.4-7.2-15.8-6c5.7,1,20.6,0.9,28.5-2.5C136.6,180.2,128.2,191.3,116,192.2z"/>
					<path class="st24" d="M105.9,198.7c2.9,0.6,6.3,0.9,10.1,0.7c5-0.3,9.1-1.3,12.6-2.8C118,194.5,110.5,196.6,105.9,198.7z
						 M116.5,198.9c-13.3,0.9-6-2.3-0.1-2.7C123.1,195.7,131.3,197.9,116.5,198.9z"/>
				</g>
				<g>
					<path class="st25" d="M194.8,169.4c1.1,1.4,2.6,2.4,4.5,2c5-1.2,6.8-6.3,5.8-11c-0.4-1.6-0.9-2.9-2.3-3.8
						c-0.1-0.2-0.2-0.3-0.3-0.3c-4.5-2.2-7,4.2-8,7.4C194,165.5,193.5,167.7,194.8,169.4z"/>
					<path class="st26" d="M201,161.5c0-1.7-0.4-4.6-2.8-3.9c-0.5,0.2-0.9,0.4-1.3,0.6c-1.1,1.7-1.9,3.8-2.3,5.3
						c-0.5,1.9-1,4.1,0.3,5.8c0.2,0.2,0.4,0.5,0.6,0.7c0.8-0.3,1.5-0.8,2-1.2C199.3,167.2,201,164.2,201,161.5z"/>
				</g>
				<g>
					<path class="st25" d="M39,161.4c-1-3.3-3.5-9.6-8-7.4c-0.1,0-0.2,0.2-0.3,0.3c-1.3,0.9-1.9,2.2-2.3,3.8
						c-1.1,4.7,0.8,9.8,5.8,11c1.9,0.5,3.4-0.5,4.5-2C40,165.4,39.5,163.2,39,161.4z"/>
					<path class="st26" d="M32.5,159.3c0-1.7,0.4-4.7,2.8-3.9c0.5,0.2,0.9,0.4,1.3,0.6c1.1,1.7,1.9,3.8,2.3,5.3
						c0.5,1.9,1,4.1-0.3,5.8c-0.2,0.2-0.4,0.5-0.6,0.7c-0.8-0.3-1.5-0.8-2-1.2C34.2,164.9,32.5,162,32.5,159.3z"/>
				</g>
				<path class="st8" d="M37.5,148.6c-1.1-0.8-2-1.2-2-1.2s-7.8-3.2-12.2,6c-7.5,15.6,13.5,24.7,19.5,16.7
					C40.8,164.7,38.5,157.3,37.5,148.6z M27.2,160.4c0.1,8.2-2.9,6.7-4.4,2.4c-2.6-7.5,5.5-16.6,9.4-15.4
					C36.2,148.5,27.1,152.2,27.2,160.4z"/>
				<path class="st8" d="M202.3,148.4c-2.2,0.1-4.1,1.1-5.7,2.2c-2.7,12.6-6.9,22.5-6.9,22.5s6.1,7.8,16-0.2
					C215.7,164.9,213.9,149.1,202.3,148.4z M205.4,167.8c3-6,0.3-12.6-6.5-13.5c-7.1-0.9,9.6-10.6,12.6,3.1
					C213.9,167.8,202.3,173.8,205.4,167.8z"/>
				<g>
					<path class="st19" d="M201.8,104.1c0,0-6.2-52-81.9-52c-75.7,0-85.5,54.8-85.5,54.8s-8.8,5.4-9.1,18.3
						c-0.2,12.8,10.2,22.3,10.2,22.3s0.9,0.3,2,1.2c0,0,1.9-15.8,6.5-27.1C58.3,87,73.4,79.1,117.2,79.1c43.8,0,60.7,7.7,71.5,39.3
						c5.5,16.2,8,32.1,8,32.1c1.5-1.1,3.5-2.1,5.7-2.2c0,0,7.6-11.1,9.9-22.8C214.5,113.8,208.4,104.8,201.8,104.1z"/>
					<path class="st27" d="M201.8,104.1c0,0-6.2-52-81.9-52c-75.7,0-85.5,54.8-85.5,54.8s-8.8,5.4-9.1,18.3
						c-0.2,12.8,10.2,22.3,10.2,22.3s0.9,0.3,2,1.2c0,0,1.9-15.8,6.5-27.1C58.3,87,73.4,79.1,117.2,79.1c43.8,0,60.7,7.7,71.5,39.3
						c5.5,16.2,8,32.1,8,32.1c1.5-1.1,3.5-2.1,5.7-2.2c0,0,7.6-11.1,9.9-22.8C214.5,113.8,208.4,104.8,201.8,104.1z M46,108.2
						c-1.8,2.9-5.4,10-7.3,20c-1.9,10-1.8,16.3-4.8,10.9c-3-5.3-3.1-13.3-3.1-10.5c0,5.1-0.9,8.4-2.6,4.3
						c-5.3-12.9,2.1-21.3,6.2-24.3c1.9-1.4,3.7-1.4,3.1,0.6c-0.6,2-1.1,3.7-1.1,3.7C39.4,106.9,47.7,105.3,46,108.2z M204.7,136
						c-0.2-3.1-1.3-6-1.3-6c-0.5,9.3-4.6,17-5.9,8.9c-1.4-8-3.1-15.6-7.7-27c-2.1-5.3-3.3-9.6,2.4-7.2c5.7,2.4,8.9,9.7,8.9,9.7
						c-1.9-10.8,7.9-5.9,8.8,7.2C210.8,134.8,204.8,139.1,204.7,136z"/>
					<path class="st20" d="M27.3,121.2c1.4-9.6,9.7-13.4,6.5-3.9c0,0,3.7-6,6.6-6.7c2.9-0.7-0.6,3.3-2.4,10.6
						c-1.8,7.3-1.5,12.6-2.7,13c-1.3,0.4-4.1-7.7-3.9-11.8c0,0-1.5,4.1-1.4,7.5C30,133.2,26,130.2,27.3,121.2z"/>
					<path class="st20" d="M194.1,119.2c2.4,4.8,3.3,9.8,4.5,15c1.2,5.3,5.2-2,3.7-11.5c0,0,3.1,4.8,3.3,9.8c0.2,5,5-4,1.4-14.6
						c-3.6-10.6-7.2-6.7-6.1,0.8c0,0-2.4-5.3-5.4-8.1C189.6,105.3,189,109,194.1,119.2z"/>
				</g>
			</g>
			<g>
				<g>
					<g>
						<path class="st0" d="M29.1,70.8l5.3,36.1c0,0,83.5-22.1,167.3-2.8l1.6-40.7C121,34.5,29.1,70.8,29.1,70.8z"/>
						<path class="st6" d="M118,0C16.9,0-11,50.4,3.7,57.5C17,64.1,29.1,70.8,29.1,70.8s91.9-36.2,174.3-7.4c0,0,11-8.2,25.1-15.5
							C242.7,40.5,231.6,0,118,0z"/>
					</g>
					<g>
						<g>
							<g>
								<path class="st28" d="M15.7,41.7c0,0,0.4,0.5,1,1.3c0.6,0.8,1.6,2,2.8,3.3c0.6,0.7,1.3,1.4,2,2.1c0.7,0.8,1.5,1.5,2.3,2.3
									c0.8,0.8,1.7,1.6,2.5,2.4c0.9,0.8,1.8,1.6,2.7,2.3l1.4,1.1c0.5,0.4,1,0.7,1.4,1.1c0.5,0.3,0.9,0.7,1.4,1
									c0.5,0.3,1,0.6,1.4,0.9c0.9,0.6,1.9,1.2,2.7,1.7c0.4,0.3,0.9,0.5,1.3,0.8c0.4,0.2,0.8,0.4,1.2,0.6c0.8,0.4,1.5,0.8,2.2,1.1
									c0.7,0.3,1.3,0.6,1.7,0.8c1,0.4,1.5,0.7,1.5,0.7s-0.6-0.2-1.6-0.5c-0.5-0.2-1.1-0.4-1.8-0.6c-0.7-0.3-1.5-0.6-2.3-1
									c-0.4-0.2-0.9-0.4-1.3-0.6c-0.4-0.2-0.9-0.5-1.3-0.7c-0.5-0.2-0.9-0.5-1.4-0.8c-0.5-0.3-0.9-0.6-1.4-0.9
									c-1-0.6-2-1.2-2.9-1.9c-0.5-0.3-1-0.7-1.5-1.1l-1.4-1.1c-1-0.8-1.8-1.6-2.7-2.4c-0.9-0.8-1.7-1.7-2.5-2.5
									c-0.8-0.8-1.5-1.6-2.2-2.4c-0.7-0.8-1.3-1.5-1.9-2.3c-1.1-1.4-2-2.7-2.6-3.6C16,42.2,15.7,41.7,15.7,41.7z"/>
							</g>
						</g>
						<g>
							<g>
								<path class="st28" d="M59.7,41.7c0,0,0.1,0.3,0.3,0.9c0.2,0.5,0.5,1.3,0.9,2.2c0.4,0.9,0.9,2,1.4,3.1
									c0.3,0.5,0.6,1.1,0.9,1.7c0.3,0.5,0.6,1.1,1,1.7c0.3,0.5,0.7,1.1,1.1,1.6c0.2,0.3,0.4,0.5,0.6,0.8c0.2,0.2,0.4,0.5,0.6,0.7
									c0.2,0.2,0.4,0.5,0.6,0.7c0.2,0.2,0.4,0.4,0.6,0.6c0.4,0.4,0.7,0.8,1.1,1.1c0.4,0.3,0.7,0.7,1,0.9c0.3,0.3,0.6,0.5,0.8,0.7
									c0.4,0.4,0.7,0.6,0.7,0.6s-0.3-0.2-0.8-0.4c-0.3-0.1-0.6-0.3-0.9-0.5c-0.3-0.2-0.7-0.5-1.1-0.8c-0.4-0.3-0.8-0.7-1.2-1
									c-0.2-0.2-0.4-0.4-0.7-0.6c-0.2-0.2-0.4-0.5-0.6-0.7c-0.4-0.5-0.9-1-1.2-1.5c-0.4-0.5-0.8-1.1-1.1-1.6
									c-0.4-0.6-0.7-1.2-1-1.7c-0.3-0.6-0.6-1.2-0.8-1.7c-0.5-1.2-0.9-2.3-1.2-3.2C59.9,43,59.7,41.7,59.7,41.7z"/>
							</g>
						</g>
						<g>
							<g>
								<path class="st28" d="M80.2,32.3c0,0,0.1,0.4,0.2,1.1c0.1,0.7,0.4,1.6,0.6,2.8c0.3,1.2,0.6,2.5,1,3.9
									c0.2,0.7,0.4,1.4,0.6,2.2c0.2,0.7,0.5,1.5,0.7,2.2c0.3,0.7,0.5,1.5,0.8,2.2c0.3,0.7,0.5,1.4,0.8,2.1
									c0.3,0.7,0.6,1.3,0.9,1.9c0.3,0.6,0.6,1.2,0.9,1.7c0.3,0.5,0.6,1,0.8,1.4c0.2,0.4,0.5,0.8,0.7,1.1c0.4,0.6,0.6,0.9,0.6,0.9
									s-0.3-0.3-0.7-0.8c-0.2-0.3-0.5-0.6-0.8-1c-0.3-0.4-0.6-0.8-1-1.3c-0.3-0.5-0.7-1.1-1-1.7c-0.4-0.6-0.7-1.2-1-1.9
									c-0.3-0.7-0.6-1.4-0.9-2.1c-0.3-0.7-0.6-1.5-0.8-2.2c-0.2-0.8-0.5-1.5-0.7-2.3c-0.2-0.8-0.4-1.5-0.6-2.2
									c-0.3-1.5-0.6-2.8-0.7-4C80.3,33.9,80.2,32.3,80.2,32.3z"/>
							</g>
						</g>
						<g>
							<g>
								<path class="st28" d="M142.2,29.9c0,0,0.1,0.4,0.1,1c0,0.6,0.1,1.6,0.1,2.7c0,1.1-0.1,2.4-0.3,3.8c-0.1,0.7-0.2,1.4-0.3,2.1
									c-0.1,0.7-0.3,1.4-0.5,2.2c-0.2,0.7-0.4,1.4-0.6,2.1c-0.2,0.7-0.5,1.4-0.7,2c-0.2,0.7-0.5,1.3-0.8,1.8
									c-0.3,0.6-0.5,1.1-0.8,1.6c-0.3,0.5-0.5,0.9-0.8,1.3c-0.3,0.4-0.5,0.7-0.7,1c-0.4,0.5-0.6,0.8-0.6,0.8s0.2-0.3,0.4-0.9
									c0.1-0.3,0.3-0.6,0.5-1c0.2-0.4,0.4-0.9,0.6-1.4c0.2-0.5,0.4-1,0.7-1.6c0.2-0.6,0.5-1.2,0.7-1.8c0.2-0.6,0.4-1.3,0.6-2
									c0.2-0.7,0.4-1.4,0.6-2.1c0.4-1.4,0.6-2.8,0.9-4.2c0.1-0.7,0.2-1.3,0.3-1.9c0.1-0.6,0.2-1.2,0.2-1.8c0.1-1.1,0.2-2,0.3-2.6
									C142.1,30.3,142.2,29.9,142.2,29.9z"/>
							</g>
						</g>
						<g>
							<g>
								<path class="st28" d="M182,35.4c0,0-0.1,1.5-0.6,3.7c-0.3,1.1-0.7,2.4-1.2,3.7c-0.3,0.7-0.6,1.3-0.9,2
									c-0.4,0.7-0.7,1.3-1.1,2c-0.4,0.6-0.8,1.3-1.3,1.9c-0.4,0.6-0.9,1.2-1.4,1.7c-0.5,0.5-1,1-1.5,1.5c-0.5,0.4-1,0.9-1.4,1.2
									c-0.5,0.3-0.9,0.6-1.3,0.9c-0.4,0.2-0.8,0.4-1.1,0.5c-0.6,0.3-0.9,0.5-0.9,0.5s0.3-0.2,0.8-0.6c0.3-0.2,0.6-0.4,1-0.7
									c0.3-0.3,0.7-0.6,1.2-1c0.4-0.3,0.8-0.8,1.3-1.2c0.5-0.4,0.9-1,1.3-1.5c0.5-0.5,0.9-1.1,1.3-1.7c0.5-0.6,0.8-1.2,1.2-1.8
									c0.4-0.6,0.7-1.3,1.1-1.9c0.3-0.7,0.7-1.3,0.9-1.9c0.3-0.6,0.6-1.2,0.8-1.8c0.3-0.6,0.5-1.2,0.6-1.7
									c0.4-1.1,0.7-1.9,0.9-2.6C181.9,35.8,182,35.4,182,35.4z"/>
							</g>
						</g>
						<g>
							<g>
								<path class="st28" d="M206.7,44c0,0-0.1,0.4-0.5,0.9c-0.3,0.6-0.8,1.4-1.4,2.4c-0.3,0.5-0.7,1-1.1,1.5
									c-0.4,0.5-0.8,1.1-1.3,1.6c-0.5,0.6-0.9,1.1-1.5,1.7c-0.5,0.6-1.1,1.1-1.6,1.6c-0.6,0.5-1.2,1-1.8,1.5
									c-0.6,0.4-1.2,0.9-1.8,1.2c-0.6,0.3-1.2,0.7-1.8,1c-0.6,0.3-1.2,0.5-1.7,0.7c-0.6,0.2-1.1,0.3-1.5,0.4
									c-0.5,0.1-0.9,0.1-1.2,0.2c-0.7,0.1-1,0.1-1,0.1s0.4-0.1,1-0.3c0.3-0.1,0.7-0.2,1.1-0.4c0.4-0.2,0.9-0.4,1.4-0.6
									c0.5-0.2,1-0.5,1.6-0.8c0.6-0.3,1.1-0.7,1.7-1.1c0.6-0.4,1.1-0.8,1.7-1.3c0.6-0.5,1.1-0.9,1.7-1.4c0.5-0.5,1.1-1,1.6-1.5
									c0.5-0.5,1-1,1.5-1.6c0.5-0.5,0.9-1,1.3-1.5c0.4-0.5,0.8-1,1.2-1.4c0.7-0.9,1.3-1.6,1.7-2.2C206.5,44.3,206.7,44,206.7,44z"
									/>
							</g>
						</g>
					</g>
				</g>
				<path class="st29" d="M29.1,70.8l5.3,36.1c0,0,83.5-22.1,167.3-2.8l1.6-40.7C121,34.5,29.1,70.8,29.1,70.8z M197.6,70.8
					c-3,8.3-25.3,20.1-79.6,22.2c-49.3,1.9-85.6-5-85.7-13.4c-0.2-9.9,30.8-20.7,84-24.6C158.2,51.8,200.6,62.5,197.6,70.8z"/>
				<path class="st29" d="M118,0C16.9,0-11,50.4,3.7,57.5C17,64.1,29.1,70.8,29.1,70.8s91.9-36.2,174.3-7.4c0,0,11-8.2,25.1-15.5
					C242.7,40.5,231.6,0,118,0z M208.3,45.8c4.2-13.4-3,2.6-15.6,6.3c-12.6,3.8-10-13-9.4-19.9c0.6-6.8-4.2,19-25.8,15.8
					c-15.4-2.3-12.2-11.3-15.4-23.6c-3.2-12.2,4.1,18.4-25.9,22.9C86.3,52,79.4,23,78.7,27.4c-0.6,4.4,4.4,19.9-6,22.9
					c-10.4,3.1-14.8-18.8-15.1-16c-0.3,2.8,4.2,17.6-8.8,23.2c-14.6,6.3-30.7-12.3-30.7-12.3s11.1,15.1,0,16.1
					C7.1,62.2,0.1,51.6,10,38C19.8,24.3,55.5,4.7,113.9,2.2C183-0.8,225.4,22.9,227,35.4C228.5,47.9,204.1,59.2,208.3,45.8z"/>
			</g>
		</g>
		<g>
			<g>
				<path class="st0" d="M101,411.2c-2.6,1.6-7,3.3-13.1,3c-5.3-0.2-9.1-1.6-11.6-3c0,0-5.1,11.5-6.1,15.1c-1.1,3.6,0.9,9.4,11,11.6
					c10,2.2,20.6-4.6,20.7-10.4C102,421.9,101,411.2,101,411.2z"/>
				<path class="st5" d="M82.2,436.5c-13.5-2.2-11.5-11.6-11.5-11.6c-0.2,0.6-0.4,1.2-0.5,1.6c-1.1,3.6,0.9,9.4,11,11.6
					c10,2.2,20.6-4.6,20.7-10.4C101.8,427.7,94.2,438.5,82.2,436.5z"/>
			</g>
			<path class="st6" d="M101,411.2c-2.6,1.6-7,3.3-13.1,3c-5.3-0.2-9.1-1.6-11.6-3c0,0-5.1,11.5-6.1,15.1c-1.1,3.6,0.9,9.4,11,11.6
				c10,2.2,20.6-4.6,20.7-10.4C102,421.9,101,411.2,101,411.2z M84.2,433.7c-17.2,1.4-11-21.5-5.1-19.4c7.7,2.7,12.6,2.4,16.7,0.8
				C99.9,413.6,100.3,432.3,84.2,433.7z"/>
			<path class="st2" d="M77.9,418c0.4,3,1.7,11.7,12.1,10.4c3.7-0.5-4.3,5.9-12.3,1.2C70.9,425.6,77.3,413.2,77.9,418z"/>
		</g>
		<g>
			<g>
				<path class="st0" d="M162.6,407.8c-2.3,1.9-6,3.7-12.1,4.2c-5.8,0.5-9.9-0.1-12.7-0.9c0,0-1.4,9.6-1.1,16.5
					c0.3,6.9,7.1,10.2,17.9,9.4c10.8-0.8,16.5-7.5,14.3-13.3C166.7,417.8,162.6,407.8,162.6,407.8z"/>
				<path class="st5" d="M168.4,422.5L168.4,422.5c0,0,3,9.7-13.1,12c-18.4,2.6-18.7-9.1-18.7-9.5c0,0.9,0,1.8,0,2.7
					c0.3,6.9,7.1,10.2,17.9,9.4c10.8-0.8,16.5-7.5,14.3-13.3C168.7,423.3,168.6,422.9,168.4,422.5z"/>
			</g>
			<path class="st6" d="M168.9,423.6c-2.2-5.8-6.2-15.8-6.2-15.8c-2.3,1.9-6,3.7-12.1,4.2c-5.8,0.5-9.9-0.1-12.7-0.9
				c0,0-1.4,9.6-1.1,16.5c0.3,6.9,7.1,10.2,17.9,9.4C165.4,436.2,171.1,429.4,168.9,423.6z M155.8,432.4
				c-15.3,2.4-19.2-20-14.7-19.2c4,0.7,14.1,1,18.8-2C164.7,408.3,171.1,430,155.8,432.4z"/>
			<path class="st2" d="M143.5,417.5c2.4,2.9,10.8,9.7,17.4,5.7c2.9-1.7,1,8.1-9.3,6.5C140.2,428,140.3,413.8,143.5,417.5z"/>
		</g>
		<g>
			<path class="st5" d="M68.7,334.8c7.6,4,20.5,8.9,37.2,10c0,0-1.4,11.2-1.7,14.5c-0.3,3.3,3.1,5.5,2.8,7.7
				c-0.3,2.2-2.7,3.8-2.7,8.5c0,4.7-0.4,32.6-0.4,33.2c0,0.6-5.4,6.1-16,5.7c-10.7-0.5-15.2-5.4-15.3-6.1
				C72.5,407.5,68.7,334.8,68.7,334.8z"/>
			<path class="st12" d="M104.2,359.3c0.3-3.3,1.7-14.5,1.7-14.5c-16.7-1.1-29.6-6-37.2-10c0,0,3.8,72.7,3.9,73.4
				c0.1,0.7,4.6,5.7,15.3,6.1c10.7,0.5,16-5.1,16-5.7c0-0.6,0.4-28.5,0.4-33.2c0-4.7,2.4-6.3,2.7-8.5
				C107.3,364.7,103.9,362.5,104.2,359.3z M101.8,384.8c1.5-5.7,2.7,23-7,23.8c-9,0.8-11.6-22.6-11.6-22.6s-0.6,1.4-0.4,9.3
				c0.2,7.2-10.1,2.8-11-12.8c-0.8-15.7,0.2-15.6-0.2-21.2c-0.3-4.7-1-15.9,4.5-16.6c3.7-0.5,6,4,6,8.3c0,0,1-7.8,8.4-7.3
				c10.3,0.7,10,14.5,6.9,17.2c-3.9,3.4-0.4,0.2,2.4,5c3.4,6,1.9,14.3-1.6,20.6C97.1,390.4,101.3,387.1,101.8,384.8z"/>
			<path class="st30" d="M72.3,356.1c1-13.6,9.8-5.2,9.8,1.3c0,0,3.9-11.1,10.5-5.9c6.7,5.2,1.6,12.1-1.2,13.4
				c-1.8,0.8,3.8,0.8,4.5,9.6c0.7,8.8-2.8,13.7-3.8,14.9c0,0,1.4,0.4,3.7-2.9c0.6-0.9,2.7,16.6-3.2,17.5
				c-9.2,1.5-10.3-32.5-10.3-32.5s-0.5,4.8-0.2,16.7C82.5,400.2,69.8,391.6,72.3,356.1z"/>
			<g>
				<g>
					<path class="st31" d="M82.3,345c0,0,0,3.5,0.1,8.8c0,1.3,0,2.7,0.1,4.2c0,1.5,0.1,3.1,0.1,4.7c0,3.3,0.2,6.8,0.3,10.3
						c0.1,1.7,0.2,3.5,0.2,5.2c0.1,1.7,0.1,3.4,0.2,5c0.3,3.3,0.4,6.3,0.6,8.9c0.3,2.6,0.5,4.8,0.7,6.3c0.1,1.5,0.2,2.4,0.2,2.4
						s-0.2-0.9-0.4-2.4c-0.2-1.5-0.6-3.7-1-6.3c-0.3-2.6-0.6-5.7-0.9-8.9c-0.1-1.6-0.2-3.3-0.3-5.1c-0.1-1.7-0.2-3.5-0.3-5.2
						c-0.1-3.5-0.2-7-0.2-10.3c0-1.6,0-3.2,0-4.7c0-1.5,0.1-2.9,0.1-4.2c0.1-2.6,0.2-4.8,0.3-6.3C82.3,345.8,82.3,345,82.3,345z"/>
				</g>
			</g>
		</g>
		<g>
			<path class="st5" d="M157.3,335.4c-6.6,3.3-18.5,7.9-35.1,9.2c0,0,2.4,10.6,3,13.2c0.6,2.6-1.5,6.1-1.2,8.4
				c0.3,2.2,3.3,4.7,3.6,9.5c0.2,4.8,5.2,32.9,5.2,32.9s4.6,4.6,17.7,3.5c14.6-1.3,15.5-9.6,15.5-9.6L157.3,335.4z"/>
			<path class="st12" d="M157.3,335.4c-6.6,3.3-18.5,7.9-35.1,9.2c0,0,2.4,10.6,3,13.2c0.6,2.6-1.5,6.1-1.2,8.4
				c0.3,2.2,3.3,4.7,3.6,9.5c0.2,4.8,5.2,32.9,5.2,32.9s4.6,4.6,17.7,3.5c14.6-1.3,15.5-9.6,15.5-9.6L157.3,335.4z M155.8,403.8
				c-5.7,0.1-7.4-7.7-7.4-7.7s3.5,17.3-7.5,11.1c-11-6.2-9-23.7-6.7-21.8c2.4,1.9,4.7,2.6,4.7,2.6s-9.1-6-8-15.1
				c0.8-7.5,5.7-6.7,5.7-6.7s-8.6-5.2-6.5-14.6c2.1-9.4,11.9-10.5,13.4,0c3.5-17.3,15.1,0,17.2,17.5
				C162.9,386.7,161.5,403.7,155.8,403.8z"/>
			<path class="st30" d="M145.3,365c0,0-1.2-11.4,3.5-11.7c4.7-0.3,10.9,11,10.4,29.8c-0.5,18.9-10.2,14.9-11.7,0.9
				c0,0,2.6,16.7-2.3,17.8c-4.9,1.1-11.3-15.9-3.5-11.5c0,0-7.6-6.7-5.6-16.6c1.6-7.9,4.9-5.4,4.9-5.4s-6.5-5.3-5.2-12.6
				C137,348.6,143.9,352.9,145.3,365z"/>
			<g>
				<g>
					<path class="st31" d="M142.6,345c0,0,0.2,0.9,0.4,2.4c0.3,1.5,0.6,3.7,1,6.3c0.4,2.6,0.9,5.6,1.3,8.9c0.2,1.6,0.4,3.3,0.6,5
						c0.2,1.7,0.4,3.5,0.6,5.2c0.2,1.8,0.4,3.5,0.6,5.2c0.2,1.7,0.4,3.4,0.5,5.1c0.3,3.3,0.4,6.4,0.6,9c0.2,2.6,0.3,4.8,0.4,6.4
						c0.1,1.5,0.1,2.4,0.1,2.4s-0.1-0.9-0.3-2.4c-0.2-1.5-0.4-3.7-0.7-6.3c-0.3-2.6-0.6-5.7-0.9-9c-0.1-1.6-0.4-3.3-0.6-5
						c-0.2-1.7-0.4-3.5-0.6-5.2c-0.2-1.7-0.4-3.5-0.6-5.2c-0.2-1.7-0.3-3.4-0.6-5c-0.4-3.3-0.7-6.3-1-8.9
						C143,348.5,142.6,345,142.6,345z"/>
				</g>
			</g>
		</g>
	</g>
	<g>
		<g>
			<defs>
				<path id="SVGID_1_" d="M219.2,194.9l1.3,4.8c0,0,2.1-1.7,4-1.8c1.9-0.1,2.9,1.7,3,2.9c0,0,2.5-2.4,3.3-5l10.3-51.9
					c0,0,15.6-6.6,16.8-26.7c1.1-20.1-22.1-31.7-32.2-6.6c-10,25.1,4.2,31.3,4.2,31.3L219.2,194.9z"/>
			</defs>
			<clipPath id="SVGID_2_">
				<use xlink:href="#SVGID_1_"  style="overflow:visible;"/>
			</clipPath>
			<g class="st32">
				<path class="st33" d="M233,139.5l-14.9,83c0,0,2.7,3.6,6.8,1.4l12.9-83.8c0.3-1.8,0.8-2.3,3-3.7c3.3-2,9.8-5.7,11.6-17.5
					c1.8-11.8-1.8-16.1-8.4-17.6c-6.5-1.4-13.8,3.7-16.6,14.8c-2.8,11.1,1.3,16.4,3.5,18.7C233.4,137.5,233.2,138.3,233,139.5z"/>
				<g>
					<g>
						<path class="st34" d="M232.6,110.9c0,0-0.2,0.5-0.4,1.3c-0.1,0.4-0.3,0.9-0.4,1.5c-0.1,0.6-0.3,1.3-0.4,2
							c-0.2,0.7-0.3,1.5-0.4,2.4c-0.1,0.8-0.1,1.7-0.1,2.7c0,0.9,0,1.9,0.2,2.8c0.1,1,0.3,1.9,0.7,2.8c0.3,0.9,0.8,1.8,1.4,2.4
							c0.1,0.2,0.3,0.3,0.5,0.5c0.2,0.1,0.3,0.3,0.5,0.4l0.6,0.4c0.2,0.1,0.4,0.2,0.6,0.3c0.8,0.3,1.6,0.6,2.5,0.6
							c0.8,0,1.6-0.1,2.3-0.2c0.7-0.2,1.4-0.4,1.9-0.6c0.6-0.2,1-0.5,1.4-0.7c0.4-0.2,0.6-0.4,0.8-0.6c0.2-0.2,0.3-0.2,0.3-0.2
							s-0.1,0.1-0.2,0.3c-0.2,0.2-0.4,0.4-0.8,0.7c-0.7,0.5-1.8,1.3-3.3,1.7c-0.7,0.2-1.6,0.4-2.5,0.4c-0.9,0-1.9-0.1-2.8-0.5
							c-0.2-0.1-0.5-0.2-0.7-0.3l-0.6-0.4c-0.3-0.2-0.4-0.3-0.6-0.5c-0.2-0.2-0.4-0.3-0.6-0.6c-0.7-0.8-1.2-1.7-1.6-2.7
							c-0.3-1-0.6-2-0.7-3c-0.1-1-0.1-2-0.1-3c0-1,0.2-1.9,0.3-2.7c0.2-0.9,0.3-1.7,0.5-2.4c0.2-0.7,0.4-1.4,0.6-2
							c0.2-0.6,0.4-1.1,0.6-1.5C232.4,111.3,232.6,110.9,232.6,110.9z"/>
					</g>
				</g>
				<path class="st33" d="M244,101.4c-6.5-1.4-13.8,3.7-16.6,14.8c-2.8,11.1,1.3,16.4,3.5,18.7c2.5,2.6,2.4,3.4,2.1,4.6l-14.9,83
					c0,0,2.7,3.6,6.8,1.4l12.9-83.8c0.3-1.8,0.8-2.3,3-3.7c3.3-2,9.8-5.7,11.6-17.5C254.1,107.2,250.5,102.8,244,101.4z
					 M250.6,110.5c-0.6-2.5-2.6-6.4-6.2-7.2c-3.6-0.9-9.5,1.3-12.8,8.4c-4.7,9.9-3.2,22.9,6.7,20.8c9.9-2.1,10.5-9.8,11.6-14
					c1.1-4.1,2.1,1.2,0,6.9c-2.1,5.7-7.7,8.8-10.7,10.1c-3.1,1.3-3.1,0.9-3.4,2.8c-0.7,4.6-11.6,75.2-12.2,78.8
					c-0.6,3.9-0.8,6.4-1.8,6.7c-1.3,0.4-3.1-1.2-2.9-2.6c0.8-4.1,13.3-74.7,14.3-79.3c1-4.5,0.7-5.1-0.3-6.1
					c-1-1.1-6.5-5.1-5.8-14.3c0.5-7.8,5.9-18.5,13.4-19.9c3.8-0.7,8.9,0.7,11,6.2C252.9,112,251.1,112.8,250.6,110.5z"/>
				<path class="st33" d="M234.8,108.2c-4.2,4.1-5.7,13.3-3.1,19.3c2.6,6,11.2,4,13.4,0c0,0-6.4,4-10.6-1.9
					C230.5,119.8,234.8,108.2,234.8,108.2z"/>
				<path class="st2" d="M221.2,212.4c-1.2,8.4,0,12,1.1,6.1c1.1-5.9,11.2-72.4,11.8-76.4C234.7,138,223.8,193.7,221.2,212.4z"/>
				<path class="st2" d="M234.8,105.4c0,0-0.4,0.4-0.9,1.3c-0.3,0.4-0.6,0.9-1,1.5c-0.2,0.3-0.4,0.6-0.6,0.9
					c-0.2,0.3-0.4,0.7-0.6,1.1c-0.4,0.7-0.8,1.6-1.2,2.4c-0.2,0.4-0.4,0.9-0.5,1.4c-0.2,0.5-0.3,1-0.5,1.5c-0.3,1-0.5,2.1-0.8,3.1
					c-0.1,0.5-0.2,1.1-0.3,1.7l-0.2,1.6c0,0.6,0,1.1,0,1.7c0,0.5,0,1.1,0.1,1.6c0.1,0.5,0.1,1.1,0.3,1.6c0.1,0.3,0.1,0.5,0.2,0.8
					c0.1,0.2,0.2,0.5,0.2,0.7c0.3,1,0.8,1.8,1.3,2.6c0.6,0.7,1.2,1.4,1.8,1.9c0.2,0.1,0.3,0.2,0.5,0.4c0.2,0.1,0.3,0.2,0.5,0.3
					c0.3,0.2,0.6,0.3,1,0.4c0.6,0.3,1.2,0.4,1.7,0.5c0.5,0.1,0.9,0.1,1.1,0.1c0.3,0,0.4,0,0.4,0s-0.1,0-0.4,0c-0.3,0-0.7,0.1-1.2,0
					c-0.5-0.1-1.1-0.1-1.8-0.3c-0.3-0.1-0.7-0.2-1.1-0.4c-0.2-0.1-0.4-0.2-0.6-0.3c-0.2-0.1-0.4-0.2-0.5-0.3
					c-0.8-0.5-1.4-1.1-2.1-1.9c-0.6-0.8-1.2-1.7-1.5-2.8c-0.1-0.3-0.2-0.5-0.3-0.8c-0.1-0.3-0.1-0.5-0.2-0.8
					c-0.2-0.5-0.2-1.1-0.3-1.7c-0.1-0.6-0.1-1.1-0.1-1.7c0-0.6,0-1.2,0-1.7l0.2-1.7c0.1-0.6,0.2-1.1,0.3-1.7
					c0.3-1.1,0.6-2.2,0.9-3.2c0.4-1,0.7-2,1.2-2.9c0.5-0.9,0.9-1.7,1.3-2.4c0.2-0.4,0.4-0.7,0.6-1c0.2-0.3,0.4-0.6,0.7-0.9
					c0.4-0.6,0.8-1,1.1-1.4c0.3-0.4,0.6-0.7,0.8-0.9C234.7,105.5,234.8,105.4,234.8,105.4z"/>
			</g>
		</g>
		<g>
			<defs>
				<path id="SVGID_3_" d="M220,209.1c0,0,2.1-0.3,3.8-1.6c0,0-1,3,2.2,4.3c0,0-2.3,0.5-2.8,3.2c-0.5,2.7,0.8,4.1,1.6,4.4
					c0,0-1.9,0.6-2,2.8c-0.1,2.6,1.2,3.4,1.2,3.4l-4.9,2l-3.8-5.1C215.3,222.6,224.2,220.1,220,209.1z"/>
			</defs>
			<clipPath id="SVGID_4_">
				<use xlink:href="#SVGID_3_"  style="overflow:visible;"/>
			</clipPath>
			<g class="st35">
				<path class="st33" d="M233,139.5l-14.9,83c0,0,2.7,3.6,6.8,1.4l12.9-83.8c0.3-1.8,0.8-2.3,3-3.7c3.3-2,9.8-5.7,11.6-17.5
					c1.8-11.8-1.8-16.1-8.4-17.6c-6.5-1.4-13.8,3.7-16.6,14.8c-2.8,11.1,1.3,16.4,3.5,18.7C233.4,137.5,233.2,138.3,233,139.5z"/>
				<g>
					<g>
						<path class="st34" d="M232.6,110.9c0,0-0.2,0.5-0.4,1.3c-0.1,0.4-0.3,0.9-0.4,1.5c-0.1,0.6-0.3,1.3-0.4,2
							c-0.2,0.7-0.3,1.5-0.4,2.4c-0.1,0.8-0.1,1.7-0.1,2.7c0,0.9,0,1.9,0.2,2.8c0.1,1,0.3,1.9,0.7,2.8c0.3,0.9,0.8,1.8,1.4,2.4
							c0.1,0.2,0.3,0.3,0.5,0.5c0.2,0.1,0.3,0.3,0.5,0.4l0.6,0.4c0.2,0.1,0.4,0.2,0.6,0.3c0.8,0.3,1.6,0.6,2.5,0.6
							c0.8,0,1.6-0.1,2.3-0.2c0.7-0.2,1.4-0.4,1.9-0.6c0.6-0.2,1-0.5,1.4-0.7c0.4-0.2,0.6-0.4,0.8-0.6c0.2-0.2,0.3-0.2,0.3-0.2
							s-0.1,0.1-0.2,0.3c-0.2,0.2-0.4,0.4-0.8,0.7c-0.7,0.5-1.8,1.3-3.3,1.7c-0.7,0.2-1.6,0.4-2.5,0.4c-0.9,0-1.9-0.1-2.8-0.5
							c-0.2-0.1-0.5-0.2-0.7-0.3l-0.6-0.4c-0.3-0.2-0.4-0.3-0.6-0.5c-0.2-0.2-0.4-0.3-0.6-0.6c-0.7-0.8-1.2-1.7-1.6-2.7
							c-0.3-1-0.6-2-0.7-3c-0.1-1-0.1-2-0.1-3c0-1,0.2-1.9,0.3-2.7c0.2-0.9,0.3-1.7,0.5-2.4c0.2-0.7,0.4-1.4,0.6-2
							c0.2-0.6,0.4-1.1,0.6-1.5C232.4,111.3,232.6,110.9,232.6,110.9z"/>
					</g>
				</g>
				<path class="st33" d="M244,101.4c-6.5-1.4-13.8,3.7-16.6,14.8c-2.8,11.1,1.3,16.4,3.5,18.7c2.5,2.6,2.4,3.4,2.1,4.6l-14.9,83
					c0,0,2.7,3.6,6.8,1.4l12.9-83.8c0.3-1.8,0.8-2.3,3-3.7c3.3-2,9.8-5.7,11.6-17.5C254.1,107.2,250.5,102.8,244,101.4z
					 M250.6,110.5c-0.6-2.5-2.6-6.4-6.2-7.2c-3.6-0.9-9.5,1.3-12.8,8.4c-4.7,9.9-3.2,22.9,6.7,20.8c9.9-2.1,10.5-9.8,11.6-14
					c1.1-4.1,2.1,1.2,0,6.9c-2.1,5.7-7.7,8.8-10.7,10.1c-3.1,1.3-3.1,0.9-3.4,2.8c-0.7,4.6-11.6,75.2-12.2,78.8
					c-0.6,3.9-0.8,6.4-1.8,6.7c-1.3,0.4-3.1-1.2-2.9-2.6c0.8-4.1,13.3-74.7,14.3-79.3c1-4.5,0.7-5.1-0.3-6.1
					c-1-1.1-6.5-5.1-5.8-14.3c0.5-7.8,5.9-18.5,13.4-19.9c3.8-0.7,8.9,0.7,11,6.2C252.9,112,251.1,112.8,250.6,110.5z"/>
				<path class="st33" d="M234.8,108.2c-4.2,4.1-5.7,13.3-3.1,19.3c2.6,6,11.2,4,13.4,0c0,0-6.4,4-10.6-1.9
					C230.5,119.8,234.8,108.2,234.8,108.2z"/>
				<path class="st2" d="M221.2,212.4c-1.2,8.4,0,12,1.1,6.1c1.1-5.9,11.2-72.4,11.8-76.4C234.7,138,223.8,193.7,221.2,212.4z"/>
				<path class="st2" d="M234.8,105.4c0,0-0.4,0.4-0.9,1.3c-0.3,0.4-0.6,0.9-1,1.5c-0.2,0.3-0.4,0.6-0.6,0.9
					c-0.2,0.3-0.4,0.7-0.6,1.1c-0.4,0.7-0.8,1.6-1.2,2.4c-0.2,0.4-0.4,0.9-0.5,1.4c-0.2,0.5-0.3,1-0.5,1.5c-0.3,1-0.5,2.1-0.8,3.1
					c-0.1,0.5-0.2,1.1-0.3,1.7l-0.2,1.6c0,0.6,0,1.1,0,1.7c0,0.5,0,1.1,0.1,1.6c0.1,0.5,0.1,1.1,0.3,1.6c0.1,0.3,0.1,0.5,0.2,0.8
					c0.1,0.2,0.2,0.5,0.2,0.7c0.3,1,0.8,1.8,1.3,2.6c0.6,0.7,1.2,1.4,1.8,1.9c0.2,0.1,0.3,0.2,0.5,0.4c0.2,0.1,0.3,0.2,0.5,0.3
					c0.3,0.2,0.6,0.3,1,0.4c0.6,0.3,1.2,0.4,1.7,0.5c0.5,0.1,0.9,0.1,1.1,0.1c0.3,0,0.4,0,0.4,0s-0.1,0-0.4,0c-0.3,0-0.7,0.1-1.2,0
					c-0.5-0.1-1.1-0.1-1.8-0.3c-0.3-0.1-0.7-0.2-1.1-0.4c-0.2-0.1-0.4-0.2-0.6-0.3c-0.2-0.1-0.4-0.2-0.5-0.3
					c-0.8-0.5-1.4-1.1-2.1-1.9c-0.6-0.8-1.2-1.7-1.5-2.8c-0.1-0.3-0.2-0.5-0.3-0.8c-0.1-0.3-0.1-0.5-0.2-0.8
					c-0.2-0.5-0.2-1.1-0.3-1.7c-0.1-0.6-0.1-1.1-0.1-1.7c0-0.6,0-1.2,0-1.7l0.2-1.7c0.1-0.6,0.2-1.1,0.3-1.7
					c0.3-1.1,0.6-2.2,0.9-3.2c0.4-1,0.7-2,1.2-2.9c0.5-0.9,0.9-1.7,1.3-2.4c0.2-0.4,0.4-0.7,0.6-1c0.2-0.3,0.4-0.6,0.7-0.9
					c0.4-0.6,0.8-1,1.1-1.4c0.3-0.4,0.6-0.7,0.8-0.9C234.7,105.5,234.8,105.4,234.8,105.4z"/>
			</g>
		</g>
	</g>
</g>
</svg>
