<?xml version="1.0" encoding="utf-8"?>
<!-- Generator: Adobe Illustrator 21.1.0, SVG Export Plug-In . SVG Version: 6.00 Build 0)  -->
<svg version="1.1" id="Warstwa_1" xmlns="http://www.w3.org/2000/svg" xmlns:xlink="http://www.w3.org/1999/xlink" x="0px" y="0px"
	 viewBox="0 0 88.9 79" style="enable-background:new 0 0 88.9 79;" xml:space="preserve">
<style type="text/css">
	.st0{fill:#FFFFFF;}
</style>
<g>
	<path class="st0" d="M86.4,60.9c1.9-7-0.9-13.8-7.5-16.9c1.9,0,3.6-1.9,3.1-4c-0.3-1.3-1.3-2.4-2.5-2.9c-0.8-0.3-1.9-0.4-2.9-0.2
		c0.3-9.4-1.7-19.1-8-26.4C61.7,2.7,51.8,1,41.8,2.3c-8.9,1.1-17.8,4.6-23.9,11.2c-6.4,6.9-8.4,16.3-8.6,25.4c-1.3-0.8-3-1.4-4.5-1
		c-1.5,0.5-2.6,1.7-2.9,3.1c-0.3,1.3,0.3,2.8,1.4,3.6c0.5,0.3,1,0.6,1.5,0.7C3.4,46.9,3,49.4,4.6,51c-2.3,2.8-3.2,5.7-3.1,9.2
		c-0.3,0.1-0.4,0.6,0,0.7c0.1,0,0.2,0,0.3,0.1c0.1,0.1,0.3,0.2,0.5,0.1c0.3,0.1,0.7,0.2,1,0.2c0.5,0.1,0.9,0.3,1.3,0.2
		c0.1,0.2,0.2,0.3,0.4,0.2c1.7-1,3.5-1.8,5.2-2.4c-0.7,2.5-0.5,5,1.4,6.5c-1.7,4-2.2,9.1,2.9,10.6c3.7,1.1,8.1,0.5,12,0.5
		c5.3,0,10.5-0.1,15.8-0.1c4.9,0,9.9-0.1,14.8-0.1c3.5,0,7.5,0.5,10.8-0.9c4.8-2,4.7-7.1,3-11.2c2.6-1.6,4-4,2.9-7.4
		c1.9,0.8,3.8,1.7,5.6,2.7c1.3,0.8,3,2.4,4.4,2.7C85.2,62.8,86.7,62.4,86.4,60.9C86.3,61,86.4,60.9,86.4,60.9z M76.3,40.5
		c0.1-0.1,0.1-0.2,0.1-0.3c0.1-0.6,0.1-1.2,0.1-1.9c0.5-0.1,1-0.3,1.4-0.2c1.1,0.1,2,0.6,2.5,1.5c1,1.7-0.3,3.7-2.2,3.4
		c0.4-0.5,0.7-1.1,0.7-1.8c0-0.4-0.6-0.7-0.9-0.2c-0.3,0.6-0.5,1.1-0.9,1.6c-0.1,0.2-0.3,0.4-0.5,0.5l-0.1,0.1
		c-0.3,0.2-0.6,0.4-1,0.6c-0.4,0.2-0.1,0.9,0.3,0.8c0.3-0.1,0.7-0.3,1-0.5c1.2,1,0.5,2.6-1.2,2.8s-3-1-4.2-1.7
		C71.2,45,71,45.3,71,45.6c-0.3,0.1-0.6,0.4-0.5,0.8c0.3,0.9,0,2-0.9,2.4c-1,0.5-2.1,0-2.7-0.9c-0.2-0.3-0.7-0.1-0.6,0.2
		c0,0,0,0,0,0.1c-0.1,0.1-0.2,0.2-0.1,0.4c0.6,2.4-1.7,3.1-3.6,1.9c-0.6-0.4-1.1,0.4-0.9,0.9c-1,2.3-2.1,2.8-3.6,1.3
		c-0.4-0.4-0.6-0.8-0.9-1.1c-0.4-0.7-0.6-1.3-0.7-2c0-0.1,0-0.3,0-0.4c0.6,0.1,1.3,0.2,1.8,0c0.4-0.1,0.3-0.6,0-0.8
		c-0.7-0.3-1.3-0.2-2.1-0.2c-0.6,0-1.3-0.1-1.8,0.2c-0.2,0.1-0.1,0.3,0,0.4c0.3,0.2,0.7,0.3,1.1,0.3c-0.1,0.3-0.2,0.6-0.3,1
		c-0.3,0.6-0.9,1-1.5,1.2c-1.5,0.4-2.8-1-2.9-2.4c0-0.3-0.2-0.3-0.4-0.3c0.1-0.4,0.1-0.8,0-1.2c2.7-0.1,5.3-0.4,8-0.9
		c5.6-0.9,12.5-1.4,17.2-4.8C76.2,41.2,76.3,40.8,76.3,40.5z M46.9,61.8c3-3.7,6.4-6.5,10.6-8.7c0.1,0.1,0.2,0.2,0.3,0.3
		c-4.6,1.8-8.7,7.1-10.8,11.5c0-0.6,0.1-1.2,0-1.8C47,62.6,47.1,62.2,46.9,61.8z M18.9,14.8c5.7-6.2,14-9.4,22.2-10.5
		c9.6-1.3,19.5,0,26.1,7.6c6.8,7.9,7.8,18.3,7.7,28.2c-4.3,2.9-10.6,3.5-15.7,4.4c-6.1,1-12,1.2-18,1c-10.4-0.3-21.6,0.3-31-4.6l0,0
		C10.8,31.6,12.4,21.9,18.9,14.8z M45.4,49.3c0.9,1-0.4,2-1.3,2c-0.6,0-1.2-0.3-1.6-0.7c-0.4-0.2-0.8,0.3-0.5,0.6
		c0.1,0.1,0.2,0.2,0.3,0.3c0,3.3-5.9,0.9-5.3-0.6c0.2-0.6-0.5-1.2-0.9-0.7c-0.3,0.5-0.8,0.9-1.3,1.2c-1.9,0.4-2.9-0.1-3-1.4
		c0.7,0.1,1.3,0,1.9-0.3c0.5-0.2,0.2-1-0.3-1c-0.7,0-1.3,0.2-2.1,0.1c-0.6-0.1-1.3-0.4-1.8-0.2c-0.2,0-0.3,0.3-0.2,0.4
		c0.2,0.4,0.7,0.6,1.2,0.8c-0.9,1.3-2.2,2.2-3.8,1.3c-1.7-0.9-1.9-2.9-1.5-4.5c5.3,0.5,10.8,0.4,15.8,0.6c2.8,0.1,5.7,0.1,8.5,0
		c0,0.7-0.2,1.3-0.9,1.7c-0.9,0.6-1.8,0.2-2.4-0.5C45.8,47.8,44.9,48.7,45.4,49.3z M6.4,45.2C6.6,45.1,6.8,45,7,44.9
		c0.2-0.2,0.1-0.7-0.2-0.8c-0.1,0-0.1,0-0.2,0c-0.8-0.1-1.5-0.1-2.2-0.5c-1-0.6-1.3-1.6-1-2.7c0.9-2.7,3.9-1.7,5.8-1
		c0,0.4,0,0.9,0,1.2c0,0.2,0.1,0.3,0.2,0.3c0,0.1,0.1,0.2,0.2,0.3c4.4,2.9,9.5,4.1,14.9,4.7c0,0.1-0.1,0.1-0.1,0.2
		c-0.1,0-0.2-0.1-0.3,0c-0.7,0.2-1,0.8-1.7,0.9s-1.5-0.2-2-0.8c-0.3-0.3-0.7-0.2-0.8,0.2c-0.2,0.1-0.3,0.4-0.1,0.7
		c2.3,2.4-2.7,4.6-3.5,1.9c-0.1-0.5-0.8-0.5-1-0.1c-1,1.7-2.9,1-3.5-0.4c0.7,0.1,1.3,0.1,1.8-0.2c0.4-0.2,0.3-0.8-0.1-0.9
		c-0.7-0.2-1.3-0.1-2-0.2c-0.5-0.1-1-0.3-1.3-0.5c0-0.1-0.1-0.3-0.2-0.3c-0.2-0.4-0.5-0.4-0.7-0.4c-0.4,0-0.7,0.6-0.4,0.9
		c0.4,0.3,0.9,0.6,1.3,0.9c-0.4,0.7-0.7,1.4-1.3,2c-1,1-2.4,0.9-3.3-0.1C4,48.6,5.1,46.6,6.4,45.2z M5.2,51.6c2.2,1.6,4.8,0,5.6-2.3
		c0.4,2.1,3.1,2.7,4.6,1.1c1.1,1.3,3.3,1.6,4.6,0.6c0.9-0.7,1.3-1.7,1.1-2.7c0.4,0.1,0.8,0.2,1.1,0.2c0.5,0,1.3-0.2,1.8-0.6
		c-0.1,1.8,0.8,3.5,2.6,4.4c1.4,0.7,3.5,0.2,4.4-1c0.8,1.6,3.3,1.9,4.9,0.7c0.6,1.3,2.6,2,4.2,2.1c1.3,0.1,3-0.8,3.1-2
		c0.9,0.4,1.8,0.4,2.7-0.3c0.5-0.4,0.8-1,0.9-1.5c0.9,0.3,1.7,0.2,2.5-0.3c0.5-0.3,0.9-0.8,1.1-1.2c0.1,1.7,1.6,3.1,3.4,3
		c0.7-0.1,1.7-0.6,2.3-1.3c0.1,0.6,0.3,1,0.6,1.5c-4.3,1.9-8.1,5.2-10.7,9.2c-6.7-5.4-15.4-8.5-24.2-8.2c-4.5,0.2-9,1.1-13.1,2.9
		c-0.7,0.4-4.9,3.2-5.6,3C1.7,58.9,4.4,53.2,5.2,51.6z M10.8,57.8c0,0.1,0,0.1-0.1,0.2c-2,0.8-4,1.8-5.8,3C4.9,61,4.8,61,4.8,61
		c-0.4-0.3-1-0.3-1.4-0.4H3.3c13.2-8.6,29.5-7.8,42,1.8c0.1,0.1,0.3,0.1,0.4,0.1c0,0.3,0,0.6,0.1,0.9c0,0.3,0.1,0.5,0.1,0.8
		c-9.7-7.1-23.1-10.5-34.6-6.3C11.2,57.7,10.9,57.7,10.8,57.8z M65.3,74.9c-2.3,0.5-4.9,0.3-7.2,0.3c-5.6,0-11.1,0.1-16.7,0.1
		c-5.3,0-10.5,0.1-15.8,0.1c-2.6,0-5.2,0.2-7.7,0.1c-6.3-0.3-6.4-4.8-5.6-9.4c0.4,0.2,0.9,0.4,1.4,0.6c4.6,1,10.1,0.5,14.8,0.7
		c4.5,0.2,9,0.4,13.5,0.4c4.3,0,20,1.3,27.7-2.3C71.5,69.4,70.3,73.8,65.3,74.9z M41.1,66c-5.1,0-10.2-0.1-15.3-0.3
		c-2.6-0.1-5.1-0.2-7.7-0.3c-2.9-0.1-2.6,0.2-4.9-2.4c-2-2.3-2-2.3-1.8-4.1c12.1-4.1,24.3-1,35,6.8c0.4,0.3,0.8,0,0.9-0.4
		c0.2,0.2,0.5,0.2,0.7-0.1c1.4-2.3,3-4.4,4.8-6.4c1.7-1.8,3.9-3.1,5.6-4.8c0.1-0.1,0.1-0.2,0.1-0.3c0.5,0.4,1.2,0.6,1.8,0.7
		c0.9,0.1,1.5-0.2,2.1-0.6c3.4,0.6,6.7,1.4,9.8,2.6C76,68.3,47.5,66,41.1,66z M82.2,60.2c-1-0.5-1.9-1.1-2.9-1.6
		c-1.7-0.9-3.6-1.7-5.4-2.4c-0.1,0-0.2-0.1-0.3-0.1l0,0c-0.2-0.5-0.8-0.6-1.2-0.4c-3.1-1-6.3-1.8-9.5-2.3l0,0
		c8.2,0.4,15.7,2.9,22.4,7.7C85.2,61.5,82.3,60.3,82.2,60.2z M83.5,58.5c-1.4-0.7-2.7-1.6-4.1-2.3c-5.1-2.4-10.6-3.5-16.2-3.3
		c0.1-0.3,0.2-0.6,0.2-0.9c1.2,0.4,2.4,0.4,3.4-0.5c0.7-0.6,1-1.3,0.9-2.1c0.7,0.5,1.5,0.6,2.4,0.3c1.2-0.4,1.9-1.6,1.8-2.8
		c0-0.1,0.1-0.1,0.1-0.2s0-0.2,0-0.3c1.6,1.4,4,2.5,6,1c0.7-0.6,1.1-1.7,0.9-2.7c3.9,2.4,6.6,6,6.9,10.5
		C86.1,58.2,86.5,59.8,83.5,58.5z"/>
	<path class="st0" d="M39.6,7.8c-0.9-0.4-1.6-0.5-2.5,0c-0.8,0.5-1.6,1.5-1.2,2.4c0.4,0.8,1.3,1,2,0.6c0.9-0.5,1.2-1.6,1.2-2.5
		c0-0.1,0-0.1-0.1-0.2c0.1,0,0.3,0,0.4,0C39.6,8.1,39.8,7.9,39.6,7.8z M38,9.6c-0.3,0.4-1.2,0.7-1.1-0.1c0.1-0.6,0.9-1,1.5-1.2
		C38.4,8.7,38.3,9.2,38,9.6z"/>
	<path class="st0" d="M45.6,6.4c-0.8-0.6-1.8-0.8-2.8-0.8c-0.1,0-0.1,0.1-0.2,0.1c-0.2,0-0.4,0.2-0.3,0.4c0.2,1.1,2.6,3.5,3.8,2.1
		C46.6,7.7,46.1,6.8,45.6,6.4z M45.1,7.9c-0.5,0-1-0.5-1.3-0.8c-0.3-0.3-0.6-0.7-0.9-1c0.6,0.1,1.3,0.3,1.7,0.6
		C45,6.8,46.1,7.9,45.1,7.9z"/>
	<path class="st0" d="M41.9,8.3c-0.3-0.2-0.8,0.1-0.6,0.5c0,0.1,0.1,0.2,0.2,0.3c-0.8,0.7-1.5,1.5-1.3,2.6c0.2,0.8,0.9,1.4,1.6,1.4
		C44.2,13.2,43,9.2,41.9,8.3z M41.8,12.1c-0.7,0.1-0.8-0.9-0.7-1.2c0.1-0.4,0.4-0.9,0.7-1.2c0.1,0.2,0.2,0.4,0.3,0.6
		C42.2,10.7,42.4,12,41.8,12.1z"/>
	<path class="st0" d="M16,36.2c0-0.2-0.1-0.3-0.2-0.3c0.1-0.2-0.1-0.4-0.3-0.3c-0.9,0.3-1.6,0.8-2.1,1.6c-0.4,0.7-0.8,1.8-0.2,2.5
		s1.5,0.3,2-0.3C15.9,38.5,16,37.1,16,36.2z M14.9,38c-0.1,0.3-0.3,0.9-0.6,1c-0.4,0.2-0.5,0-0.4-0.4c0.1-0.9,0.7-1.6,1.3-2.2
		C15.2,36.8,15.1,37.4,14.9,38z"/>
	<path class="st0" d="M20.5,38.7c-0.5-1.1-1.4-2.4-2.6-2.9c-0.4-0.2-0.7,0.1-0.7,0.4c-0.4,1-0.3,2.2,0.2,3.2
		c0.4,0.9,1.3,1.6,2.3,1.4C20.7,40.6,20.8,39.5,20.5,38.7z M19.2,39.9c-0.7,0-1.2-0.9-1.3-1.3c-0.2-0.6-0.3-1-0.2-1.6
		c0.4,0.4,0.8,0.7,1.1,1.1C19,38.4,20.2,39.9,19.2,39.9z"/>
	<path class="st0" d="M72.3,36.3c-0.1-0.3-0.5-0.3-0.6-0.1c-0.2,0.5-0.2,0.9-0.2,1.3c0.1,0.4,0.4,1.8-0.4,2
		c-1.3,0.3,0.4-3.1,0.5-3.5c0.2-0.3-0.2-0.5-0.4-0.3c-1.1,0.9-2.9,4.3-0.7,4.8c0.9,0.3,1.6-0.5,1.9-1.1C73,38.6,72.6,37.2,72.3,36.3
		z"/>
	<path class="st0" d="M68.8,34.5c-1.1-0.2-2.1-0.3-3,0.4c-0.8,0.6-1.1,1.6-0.6,2.5c1.4,2.4,3.8-1,4.3-2.3
		C69.6,34.7,69,34.3,68.8,34.5z M66.2,36.8c-0.5-0.5,0.1-1.1,0.5-1.3c0.5-0.3,1-0.4,1.5-0.4C67.7,36,66.7,37.3,66.2,36.8z"/>
	<path class="st0" d="M72.4,31.7c-0.7-0.8-1.8-0.9-2.8-0.8c-0.2,0-0.3,0.1-0.4,0.2c-0.2-0.1-0.4,0-0.4,0.3c-0.1,1,0.4,1.8,1.1,2.3
		c0.7,0.5,1.8,0.9,2.5,0.1C73,33.2,72.8,32.3,72.4,31.7z M71.7,33.2c-0.4,0.4-1.3-0.1-1.5-0.4c-0.3-0.3-0.5-0.6-0.7-1l0,0
		c0.6,0,1.3-0.1,1.8,0.2C71.7,32.3,72,32.9,71.7,33.2z"/>
	<path class="st0" d="M14.3,60.7c-0.5,0-0.8-0.5-0.3-0.8c0.2-0.1,0.1-0.6-0.2-0.5c-1.2,0.5-0.7,2.2,0.6,1.8
		C14.6,61.2,14.6,60.7,14.3,60.7z"/>
	<path class="st0" d="M15.6,59.7c-0.3,0.1-0.2,0.6,0.2,0.6c0.7-0.2,1.3,0.6,1.2,1.2c0,0.2,0.3,0.4,0.4,0.2
		C18,60.7,16.8,59.5,15.6,59.7z"/>
	<path class="st0" d="M18.3,63.7c-0.6,0.2-1.3,0.6-1.9,0.3c-0.5-0.2-0.7-0.9-0.3-1.2c0.2-0.2,0-0.4-0.3-0.3c-0.8,0.4-0.7,1.4-0.2,2
		c0.8,0.9,2.2,0.5,2.9-0.3C18.8,64,18.6,63.5,18.3,63.7z"/>
	<path class="st0" d="M24.7,60.9c-0.3-0.1-0.7-0.3-1-0.5c-0.2-0.2-0.5-0.7-0.1-0.9c0.3-0.2,0-0.7-0.3-0.5c-0.5,0.3-0.7,0.9-0.5,1.3
		c0.3,0.7,1,1,1.6,1C24.8,61.6,25,61.1,24.7,60.9z"/>
	<path class="st0" d="M27.1,59.2c-0.6-0.3-1.3-0.2-1.7,0.4c-0.3,0.4,0.4,0.8,0.7,0.4c0.2-0.4,0.8-0.2,1,0.1c0.3,0.4,0.4,0.9,0.5,1.3
		c0.1,0.3,0.6,0.3,0.6-0.1C28.2,60.4,27.9,59.6,27.1,59.2z"/>
	<path class="st0" d="M26.7,62.4c-0.4,0.1-1.2,0.6-0.8,1c0.2,0.3,0.6,0.2,0.7-0.2l0,0c0.3-0.3,0.9-0.3,1.2-0.1
		c0.5,0.2,0.6,0.7,0.7,1.1c0.1,0.3,0.6,0.3,0.7,0C29.5,63,27.9,62,26.7,62.4z"/>
	<path class="st0" d="M38,63.2c-0.5,0.1-1.3,0.2-1.6-0.1c-0.3-0.2-0.4-0.8,0-1c0.2-0.1,0.2-0.5-0.1-0.4c-0.7,0.1-0.9,0.9-0.7,1.4
		c0.4,1,1.6,0.9,2.4,0.6C38.3,63.5,38.3,63.1,38,63.2z"/>
	<path class="st0" d="M40.6,63.1c-0.4-0.7-1.3-1-2-0.7c-0.3,0.1-0.2,0.6,0.2,0.5c0.5-0.1,1.1,0.1,1.3,0.6c0.2,0.5-0.1,0.9-0.3,1.2
		c-0.2,0.3,0.2,0.6,0.5,0.5C40.9,64.9,41,63.7,40.6,63.1z"/>
	<path class="st0" d="M55.3,63.2c-0.1,0.6-0.7,0.8-1.2,0.8c-0.3,0-0.5-0.1-0.8-0.1c-0.1,0-0.5-0.3-0.4-0.3c0.4,0,0.4-0.6,0.1-0.7
		c-0.5-0.1-0.9,0.2-1,0.7c-0.1,0.6,0.5,1,1,1c1.2,0.4,3,0.1,2.8-1.4C55.9,62.7,55.3,62.7,55.3,63.2z"/>
	<path class="st0" d="M53.7,60c-0.9-0.3-1.7,0.1-2.1,1c-0.2,0.3,0.3,0.6,0.5,0.3c0.3-0.5,0.9-0.7,1.4-0.4c0.5,0.3,0.6,0.8,0.7,1.2
		c0.1,0.3,0.5,0.4,0.6,0.1C55.1,61.3,54.4,60.3,53.7,60z"/>
	<path class="st0" d="M58.8,59.7c-0.6,0.2-1.5,0.8-2.1,0.5c-0.4-0.2-0.7-0.9-0.3-1.1c0.4-0.2,0-0.7-0.3-0.6
		c-0.9,0.4-0.8,1.5-0.2,2.1c0.9,1,2.4,0.4,3.3-0.3C59.4,60,59.1,59.6,58.8,59.7z"/>
	<path class="st0" d="M66.2,58.2c-0.8,0.4-1.1,1.3-0.8,2.1c0.1,0.3,0.7,0.1,0.6-0.2c-0.2-0.5,0-1,0.5-1.1c0.5-0.1,0.9,0.2,1.1,0.6
		c0.2,0.4,0.7,0.1,0.6-0.3C68,58.3,66.9,57.8,66.2,58.2z"/>
	<path class="st0" d="M67.1,56.2c-0.3,0.2-0.6,0.5-1,0.6c-0.2,0-0.7,0.1-1,0l0,0c0-0.4-0.5-0.6-0.8-0.3c-0.4,0.4,0.1,0.9,0.5,1
		c0.9,0.4,2.4,0.2,2.7-0.9C67.8,56.3,67.4,55.9,67.1,56.2z"/>
</g>
</svg>
