<?xml version="1.0" encoding="utf-8"?>
<!-- Generator: Adobe Illustrator 21.1.0, SVG Export Plug-In . SVG Version: 6.00 Build 0)  -->
<svg version="1.1" id="Warstwa_1" xmlns="http://www.w3.org/2000/svg" xmlns:xlink="http://www.w3.org/1999/xlink" x="0px" y="0px"
	 viewBox="0 0 88.9 79" style="enable-background:new 0 0 88.9 79;" xml:space="preserve">
<style type="text/css">
	.st0{fill:#ffffff;}
</style>
<g>
	<path class="st0" d="M88.3,61.9c2-7.4-0.9-14.5-7.8-17.8c2,0,3.7-2,3.2-4.2c-0.3-1.4-1.3-2.5-2.6-3c-0.8-0.3-2-0.4-3-0.2
		c0.3-9.9-1.8-20.1-8.3-27.8c-7.1-8.2-17.4-10-27.8-8.6c-9.2,1.2-18.5,4.8-24.8,11.8c-6.6,7.3-8.7,17.1-8.9,26.7
		c-1.4-0.8-3.1-1.5-4.7-1.1C2,38.2,0.9,39.5,0.6,41c-0.3,1.4,0.3,2.9,1.5,3.8c0.5,0.3,1,0.6,1.6,0.7c-1.5,1.7-1.9,4.3-0.3,6
		c-2.4,2.9-3.3,6-3.2,9.7c-0.3,0.1-0.4,0.6,0,0.7c0.1,0,0.2,0,0.3,0.1c0.1,0.1,0.3,0.2,0.5,0.1c0.3,0.1,0.7,0.2,1,0.2
		c0.5,0.1,0.9,0.3,1.4,0.2c0.1,0.2,0.2,0.3,0.4,0.2c1.8-1,3.6-1.9,5.4-2.5c-0.7,2.6-0.5,5.3,1.5,6.8c-1.8,4.2-2.3,9.6,3,11.2
		c3.8,1.2,8.4,0.5,12.4,0.5c5.5,0,10.9-0.1,16.4-0.1c5.1,0,10.3-0.1,15.4-0.1c3.6,0,7.8,0.5,11.2-0.9c5-2.1,4.9-7.5,3.1-11.8
		c2.7-1.7,4.1-4.2,3-7.8c2,0.8,3.9,1.8,5.8,2.8c1.4,0.8,3.1,2.5,4.6,2.8C87.1,63.9,88.6,63.5,88.3,61.9C88.2,62,88.3,61.9,88.3,61.9
		z M77.8,40.5c0.1-0.1,0.1-0.2,0.1-0.3c0.1-0.6,0.1-1.3,0.1-2c0.5-0.1,1-0.3,1.5-0.2c1.1,0.1,2.1,0.6,2.6,1.6c1,1.8-0.3,3.9-2.3,3.6
		c0.4-0.5,0.7-1.2,0.7-1.9c0-0.4-0.6-0.7-0.9-0.2c-0.3,0.6-0.5,1.2-0.9,1.7c-0.1,0.2-0.3,0.4-0.5,0.5c0,0-0.1,0.1-0.1,0.1
		c-0.3,0.2-0.6,0.4-1,0.6c-0.4,0.2-0.1,0.9,0.3,0.8c0.3-0.1,0.7-0.3,1-0.5c1.2,1.1,0.5,2.7-1.2,2.9c-1.7,0.2-3.1-1-4.4-1.8
		c-0.3-0.2-0.5,0.1-0.5,0.4c-0.3,0.1-0.6,0.4-0.5,0.8c0.3,0.9,0,2.1-0.9,2.5c-1,0.5-2.2,0-2.8-0.9c-0.2-0.3-0.7-0.1-0.6,0.2
		c0,0,0,0,0,0.1c-0.1,0.1-0.2,0.2-0.1,0.4c0.6,2.5-1.8,3.3-3.7,2c-0.6-0.4-1.1,0.4-0.9,0.9c-1,2.4-2.2,2.9-3.7,1.4
		c-0.4-0.4-0.6-0.8-0.9-1.2c-0.4-0.7-0.6-1.4-0.7-2.1c0-0.1,0-0.3,0-0.4c0.6,0.1,1.3,0.2,1.9,0c0.4-0.1,0.3-0.6,0-0.8
		c-0.7-0.3-1.4-0.2-2.2-0.2c-0.6,0-1.3-0.1-1.9,0.2c-0.2,0.1-0.1,0.3,0,0.4c0.3,0.2,0.7,0.3,1.1,0.3c-0.1,0.3-0.2,0.6-0.3,1
		c-0.3,0.6-0.9,1.1-1.6,1.3c-1.6,0.4-2.9-1-3-2.5c0-0.3-0.2-0.3-0.4-0.3c0.1-0.4,0.1-0.8,0-1.3c2.8-0.1,5.5-0.4,8.3-0.9
		c5.8-0.9,13-1.5,17.8-5.1C77.7,41.2,77.8,40.8,77.8,40.5z M47.3,62.9c3.1-3.9,6.6-6.8,11-9.2c0.1,0.1,0.2,0.2,0.3,0.3
		c-4.8,1.9-9,7.5-11.2,12.1c0-0.6,0.1-1.3,0-1.9C47.4,63.7,47.5,63.3,47.3,62.9z M18.3,13.4c5.9-6.5,14.5-9.9,23-11.1
		c10-1.4,20.2,0,27.1,8c7.1,8.3,8.1,19.3,8,29.7c-4.5,3.1-11,3.7-16.3,4.6c-6.3,1.1-12.4,1.3-18.7,1.1C30.6,45.4,19,46,9.2,40.9
		c0,0,0,0,0,0C9.9,31.1,11.5,20.9,18.3,13.4z M45.8,49.7c0.9,1-0.4,2.1-1.3,2.1c-0.6,0-1.2-0.3-1.7-0.7c-0.4-0.2-0.8,0.3-0.5,0.6
		c0.1,0.1,0.2,0.2,0.3,0.3c0,3.5-6.1,0.9-5.5-0.6c0.2-0.6-0.5-1.3-0.9-0.7c-0.3,0.5-0.8,0.9-1.3,1.3c-2,0.4-3-0.1-3.1-1.5
		c0.7,0.1,1.4,0,2-0.3c0.5-0.2,0.2-1-0.3-1c-0.7,0-1.4,0.2-2.2,0.1c-0.6-0.1-1.3-0.4-1.9-0.2c-0.2,0-0.3,0.3-0.2,0.4
		c0.2,0.4,0.7,0.6,1.2,0.8c-0.9,1.4-2.3,2.3-3.9,1.4c-1.8-0.9-2-3-1.6-4.7c5.5,0.5,11.2,0.4,16.4,0.6c2.9,0.1,5.9,0.1,8.8,0
		c0,0.7-0.2,1.4-0.9,1.8c-0.9,0.6-1.9,0.2-2.5-0.5C46.2,48.1,45.2,49.1,45.8,49.7z M5.3,45.4c0.2-0.1,0.4-0.2,0.6-0.3
		c0.2-0.2,0.1-0.7-0.2-0.8c-0.1,0-0.1,0-0.2,0c-0.8-0.1-1.6-0.1-2.3-0.5c-1-0.6-1.4-1.7-1-2.8c0.9-2.8,4-1.8,6-1c0,0.4,0,0.9,0,1.3
		c0,0.2,0.1,0.3,0.2,0.3c0,0.1,0.1,0.2,0.2,0.3c4.6,3,9.9,4.3,15.5,4.9c0,0.1-0.1,0.1-0.1,0.2c-0.1,0-0.2-0.1-0.3,0
		c-0.7,0.2-1,0.8-1.8,0.9c-0.8,0.1-1.6-0.2-2.1-0.8c-0.3-0.3-0.7-0.2-0.8,0.2c-0.2,0.1-0.3,0.4-0.1,0.7c2.4,2.5-2.8,4.8-3.6,2
		c-0.1-0.5-0.8-0.5-1-0.1c-1,1.8-3,1.1-3.6-0.4c0.7,0.1,1.3,0.1,1.9-0.2c0.4-0.2,0.3-0.8-0.1-0.9c-0.7-0.2-1.4-0.1-2.1-0.2
		c-0.5-0.1-1-0.3-1.4-0.5c0-0.1-0.1-0.3-0.2-0.3C8.6,47,8.3,47,8.1,47c-0.4,0-0.7,0.6-0.4,0.9c0.4,0.3,0.9,0.6,1.4,0.9
		c-0.4,0.7-0.7,1.5-1.3,2.1c-1,1-2.5,0.9-3.4-0.1C2.8,49,4,46.9,5.3,45.4z M4.1,52.1c2.3,1.7,5,0,5.8-2.4c0.4,2.2,3.2,2.8,4.8,1.2
		c1.1,1.4,3.4,1.7,4.8,0.6c0.9-0.7,1.3-1.8,1.1-2.8c0.4,0.1,0.8,0.2,1.1,0.2c0.5,0,1.4-0.2,1.9-0.6c-0.1,1.9,0.8,3.7,2.7,4.6
		c1.5,0.7,3.6,0.2,4.6-1c0.8,1.7,3.4,2,5.1,0.7c0.6,1.4,2.7,2.1,4.4,2.2c1.4,0.1,3.1-0.8,3.2-2.1c0.9,0.4,1.9,0.4,2.8-0.3
		c0.5-0.4,0.8-1,0.9-1.6c0.9,0.3,1.8,0.2,2.6-0.3c0.5-0.3,0.9-0.8,1.1-1.3c0.1,1.8,1.7,3.3,3.5,3.2c0.7-0.1,1.8-0.6,2.4-1.4
		c0.1,0.6,0.3,1.1,0.6,1.6c-4.5,2-8.4,5.5-11.1,9.7c-7-5.7-16-8.9-25.1-8.6c-4.7,0.2-9.3,1.2-13.6,3.1C7,57.2,2.6,60.2,1.9,60
		C0.4,59.8,3.2,53.8,4.1,52.1z M9.9,58.7c0,0.1,0,0.1-0.1,0.2c-2.1,0.8-4.1,1.9-6,3.2c0-0.1-0.1-0.1-0.1-0.1c-0.4-0.3-1-0.3-1.5-0.4
		c0,0-0.1,0-0.1,0c13.7-9.1,30.6-8.2,43.6,1.9c0.1,0.1,0.3,0.1,0.4,0.1c0,0.3,0,0.6,0.1,0.9c0,0.3,0.1,0.5,0.1,0.8
		c-10.1-7.5-24-11-35.9-6.6C10.3,58.5,10,58.5,9.9,58.7z M66.4,76.6c-2.4,0.5-5.1,0.3-7.5,0.3c-5.8,0-11.5,0.1-17.3,0.1
		c-5.5,0-10.9,0.1-16.4,0.1c-2.7,0-5.4,0.2-8,0.1c-6.5-0.3-6.6-5.1-5.8-9.9c0.4,0.2,0.9,0.4,1.5,0.6c4.8,1.1,10.5,0.5,15.4,0.7
		C33,68.8,37.6,69,42.3,69c4.5,0,20.7,1.4,28.7-2.4C72.8,70.9,71.6,75.5,66.4,76.6z M41.3,67.3c-5.3,0-10.6-0.1-15.9-0.3
		c-2.7-0.1-5.3-0.2-8-0.3c-3-0.1-2.7,0.2-5.1-2.5c-2.1-2.4-2.1-2.4-1.9-4.3c12.5-4.3,25.2-1,36.3,7.2c0.4,0.3,0.8,0,0.9-0.4
		c0.2,0.2,0.5,0.2,0.7-0.1c1.5-2.4,3.1-4.6,5-6.7c1.8-1.9,4-3.3,5.8-5.1c0.1-0.1,0.1-0.2,0.1-0.3c0.5,0.4,1.2,0.6,1.9,0.7
		c0.9,0.1,1.6-0.2,2.2-0.6c3.5,0.6,6.9,1.5,10.2,2.7C77.5,69.7,47.9,67.3,41.3,67.3z M83.9,61.2c-1-0.5-2-1.2-3-1.7
		c-1.8-0.9-3.7-1.8-5.6-2.5c-0.1,0-0.2-0.1-0.3-0.1c0,0,0,0,0,0c-0.2-0.5-0.8-0.6-1.2-0.4c-3.2-1.1-6.5-1.9-9.9-2.4c0,0,0,0,0,0
		c8.5,0.4,16.3,3,23.2,8.1C87.1,62.5,84,61.3,83.9,61.2z M85.3,59.4c-1.5-0.7-2.8-1.7-4.3-2.4c-5.3-2.5-11-3.7-16.8-3.5
		c0.1-0.3,0.2-0.6,0.2-0.9c1.2,0.4,2.5,0.4,3.5-0.5c0.7-0.6,1-1.4,0.9-2.2c0.7,0.5,1.6,0.6,2.5,0.3c1.2-0.4,2-1.7,1.9-2.9
		c0-0.1,0.1-0.1,0.1-0.2c0-0.1,0-0.2,0-0.3c1.7,1.5,4.2,2.6,6.2,1c0.7-0.6,1.1-1.8,0.9-2.8c4,2.5,6.8,6.3,7.2,11.1
		C88,59.1,88.4,60.8,85.3,59.4z"/>
	<path class="st0" d="M39.8,6c-0.9-0.4-1.7-0.5-2.6,0c-0.8,0.5-1.7,1.6-1.2,2.5c0.4,0.8,1.4,1,2.1,0.6c0.9-0.5,1.2-1.7,1.2-2.6
		c0-0.1,0-0.1-0.1-0.2c0.1,0,0.3,0,0.4,0C39.8,6.4,40,6.1,39.8,6z M38.1,7.9c-0.3,0.4-1.2,0.7-1.1-0.1c0.1-0.6,0.9-1.1,1.6-1.3
		C38.5,7,38.4,7.5,38.1,7.9z"/>
	<path class="st0" d="M46,4.6c-0.8-0.6-1.9-0.8-2.9-0.8c-0.1,0-0.1,0.1-0.2,0.1c-0.2,0-0.4,0.2-0.3,0.4c0.2,1.2,2.7,3.7,3.9,2.2
		C47,5.9,46.5,5,46,4.6z M45.5,6.1c-0.5,0-1-0.5-1.4-0.8c-0.3-0.3-0.6-0.7-0.9-1.1c0.6,0.1,1.3,0.3,1.8,0.6
		C45.4,5,46.5,6.1,45.5,6.1z"/>
	<path class="st0" d="M42.1,6.6c-0.3-0.2-0.8,0.1-0.6,0.5c0,0.1,0.1,0.2,0.2,0.3c-0.8,0.7-1.6,1.6-1.3,2.7c0.2,0.8,0.9,1.5,1.7,1.5
		C44.5,11.7,43.3,7.5,42.1,6.6z M42,10.6c-0.7,0.1-0.8-0.9-0.7-1.3C41.4,8.9,41.7,8.4,42,8c0.1,0.2,0.2,0.4,0.3,0.6
		C42.4,9.1,42.7,10.5,42,10.6z"/>
	<path class="st0" d="M15.3,35.9c0-0.2-0.1-0.3-0.2-0.3c0.1-0.2-0.1-0.4-0.3-0.3c-0.9,0.3-1.7,0.8-2.2,1.7c-0.4,0.7-0.8,1.9-0.2,2.6
		c0.6,0.7,1.6,0.3,2.1-0.3C15.2,38.3,15.3,36.9,15.3,35.9z M14.1,37.8c-0.1,0.3-0.3,0.9-0.6,1c-0.4,0.2-0.5,0-0.4-0.4
		c0.1-0.9,0.7-1.7,1.4-2.3C14.4,36.6,14.3,37.2,14.1,37.8z"/>
	<path class="st0" d="M19.9,38.6c-0.5-1.2-1.5-2.5-2.7-3.1c-0.4-0.2-0.7,0.1-0.7,0.4c-0.4,1.1-0.3,2.3,0.2,3.4
		c0.4,0.9,1.3,1.7,2.4,1.5C20.1,40.6,20.3,39.4,19.9,38.6z M18.6,39.8c-0.7,0-1.2-0.9-1.4-1.4c-0.2-0.6-0.3-1.1-0.2-1.7
		c0.4,0.4,0.8,0.7,1.1,1.2C18.4,38.2,19.6,39.8,18.6,39.8z"/>
	<path class="st0" d="M73.7,36c-0.1-0.3-0.5-0.3-0.6-0.1c-0.2,0.5-0.2,0.9-0.2,1.4c0.1,0.4,0.4,1.9-0.4,2.1
		c-1.3,0.3,0.4-3.3,0.5-3.7c0.2-0.3-0.2-0.5-0.4-0.3c-1.1,0.9-3,4.5-0.7,5.1c0.9,0.3,1.7-0.5,2-1.2C74.4,38.4,74,37,73.7,36z"/>
	<path class="st0" d="M70,34.1c-1.1-0.2-2.2-0.3-3.1,0.4c-0.8,0.6-1.1,1.7-0.6,2.6c1.5,2.5,3.9-1,4.5-2.4
		C70.9,34.3,70.3,33.9,70,34.1z M67.3,36.6c-0.5-0.5,0.1-1.2,0.5-1.4c0.5-0.3,1-0.4,1.6-0.4C68.9,35.7,67.9,37.1,67.3,36.6z"/>
	<path class="st0" d="M73.8,31.2c-0.7-0.8-1.9-0.9-2.9-0.8c-0.2,0-0.3,0.1-0.4,0.2c-0.2-0.1-0.4,0-0.4,0.3c-0.1,1,0.4,1.9,1.1,2.4
		c0.7,0.5,1.9,0.9,2.6,0.1C74.4,32.8,74.2,31.8,73.8,31.2z M73.1,32.8c-0.4,0.4-1.3-0.1-1.6-0.4c-0.3-0.3-0.5-0.6-0.7-1c0,0,0,0,0,0
		c0.6,0,1.3-0.1,1.9,0.2C73,31.8,73.4,32.4,73.1,32.8z"/>
	<path class="st0" d="M13.5,61.7c-0.5,0-0.8-0.5-0.3-0.8c0.2-0.1,0.1-0.6-0.2-0.5c-1.2,0.5-0.7,2.3,0.6,1.9
		C13.8,62.2,13.8,61.7,13.5,61.7z"/>
	<path class="st0" d="M14.9,60.7c-0.3,0.1-0.2,0.6,0.2,0.6c0.7-0.2,1.4,0.6,1.2,1.3c0,0.2,0.3,0.4,0.4,0.2
		C17.3,61.7,16.1,60.4,14.9,60.7z"/>
	<path class="st0" d="M17.7,64.9c-0.6,0.2-1.4,0.6-2,0.3c-0.5-0.2-0.7-0.9-0.3-1.3c0.2-0.2,0-0.4-0.3-0.3c-0.8,0.4-0.7,1.5-0.2,2.1
		c0.8,0.9,2.3,0.5,3-0.3C18.2,65.2,18,64.7,17.7,64.9z"/>
	<path class="st0" d="M24.3,61.9c-0.3-0.1-0.7-0.3-1-0.5c-0.2-0.2-0.5-0.7-0.1-0.9c0.3-0.2,0-0.7-0.3-0.5c-0.5,0.3-0.7,0.9-0.5,1.4
		c0.3,0.7,1,1,1.7,1.1C24.4,62.6,24.6,62.1,24.3,61.9z"/>
	<path class="st0" d="M26.8,60.1c-0.6-0.3-1.4-0.2-1.8,0.4c-0.3,0.4,0.4,0.8,0.7,0.4c0.2-0.4,0.8-0.2,1,0.1c0.3,0.4,0.4,0.9,0.5,1.4
		c0.1,0.3,0.6,0.3,0.6-0.1C27.9,61.4,27.6,60.5,26.8,60.1z"/>
	<path class="st0" d="M26.4,63.5c-0.4,0.1-1.2,0.6-0.8,1.1c0.2,0.3,0.6,0.2,0.7-0.2c0,0,0,0,0,0c0.3-0.3,0.9-0.3,1.2-0.1
		c0.5,0.2,0.6,0.7,0.7,1.2c0.1,0.3,0.6,0.3,0.7,0C29.3,64.1,27.6,63.1,26.4,63.5z"/>
	<path class="st0" d="M38.1,64.3c-0.5,0.1-1.3,0.2-1.7-0.1c-0.3-0.2-0.4-0.8,0-1c0.2-0.1,0.2-0.5-0.1-0.4c-0.7,0.1-0.9,0.9-0.7,1.5
		c0.4,1,1.7,0.9,2.5,0.6C38.4,64.7,38.4,64.2,38.1,64.3z"/>
	<path class="st0" d="M40.8,64.2c-0.4-0.7-1.4-1-2.1-0.7c-0.3,0.1-0.2,0.6,0.2,0.5c0.5-0.1,1.1,0.1,1.3,0.6c0.2,0.5-0.1,0.9-0.3,1.3
		c-0.2,0.3,0.2,0.6,0.5,0.5C41.1,66.1,41.2,64.9,40.8,64.2z"/>
	<path class="st0" d="M56,64.3c-0.1,0.6-0.7,0.8-1.2,0.8c-0.3,0-0.5-0.1-0.8-0.1c-0.1,0-0.5-0.3-0.4-0.3c0.4,0,0.4-0.6,0.1-0.7
		c-0.5-0.1-0.9,0.2-1,0.7c-0.1,0.6,0.5,1,1,1.1c1.2,0.4,3.1,0.1,2.9-1.5C56.7,63.8,56,63.8,56,64.3z"/>
	<path class="st0" d="M54.4,61c-0.9-0.3-1.8,0.1-2.2,1c-0.2,0.3,0.3,0.6,0.5,0.3c0.3-0.5,0.9-0.7,1.5-0.4c0.5,0.3,0.6,0.8,0.7,1.3
		c0.1,0.3,0.5,0.4,0.6,0.1C55.8,62.3,55.1,61.3,54.4,61z"/>
	<path class="st0" d="M59.7,60.6c-0.6,0.2-1.6,0.8-2.2,0.5c-0.4-0.2-0.7-0.9-0.3-1.2c0.4-0.2,0-0.7-0.3-0.6
		c-0.9,0.4-0.8,1.6-0.2,2.2c0.9,1,2.5,0.4,3.4-0.3C60.3,61,60,60.5,59.7,60.6z"/>
	<path class="st0" d="M67.3,59.1c-0.8,0.4-1.1,1.4-0.8,2.2c0.1,0.3,0.7,0.1,0.6-0.2c-0.2-0.5,0-1.1,0.5-1.2c0.5-0.1,0.9,0.2,1.1,0.6
		c0.2,0.4,0.7,0.1,0.6-0.3C69.2,59.2,68.1,58.7,67.3,59.1z"/>
	<path class="st0" d="M68.3,57c-0.3,0.2-0.6,0.5-1,0.6c-0.2,0-0.7,0.1-1,0c0,0,0,0,0,0c0-0.4-0.5-0.6-0.8-0.3
		c-0.4,0.4,0.1,0.9,0.5,1.1c0.9,0.4,2.5,0.2,2.8-0.9C69,57.1,68.6,56.7,68.3,57z"/>
</g>
</svg>
