<?xml version="1.0" encoding="utf-8"?>
<!-- Generator: Adobe Illustrator 21.1.0, SVG Export Plug-In . SVG Version: 6.00 Build 0)  -->
<svg version="1.1" id="Warstwa_1" xmlns="http://www.w3.org/2000/svg" xmlns:xlink="http://www.w3.org/1999/xlink" x="0px" y="0px"
	 viewBox="0 0 56 79.8" style="enable-background:new 0 0 56 79.8;" xml:space="preserve">
<style type="text/css">
	.st0{fill:#3C3C3B;}
</style>
<g>
	<path class="st0" d="M48.3,14.2c-0.7-0.7-2-0.3-2.9-0.2c-1.9,0.2-3.8,0.4-5.7,0.6c-0.4,0-0.7,0.5-0.3,0.8c2.2,2.2,4.4,4.4,6.8,6.4
		c0.3,0.3,0.7-0.1,0.5-0.5c-1.8-2.1-3.8-4-5.8-5.9c1.7-0.2,3.5-0.4,5.2-0.5c0.3,0,1-0.2,1.3-0.1c0.6,0.3,0.7,1.2,0.7,1.8
		c0.2,1.5-0.2,2.8-0.7,4.2c-0.2,0.5,0.5,1,0.8,0.5c0.6-1.2,0.9-2.5,0.9-3.9C49,16.5,49,14.9,48.3,14.2z"/>
	<path class="st0" d="M45.3,10.8c-1.9,0.6-3.8,1.3-5.7,1.9c0-0.7,0.1-1.5,0.2-2.2c0.1-0.6,0.2-2.3,1-2.4c0.5-0.1,1.6,0.7,2.1,1
		c0.8,0.5,1.4,1.1,2.1,1.7c0.4,0.3,1-0.1,0.7-0.6c-0.7-0.9-1.7-1.7-2.7-2.2c-0.7-0.4-1.9-1.2-2.7-1c-0.9,0.2-1.1,1.3-1.3,2.1
		c-0.4,1.5-0.5,3-0.5,4.5c0,0.3,0.3,0.6,0.7,0.5c2.2-0.7,4.3-1.5,6.4-2.6C45.9,11.3,45.7,10.7,45.3,10.8z"/>
	<path class="st0" d="M36.9,9c-0.1-0.3-0.5-0.5-0.7-0.3c-1,0.6-2,1.3-2.9,2.2c-0.6,0.6-1.6,1.6-1.8,2.5c-0.2,0.8,0.6,1.1,1.2,1.3
		c1.3,0.4,2.8,0.5,4.1,0.4c0.3,0,0.4-0.2,0.4-0.4c0.1,0,0.3-0.1,0.3-0.3C37.4,12.6,37.2,10.8,36.9,9z M34,13.9
		c-0.2,0-1.3-0.2-1.4-0.3c-0.1-0.2,0.2-0.5,0.4-0.7c0.9-1.2,1.9-2.1,3.1-2.9c0.2,1.4,0.5,2.8,0.9,4.2c0,0,0,0-0.1,0
		C35.9,14.1,34.9,14.1,34,13.9z"/>
	<path class="st0" d="M43.6,2.7c-7.7-2.3-15.6,3-17.4,10.8c-0.1,0.3-0.1,0.6-0.2,0.9c0,0,0,0,0,0c-7.5-1.1-15.5-0.9-22.9,1.1
		c-0.1-0.3-0.7-0.2-0.7,0.2c-0.3-0.1-0.5,0.4-0.2,0.6c0.1,0,0.1,0.1,0.2,0.1c-0.2,9.6,1,19.2,1.6,28.8C4.6,55,5.2,64.8,5.9,74.7
		c0,0.6,0.7,0.9,1.1,0.7c7.9,3.9,18.7,5.5,25.7-1c0.3-0.2,0.2-0.6,0.1-0.8c1.7-14,3.9-28.3,5-42.5c6.5,3.4,14.3-1,16.3-7.9
		C56.4,15.1,51.7,5.1,43.6,2.7z M25.8,15.7C25.8,15.7,25.9,15.7,25.8,15.7c-0.1,1.7,0.1,3.5,0.6,5.3c-7.6,0.6-16-2-22.5-4.7
		C11.3,15.4,18.3,15,25.8,15.7z M34.7,44.1c-1,9.8-2.1,19.6-3.3,29.4c-7.8,5.6-15.5,3.1-24,0.8c-0.7-10.1-1.3-20.1-2-30.2
		C4.8,35.2,4.6,26,3.3,17c6.1,3.7,15.4,6.2,23.5,5.3c1.5,4.1,4.6,7.5,9.2,7.6C35.6,34.7,35.2,39.4,34.7,44.1z M36.1,29.2
		c-3.4-1.4-6.2-3.9-7.6-7.1c0.5-0.1,1-0.2,1.5-0.3c1.4,2.7,3.6,5,6.3,5.5C36.2,28,36.1,28.6,36.1,29.2z M36.3,26.8
		c-2-1-3.9-2.9-5.2-5.2c0.6-0.2,1.1-0.4,1.7-0.6c0.4,0.5,0.7,1,1.2,1.5c0.2,0.3,0.7,0.2,0.8-0.1c0.6-1.1,1.2-2.2,1.7-3.3
		c0.3-0.2,0.6-0.4,0.9-0.6C36.9,21.2,36.6,24,36.3,26.8z M33,19.4c-0.3-0.5-0.7-1.3-0.6-1.5c0.2-0.3,1.6-0.4,2-0.5
		c0.6-0.1,1.2-0.3,1.8-0.4c-0.1,0.3-0.2,0.5-0.4,0.8C35,18.4,34,18.9,33,19.4z M34.8,20.1c-0.2,0.4-0.4,0.7-0.5,1.1
		c-0.2-0.2-0.3-0.4-0.5-0.6C34.1,20.4,34.5,20.2,34.8,20.1z M37.7,16.4c0,0.1,0,0.2,0,0.2c-0.1,0-0.1,0-0.2,0c0-0.3-0.4-0.5-0.7-0.4
		c0,0,0,0-0.1,0c-1.2,0.1-2.4,0.3-3.6,0.4c-0.7,0.1-1.6,0.1-1.8,0.9c-0.2,0.7,0.4,1.6,0.7,2.2c-0.5,0.2-1.1,0.4-1.6,0.5
		c-0.9-2.2-1.3-4.5-0.8-6.6C31,8.4,38.4,5,43,6.9c3.8,1.6,8.1,6.5,8,11c-0.1,6-7.3,11.5-12.9,9.2c0-0.4,0-0.8,0.1-1.2
		c0.1,0.1,0.1,0.2,0.2,0.2c1.8,0.6,6.1,0.2,6.2-2.5c0-1.2-1.3-2.3-2-3.1c-1.2-1.4-2.5-2.7-4-3.8c0,0,0,0,0,0c0,0,0-0.1,0-0.1
		C38.5,16,37.7,15.9,37.7,16.4z M38.2,25.3c0.2-2.7,0.3-5.4,0.3-8.2c1.2,1.5,2.5,2.8,3.7,4.2c0.9,1.1,2,2.3,0.3,3.4
		c-1.1,0.7-2.6,0.6-3.8,0.3C38.4,25.1,38.3,25.2,38.2,25.3z M38,29.7C37.9,29.7,37.9,29.7,38,29.7c0-0.5,0-0.9,0-1.3
		c5.3,2.1,11.5-2,13.5-7.1c2.3-6.1-2.6-13.1-8-15.4c-5.3-2.2-12.7,1.4-14.6,6.9c-0.8,2.3-0.5,5.2,0.5,7.8c-0.5,0.1-1,0.2-1.5,0.3
		c-0.7-2.1-0.8-4.4-0.2-6.9c1.5-6.5,7.7-11.3,14.3-10c6.8,1.4,11.4,8.4,11.2,15.3C53,27.4,45.4,33,38,29.7z"/>
	<path class="st0" d="M34.1,31.7c0-0.2-0.1-0.3-0.3-0.4c-8.1-3.7-18.5-4.5-27.2-2.7c-0.1,0-0.2,0.1-0.2,0.3c-0.1,0-0.2,0.1-0.2,0.2
		C5.8,43.4,7,58.4,8.9,72.6c0,0.2,0.2,0.3,0.4,0.3c0,0,0,0,0,0c6.5,3.6,14.3,3.1,20.8-0.3c0.3-0.2,0.3-0.4,0.2-0.7
		c0.1,0.1,0.3,0.1,0.3-0.1c1.5-6.1,1.4-12.7,2-18.9c0.7-6.9,1.3-13.9,1.8-20.8C34.5,31.9,34.3,31.8,34.1,31.7z M33.1,32.4
		c-3.6,3-9.1,2.7-13.5,2.4c-4.8-0.3-9.7-1.7-12.9-5.6C15.7,29.4,24.8,28.7,33.1,32.4z M31.9,52c-0.5,6.5-1.9,13.3-1.7,19.8
		c0,0,0,0,0,0c-0.2-0.2-0.4-0.3-0.6-0.1c-6.4,3.5-13.1,3.3-19.8,0.8l0,0c-0.9-14-1.6-28.1-3-42.1c1.7,3.7,8,5.1,11.2,5.4
		c4.7,0.5,11.5,1,15.4-2.3C32.9,39.7,32.4,45.8,31.9,52z"/>
	<path class="st0" d="M27.8,65.4c-0.6-1.3-1.1-2.7-1.7-4c-0.1-0.3-0.5-0.4-0.8-0.3c-2.4,0.6-4.7,1.5-6.9,2.5c-0.5,0.2-0.4,0.8-0.1,1
		c0.5,1.3,1,2.6,1.5,3.9c0.3,0.8,0.6,2.1,1.2,2.7c1.2,1.2,3.6-0.3,4.9-0.8c1.3-0.5,3-0.8,2.9-2.5C28.8,67.2,28.1,66.2,27.8,65.4z
		 M27.3,68.6C27,69,25,69.5,24.5,69.7c-0.7,0.3-1.5,0.8-2.2,0.6c-0.8-0.2-0.9-1-1.3-1.8c-0.6-1.3-1.2-2.5-1.8-3.8
		c1.9-0.9,3.9-1.6,6-2.2c0.5,1.2,1,2.3,1.5,3.5C26.8,66.6,27.6,68,27.3,68.6z"/>
	<path class="st0" d="M19.3,58.1c-2-1.2-4.1-2.3-6.3-3.3c-0.4-0.2-0.8,0-1,0.4c-0.5,1.4-1,2.8-1.5,4.1c-0.3,0.9-1.1,2.1-0.9,3.1
		c0.2,1.5,2.5,2.7,3.7,3.3c0.2,0.1,0.4,0.1,0.6,0c0.1,0.2,0.4,0.4,0.6,0.2c1.8-2.2,3.5-4.6,5.2-6.9C19.7,58.7,19.5,58.3,19.3,58.1z
		 M14.1,65c0-0.1-0.1-0.3-0.3-0.4c-0.8-0.5-1.8-1-2.3-1.7c-0.7-0.8-0.5-1.2-0.1-2.2c0.6-1.5,1.1-2.9,1.7-4.4c1.7,0.8,3.3,1.7,5,2.6
		C16.7,60.9,15.3,62.9,14.1,65z"/>
	<path class="st0" d="M27.4,48.9c-0.1-0.3-0.4-0.6-0.8-0.5c-2.6,0.8-5.2,1.7-7.7,2.9c-0.5,0.3-0.4,0.8,0,1.1
		c0.5,1.1,1.1,2.3,1.6,3.4c0.4,0.8,0.8,2.1,1.4,2.7c1.1,1.1,3.7,0.1,5-0.1c1.4-0.2,2.5-0.5,2.4-2.2C29.1,53.8,28.2,51.3,27.4,48.9z
		 M25.5,57.3c-0.7,0.1-1.6,0.4-2.3,0.3c-0.8-0.2-1-0.8-1.4-1.6c-0.7-1.2-1.4-2.3-2.1-3.5c2.2-1,4.4-1.9,6.7-2.6
		c0.4,1.2,0.7,2.4,1,3.6c0.1,0.6,0.5,1.5,0.5,2.2C27.7,57.4,26.7,57.2,25.5,57.3z"/>
</g>
</svg>
