<?xml version="1.0" encoding="utf-8"?>
<!-- Generator: Adobe Illustrator 21.1.0, SVG Export Plug-In . SVG Version: 6.00 Build 0)  -->
<svg version="1.1" id="Warstwa_1" xmlns="http://www.w3.org/2000/svg" xmlns:xlink="http://www.w3.org/1999/xlink" x="0px" y="0px"
	 viewBox="0 0 28.7 62" style="enable-background:new 0 0 28.7 62;" xml:space="preserve">
<style type="text/css">
	.st0{fill:#3C3C3B;}
</style>
<g>
	<path class="st0" d="M25.4,36c-0.7-6.1-1.3-12.2-2-18.3c0,0,0-0.1,0-0.1c0.2-0.1,0.3-0.3,0.3-0.5c0,0,0.1,0,0.1,0
		c2.4-0.6,0.8-6.1,0.4-7.6C23,6,20.6,2.9,17.2,1.8C8.6-0.9,1.5,8.3,3,16.7c-0.4,0.2-0.4,1,0.2,1c0.1,0,0.2,0,0.3,0
		C2,28.4,1.8,39.5,1.3,50.3c-0.1,2.5-1,6.6,1.2,8.6c2.5,2.3,7.8,1.1,10.8,1c3.2,0,8.4,1,11.4-0.3c2.5-1.1,2.4-4.4,2.4-6.8
		C27,47.2,26,41.6,25.4,36z M14.1,3.1c2.9-0.1,5.6,1.6,7.1,4.2c0.2,0.4,2.9,7.6,2.1,8c-0.3,0.1-0.5,0.4-0.6,0.7
		C16.5,16,10.3,16,4.1,16.6C3.6,10.2,7.3,3.3,14.1,3.1z M25.4,53.6c-0.2,4.5-1.9,4.5-5.5,4.6c-1.7,0-3.3,0.1-5,0.1
		c-3.7,0.1-11.3,1.7-12.2-3.7C2,51.1,3,46.6,3.2,43c0.4-8.4,1.3-16.9,1.4-25.3c5.7,0.1,11.4,0,17.2,0.1c0,0,0,0,0,0
		c0.9,8.5,1.8,17.1,2.8,25.6C24.9,46.8,25.5,50.2,25.4,53.6z"/>
	<path class="st0" d="M13.6,4.9c-0.7,0-0.7,1.1,0,1.1C14.3,6,14.3,4.9,13.6,4.9z"/>
	<path class="st0" d="M10.7,6c-0.7,0.1-1.1,0.9-0.7,1.5c0.2,0.2,0.4,0.4,0.6,0.4c0.4,0.1,0.8,0,1-0.4C12,6.8,11.6,5.9,10.7,6z"/>
	<path class="st0" d="M15.3,7.7C15.3,7.7,15.3,7.6,15.3,7.7c-0.5-1-1.9-0.2-1.4,0.8c0.3,0.6,0.9,0.7,1.4,0.4
		C15.7,8.6,15.7,7.9,15.3,7.7z"/>
	<path class="st0" d="M16.6,5.2c-0.8,0-0.8,1.4,0,1.4C17.4,6.6,17.4,5.2,16.6,5.2z"/>
	<path class="st0" d="M23.8,52c-0.2-0.3-0.7-0.2-0.7,0.2c0.2,3.4-10.6,3.7-15,3.2c-1.4-0.7-2.6-2.6-2.8-4.1
		c-0.1-1.1,0.1-2.5,0.1-3.6c0.1-2.4,0.2-4.8,0-7.2c0-0.4-0.6-0.4-0.6,0c-0.3,2.4-0.3,4.8-0.4,7.2c-0.1,1.7-0.4,3.8,0,5.5
		c0.5,2.2,2,3.1,4.1,3.1c0.1,0,0.2,0,0.2-0.1C14.1,57.3,26.4,56.9,23.8,52z"/>
</g>
</svg>
