<?xml version="1.0" encoding="utf-8"?>
<!-- Generator: Adobe Illustrator 21.1.0, SVG Export Plug-In . SVG Version: 6.00 Build 0)  -->
<svg version="1.1" id="Warstwa_1" xmlns="http://www.w3.org/2000/svg" xmlns:xlink="http://www.w3.org/1999/xlink" x="0px" y="0px"
	 viewBox="0 0 53.4 101.9" style="enable-background:new 0 0 53.4 101.9;" xml:space="preserve">
<style type="text/css">
	.st0{fill:#3C3C3B;}
</style>
<g>
	<path class="st0" d="M41,55.7c0.2,0,0.4,0,0.5,0c1.2,0,2.4-0.5,3-1.5c1.2-1.8,0.1-4.5-1.9-5c8.2-6,13.1-19.4,7.8-28.6
		c-3.7-6.5-14.9-9.3-18.4-2.1c0-0.1,0-0.2,0-0.4c-0.1-0.4-0.4-0.5-0.7-0.4c-0.9-1.2-3.1-1.8-4.6-2.1c0.5-3.4,1-6.9,1.4-10.3
		c0-0.3-0.2-0.6-0.5-0.7c-0.6-1.8-4-1.8-5.5-1.8c-2.8,0.1-5.7,1-7.9,2.8c-0.2,0.1-0.2,0.3-0.2,0.5c-0.1,0.1-0.1,0.2-0.1,0.4
		c0.3,3.1,0.8,6.3,1.2,9.4c-3.2-0.4-9.7-0.8-10.6,2.1c-0.4,1.3,0.4,2.2,1.6,2.8c0.5,0.8,1.2,1.5,2.1,2.2c1.2,0.9,3,1.1,4.1,2
		c3.3,2.7,3.3,6.1,2.2,9.8c-1.1,3.8-3.6,7.2-5.5,10.6c-1.7,3.3-3.2,6.7-4.4,10.2C0.9,67.1-0.4,81.9,7.8,91.9
		c7.4,8.9,22.6,10.7,31.7,3.4c9.8-7.7,9.3-21.7,5.1-32.2C43.6,60.6,42.4,58.1,41,55.7z M32,20.9c2.4-4.7,7.8-6.9,12.7-4.2
		c4.1,2.3,6.2,6.9,6.4,11.4c0.4,8.2-3.8,15.3-9.8,20.5c-0.5,0.4,0,1.2,0.6,1.1c0,0,0,0,0,0c1.5,0.5,2.8,2.5,1.5,3.9
		c-0.5,0.5-1.2,0.7-1.9,0.7c-0.6,0-1-0.4-1.5-0.6c-1-1.7-2-3.4-3.1-5.1c8.5-2.9,14.5-12.6,12.2-21.5c-1-4-4-7.4-8.1-8.2
		c-3.8-0.7-6.9,1.2-9.6,3.6C31.7,22,31.9,21.5,32,20.9z M30.1,25.7c0.1,0,0.2-0.1,0.2-0.1c3.4-3.3,7.2-6.8,12.3-4.6
		c5,2.1,6.3,7.9,5.5,12.8C46.9,40.3,42.2,45,36.5,48c-1.2-1.9-2.4-3.8-3.5-5.8C29.9,37.1,27.8,31.5,30.1,25.7z M26.6,16.8
		c1.8,0.3,3.1,0.3,2.1,2.6c-0.7,1.8-1.4,1.9-2.9,2c0-0.2,0.1-0.3,0.1-0.5c0.9-0.1,1.8-0.6,1.8-1.7c0-0.7-0.6-1.3-1.3-1.3
		C26.5,17.5,26.6,17.1,26.6,16.8z M19.8,4.5c1.4-0.3,5.3-1,5.9,0.5c0.6,1.4-4.4,1.9-5.2,1.9c-1.6,0-3.1-0.3-4.5-0.8
		C17.2,5.4,18.4,4.8,19.8,4.5z M22.7,8.1C23.5,8,25.2,7.7,26.4,7c-0.8,4.8-1.5,9.6-2,14.5c-0.4,0-0.9,0-1.3,0.1
		c0.2-0.7,0.1-1.4-0.5-1.8c-0.5-0.4-1.4-0.4-1.7,0.3c-0.1,0.3,0.3,0.6,0.5,0.3c0.2-0.4,0.8-0.2,1,0.1c0.2,0.3,0.2,0.7,0.1,1.1
		c-0.4,0-0.9,0-1.3,0c0-0.2-0.1-0.4-0.4-0.3C20,21.7,19,21,19.5,20.2c0.2-0.3-0.3-0.6-0.5-0.3c-0.3,0.4-0.3,1-0.1,1.5
		c-0.4,0-0.7-0.1-1.1-0.1c-0.3-1.8-0.8-3.8-0.9-4.4c-0.5-3.3-0.9-6.5-1.5-9.7C17.7,8.2,20.2,8.5,22.7,8.1z M18.1,22.6
		c0.8,0.1,1.6,0.2,2.4,0.3c-0.1,0-0.1,0.1-0.2,0.1c-0.4,0.3-0.4,1,0,1.3c0.2,0.2,0.5-0.1,0.3-0.3c-0.3-0.3,0.3-0.6,0.5-0.6
		c0.3,0,0.6,0.1,0.9,0.2c0.3,0.1,0.6-0.4,0.2-0.6c0.6,0,1.3,0,1.9,0c0,0.3-0.1,0.5-0.1,0.8c-0.8,0.5-1.5,1.1-2.6,1.3
		c-0.6,0.1-2.7,0.2-3.4-0.5C18.3,24.2,18.3,23.5,18.1,22.6z M6.8,18c0.3-0.9,6.1-1,8.6-1.1c0,0.2,0.1,0.4,0.1,0.7
		c-0.4,0.2-0.7,0.4-1,0.7c-0.3,0.5-0.4,1.1-0.1,1.6c0.3,0.5,0.9,0.9,1.5,0.8c0,0.1,0,0.3,0.1,0.4C15.6,21,15.3,21,15,21
		C13.6,20.8,6.1,20.5,6.8,18z M44.8,85.1C41.3,95.2,31.1,99.7,21,97.7C-0.9,93.6,1.4,66.2,8.2,50.7c2.7-6.2,8.3-12.5,8.6-19.6
		c0.2-5.8-4.1-7-7.7-9.5c2.4,0.5,5.1,0.5,5.9,0.6c0.4,0,0.8,0.1,1.3,0.2c0.3,1.1,0.7,2.2,1.3,3.2c0.1,0.2,0.3,0.2,0.5,0.1
		c0.6,0.4,1.5,0.7,2.2,0.7c1.3,0.1,2.9-0.2,4-1c0.3,0.2,0.8,0.1,0.9-0.3c0.2-0.7,0.3-1.5,0.4-2.2c1.9-0.2,3.7-0.6,4.9-1.6
		c-0.9,2.5-2.6,4.8-3,7.5c-0.5,3.3,0.4,6.7,1.7,9.7c3.1,7.2,8.3,13.5,11.9,20.5C45.1,67.1,47.7,76.4,44.8,85.1z"/>
	<path class="st0" d="M19.3,15.6c-0.2,0.2-0.6,0.4-0.9,0.4c-0.4-0.1-0.5-0.6-0.4-0.9c0.1-0.2-0.3-0.4-0.4-0.2
		c-0.3,0.6-0.2,1.4,0.4,1.7c0.6,0.3,1.5,0,1.6-0.7C19.8,15.6,19.5,15.4,19.3,15.6z"/>
	<path class="st0" d="M21.5,15.9c-0.2,0.5-0.4,0.9-0.8,1.3c-0.2,0.2-0.3,0.3-0.6,0.4c-0.1,0-0.1,0-0.1,0c0-0.1-0.1-0.1-0.2-0.1
		c-0.3,0-0.3,0.2-0.4,0.3c-0.1,0.1-0.1,0.3,0.1,0.4c0.5,0.4,1.3,0,1.8-0.4c0.6-0.5,0.9-1.2,0.9-1.9C22.2,15.6,21.7,15.5,21.5,15.9z"
		/>
	<path class="st0" d="M24.9,13.3c-0.5-0.9-0.5-1.8-0.1-2.7c0.2-0.4-0.3-0.8-0.6-0.5c-1,1-0.8,2.7,0.3,3.6
		C24.8,13.9,25.1,13.5,24.9,13.3z"/>
	<path class="st0" d="M22.9,11.2c-0.6,0.4-1.3-0.3-0.8-0.9c0.2-0.2-0.1-0.6-0.3-0.4c-0.5,0.4-0.7,1.1-0.3,1.7
		c0.4,0.6,1.2,0.6,1.8,0.1C23.5,11.5,23.2,11,22.9,11.2z"/>
	<path class="st0" d="M25.4,9c-0.4,0-0.9-0.3-1-0.7c0-0.4-0.6-0.4-0.6,0c0,0.9,0.8,1.7,1.7,1.4C25.8,9.5,25.8,9,25.4,9z"/>
	<path class="st0" d="M19.1,10.6c-1.2,0.3-1.4,1.8-0.6,2.6c0.2,0.2,0.6-0.1,0.4-0.3c-0.4-0.6-0.2-1.4,0.4-1.8
		C19.6,11,19.4,10.6,19.1,10.6z"/>
	<path class="st0" d="M19,9.4c-0.3,0.4-0.9,0.5-1.2,0.1c-0.2-0.3-0.7,0-0.5,0.3c0.5,0.9,1.9,0.8,2.3-0.1C19.8,9.3,19.2,9.1,19,9.4z"
		/>
	<path class="st0" d="M22.4,13.8c-0.4-0.1-0.7-0.1-1.1-0.2c-0.1,0-0.3-0.1-0.4-0.2c-0.1-0.1-0.1-0.4,0.2-0.3
		c0.2,0.1,0.3-0.2,0.1-0.3c-0.6-0.3-1.2,0.2-1,0.9c0.2,1,1.3,0.9,2.1,0.8C22.7,14.4,22.8,13.9,22.4,13.8z"/>
</g>
</svg>
