<?xml version="1.0" encoding="utf-8"?>
<!-- Generator: Adobe Illustrator 21.1.0, SVG Export Plug-In . SVG Version: 6.00 Build 0)  -->
<svg version="1.1" id="Warstwa_1" xmlns="http://www.w3.org/2000/svg" xmlns:xlink="http://www.w3.org/1999/xlink" x="0px" y="0px"
	 viewBox="0 0 220.7 182.4" style="enable-background:new 0 0 220.7 182.4;" xml:space="preserve">
<style type="text/css">
	.st0{fill:#FFFFFF;}
</style>
<g>
	<path class="st0" d="M160,45h-8.6c-1.3,2.2-2.6,4.3-3.9,6.4H160c3.1,0,5.6,2.5,5.6,5.7v93.4c0,3.1-2.5,5.7-5.6,5.7H63.8
		c-3.1,0-5.6-2.5-5.6-5.7V57c0-3.1,2.5-5.7,5.6-5.7h22.4c-1.6-2.1-3.1-4.2-4.4-6.4h-18C57.3,45,52,50.4,52,57v93.4
		c0,6.7,5.3,12,11.9,12H160c6.5,0,11.9-5.4,11.9-12V57C171.9,50.4,166.6,45,160,45z"/>
	<path class="st0" d="M160.4,39h-5.7c-0.5,0.9-0.9,1.8-1.4,2.7h7.1c7.9,0,14.4,6.6,14.4,14.6v94.7c0,8.1-6.5,14.6-14.4,14.6H63.5
		c-7.9,0-14.4-6.6-14.4-14.6V56.4c0-8.1,6.5-14.6,14.4-14.6h16.4c-0.5-0.9-1-1.8-1.4-2.7H63.5c-9.4,0-17.1,7.8-17.1,17.4v94.7
		c0,9.6,7.7,17.4,17.1,17.4h96.9c9.4,0,17.1-7.8,17.1-17.4V56.4C177.5,46.8,169.8,39,160.4,39z"/>
	<g>
		<g>
			<path class="st0" d="M159.7,90.2c0.9,0,1.8-0.5,2.3-1.3c0.5-0.8,0.6-1.8,0.2-2.7c-7-16.2-26.9-27.9-50.3-27.9
				c-23.4,0-43.3,11.7-50.3,27.9c-0.4,0.9-0.3,1.9,0.2,2.7c0.5,0.8,1.4,1.3,2.3,1.3H159.7z"/>
			<line class="st0" x1="57.7" y1="98.8" x2="166.2" y2="98.8"/>
			<line class="st0" x1="61.1" y1="115.5" x2="162.8" y2="115.5"/>
			<path class="st0" d="M69.2,146.3c2.8,2.9,6.6,4.5,10.5,4.5h64.4c4,0,7.8-1.6,10.5-4.5c3.2-3.4,5.8-7.2,7.5-11.2
				c0.4-0.9,0.3-1.9-0.2-2.7c-0.5-0.8-1.4-1.3-2.3-1.3H64.2c-0.9,0-1.8,0.5-2.3,1.3c-0.5,0.8-0.6,1.8-0.2,2.7
				C63.4,139.2,66,143,69.2,146.3z"/>
		</g>
		<path class="st0" d="M101.8,28.4c-2.3-7-8.6-11.2-14-9.4c-5.4,1.8-7.9,9-5.6,16c2.3,7,8.6,11.2,14,9.4
			C101.7,42.5,104.1,35.4,101.8,28.4z M91.6,30.2c-2.5,0.8-5.2-0.5-6-3c-0.8-2.5,0.5-5.3,3-6.1c2.5-0.8,5.2,0.5,6,3
			C95.4,26.6,94.1,29.3,91.6,30.2z"/>
		<path class="st0" d="M84.1,7.5c0,0,0.5,1,1.3,2.7c0.8,1.7,1.9,4.2,3.1,7.2c0.6,1.5,1.3,3.1,2,4.9c0.7,1.7,1.4,3.6,2.1,5.5
			c1.4,3.8,2.8,7.9,4.2,12c0.7,2.1,1.3,4.1,2,6.2c0.6,2,1.2,4,1.8,6c0.6,1.9,1.1,3.9,1.6,5.7c0.5,1.8,0.9,3.5,1.3,5.1
			c0.8,3.2,1.4,5.8,1.8,7.7c0.4,1.9,0.6,3,0.6,3s-0.5-1-1.3-2.7c-0.8-1.7-1.9-4.2-3.1-7.2c-0.6-1.5-1.3-3.1-2-4.9
			C98.8,56.8,98,55,97.4,53c-0.7-1.9-1.4-3.9-2.1-5.9c-0.7-2-1.4-4.1-2.1-6.1c-1.4-4.1-2.6-8.3-3.8-12.2c-0.6-1.9-1.1-3.9-1.6-5.7
			c-0.5-1.8-0.9-3.5-1.3-5.1c-0.8-3.2-1.4-5.8-1.8-7.7C84.3,8.5,84.1,7.5,84.1,7.5z"/>
		<path class="st0" d="M138.5,27.7c-5.4-1.8-11.6,2.4-14,9.4c-2.3,7,0.2,14.2,5.6,16c5.4,1.8,11.6-2.4,14-9.4
			C146.3,36.7,143.9,29.5,138.5,27.7z M140.8,35.9c-0.8,2.5-3.5,3.9-6,3c-2.5-0.8-3.8-3.6-3-6.1c0.8-2.5,3.5-3.9,6-3
			C140.3,30.6,141.6,33.3,140.8,35.9z"/>
		<path class="st0" d="M142.2,16.2c0,0-0.2,1.1-0.6,3c-0.4,1.9-1,4.5-1.8,7.7c-0.4,1.6-0.8,3.3-1.3,5.1c-0.5,1.8-1,3.7-1.6,5.7
			c-1.1,3.9-2.4,8-3.8,12.2c-0.7,2.1-1.4,4.1-2.1,6.1c-0.7,2-1.4,4-2.1,5.9c-0.7,1.9-1.4,3.7-2.1,5.5c-0.7,1.7-1.3,3.4-2,4.9
			c-1.2,3-2.3,5.5-3.1,7.2c-0.8,1.7-1.3,2.7-1.3,2.7s0.2-1.1,0.6-3c0.4-1.9,1-4.5,1.8-7.7c0.4-1.6,0.8-3.3,1.3-5.1
			c0.5-1.8,1-3.7,1.6-5.7c0.6-2,1.2-4,1.8-6c0.6-2,1.3-4.1,2-6.2c1.4-4.1,2.8-8.2,4.2-12c0.7-1.9,1.4-3.7,2.1-5.5
			c0.7-1.7,1.3-3.4,2-4.9c1.2-3,2.3-5.5,3.1-7.2C141.8,17.2,142.2,16.2,142.2,16.2z"/>
	</g>
	<polygon class="st0" points="207.9,94.9 16,94.9 32.4,110.7 16,126.4 207.9,126.4 192.2,110.7 	"/>
</g>
</svg>
