<?xml version="1.0" encoding="utf-8"?>
<!-- Generator: Adobe Illustrator 21.1.0, SVG Export Plug-In . SVG Version: 6.00 Build 0)  -->
<svg version="1.1" id="Warstwa_1" xmlns="http://www.w3.org/2000/svg" xmlns:xlink="http://www.w3.org/1999/xlink" x="0px" y="0px"
	 viewBox="0 0 223 176.5" style="enable-background:new 0 0 223 176.5;" xml:space="preserve">
<style type="text/css">
	.st0{fill:#FFFFFF;}
</style>
<g>
	<g>
		<g>
			<path class="st0" d="M84.9,32.9h59.7c0.6,0,1.1-0.3,1.5-0.7c0.3-0.4,0.4-1,0.1-1.5c-4.4-9.1-16.8-15.6-31.5-15.6
				c-14.7,0-27.1,6.5-31.5,15.6c-0.2,0.5-0.2,1.1,0.1,1.5C83.8,32.6,84.3,32.9,84.9,32.9z M131.5,22.2c0.5,0.1,1.9,0.7,1.8,1.2
				c-0.1,0.5-1.6,0.6-2.1,0.5c-0.5-0.1-0.9-0.5-0.8-1C130.4,22.4,130.9,22.1,131.5,22.2z M124.1,18.4c0.4-0.3,1.7,0.4,2,0.8
				c0.3,0.4,0.3,0.9-0.1,1.2c-0.4,0.3-1,0.3-1.4-0.1C124.4,20,123.7,18.7,124.1,18.4z M121.3,23.1c0.2-0.4,0.8-0.6,1.3-0.4
				c0.5,0.2,0.7,0.7,0.5,1.2c-0.2,0.4-1.2,1.5-1.7,1.3C120.9,24.9,121.1,23.5,121.3,23.1z M115.3,18.4c0.4-0.3,1.7,0.4,2,0.8
				c0.3,0.4,0.3,0.9-0.1,1.2c-0.4,0.3-1,0.3-1.4-0.1C115.6,20,114.9,18.7,115.3,18.4z M112.2,23.3c0.5-0.2,1.1,0,1.3,0.5
				c0.2,0.4,0.4,1.8-0.1,2c-0.5,0.2-1.5-0.9-1.7-1.3C111.5,24,111.8,23.4,112.2,23.3z M108.4,17.5c0.3-0.4,0.8-0.6,1.3-0.3
				c0.5,0.2,0.6,0.8,0.4,1.2c-0.3,0.4-1.3,1.4-1.8,1.2C107.8,19.3,108.1,17.9,108.4,17.5z M104.4,24.5c0.5,0,0.9,0.4,0.9,0.9
				c0,0.5-0.5,1.8-1.1,1.8c-0.5,0-0.9-1.4-0.9-1.9C103.4,24.9,103.9,24.5,104.4,24.5z M100.6,19.7c0.5-0.2,1.1,0.1,1.2,0.5
				c0.2,0.5-0.1,1-0.6,1.1c-0.5,0.2-2,0.3-2.2-0.2C98.9,20.7,100.1,19.8,100.6,19.7z"/>
			<path class="st0" d="M93.8,57.1c0,0.9-0.1,1.8-0.2,2.8H133c-0.8-1.5-1.2-3.1-1.2-4.9c0-3.1,1.3-6,3.7-8.2l0.3-0.3H90
				C92.5,49.6,93.8,53.3,93.8,57.1z"/>
			<path class="st0" d="M128.3,72l8.5-7.7l-1.2-1.1c-0.7-0.7-1.4-1.4-1.9-2.2H93.3c-0.2,0.7-0.4,1.4-0.6,2l9.9,9H128.3z"/>
			<path class="st0" d="M91.1,38.9c1.8-1.6,4.7-1.6,6.5,0c3.8,3.5,10,3.5,13.9,0c1.8-1.6,4.7-1.6,6.5,0c3.8,3.5,10,3.5,13.9,0
				c1.8-1.6,4.7-1.6,6.5,0c1,0.9,2.2,1.6,3.5,2.1l4.8-4.4c-0.4,0.1-0.9,0.2-1.4,0.2c-1.2,0-2.4-0.4-3.3-1.2c-3.8-3.5-10-3.5-13.9,0
				c-1.8,1.6-4.7,1.6-6.5,0c-3.8-3.5-10-3.5-13.9,0c-1.8,1.6-4.7,1.6-6.5,0c-3.8-3.5-10-3.5-13.9,0c-0.9,0.8-2,1.2-3.3,1.2
				c-1.2,0-2.4-0.4-3.3-1.2c-0.8-0.7-2-0.9-3-0.4l7,6.3C87.2,41.4,89.4,40.5,91.1,38.9z"/>
			<path class="st0" d="M139.2,59.8l4.9,4.5l-13.3,12.1c3,0.2,6,0.5,9,0.8l9.2-8.4l4.9,4.5c1.5,1.3,3.4,2,5.3,2c1.9,0,3.8-0.7,5.3-2
				l31-28.2c1.4-1.3,2.2-3,2.2-4.8c0-1.8-0.8-3.5-2.2-4.8L180.8,22c-1.5-1.3-3.4-2-5.3-2c-1.9,0-3.8,0.7-5.3,2l-31,28.2
				C136.2,52.9,136.2,57.2,139.2,59.8z M188.4,38.8c0.6,0,1.1,0.2,1.5,0.6c0.8,0.8,0.8,2,0,2.8l-26.6,24.2c-0.4,0.4-1,0.6-1.5,0.6
				c-0.6,0-1.1-0.2-1.5-0.6c-0.8-0.8-0.8-2,0-2.8l26.6-24.2C187.3,39,187.9,38.8,188.4,38.8z M181.7,32.6c0.6,0,1.1,0.2,1.5,0.6
				c0.8,0.8,0.8,2,0,2.8l-26.6,24.2c-0.4,0.4-1,0.6-1.5,0.6c-0.6,0-1.1-0.2-1.5-0.6c-0.8-0.8-0.8-2,0-2.8l26.6-24.2
				C180.5,32.8,181.1,32.6,181.7,32.6z M146.7,51.3l26.6-24.2c0.4-0.4,1-0.6,1.5-0.6s1.1,0.2,1.5,0.6c0.8,0.8,0.8,2,0,2.8
				l-26.6,24.2c-0.4,0.4-1,0.6-1.5,0.6c-0.6,0-1.1-0.2-1.5-0.6C145.9,53.3,145.9,52,146.7,51.3z"/>
			<path class="st0" d="M73.9,70.4c2.6,0,5.3-0.6,7.6-1.9l9.7,8.9c3-0.3,5.9-0.6,8.9-0.8L86.5,64c1.4-2.1,2.1-4.4,2.1-6.9
				c0-3.5-1.5-6.9-4.3-9.4L53,19.3c-2.9,2.7-2.9,7,0,9.6l16.1,14.6c2.8,2.5,2.8,6.7,0,9.2c-1.4,1.3-3.2,1.9-5.1,1.9
				c-1.8,0-3.7-0.6-5.1-1.9L42.9,38.1c-1.5-1.3-3.4-2-5.3-2c-1.9,0-3.8,0.7-5.3,2l31.3,28.4C66.4,69.2,70.2,70.4,73.9,70.4z"/>
			<path class="st0" d="M207.6,101.2c-28.5-13.7-59.9-20.6-91.2-20.6c-31.3,0-62.7,6.9-91.2,20.6c7.5,2.1,14.7,4.7,21.5,7.6
				c-2.4,6.5-4.3,12.9-5.8,19.4c23.6-11.4,49.6-17.1,75.5-17.1s51.9,5.7,75.5,17.1c-1.2-6.3-2.9-12.7-5.1-19.1
				C193.4,106.1,200.3,103.5,207.6,101.2z"/>
			<rect x="90" y="42.6" class="st0" width="44.9" height="2.3"/>
		</g>
		<path class="st0" d="M56.3,148.6c0.7,0.6,1.6,0.9,2.9,0.9c6,0,18.2-7.1,30.1-17.8c5.8-5.3,10.6-10.6,14-15.3
			c-10.7,0.8-21.4,2.7-31.7,5.5C59.4,133.8,52.6,145.3,56.3,148.6z"/>
		<path class="st0" d="M171.7,149.5c1.2,0,2.2-0.3,2.9-0.9c3.7-3.4-3.4-15.4-16-27.5c-10.1-2.6-20.5-4.2-31-4.9
			c3.4,4.8,8.2,10.2,14.1,15.5C153.5,142.5,165.7,149.5,171.7,149.5z"/>
	</g>
	<g>
		<polygon class="st0" points="37.5,69.1 34.1,58.8 30.7,69.1 18.8,68.9 28.6,75.1 24.7,85.2 34.1,78.7 43.6,85.2 39.7,75.1 
			49.4,68.9 		"/>
		<polygon class="st0" points="214,68.9 202.1,69.1 198.7,58.8 195.3,69.1 183.4,68.9 193.2,75.1 189.3,85.2 198.7,78.7 208.2,85.2 
			204.3,75.1 		"/>
		<polygon class="st0" points="130.5,139.1 118.6,139.3 115.2,129 111.8,139.3 99.9,139.1 109.7,145.3 105.8,155.5 115.2,148.9 
			124.7,155.5 120.8,145.3 		"/>
	</g>
</g>
</svg>
