<?xml version="1.0" encoding="utf-8"?>
<!-- Generator: Adobe Illustrator 21.1.0, SVG Export Plug-In . SVG Version: 6.00 Build 0)  -->
<svg version="1.1" id="Warstwa_1" xmlns="http://www.w3.org/2000/svg" xmlns:xlink="http://www.w3.org/1999/xlink" x="0px" y="0px"
	 viewBox="0 0 121.1 155.4" style="enable-background:new 0 0 121.1 155.4;" xml:space="preserve">
<style type="text/css">
	.st0{fill:#FFFFFF;}
	.st1{font-family:'Algerian';}
	.st2{font-size:36.6038px;}
	.st3{display:none;}
	.st4{display:inline;}
</style>
<g>
	<path class="st0" d="M15.2,109.4c3,2.8,7.1,4.3,11.4,4.3H96c4.3,0,8.4-1.6,11.4-4.3c3.5-3.2,6.2-6.8,8.1-10.6
		c0.4-0.8,0.3-1.8-0.2-2.6c-0.6-0.8-1.5-1.2-2.5-1.2H9.8c-1,0-2,0.5-2.5,1.2c-0.6,0.8-0.6,1.7-0.2,2.6
		C8.9,102.6,11.7,106.2,15.2,109.4z"/>
	<path class="st0" d="M115.5,35.4C107.9,20,86.5,8.9,61.3,8.9C36,8.9,14.6,20,7.1,35.4c-0.4,0.8-0.3,1.8,0.2,2.6
		c0.6,0.8,1.5,1.2,2.5,1.2h102.9c1,0,2-0.5,2.5-1.2C115.8,37.2,115.9,36.3,115.5,35.4z M34.7,25.5c-0.9,0.3-3.5,0.4-3.8-0.3
		c-0.3-0.8,1.8-2.2,2.7-2.5c0.9-0.3,1.8,0.1,2.1,0.9C36,24.3,35.6,25.2,34.7,25.5z M43.7,33.6c-0.9,0-1.5-2.3-1.5-3.2
		c0.1-0.8,0.8-1.4,1.8-1.4c0.9,0,1.6,0.7,1.6,1.6C45.5,31.5,44.6,33.7,43.7,33.6z M47.4,19.7c-0.4,0.7-2.3,2.4-3.1,2
		c-0.8-0.4-0.2-2.7,0.2-3.4c0.4-0.7,1.5-1,2.3-0.6C47.5,18.1,47.8,19,47.4,19.7z M53.2,26.9c-0.8,0.3-2.5-1.5-2.9-2.2
		c-0.4-0.8,0-1.6,0.9-2c0.8-0.3,1.8,0,2.2,0.8C53.7,24.3,54,26.6,53.2,26.9z M59.8,27.3c-0.7,0.5-1.7,0.5-2.3-0.2
		c-0.6-0.6-1.7-2.8-1-3.3c0.7-0.5,2.9,0.7,3.5,1.4C60.6,25.8,60.5,26.8,59.8,27.3z M64.4,29.1c-0.4,0.7-2.1,2.5-3,2.2
		c-0.8-0.3-0.5-2.7-0.1-3.4c0.4-0.7,1.4-1.1,2.2-0.7C64.5,27.5,64.8,28.4,64.4,29.1z M73.9,22.8c-0.2,0.8-1.1,1.3-2,1.1
		c-0.9-0.2-1.5-1-1.2-1.8c0.2-0.8,1.5-2.8,2.4-2.7C74,19.7,74.1,22,73.9,22.8z M80.4,29.7c-0.2,0.8-2.8,1.1-3.7,0.9
		c-0.9-0.2-1.5-0.9-1.3-1.7c0.2-0.8,1-1.3,1.9-1.2C78.2,27.8,80.5,28.9,80.4,29.7z M82.3,24.3c-0.8,0.4-1.8,0.2-2.3-0.5
		c-0.5-0.7-0.2-1.6,0.6-2c0.8-0.4,3.3-1,3.8-0.3C84.9,22.1,83.1,23.9,82.3,24.3z"/>
	<text transform="matrix(0.8308 0 0 1 2 81.8999)" class="st0 st1 st2">BURGER</text>
	<g>
		<path class="st0" d="M75.5,128.4l-9.8-1.3l-4.4-8l-4.4,8l-9.8,1.3l7.1,6.2l-1.7,8.8l8.8-4.1l8.8,4.1l-1.7-8.8L75.5,128.4z
			 M54.8,140.5l6.4-8.1l-5.2,1.7l-5.2-4.5l0.1,0l10.3,2.8l-3.2-3.7l3.2-5.8v9.5l3.2-3.7l0,0l7.1,0.9l-10.3,2.8l5.2,1.7l0,0l1.2,6.4
			l-6.4-8.1v5.2L54.8,140.5L54.8,140.5z"/>
		<path class="st0" d="M110.2,128.4l-9.8-1.3l-4.4-8l-4.4,8l-9.8,1.3l7.1,6.2l-1.7,8.8l8.8-4.1l8.8,4.1l-1.7-8.8L110.2,128.4z
			 M89.5,140.5L89.5,140.5l6.4-8.2l-5.2,1.7l-5.2-4.5l0.1,0l10.3,2.8l-3.2-3.7l3.2-5.8l0,0v9.5l3.2-3.7l0,0l7.1,0.9L96,132.3
			l5.2,1.7l0,0l1.2,6.4l-6.4-8.1v5.2l0,0L89.5,140.5z"/>
		<path class="st0" d="M40.8,128.4l-9.8-1.3l-4.4-8l-4.4,8l-9.8,1.3l7.1,6.2l-1.7,8.8l8.8-4.1l8.8,4.1l-1.7-8.8L40.8,128.4z
			 M20.1,140.5L20.1,140.5l6.4-8.2l-5.2,1.8l-5.2-4.5l0.1,0l10.3,2.8l-3.2-3.7l3.2-5.8v9.5l3.2-3.7l0,0l7.1,0.9l-10.3,2.8l5.2,1.7
			l0,0l1.2,6.4l-6.4-8.1v5.2L20.1,140.5z"/>
	</g>
	<g class="st3">
		<g class="st4">
			<path class="st0" d="M6.2,16.2c0.2,0.8,0.4,1.5,0.7,2.3c-0.3,0.3-0.6,0.5-0.9,0.8c-0.7-2.4-1.4-4.9-2-7.4
				c0.4-0.3,0.8-0.6,1.2-0.9c2.3,1.2,4.5,2.5,6.7,3.8c-0.3,0.2-0.7,0.5-1,0.7c-0.7-0.4-1.4-0.8-2.1-1.2C7.9,14.9,7,15.5,6.2,16.2z
				 M8.1,13.8c-0.6-0.4-1.3-0.7-1.9-1.1C5.7,12.5,5.4,12.3,5,12c0,0,0,0,0,0c0.1,0.4,0.3,0.8,0.4,1.3c0.2,0.7,0.4,1.4,0.6,2.1
				C6.6,14.9,7.4,14.4,8.1,13.8z"/>
			<path class="st0" d="M12.9,13.9C11.6,12,10.3,10.1,9,8.1c0.4-0.3,0.7-0.5,1.1-0.7c1.5,0.4,3,0.9,4.4,1.4c1,0.4,1.8,0.7,2.5,1.1
				c0,0,0,0,0,0c-0.6-0.8-1-1.5-1.6-2.4C15,6.7,14.5,5.8,14,5c0.3-0.2,0.7-0.4,1-0.6c1.2,2,2.3,4.1,3.5,6.1c-0.3,0.2-0.7,0.4-1,0.6
				c-1.4-0.6-2.8-1.1-4.2-1.6c-1-0.3-1.9-0.7-2.7-1c0,0,0,0,0,0c0.5,0.7,1,1.4,1.7,2.4c0.5,0.8,1.1,1.7,1.6,2.5
				C13.5,13.5,13.2,13.7,12.9,13.9z"/>
			<path class="st0" d="M17,3.4c0.6-0.4,1.4-0.9,2.2-1.3c1.5-0.8,2.8-1,3.8-0.8c1,0.2,1.7,0.8,2.2,1.8c0.4,1.1,0.4,2.1-0.1,3
				c-0.5,0.9-1.5,1.8-3,2.5c-0.7,0.4-1.3,0.6-1.8,0.9C19.2,7.4,18.1,5.4,17,3.4z M20.9,8.3c0.3-0.1,0.6-0.3,1-0.5
				c2.1-1.1,2.9-2.5,2.1-4.3c-0.6-1.5-2.2-2-4.5-0.9c-0.6,0.3-1,0.5-1.2,0.7C19.2,5.1,20.1,6.7,20.9,8.3z"/>
			<path class="st0" d="M36.2,2.8c-0.3,0.3-1.1,0.6-2,1c-2.3,0.7-4.4,0.2-5.2-2c-0.8-2,0.5-4.1,3.3-5c1.1-0.3,1.8-0.4,2.2-0.3
				c0,0.3,0,0.5-0.1,0.8c-0.5,0-1.1,0-1.8,0.2c-2.1,0.6-3,2.1-2.4,3.8C30.7,3,32.2,3.6,34.1,3c0.6-0.2,1.3-0.5,1.6-0.8
				C35.9,2.4,36.1,2.6,36.2,2.8z"/>
			<path class="st0" d="M37.1-4.4c0.2,0.9,0.5,1.9,0.7,2.8c1.4-0.3,2.8-0.7,4.2-0.9c-0.2-1-0.4-1.9-0.6-2.9c0.4-0.1,0.8-0.1,1.2-0.2
				C43-3.3,43.4-1,43.8,1.3c-0.4,0.1-0.7,0.1-1.1,0.2c-0.2-1.1-0.4-2.1-0.6-3.2c-1.4,0.3-2.8,0.6-4.1,0.9c0.3,1.1,0.5,2.1,0.8,3.2
				c-0.4,0.1-0.7,0.2-1.1,0.3c-0.6-2.3-1.2-4.5-1.8-6.8C36.3-4.2,36.7-4.3,37.1-4.4z"/>
			<path class="st0" d="M49.7-2.9c-1.1,0.1-2.2,0.3-3.4,0.4c0.1,0.8,0.2,1.7,0.4,2.5c1.2-0.2,2.4-0.3,3.6-0.4c0,0.3,0,0.5,0.1,0.8
				c-1.6,0.2-3.1,0.3-4.7,0.6c-0.4-2.3-0.7-4.6-1.1-6.9c1.6-0.3,3.3-0.5,4.9-0.6c0,0.3,0,0.5,0.1,0.8c-1.2,0.1-2.5,0.3-3.7,0.4
				c0.1,0.7,0.2,1.5,0.3,2.2c1.1-0.2,2.3-0.3,3.4-0.4C49.7-3.4,49.7-3.1,49.7-2.9z"/>
			<path class="st0" d="M57.8-0.2c-0.4,0.2-1.2,0.3-2.2,0.4c-2.3,0.1-4.2-1-4.4-3.3C51-5.3,52.8-7,55.6-7.1c1.1,0,1.9,0.2,2.2,0.3
				c-0.1,0.2-0.2,0.5-0.3,0.7c-0.4-0.2-1.1-0.3-1.8-0.3c-2.1,0.1-3.5,1.2-3.3,3c0.1,1.7,1.4,2.7,3.4,2.6c0.7,0,1.3-0.1,1.8-0.3
				C57.7-0.7,57.7-0.5,57.8-0.2z"/>
			<path class="st0" d="M59.4-7c0.4,0,0.8,0,1.2,0c0,1.1-0.1,2.2-0.1,3.4c0,0,0,0,0,0c0.2-0.3,0.5-0.5,0.7-0.7
				c0.9-0.8,1.9-1.7,2.9-2.5c0.5,0,1,0.1,1.5,0.1c-1.2,0.9-2.3,1.8-3.4,2.7c1.1,1.4,2.1,2.8,3.1,4.2c-0.4,0-0.9-0.1-1.3-0.1
				c-0.8-1.2-1.7-2.4-2.6-3.6c-0.3,0.2-0.6,0.5-0.8,0.7c0,0.9,0,1.8-0.1,2.7c-0.4,0-0.7,0-1.1,0C59.3-2.3,59.4-4.7,59.4-7z"/>
			<path class="st0" d="M76.7-1.5c-0.5,2.3-2.5,3.2-4.6,2.8c-2.2-0.4-3.5-2-3.3-4.1c0.3-2.2,2.2-3.4,4.7-3
				C75.9-5.3,77.2-3.5,76.7-1.5z M70-2.6c-0.2,1.5,0.6,2.9,2.3,3.2c1.7,0.3,2.9-0.8,3.3-2.3c0.3-1.4-0.3-3-2.3-3.3
				C71.4-5.4,70.2-4.2,70-2.6z"/>
			<path class="st0" d="M80.2-4.2c-0.3,1.3-0.7,2.7-1,4c-0.4,1.5,0.3,2.4,1.3,2.7c1.2,0.3,2.2-0.1,2.7-1.5C83.6-0.4,84-1.7,84.4-3
				c0.4,0.1,0.8,0.2,1.1,0.4c-0.4,1.3-0.9,2.6-1.3,3.9c-0.7,2-2.3,2.4-4,1.9c-1.7-0.5-2.7-1.6-2.2-3.7c0.3-1.3,0.7-2.7,1-4
				C79.5-4.4,79.9-4.3,80.2-4.2z"/>
			<path class="st0" d="M89-0.6c-0.9-0.3-1.7-0.6-2.6-0.9c0.1-0.2,0.2-0.5,0.2-0.7c2.1,0.7,4.3,1.6,6.4,2.5
				c-0.1,0.2-0.2,0.5-0.3,0.7c-0.9-0.4-1.7-0.7-2.6-1.1c-0.8,1.9-1.5,3.9-2.3,5.8c-0.3-0.1-0.7-0.3-1-0.4C87.6,3.3,88.3,1.4,89-0.6z
				"/>
			<path class="st0" d="M98.1,3.5c-0.8-0.4-1.7-0.8-2.5-1.3c0.1-0.2,0.2-0.5,0.3-0.7c2.1,1,4.1,2.1,6.1,3.2
				c-0.1,0.2-0.3,0.4-0.4,0.7C100.8,5,100,4.5,99.2,4c-1,1.8-2,3.7-2.9,5.5c-0.3-0.2-0.7-0.4-1-0.5C96.2,7.2,97.2,5.3,98.1,3.5z"/>
			<path class="st0" d="M104.1,6c-0.5,0.8-1,1.7-1.5,2.5c1.2,0.8,2.5,1.6,3.7,2.4c0.6-0.8,1.1-1.6,1.7-2.4c0.3,0.2,0.7,0.5,1,0.7
				c-1.4,1.9-2.7,3.8-4.1,5.7c-0.3-0.2-0.6-0.4-0.9-0.7c0.6-0.9,1.2-1.8,1.9-2.7c-1.2-0.8-2.4-1.6-3.7-2.4c-0.6,0.9-1.1,1.9-1.7,2.8
				c-0.3-0.2-0.6-0.4-1-0.6c1.2-2,2.4-4,3.6-6C103.4,5.6,103.8,5.8,104.1,6z"/>
			<path class="st0" d="M112.3,16.5c-0.9-0.8-1.8-1.5-2.8-2.3c-0.5,0.7-1,1.3-1.5,2c1,0.8,2,1.6,3,2.4c-0.2,0.2-0.3,0.4-0.5,0.6
				c-1.3-1.1-2.6-2.1-3.9-3.1c1.4-1.9,2.8-3.7,4.2-5.6c1.4,1,2.7,2.1,4.1,3.2c-0.2,0.2-0.3,0.4-0.5,0.6c-1-0.9-2-1.7-3-2.5
				c-0.5,0.6-0.9,1.2-1.4,1.7c0.9,0.7,1.9,1.5,2.8,2.3C112.6,16.1,112.4,16.3,112.3,16.5z"/>
		</g>
	</g>
	
		<text transform="matrix(1.1181 0 0 1 37.1582 -11.2295)" style="display:none;fill:#FFFFFF; font-family:'Pacifico'; font-size:20.7647px;">Come</text>
</g>
</svg>
