<?xml version="1.0" encoding="utf-8"?>
<!-- Generator: Adobe Illustrator 21.1.0, SVG Export Plug-In . SVG Version: 6.00 Build 0)  -->
<svg version="1.1" id="Warstwa_1" xmlns="http://www.w3.org/2000/svg" xmlns:xlink="http://www.w3.org/1999/xlink" x="0px" y="0px"
	 viewBox="0 0 208.1 208.1" style="enable-background:new 0 0 208.1 208.1;" xml:space="preserve">
<style type="text/css">
	.st0{fill:#FFFFFF;}
	.st1{fill:none;}
	.st2{display:none;}
	.st3{display:inline;fill:none;}
	.st4{display:inline;}
	.st5{display:inline;fill:#FFFFFF;}
</style>
<g>
	<g>
		<path class="st0" d="M110.9,142.2l-1.2,0.2l-0.2-0.2c-2.4,0.1-4.9,0.2-7.3,0.2c-16.7,0-33.9-2.8-45-8.1l-1.2,3.3l-3.1-1.7
			c-0.7-0.4-1.4-0.8-2-1.2c0,0.1,0,0.2,0,0.2c0,10.2,24,18.4,53.5,18.4c29.5,0,53.5-8.2,53.5-18.4c0-2.1-1-4.1-2.9-5.9
			C147.5,136.6,129.5,141.1,110.9,142.2z"/>
		<path class="st0" d="M155,123.8c-2.5-0.9-6.6-1.9-13-2.8c-4.2,2.1-9.2,3.7-15,4.4c-0.2,0-0.3,0-0.5,0c-4.6,7-7.8,11-10.1,13.3
			C136.5,136.8,151.8,131,155,123.8z"/>
		<path class="st0" d="M82.5,126c-5.2,0-9.8-0.8-13.9-2.1c-5.3,3.6-8.2,6.1-9.7,7.9c9.7,4.6,25.5,7.6,43.2,7.6c1.3,0,2.5,0,3.8-0.1
			c-5-4-12.4-9.2-18.6-13.5C85.7,125.9,84.1,126,82.5,126z"/>
		<path class="st0" d="M65.1,122.6c-8-3.4-13.2-9-15.2-14.3c0-0.1-0.1-0.3-0.1-0.4c-3.2,7.2-6.5,19.3,4.5,25.3
			C55.5,130.3,59.6,126.5,65.1,122.6z"/>
		<path class="st0" d="M122.6,125.7c-0.8,0-1.6,0.1-2.3,0.1c-6.8,0-13.1-1.3-18-3.6c-3.1,1.4-6.7,2.4-10.5,3.1
			c6.8,4.8,14.4,10.3,18.7,13.9C113.2,138.6,117.9,132.6,122.6,125.7z"/>
		<path class="st0" d="M157.2,104c-1.2,4.9-5,10.3-11.1,14.4c6.3,1.1,11.5,2.5,14,4.5c4.4-7.9,2.1-14.5-1.4-19.3
			C158.3,103.8,157.8,103.9,157.2,104z"/>
		<path class="st0" d="M134.9,111.6c-0.5-0.7-1.3-1.9-1.7-2.2c-0.7-0.3-1.3-0.5-1.8-0.5c-1.6,0-3.3,1.7-5.2,5
			c-2.5,4.3-5.7,6.6-9.7,6.6l-0.2,0c-5.9,0-11.8-4-16.1-6.9c-1.3-0.9-3.2-2.2-3.8-2.3c-0.4-0.1-0.7-0.1-0.8-0.1
			c-0.3,0-0.6,0.2-1.9,1.6c-0.4,0.5-0.9,1-1.5,1.6c-3.5,3.6-7.1,5.4-10.7,5.4c-2.6,0-4.3-0.9-5.2-1.5c-0.5-0.3-1.2-0.7-2.1-1.4
			c-0.4-0.3-0.6-0.7-1.1-1.4c-2.9-4.2-4.1-4.9-4.5-5c-0.2,0-0.3-0.1-0.4-0.1c-0.6,0-1.3,0.4-2.1,0.8c-1,0.5-2.2,1.1-3.7,1.1
			c-2,0-3.7-1.1-5-3.3c-1-1.6-2.9-2.6-4.9-3.3c0.1,0.6,0.2,1.2,0.3,1.6c3,7.9,13.7,15.7,29.7,15.7c7.7,0,14.7-1.6,19.9-4.2
			c4.5,2.5,10.8,4,17.9,4c2.1,0,4.2-0.1,6.4-0.4c6.7-0.8,12.3-2.9,16.7-5.6c-0.5,0.1-0.9,0.2-1.4,0.2c-0.6,0-1.1-0.1-1.4-0.2
			c-0.8-0.2-1.6-0.5-2.2-1l-1.3-0.6l0.2-0.3C136.4,113.7,135.6,112.6,134.9,111.6z"/>
		<path class="st0" d="M152,106.3c-0.1,0.2-0.1,0.4-0.2,0.5c-1,2.2-2,4.1-3,5.5c2.4-2.4,4.1-5.1,5.1-7.7
			C152.6,104.9,152.4,105.5,152,106.3z"/>
		<path class="st0" d="M158.2,88.8c-0.2,0.9-0.6,1.9-1,2.8c-7.3,14.9-39.4,16.5-52.9,16.5c-19.6,0-43.7-3.3-51.2-10.4l-0.1,0
			l-0.3-0.4c-2.6-2.7-4.1-6-4.5-9.5c-3.9,3.7-7.3,8.6-4.1,12.4c0.9,1.1,1.9,1.4,3,1.5c0,0,0,0,0,0c0.8,0,9.5,0.4,12.9,5.8
			c0.9,1.4,1.7,1.8,2.5,1.8c1.6,0,3.3-1.9,5.8-1.9c0.4,0,0.7,0,1.1,0.1c3.1,0.7,6.5,6.7,7,7.1v0l0,0c1,0.9,1.5,1,1.5,1v0
			c0,0,1.4,1.1,3.7,1.1c2.1,0,5.1-0.9,8.6-4.5c2.4-2.5,3.3-4.2,5.6-4.2c0.5,0,1,0.1,1.6,0.2c3.1,0.8,11.7,9.2,19.2,9.2
			c0,0,0.1,0,0.1,0c2.5,0,4.9-1.3,7.1-5.1c2.7-4.8,5.3-6.5,7.9-6.5c1,0,2.1,0.3,3.1,0.8c2.3,1,4.2,6.7,6.9,7.1c0,0,0,0,0,0
			s0.2,0.1,0.6,0.1c1.2,0,3.9-0.9,7-8.2c0.5-1.1,1-3.5,4.9-4.1C169.6,99.3,167.3,90.8,158.2,88.8z"/>
		<path class="st0" d="M54.9,95.1c5.6,5.8,27.5,9.8,49.4,9.8c32.1,0,64.2-8.5,45.9-32.2c0,0,0,0,0,0c-1.4-1.9-3.2-3.6-5-5.1
			c-7.3-6.4-25.5-10.9-44-10.9C85.7,56.8,70,60,60.5,68c0,0,0,0,0,0C51.7,75.4,47.4,87.3,54.9,95.1C54.9,95.1,54.9,95.1,54.9,95.1z
			 M143.4,68.5c1,0,1.9,0.5,1.9,1.1c0,0.6-0.8,1.1-1.9,1.1c-1,0-1.9-0.5-1.9-1.1C141.5,69,142.4,68.5,143.4,68.5z M136,73.8
			c0,0.6-0.8,1.1-1.9,1.1s-1.9-0.5-1.9-1.1c0-0.6,0.8-1.1,1.9-1.1S136,73.2,136,73.8z M132.3,63.9c1,0,1.9,0.5,1.9,1.1
			c0,0.6-0.8,1.1-1.9,1.1c-1,0-1.9-0.5-1.9-1.1C130.4,64.4,131.2,63.9,132.3,63.9z M123.9,67.1c0,0.6-0.8,1.1-1.9,1.1
			s-1.9-0.5-1.9-1.1c0-0.6,0.8-1.1,1.9-1.1S123.9,66.5,123.9,67.1z M120.1,59.9c1,0,1.9,0.5,1.9,1.1c0,0.6-0.8,1.1-1.9,1.1
			s-1.9-0.5-1.9-1.1C118.3,60.3,119.1,59.9,120.1,59.9z M117.6,76.1c1,0,1.9,0.5,1.9,1.1c0,0.6-0.8,1.1-1.9,1.1s-1.9-0.5-1.9-1.1
			C115.7,76.6,116.5,76.1,117.6,76.1z M111.9,62.9c1,0,1.9,0.5,1.9,1.1c0,0.6-0.8,1.1-1.9,1.1c-1,0-1.9-0.5-1.9-1.1
			C110.1,63.3,110.9,62.9,111.9,62.9z M109.6,68.5c1,0,1.9,0.5,1.9,1.1c0,0.6-0.8,1.1-1.9,1.1c-1,0-1.9-0.5-1.9-1.1
			C107.8,69,108.6,68.5,109.6,68.5z M105.9,58.8c1,0,1.9,0.5,1.9,1.1c0,0.6-0.8,1.1-1.9,1.1s-1.9-0.5-1.9-1.1
			C104,59.3,104.9,58.8,105.9,58.8z M102.1,63.9c1,0,1.9,0.5,1.9,1.1c0,0.6-0.8,1.1-1.9,1.1c-1,0-1.9-0.5-1.9-1.1
			C100.3,64.4,101.1,63.9,102.1,63.9z M101.4,75.1c1,0,1.9,0.5,1.9,1.1c0,0.6-0.8,1.1-1.9,1.1s-1.9-0.5-1.9-1.1
			C99.6,75.5,100.4,75.1,101.4,75.1z M95,59.9c1,0,1.9,0.5,1.9,1.1c0,0.6-0.8,1.1-1.9,1.1c-1,0-1.9-0.5-1.9-1.1
			C93.2,60.3,94,59.9,95,59.9z M94.2,68.5c1,0,1.9,0.5,1.9,1.1c0,0.6-0.8,1.1-1.9,1.1s-1.9-0.5-1.9-1.1C92.4,69,93.2,68.5,94.2,68.5
			z M88.2,81.9c0,0.6-0.8,1.1-1.9,1.1c-1,0-1.9-0.5-1.9-1.1s0.8-1.1,1.9-1.1C87.4,80.9,88.2,81.3,88.2,81.9z M84.5,62.9
			c1,0,1.9,0.5,1.9,1.1c0,0.6-0.8,1.1-1.9,1.1c-1,0-1.9-0.5-1.9-1.1C82.6,63.3,83.5,62.9,84.5,62.9z M79.9,70.6c1,0,1.9,0.5,1.9,1.1
			c0,0.6-0.8,1.1-1.9,1.1c-1,0-1.9-0.5-1.9-1.1C78,71.1,78.9,70.6,79.9,70.6z M74.9,63.9c1,0,1.9,0.5,1.9,1.1c0,0.6-0.8,1.1-1.9,1.1
			c-1,0-1.9-0.5-1.9-1.1C73.1,64.4,73.9,63.9,74.9,63.9z M71.2,78.2c1,0,1.9,0.5,1.9,1.1c0,0.6-0.8,1.1-1.9,1.1s-1.9-0.5-1.9-1.1
			C69.4,78.7,70.2,78.2,71.2,78.2z M65.4,70.6c1,0,1.9,0.5,1.9,1.1c0,0.6-0.8,1.1-1.9,1.1c-1,0-1.9-0.5-1.9-1.1
			C63.5,71.1,64.4,70.6,65.4,70.6z"/>
	</g>
	<path id="SVGID_x5F_1_x5F_" class="st1" d="M180.3,105.1c0,42.1-34.1,76.3-76.3,76.3s-76.3-34.1-76.3-76.3S61.9,28.8,104,28.8
		S180.3,63,180.3,105.1z"/>
	<text class="st2">	<textPath  xlink:href="#SVGID_x5F_1_x5F_" startOffset="210.8877%"  class="st4">
<tspan  class="st0" style="font-family:'BreeSerif-Regular'; font-size:14.9137px;">AUTHENTIC HOME MADE</tspan>	</textPath>
</text>
	<g class="st2">
		<path id="SVGID_x5F_2_x5F_" class="st3" d="M190.4,105.1c0-47.7-38.7-86.4-86.4-86.4s-86.4,38.7-86.4,86.4s38.7,86.4,86.4,86.4
			S190.4,152.8,190.4,105.1z"/>
		<text class="st4">		<textPath  xlink:href="#SVGID_x5F_2_x5F_" startOffset="347.7213%">
<tspan  class="st0" style="font-family:'BreeSerif-Regular'; font-size:14.9137px;">AMERICAN BURGERS</tspan>		</textPath>
</text>
	</g>
	<g class="st2">
		<path class="st5" d="M39.4,150c-8.9-12.8-14.1-28.2-14.1-44.9c0-13.1,3.2-25.5,9-36.4c-1-0.7-2.1-1.4-3.2-2
			c-6.1,11.5-9.5,24.5-9.5,38.4c0,17.5,5.5,33.8,14.9,47.2C37.4,151.5,38.4,150.8,39.4,150z"/>
		<path class="st5" d="M167.1,152.2c0.9,0.9,1.8,1.7,2.7,2.6c10.5-13.8,16.7-31,16.7-49.7c0-12.1-2.6-23.6-7.3-34
			c-1.1,0.5-2.3,1-3.4,1.5c4.5,9.9,7,20.9,7,32.5C182.8,122.7,177,139,167.1,152.2z"/>
	</g>
	<g class="st2">
		<g class="st4">
			<ellipse transform="matrix(0.3685 -0.9296 0.9296 0.3685 79.9415 137.6844)" class="st0" cx="141.3" cy="10" rx="2.9" ry="2.9"/>
			
				<ellipse transform="matrix(0.3685 -0.9296 0.9296 0.3685 -141.9796 187.1317)" class="st0" cx="66.8" cy="198.1" rx="2.9" ry="2.9"/>
			<ellipse transform="matrix(0.3686 -0.9296 0.9296 0.3686 -55.7425 51.4467)" class="st0" cx="10" cy="66.8" rx="2.9" ry="2.9"/>
			
				<ellipse transform="matrix(0.3686 -0.9296 0.9296 0.3686 -6.2971 273.366)" class="st0" cx="198.1" cy="141.3" rx="2.9" ry="2.9"/>
			<ellipse transform="matrix(0.9179 -0.3967 0.3967 0.9179 0.809 26.2701)" class="st0" cx="63.9" cy="11.2" rx="2.9" ry="2.9"/>
			
				<ellipse transform="matrix(0.9179 -0.3967 0.3967 0.9179 -66.284 73.3571)" class="st0" cx="144.2" cy="196.9" rx="2.9" ry="2.9"/>
			
				<ellipse transform="matrix(0.9179 -0.3967 0.3967 0.9179 -56.2795 16.2667)" class="st0" cx="11.2" cy="144.2" rx="2.9" ry="2.9"/>
			
				<ellipse transform="matrix(0.9179 -0.3967 0.3967 0.9179 -9.1944 83.3586)" class="st0" cx="196.9" cy="63.9" rx="2.9" ry="2.9"/>
		</g>
		<g class="st4">
			
				<ellipse transform="matrix(0.9997 -2.393942e-02 2.393942e-02 0.9997 -4.046666e-02 2.4334)" class="st0" cx="101.6" cy="2.9" rx="2.9" ry="2.9"/>
			
				<ellipse transform="matrix(0.9997 -2.393942e-02 2.393942e-02 0.9997 -4.8811 2.6074)" class="st0" cx="106.5" cy="205.2" rx="2.9" ry="2.9"/>
			
				<ellipse transform="matrix(0.9997 -2.392643e-02 2.392643e-02 0.9997 -2.5463 0.1)" class="st0" cx="2.9" cy="106.5" rx="2.9" ry="2.9"/>
			
				<ellipse transform="matrix(0.9997 -2.392643e-02 2.392643e-02 0.9997 -2.3726 4.938)" class="st0" cx="205.2" cy="101.6" rx="2.9" ry="2.9"/>
			<ellipse transform="matrix(0.69 -0.7238 0.7238 0.69 -15.2304 32.9197)" class="st0" cx="30.8" cy="34.2" rx="2.9" ry="2.9"/>
			<ellipse transform="matrix(0.69 -0.7238 0.7238 0.69 -70.8721 182.2004)" class="st0" cx="177.3" cy="173.8" rx="2.9" ry="2.9"/>
			<ellipse transform="matrix(0.69 -0.7238 0.7238 0.69 -117.6905 79.738)" class="st0" cx="34.2" cy="177.3" rx="2.9" ry="2.9"/>
			<ellipse transform="matrix(0.69 -0.7238 0.7238 0.69 31.5879 135.3798)" class="st0" cx="173.8" cy="30.8" rx="2.9" ry="2.9"/>
		</g>
	</g>
	<polygon class="st0" points="103.6,33.7 105.6,40.4 112.5,40.2 106.8,44.2 109.1,50.8 103.6,46.6 98,50.8 100.3,44.2 94.6,40.2 
		101.5,40.4 	"/>
	<polygon class="st0" points="103.6,158.6 105.6,165.3 112.5,165.2 106.8,169.1 109.1,175.7 103.6,171.5 98,175.7 100.3,169.1 
		94.6,165.2 101.5,165.3 	"/>
</g>
</svg>
