<?xml version="1.0" encoding="utf-8"?>
<!-- Generator: Adobe Illustrator 21.1.0, SVG Export Plug-In . SVG Version: 6.00 Build 0)  -->
<svg version="1.1" id="Warstwa_1" xmlns="http://www.w3.org/2000/svg" xmlns:xlink="http://www.w3.org/1999/xlink" x="0px" y="0px"
	 viewBox="0 0 228 462" style="enable-background:new 0 0 228 462;" xml:space="preserve">
<style type="text/css">
	.st0{fill:#A21718;}
	.st1{opacity:0.2;fill:#69111E;}
	.st2{opacity:0.4;fill:#681319;}
	.st3{opacity:0.5;fill:#811527;}
	.st4{fill:#2A2B29;}
	.st5{opacity:0.5;}
	.st6{opacity:0.3;fill:#222221;}
	.st7{fill:#2F302F;}
	.st8{fill:#1D1D1B;}
	.st9{fill:#F1F2E2;}
	.st10{fill:#424241;}
	.st11{fill:#D38D60;}
	.st12{fill:#B4161A;}
	.st13{opacity:0.7;fill:#BF181D;}
	.st14{fill:#BF181D;}
	.st15{fill:#CA1921;}
	.st16{fill:#A31713;}
	.st17{opacity:0.2;fill:#811527;}
	.st18{opacity:0.3;fill:#811527;}
	.st19{opacity:0.3;fill:#69111E;}
	.st20{opacity:0.5;fill:#1D1D1B;}
	.st21{fill:#F7BE00;}
	.st22{opacity:0.3;fill:#EE8D00;}
	.st23{opacity:0.3;fill:#F5B508;}
	.st24{fill:#FCD7A4;}
	.st25{opacity:0.5;fill:#D89740;}
	.st26{opacity:0.3;fill:#D89740;}
	.st27{opacity:0.1;fill:#FFFFFF;}
	.st28{fill:#01899D;}
	.st29{fill:#004760;}
	.st30{fill:#F1F1F1;}
	.st31{fill:#CE7F6A;}
	.st32{opacity:0.3;}
	.st33{fill:#D89740;}
	.st34{fill:#9A1615;}
	.st35{fill:#8B1512;}
	.st36{opacity:0.5;fill:#BF181D;}
	.st37{opacity:0.5;fill:#FCDC58;}
	.st38{fill:#E68202;}
	.st39{opacity:0.3;fill:#644100;}
	.st40{fill:#E0E0E0;}
	.st41{fill:#B1B2B2;}
	.st42{fill:#CCCDCD;}
	.st43{opacity:0.5;fill:#CCCDCD;}
	.st44{fill:#EC800A;}
	.st45{opacity:0.3;fill:#EC800A;}
	.st46{opacity:0.5;fill:#853F13;}
	.st47{fill:#EE8D00;}
	.st48{fill:#EA820E;}
	.st49{opacity:0.2;fill:#E5BA81;}
	.st50{opacity:0.2;fill:#D89740;}
	.st51{opacity:0.2;fill:#995216;}
	.st52{fill:#1B1C1B;}
</style>
<g>
	<g>
		<g>
			<path class="st0" d="M158.6,424.9c-0.9-1.9-1.8-3.7-2.8-5.5c-1.3-2.3-2.7-4.5-4.3-6.6c-3.1-4.1-6.7-6-11.7-5.1
				c-1.9,0.4-3.4,1.4-4.5,3.2c-2.2,3.5-2.7,8.3-3,12.4c-0.5,6.4-0.7,13.2-0.3,19.6c0.2,2.7,0.9,5.7,2.4,7.9
				c2.7,3.7,7.5,5.2,11.7,5.2c6.7,0.1,14.4-2.9,15.9-10.8C163.4,438.1,161.5,431.2,158.6,424.9z"/>
			<path class="st1" d="M158.6,424.9c-0.9-1.9-1.8-3.7-2.8-5.5c-1.3-2.3-2.7-4.5-4.3-6.6c-3.1-4.1-6.7-6-11.7-5.1
				c-1.9,0.4-3.4,1.4-4.5,3.2c-2.2,3.5-2.7,8.3-3,12.4c-0.5,6.4-0.7,13.2-0.3,19.6c0.2,2.7,0.9,5.7,2.4,7.9
				c2.7,3.7,7.5,5.2,11.7,5.2c6.7,0.1,14.4-2.9,15.9-10.8C163.4,438.1,161.5,431.2,158.6,424.9z M156.2,448.8
				c-1.9,2-5.6,3.3-7.7,3.6c-1.2,0.2-2.4,0.2-3.6,0c-2.1-0.3-4.3-1.3-5.6-2.8c-0.6-0.7-1.1-1.9-0.7-2.8c0.6-1.4,3-1.2,4.2-1
				c1.9,0.2,3.9,0.7,5.9,0.3c1.8-0.3,3.3-1.3,4.9-2c1.3-0.6,2.7-0.3,3.4,0.7C157.9,446.1,157.2,447.8,156.2,448.8z"/>
			<path class="st2" d="M133,442.7c-0.2-5.4,1.3-12,7.1-13.2c6.3-1.3,13.5,0.4,18.9-3.6c-0.2-0.4-0.3-0.7-0.5-1.1
				c-0.9-1.9-1.8-3.7-2.8-5.5c-1.3-2.3-2.7-4.5-4.3-6.6c-3.1-4.1-6.7-6-11.7-5.1c-1.9,0.4-3.4,1.4-4.5,3.2c-2.2,3.5-2.7,8.3-3,12.4
				c-0.5,6.4-0.7,13.2-0.3,19.6c0.2,2.7,0.9,5.7,2.4,7.9c1.4,2,3.5,3.3,5.8,4.2C136.2,452.7,133.2,448.5,133,442.7z"/>
			<path class="st3" d="M160.9,430.9c0.8,3.9,2,10.4,0.5,14.5c-2.8,7.6-14.4,10.7-21.6,7.6c-6.4-2.7-7.9-4.3-8.1-17.8
				c0,2.6,0,5.1,0.1,7.6c0.2,2.7,0.9,5.7,2.4,7.9c2.7,3.7,7.5,5.2,11.7,5.2c6.7,0.1,14.4-2.9,15.9-10.8
				C163,440.3,162.4,435.5,160.9,430.9z"/>
		</g>
		<g>
			<path class="st0" d="M76.3,447.4c2.6,7.6,10.6,9.4,17.2,8.3c4.1-0.7,8.7-2.8,10.9-6.9c1.3-2.4,1.6-5.5,1.4-8.2
				c-0.5-6.4-1.6-13.1-2.9-19.3c-0.8-4-2-8.7-4.6-11.8c-1.3-1.5-3-2.4-4.9-2.5c-5-0.2-8.4,2.3-10.9,6.8c-1.3,2.3-2.4,4.7-3.4,7.2
				c-0.8,1.9-1.5,3.9-2.1,5.9C74.9,433.5,74,440.6,76.3,447.4z"/>
			<path class="st1" d="M76.3,447.4c2.6,7.6,10.6,9.4,17.2,8.3c4.1-0.7,8.7-2.8,10.9-6.9c1.3-2.4,1.6-5.5,1.4-8.2
				c-0.5-6.4-1.6-13.1-2.9-19.3c-0.8-4-2-8.7-4.6-11.8c-1.3-1.5-3-2.4-4.9-2.5c-5-0.2-8.4,2.3-10.9,6.8c-1.3,2.3-2.4,4.7-3.4,7.2
				c-0.8,1.9-1.5,3.9-2.1,5.9C74.9,433.5,74,440.6,76.3,447.4z M81.1,446.4c0.6-1.1,1.9-1.6,3.3-1.3c1.7,0.5,3.3,1.2,5.1,1.2
				c2.1,0.1,3.9-0.6,5.8-1.2c1.2-0.3,3.5-0.9,4.3,0.4c0.5,0.8,0.2,2.1-0.3,2.9c-1.1,1.7-3.1,2.9-5.2,3.6c-1.1,0.3-2.4,0.5-3.5,0.5
				c-2.2,0-6-0.7-8.1-2.4C81.4,449.2,80.5,447.7,81.1,446.4z"/>
			<path class="st2" d="M105.8,440.5c-0.5-6.4-1.6-13.1-2.9-19.3c-0.8-4-2-8.7-4.6-11.8c-1.3-1.5-3-2.4-4.9-2.5
				c-5-0.2-8.4,2.3-10.9,6.8c-1.3,2.3-2.4,4.7-3.4,7.2c-0.8,1.9-1.5,3.9-2.1,5.9c-0.1,0.3-0.2,0.5-0.2,0.8c3.1,1.4,6.4,2.1,9.8,2.3
				c3.3,0.2,8.6-1,11.6,1c5.3,3.6,7.1,12.6,3.9,18.4c-1.5,2.7-3.7,4.6-6.2,5.7c3.5-1,6.9-3.1,8.6-6.4
				C105.7,446.3,106,443.2,105.8,440.5z"/>
			<path class="st3" d="M75.4,433.1c-0.3,4-0.6,10.6,1.5,14.5c3.8,7.1,15.7,8.4,22.4,4.3c6-3.7,7.3-5.5,5.6-18.9
				c0.4,2.5,0.7,5.1,0.9,7.6c0.2,2.7-0.1,5.8-1.4,8.2c-2.1,4.1-6.7,6.2-10.9,6.9c-6.7,1.1-14.6-0.7-17.2-8.3
				C74.7,442.7,74.6,437.8,75.4,433.1z"/>
		</g>
		<g>
			<path class="st4" d="M65.1,358.1c0,0,7.5,52.5,7.1,54.7c-0.3,2.2-2.4,8.4,0,10.7c2.4,2.2,25.4,5.7,36-0.5c0,0-3.3-48.9-6.2-64
				C99.1,343.9,65.1,358.1,65.1,358.1z"/>
			<g class="st5">
				<path class="st4" d="M78.5,419.3c1-1.2,0.2-3.4-0.2-4.7c-2-6.9-2.8-14.8-3.7-22.1c-0.8-7-1.3-14-1.4-21
					c-0.1-7.7,0.4-15.2,0.9-22.9c0-0.8-0.9-1-1-0.2c-2.3,14-1.4,29.2,0.2,43.2c0.8,7,2,13.9,3.4,20.8c0.3,1.4,0.7,2.7,1,4
					c0.7,2.6-1.2,2.3-1.7,3.7c-0.6,1.5,1.2,3.9,1.7,5.1c0.1,0.2,0.4,0.1,0.3-0.1c-0.3-1.1-0.7-2.1-1-3.1
					C76.3,420.5,77.8,420,78.5,419.3z"/>
				<path class="st4" d="M81.7,395.4c-1.1-10-1.3-20.1-1.7-30.2c0-0.7-1-0.6-1,0.1c-0.4,19.7,1.6,40.5,7.5,59.3
					c0.1,0.3,0.4,0.1,0.4-0.1C84.7,414.8,82.8,405.2,81.7,395.4z"/>
				<path class="st4" d="M91.4,395.2c-1-10.4-1.5-20.9-2.1-31.3c0-0.7-1.1-0.6-1.1,0.1c0.1,10.5,1,20.9,1.9,31.3
					c0.4,4.8,3.9,24.7,4.8,29.8c0,0.2,0.3,0.2,0.3,0C95,420.3,91.8,400.4,91.4,395.2z"/>
				<path class="st4" d="M100.4,394.4c-1.1-10.1-2-20.4-4.4-30.3c-0.1-0.5-0.9-0.3-0.8,0.2c1.1,10.1,2.8,20.1,4,30.2
					c1.2,10.1,2.2,20.2,3.9,30.2c0,0.3,0.4,0.2,0.4,0C102.6,414.6,101.5,404.5,100.4,394.4z"/>
			</g>
			<path class="st6" d="M79.6,424.2c-0.8-1.4-0.3-2.7,0.4-3.9c1.4-2.6-0.8-6.8-1.3-9.5c-1-6-2.6-12.5-1.7-18.6
				c0.6-3.7,2.3-8.2,5.6-10.1c8.1-4.5,14.3,7.6,15.3,17.2c1.1,10.6,2.9,20.8,0.2,26.8c3.8-0.5,7.3-1.5,10-3c0,0-3.3-48.9-6.2-64
				c-2.9-15.1-36.9-0.9-36.9-0.9s7.5,52.5,7.1,54.7c-0.3,2.2-2.4,8.4,0,10.7c0.9,0.8,4.3,1.7,8.8,2.3
				C80.5,425.4,80.1,424.9,79.6,424.2z"/>
			<path class="st6" d="M74.8,421.8c0-1.2,0.8-2,1.4-3.1c1.3-2.6-0.8-5.6-1.3-8.1c-1.5-7.9-2-15.7-2.7-23.6
				c-0.4-4.2-0.9-9.8,3.6-11.9c3.6-1.7,8.1-0.5,11.9-0.2c4.2,0.3,8.1,2.1,10.2,6.1c2.4,4.6,2.7,9.8,3,14.9c0.3,4.9,1.3,9.4,2.3,14.2
				c0.6,2.8,1.1,5.6,1.1,8.5c-0.1,2.9-0.8,5.2-2.4,6.8c2.4-0.5,4.6-1.3,6.4-2.4c0,0-3.3-48.9-6.2-64c-2.9-15.1-36.9-0.9-36.9-0.9
				s7.5,52.5,7.1,54.7c-0.3,2.2-2.4,8.4,0,10.7c0.5,0.5,1.9,1,3.8,1.4C75.4,424,74.8,422.9,74.8,421.8z"/>
		</g>
		<g>
			<path class="st4" d="M115.3,358.3c0,0,9.1,46,9.9,53.5c0.8,7.6,1.3,9.1,2.6,10.2c1.3,1,13.3,6.1,26.7,3.4
				c11.2-2.2,9-5.2,8.2-10.4c-0.8-5.2-1.9-46.6-5.2-57.6C154.1,345.5,115.3,358.3,115.3,358.3z"/>
			<g class="st5">
				<path class="st4" d="M131.2,406.5c-0.8-5.9-1.8-11.9-2.8-17.8c-0.9-5.9-1.7-11.8-2.3-17.7c-0.7-5.9-0.9-11.9-2-17.7
					c-0.1-0.6-0.9-0.5-0.9,0.1c0,5.6,0.8,11.2,1.4,16.8c0.6,5.9,1.4,11.8,2.4,17.7c1,5.9,5.5,29.2,5.8,35.1c0,0.1,0.2,0.2,0.2,0
					C133.3,417.4,131.9,412,131.2,406.5z"/>
				<path class="st4" d="M139.1,408.4c-0.9-6-5.7-47.8-6.7-53.7c-0.1-0.8-1.3-0.7-1.2,0.1c0.5,12,5.5,47.7,6.6,53.7
					c1,5.5,1.4,11.3,2.8,16.8c0.1,0.2,0.4,0.1,0.3-0.1C140.1,419.6,140,413.9,139.1,408.4z"/>
				<path class="st4" d="M146.2,393.4c-1.5-11-2.5-22.2-4.1-33.2c-0.1-0.8-1.2-0.7-1.1,0.1c0.8,11.1,2.2,22.2,3.7,33.2
					c1.5,10.9,3.1,21.9,5.4,32.6c0.1,0.3,0.4,0.2,0.4-0.1C149.6,415,147.6,404.2,146.2,393.4z"/>
				<path class="st4" d="M155.6,389.8c-0.4-5.9-1.1-11.7-1.6-17.5c-0.5-6-0.3-12-1-18c-0.1-0.7-1.1-0.7-1.1,0
					c0.4,23.5,3.6,46.9,5.4,70.3c0,0.2,0.3,0.2,0.3,0C157.5,413.1,156.4,401.4,155.6,389.8z"/>
			</g>
			<path class="st6" d="M162.8,415.1c-0.8-5.2-1.9-46.6-5.2-57.6c-2.4-8.2-21.5-4.7-33.2-1.7c-0.1-0.8-0.3-1.6-0.4-2.4
				c-0.1-0.6-0.9-0.5-0.9,0.1c0,0.9,0,1.7,0.1,2.6c-4.7,1.2-7.9,2.3-7.9,2.3s9.1,46,9.9,53.5c0.8,7.6,1.3,9.1,2.6,10.2
				c1,0.8,7.8,3.8,16.8,4.2c-2.7-0.7-5.2-1.8-6.8-4.1c-2.6-3.6-2.8-8.5-3.5-12.7c-0.9-6-2.3-12-1.6-18.1c0.6-5.3,3-11.6,8.2-13.5
				c4.1-1.5,8.6,1.9,10.9,5.1c5.2,7.1,4.9,16.5,6.4,24.9c0.7,4.1,1.4,8.5,0.6,12.7c-0.4,2-1.2,3.5-2.3,4.7c0.3-0.1,0.5-0.1,0.8-0.2
				c0.1,0.1,0.2,0,0.2-0.1C165.3,422.6,163.5,419.7,162.8,415.1z"/>
			<path class="st6" d="M133.5,423.8c-2.7-3.5-3.1-9.6-3.6-13.8c-0.6-4.8-1.6-9.5-2.3-14.3c-1.2-7.8-1.7-14.9,4.6-20.5
				c3.3-3,7.3-3.3,11.5-3.9c3.8-0.6,9.9-2.4,13.4,0.1c1.4,1,2.4,2.3,3.1,3.8c-0.7-7.6-1.5-14.2-2.5-17.7c-2.4-8.2-21.5-4.7-33.2-1.7
				c-0.1-0.8-0.3-1.6-0.4-2.4c-0.1-0.6-0.9-0.5-0.9,0.1c0,0.9,0,1.7,0.1,2.6c-4.7,1.2-7.9,2.3-7.9,2.3s9.1,46,9.9,53.5
				c0.8,7.6,1.3,9.1,2.6,10.2c0.5,0.4,2.8,1.5,6.3,2.5C133.9,424.3,133.7,424.1,133.5,423.8z"/>
		</g>
	</g>
	<path class="st7" d="M33.2,254.3c0,0,12.7-53.4,74.8-50.6c62.1,2.8,73.6,32.6,77.3,55.2l-29.8,6.1l-6.1-12l2.5,18.7l-88.8,4.1
		v-10.5C63.1,265.4,41.9,250.7,33.2,254.3z"/>
	<g>
		<path class="st8" d="M67.8,238.9c-5.2,9.7-5.9,22.4-5.1,33.3c0,0.4,0.6,0.4,0.6,0c0.5-5.8,0.2-11.6,0.9-17.4
			c0.3-2.8,0.9-5.5,1.5-8.2c0.5-2.6,1.8-5,2.3-7.6C68.1,238.8,67.9,238.8,67.8,238.9z"/>
		<path class="st8" d="M148.1,241.9c0-0.3-0.4-0.2-0.4,0c0.3,6.9,1.6,13.8,2.6,20.7c0.1,0.4,0.5,0.3,0.5,0
			C150.6,255.7,149.3,248.7,148.1,241.9z"/>
	</g>
	<path class="st6" d="M185.3,258.9c-0.8-4.7-1.9-9.7-3.7-14.8c0.1,0.8,0.1,1.6,0,2.4c-0.3,3.9-3.2,4.9-6.4,5.7
		c-12.1,2.8-14.6,4.1-19.4-5.5c-4.9-9.7-6.9-21-6.4-24.8c0.3-2.8,1.1-5.5,3.7-6.6c1-0.4,1.9-0.5,2.9-0.4c-11.1-6-26.5-10.2-48-11.1
		c-21.9-1-37.7,5-48.9,13.2c0.7-0.2,1.5-0.3,2.2-0.2c2.7,0.2,4.6,2.4,4.5,5.4c-0.2,4.6-8.3,20.7-10.7,24.6c-2.1,3.2-4.7,3.7-8.2,3.2
		c-4-0.6-7.8-2.1-8.5-6.8c-0.1-0.4-0.1-0.8-0.1-1.3c-3.7,7.2-5,12.6-5,12.6c8.8-3.6,29.9,11.1,29.9,11.1v10.5l88.8-4.1l-1.7-17.2
		l5.3,10.4L185.3,258.9z M136.7,231.3c-0.3,2.2,2.9,12.3-5.8,15.6c-6.4,2.4-15.3,1.2-21.9,1.5c-5.2,0.2-10.4,0.4-15.6,0.3
		c-2.8,0-7.1,0.8-9.7-0.9c-1.5-0.9-2.3-2.4-2.5-4.3c-0.1-0.8-0.1-1.7-0.1-2.6c0-0.2-0.1-0.4-0.1-0.6c-0.3-1.9-0.1-4,0-5.9
		c0.1-3.5,0.1-7,0.2-10.5c0.1-2.5-0.3-7.8,3-8.6c3.4-0.8,6,1.2,8.6,3.3c-0.4-1.4-1.1-2.8-2-4.1c-0.5-0.7,0.6-1.4,1.1-0.7
		c0.9,1.3,1.7,2.8,2.2,4.3c0.1-0.2,0.3-0.2,0.6-0.1c5.7,2.4,14.1,1.9,19.7-0.4c4.8-2,10.7-4.4,14.2-8.9c0.1-0.3,0.1-0.7,0.2-1
		c0.1-0.5,0.5-0.6,0.8-0.4c0.1-0.1,0.2-0.2,0.2-0.4c0.4-0.8,1.6-0.1,1.1,0.7c-0.3,0.6-0.7,1.2-1.1,1.7c-0.2,1.7-0.3,3.4-0.1,5
		c1.3-0.4,2.6-0.3,4,0.5c3.4,2,3.6,7.7,3.4,11.2c0,0.7-0.1,1.4-0.1,2.1C137.2,229.4,137.2,230.4,136.7,231.3z"/>
	<path class="st6" d="M173.1,261.4c-5.7,0.6-13.4-0.1-17.1-5.3c-3.6-5-9.5-23.4-10.1-34.1c-0.6-9.1,3.6-9.8,4.5-9.8
		c-3.3-1.5-6.9-2.7-10.8-3.8c-0.6,5.9-0.4,11.9,0.1,17.8c0.4,4.4,0.6,9,1.3,13.4c0.5,2.7,1,5.4,1.4,8.2c0.6,5.1,0.1,10.8-4.7,13.5
		c-6.5,3.6-14.8,4.2-21.9,4.3c-8.4,0.1-16.7-0.9-25.1-1.7c-4.9-0.5-13.7-0.9-16.2-6.5c-1.4-3.3-1.4-6.9-1.3-10.4
		c0.1-4.8,0.5-9.6,1.1-14.4c1-8.3,2.3-16.5,2.8-24.8c-2.8,0.9-5.4,2-7.8,3.2c2-1,2.8,1,2.7,4.2c-0.2,3.3-1.1,7.8-2,10.9
		c-1.6,6-5.4,13.3-9.3,27.9c-0.5,1.8-2.3,3.1-4.1,3.1c-1.5-0.1-1.9,2.1-2.9,2.5c5.4,2.9,9.6,5.8,9.6,5.8v10.5l88.8-4.1l-1.7-17.2
		l5.3,10.4L173.1,261.4z"/>
	<path class="st9" d="M129.5,213.6c-3.7,3.8-10.3,3.9-14.8,5.6c-6,2.3-19.2,3.2-25.2,0.8c0.4,1.8,8.9,4.9,6.8,6.1
		c-4.5,2.5-7.2,9.6-5.6,13.3c0,0.1,0.8,0.9,0.8,1c1.1,0.9,7.8-2.8,10.7-4.3c2.8-1.4,6.8-6.4,10.2-5.1c3,1.1,6.8,4.4,10.1,3.9
		c2.9-0.4,4.9,0.7,7.7-0.2c0.6-0.2,2.5-0.9,3.5-1.7c-0.1-0.6-0.2-1.1-0.4-1.7c0-0.1,0-0.2,0-0.3c0,0,0,0-0.1,0
		c-1.4-0.7,0.8-1.7,2.2-0.1c0.4-3-4.1-6.7-7.6-9C125.5,220.3,129.3,216.5,129.5,213.6z"/>
	<path class="st10" d="M155.5,265.8c0,0-1.3,4.3,0.7,4.5c2,0.2,19.3,0.9,30.8-7.1l-1.2-2.8L155.5,265.8z"/>
	<path class="st10" d="M51.5,258.2l8.3,6.4c0,0,2.8,4.3,0.9,5.7c-1.9,1.4-24.6-3.7-29.7-11.4C31,258.9,29.3,249.8,51.5,258.2z"/>
	<g>
		<g>
			<path class="st11" d="M118,205.4c0-0.1,0-0.2,0-0.3c0.1-0.8-0.9-1.4-1.4-0.7c-0.1,0.1-0.1,0.2-0.2,0.3c-5.6-2.2-12.4-1.1-17,3.1
				c0,0,0,0,0,0c-0.1,0.1-0.1,0.1-0.1,0.2c-0.1,0.4,0.1,0.8,0.5,0.8c3.5,3.9,5.7,8.9,6.8,14.1c0.1,0.7,1,0.8,1.5,0.5
				c4.5-2.7,8.1-9.4,9.4-15.2C118.7,208.1,119.3,206.1,118,205.4z"/>
			<path class="st12" d="M79.6,203.6c0,0,1.2,19.1,24.1,20.9l5,1l-0.5-3.6c0,0-1.8-12-15.7-20.4C78.7,193.1,79.6,203.6,79.6,203.6z"
				/>
			<path class="st13" d="M108.2,221.9c0,0-1.8-12-15.7-20.4c-13.9-8.4-12.9,2.1-12.9,2.1s1.2,19.1,24.1,20.9l5,1L108.2,221.9z
				 M105.4,221.3c-1.3,1.1-3.3-0.5-4.9-1.3c0.7,1.4,1.7,3.4-0.6,3.1c-5.2-0.8-9.7-3.8-13.3-7.8c-0.6-0.6-1.7-1.9-1.4-2.9
				c0.4-1.5,2.2-0.7,3.1-0.2c1.5,0.7,3,1.4,4.4,2.3c0.7,0.4,1.4,0.9,2.1,1.2c0,0,1.7,0.7,1.2-0.1c-0.5-0.8,0-2.1,1.1-2
				c2.2,0.4,4.8,2.5,6.4,4C104,218.1,106.6,220.4,105.4,221.3z"/>
			<path class="st14" d="M103.2,213.8c0.8,0.9,3.4,5.4,3.7,6.8c0.3,1.5-0.1,3.2-0.8,4.4l2.7,0.5l-0.5-3.6c0,0-0.8-5.1-5.2-11
				c-0.8,0-1.5,0-2.3,0c-1.1,0-2.4,0-3.6-0.2C99.3,211.3,101.5,211.8,103.2,213.8z"/>
			<path class="st12" d="M117.6,201.6c0,0-5.6,18.1-9.9,21.4l1,2.1c0,0,23.8-2.2,24.1-19.3C133,188.7,117.6,201.6,117.6,201.6z"/>
			<path class="st13" d="M117.6,201.6c0,0-5.6,18.1-9.9,21.4l1,2.1c0,0,23.8-2.2,24.1-19.3C133,188.7,117.6,201.6,117.6,201.6z
				 M123.1,217.8c-7.1,4.4-7.5,3.6-6.1,2.1c1.4-1.6-3.7,2.2-4.5,2.3c-1.3,0,0.5-2.8,1-3.5c1.3-2,2.5-3.6,4-5
				c0.5-0.5,1.9-1.6,2.6-0.8c1.1,1.1-1,3.5,2,1.7c1.7-1,3.7-3,5.8-2.8C130.2,211.7,125.7,216.1,123.1,217.8z"/>
			<path class="st14" d="M111.3,224.1c-1.3-1.1-1.1-2.6-0.4-4.1c1.2-2.5,2.3-5.4,4.3-7.3c1.2-1.2,2.8-1.6,4.4-1.7c0,0,0,0,0,0
				c-1.6-0.7-3.1-1.2-4.7-1.7c-2,5.3-4.8,11.7-7.1,13.6l1,2.1c0,0,1.3-0.1,3.3-0.5C111.8,224.4,111.6,224.3,111.3,224.1z"/>
			<path class="st15" d="M108.6,225.8c0,0,3.4,10-7.4,13.5c-10.9,3.5-12.2,1.6-9-5.8C95.2,226.4,104.1,221.9,108.6,225.8z"/>
			<path class="st13" d="M108.6,225.8c-4.5-3.9-13.4,0.6-16.5,7.7c-0.7,1.7-1.2,3-1.4,4.1c0.7-1.9,1.9-3.8,3-5
				c1.6-1.8,3.5-3.6,5.6-4.7c0.8-0.4,3-1.2,3,0.5c0,1.3-0.8,2.2-1.3,3.2c-0.2,0.5-1.8,3.2-0.4,2.3c1.4-0.9,3.3-3.1,4.9-2
				c0.5,0.3,0.4,1.8-0.1,2.8c-0.7,1.3-2.5,3.4-4.4,4.5c0.1,0,0.2-0.1,0.3-0.1C112,235.8,108.6,225.8,108.6,225.8z"/>
			<path class="st14" d="M108.6,225.8c-4.5-3.9-13.4,0.6-16.5,7.7c-0.1,0.3-0.3,0.6-0.4,0.9c1.1-2.3,2.5-4.4,4.4-6
				c2.3-2,7.7-4.1,10.4-0.6c1.9,2.5,2,6.2-2.9,10.4C111.4,234.2,108.6,225.8,108.6,225.8z"/>
			<path class="st15" d="M109.8,225.5c0,0,3.2,8.9,11.7,11.2c4.1,1.1,19.6-1.4,14.1-7.6C132.6,225.9,124.6,216.8,109.8,225.5z"/>
			<path class="st13" d="M126.6,236.6c-1.3-0.2-2.5,0-3.8-0.4c-1.2-0.4-2.3-0.9-3.3-1.7c-1-0.8-3-2.3-2.4-3.9
				c0.7-1.8,2.1-0.4,3.3-0.4c1.4,0-0.3-1.9-0.5-2.4c-2.8-4.2,5.1-3.2,7-2.5c2.9,1,6,2.5,8.2,4.8c0.5,0.6,1.1,1.2,1.6,1.9
				c0.1-0.8-0.3-1.7-1.2-2.7c-3-3.3-11-12.4-25.8-3.7c0,0,3.2,8.9,11.7,11.2c1.4,0.4,4.2,0.3,7-0.1
				C127.8,236.7,127.2,236.6,126.6,236.6z"/>
			<path class="st14" d="M112.3,226.6c0.4-1.8,2.6-3.1,5.2-4c0.7-0.2,1.4-0.4,2.1-0.6c-2.9,0.3-6.2,1.4-9.9,3.6c0,0,2.2,6.3,8,9.7
				C115.9,233.8,111.7,229.1,112.3,226.6z"/>
			<path class="st16" d="M108.2,221.9c1.8-0.1,4.3,0.5,5.2,1.8c0.6,0.8-0.6,4.9-2.6,6.1c-2.1,1.2-6-0.1-7-5.3
				C103.5,223.6,106.9,222,108.2,221.9z"/>
			<path class="st14" d="M113.4,223.7c-0.4-0.5-1-0.9-1.8-1.2c0.2,0.3,0.4,0.7,0.5,1.2c0.4,2-1.3,4.2-3.2,4.2c-2,0-3.9-1.7-3.9-3.9
				c0-0.4,0.1-0.7,0.2-1.1c-0.9,0.5-1.6,1.1-1.5,1.5c1.1,5.2,4.9,6.5,7,5.3C112.8,228.6,113.9,224.5,113.4,223.7z"/>
			<path class="st14" d="M109,229.5c-2.1,0.2-3.9-1.6-4.7-3.6c-0.3-0.7-0.4-1.4-0.3-1.9c-0.1,0.2-0.2,0.4-0.2,0.5
				c1.1,5.2,4.9,6.5,7,5.3c1.3-0.8,2.2-2.6,2.6-4.1C112.7,227.6,111.1,229.3,109,229.5z"/>
		</g>
	</g>
	<g>
		<path class="st15" d="M69.8,245c0.1,5.2-0.8,16.8,3.6,17.8c4.4,1,5.7-6.3,6.2-18.9c0.5-12.5,1.9-30.5,1.9-37.7
			c0-2.7-7.5,0.4-8.1,2.7C72,214.9,69.8,245,69.8,245z"/>
		<path class="st17" d="M73.4,209c-1.5,6-3.6,36-3.6,36c0.1,5.2-0.8,16.8,3.6,17.8c4.4,1,5.7-6.3,6.2-18.9
			c0.5-12.5,1.9-30.5,1.9-37.7C81.5,203.6,74,206.7,73.4,209z M77.1,245.9c-1.1,2.5-2.9,2.3-3.9-0.2c-1.2-3.2-0.9-6.7-0.9-10
			c0.1-3.8,0.2-7.8,1.2-11.5c0.5-1.7,1.6-6.2,3.9-5.7c1.6,0.3,1.8,4.6,1.7,5.9c0,3.7-0.1,7.4-0.3,11.1
			C78.7,239,78.5,242.7,77.1,245.9z"/>
		<path class="st18" d="M78.1,210.6c2.6,0.2,3,4.3,2.7,9.2c0,0.2,0,0.4,0,0.5c0.3-5.8,0.6-10.9,0.6-14c0-2.7-7.5,0.4-8.1,2.7
			c-0.3,1.2-0.6,3.5-1,6.3C73.5,212.2,75.3,209.7,78.1,210.6z"/>
		<path class="st18" d="M74.2,250.9c-3,0.3-4.2-2.6-4.4-6.7c0,0.6-0.1,0.9-0.1,0.9c0.1,5.2-0.8,16.8,3.6,17.8
			c3.7,0.9,6.2-6.1,6.4-24C79.5,247.6,77,250.6,74.2,250.9z"/>
		<path class="st15" d="M146.2,245c-0.1,5.2,0.8,16.8-3.6,17.8c-4.4,1-5.7-6.3-6.2-18.9c-0.5-12.5-1.9-30.5-1.9-37.7
			c0-2.7,7.5,0.4,8.1,2.7C144.1,214.9,146.2,245,146.2,245z"/>
		<path class="st17" d="M146.2,245c0,0-2.2-30.1-3.6-36c-0.6-2.3-8.1-5.4-8.1-2.7c0,7.2,1.4,25.2,1.9,37.7
			c0.5,12.5,1.8,19.9,6.2,18.9C147,261.8,146.2,250.2,146.2,245z M144,245.8c-0.3,1.6-0.9,2.8-2,2.7c-2.1,0-3-4.3-3.4-6
			c-1-4.1-1.2-8.4-1.3-12.7c-0.1-4-0.5-9.1,1-12.8c0.5-1.1,1.5-1.9,2.4-0.8C143.9,220.1,145,240.8,144,245.8z"/>
		<path class="st18" d="M137.9,211c2.4-1.2,4.1-0.5,5.3,1c-0.2-1.3-0.4-2.3-0.5-3c-0.6-2.3-8.1-5.4-8.1-2.7c0,2.4,0.2,6,0.4,10.1
			C135.2,214,136,211.9,137.9,211z"/>
		<path class="st18" d="M142.1,250.3c-5,0-5.6-7.7-5.7-8c0.3,13.3,2.1,21.5,6.3,20.6c3.9-0.9,4-13.8,3.3-22.1
			C146.2,245,144.8,250.3,142.1,250.3z"/>
		<path class="st0" d="M60.2,282.3c1-9.2,1.9-24.8,4.1-27.5c2.2-2.7,27.8-4.6,48.9-4.6c24.1,0,32.7,0.1,35.9,4.4
			c3.2,4.3,3.5,21.7,10.3,52.9c6.8,31.2,11.2,54.2,10,56c-1.1,1.7-30.6,9.6-55.9,10.3C88.3,374.5,59,371.7,57,368
			C55,364.2,57.2,311.4,60.2,282.3z"/>
		<path class="st18" d="M159.5,307.5c-6.8-31.2-7.1-48.6-10.3-52.9c-3.2-4.3-11.8-4.4-35.9-4.4c-21.1,0-46.7,1.8-48.9,4.6
			c-2.2,2.7-3.1,18.2-4.1,27.5c-3,29.1-5.2,81.8-3.2,85.6c0.7,1.4,5.4,2.7,12.2,3.7c-1-2.1-1.6-4.4-1.8-7
			c-0.5-5.3-1.9-14.5,0.9-19.3c2.9-4.9,8.7-5.1,13.7-5.1c10.7,0,19.2,0.2,28.7,0.4c12.2,0.2,21.5,0.4,33.8-0.9
			c5.1-0.5,10.4-1,13.1,4.7c2.3,4.9,4.9,20.7,4.1,21.8c4.6-1.3,7.5-2.4,7.8-2.9C170.6,361.8,166.2,338.7,159.5,307.5z M142,282
			c-0.9,0.1-1.7,0.2-2.4,0.3c-5.3,0.6-10.6,0-16-0.5c-6.9-0.6-13.8-1-20.8-0.8c-5.1,0.1-10.3,0-15.4,0.6c-5.2,0.6-10.2,2.5-15.2,3.8
			c-2.8,0.7-5.1-1.9-5.4-5.3c-0.3-2.8,0.1-7.9,2-9.9c1.8-2,4.6-1.7,6.8-2.2c2.5-0.5,4.9-3,5.3-6c0.7-5.7,3.8-5.9,7.4-6.6
			c9.8-2,18.9-2.4,28.8-1.8c9.4,0.6,15.6,1.2,16.6,5.6c0.6,2.7,0.7,5.6,2.7,7.2c2.6,2.2,4.1,1.4,7,1.6c2.9,0.2,4,1,4.6,7.3
			C148.4,280.2,145.1,281.5,142,282z"/>
		<path class="st18" d="M60.8,354.3c0.1-4-0.3-11.3,2.5-14.6c1.5-1.8,3.8-2.6,6.1-2.8c-0.3-1.3-0.4-2.6-0.3-4c0,0,0,0,0-0.1
			c-0.4-7.7-0.9-15.5-1.5-23.2c-0.5-6.8-0.6-13.7-1.5-20.5c-1.7-1.6-2.9-3.5-3.2-5.8c-0.5-3.7,0.4-7.5,0.8-11.2
			c0.4-3.6,0.7-7.4,1.9-10.8c1.8-4.9,4.9-8.2,9.5-9.1c-5.8,0.7-9.8,1.6-10.6,2.6c-2.2,2.7-3.1,18.2-4.1,27.5
			c-3,29.1-5.2,81.8-3.2,85.6c0.5,0.9,2.6,1.8,5.8,2.5c-0.3-0.4-0.6-0.9-0.8-1.4C60.2,364.5,60.6,359.1,60.8,354.3z"/>
		<path class="st19" d="M139.7,263.5c1.8,0.4,4.9,0.1,5-2.5c0.1-2.2-1.2-4-3-5.2c-0.2-0.1-0.4-0.3-0.4-0.5c-1.4-0.2-2.9,0.2-3.8,1.3
			C135.3,259.1,136.6,262.8,139.7,263.5z"/>
		<path class="st19" d="M75.5,263.8c2.3-0.7,4.3-3.5,3.4-6.2c-1.2-3.4-5-2.4-7.5-1.6c-0.1,0-0.2,0-0.3,0c0,0-0.1,0-0.1,0.1
			C68.2,259.1,70.9,265.2,75.5,263.8z"/>
		<path class="st18" d="M159.5,307.5c-6.8-31.2-7.1-48.6-10.3-52.9c-1.5-2-4.2-3.1-9.2-3.7c0.8,0.2,1.5,0.4,2.2,0.8
			c3.9,2.1,5.2,6.9,6,11.2c1.2,6,2.8,12.1,3.4,18.2c0.5,5.2,0,10-1.2,14.8c0.7,9.4,3.3,18.8,4.3,28.1c0.4,3.9,0.8,8.8-0.7,12.6
			c0.2,0.1,0.4,0.2,0.7,0.2c7-0.7,9.7,8.6,11.1,14.8c0.7,3.3,2,9.2,0.6,13.1c1.8-0.6,2.9-1.1,3.1-1.4
			C170.6,361.8,166.2,338.7,159.5,307.5z"/>
		<path class="st8" d="M138.2,256.6c-3.2,4.1,3.2,8.7,6.3,4.7C147.7,257.2,141.3,252.5,138.2,256.6z"/>
		<path class="st8" d="M70.2,256.7c-2.9,4.2,3.6,8.5,6.5,4.3C79.7,256.8,73.2,252.5,70.2,256.7z"/>
		<path class="st20" d="M143.1,255.5c0.8,0.6,1.3,1.5,1.3,2.6v0.1c0,1.7-1.4,3.2-3,3.2c-1.6,0-3-1.4-3-3.2V258
			c0-1.3,0.8-2.4,1.8-2.9c-0.7,0.2-1.4,0.7-2,1.4c-3.2,4.1,3.2,8.7,6.3,4.7C146.3,258.9,145.1,256.5,143.1,255.5z"/>
		<path class="st20" d="M75,255.4c2,1.6,1.4,5.7-1.7,5.7c-2.8,0-3.6-3.5-2.2-5.3c-0.3,0.2-0.6,0.5-0.8,0.9c-2.9,4.2,3.6,8.5,6.5,4.3
			C78.4,258.7,77.1,256.2,75,255.4z"/>
	</g>
	<path class="st21" d="M202.8,90.6c-9.4-19.1-28.7-33-48-38c-26.9-7.1-55.3-5.5-81.7,3.2c-7.2,2.4-14.4,5.6-20.9,9.7
		c-9.5,6-18.3,13.9-24.3,23.8c-3,4.9-5.6,11.1-6.7,16.9c-1.2,6.4-1.2,14.2,0.2,20.5c2.7,11.4,10.5,21.2,20.5,26.4
		c-1-7.5-1.5-15-1.1-22.5c0.1-2.1-0.1-6.4,1.5-8.1c1.4-1.5,5.2-0.6,6.8-0.3c11.5,1.6,23.3-3,34-7.1c5.7-2.2,11.6-4.2,16.9-7.2
		c4-2.2,7.8-4.5,12.2-5.6c0.7-0.2,1.4,0.5,1.2,1.3c-0.6,2.2-1.4,4.3-2.2,6.4c9.5-3.3,16.5-11.5,24.9-16.9c0.5-0.3,1-0.1,1.3,0.4
		c3.6,5.6,7.6,11.2,13.4,14.3c0.5-1.8,1-3.7,1.4-5.6c0.2-1,1.3-0.9,1.8-0.2c5.7,8.2,13.3,17.4,22,22c5.2,2.8,13.7,4.8,15.4,11.6
		c0.7,3-0.5,7.1-1.3,10c-0.6,2.1-1.2,4.1-2,6.1c3.4-1.3,6.5-3.3,9.1-6c3.7-3.9,5.9-8.4,7.3-13.4c1.2-2.5,2-5.2,2.6-7.7
		C209.8,112.4,207.8,100.8,202.8,90.6z"/>
	<path class="st22" d="M202.8,90.6c-9.4-19.1-28.7-33-48-38c-26.9-7.1-55.3-5.5-81.7,3.2c-7.2,2.4-14.4,5.6-20.9,9.7
		c-9.5,6-18.3,13.9-24.3,23.8c-3,4.9-5.6,11.1-6.7,16.9c-1.2,6.4-1.2,14.2,0.2,20.5c2.7,11.4,10.5,21.2,20.5,26.4
		c-1-7.5-1.5-15-1.1-22.5c0.1-2.1-0.1-6.4,1.5-8.1c1.4-1.5,5.2-0.6,6.8-0.3c11.5,1.6,23.3-3,34-7.1c5.7-2.2,11.6-4.2,16.9-7.2
		c4-2.2,7.8-4.5,12.2-5.6c0.7-0.2,1.4,0.5,1.2,1.3c-0.6,2.2-1.4,4.3-2.2,6.4c9.5-3.3,16.5-11.5,24.9-16.9c0.5-0.3,1-0.1,1.3,0.4
		c3.6,5.6,7.6,11.2,13.4,14.3c0.5-1.8,1-3.7,1.4-5.6c0.2-1,1.3-0.9,1.8-0.2c5.7,8.2,13.3,17.4,22,22c5.2,2.8,13.7,4.8,15.4,11.6
		c0.7,3-0.5,7.1-1.3,10c-0.6,2.1-1.2,4.1-2,6.1c3.4-1.3,6.5-3.3,9.1-6c3.7-3.9,5.9-8.4,7.3-13.4c1.2-2.5,2-5.2,2.6-7.7
		C209.8,112.4,207.8,100.8,202.8,90.6z"/>
	<path class="st23" d="M202.8,90.6c-9.4-19.1-28.7-33-48-38c-26.9-7.1-55.3-5.5-81.7,3.2c-7.2,2.4-14.4,5.6-20.9,9.7
		c-9.5,6-18.3,13.9-24.3,23.8c-3,4.9-5.6,11.1-6.7,16.9c-1.2,6.4-1.2,14.2,0.2,20.5c2.7,11.4,10.5,21.2,20.5,26.4
		c-1-7.5-1.5-15-1.1-22.5c0.1-2.1-0.1-6.4,1.5-8.1c1.4-1.5,5.2-0.6,6.8-0.3c11.5,1.6,23.3-3,34-7.1c5.7-2.2,11.6-4.2,16.9-7.2
		c4-2.2,7.8-4.5,12.2-5.6c0.7-0.2,1.4,0.5,1.2,1.3c-0.6,2.2-1.4,4.3-2.2,6.4c9.5-3.3,16.5-11.5,24.9-16.9c0.5-0.3,1-0.1,1.3,0.4
		c3.6,5.6,7.6,11.2,13.4,14.3c0.5-1.8,1-3.7,1.4-5.6c0.2-1,1.3-0.9,1.8-0.2c5.7,8.2,13.3,17.4,22,22c5.2,2.8,13.7,4.8,15.4,11.6
		c0.7,3-0.5,7.1-1.3,10c-0.6,2.1-1.2,4.1-2,6.1c3.4-1.3,6.5-3.3,9.1-6c3.7-3.9,5.9-8.4,7.3-13.4c1.2-2.5,2-5.2,2.6-7.7
		C209.8,112.4,207.8,100.8,202.8,90.6z M125.5,81.1c-2.9,3.3-10.1,7.2-11.2,7.8c-2.8,1.5-5.7,2.7-8.7,3.9c-15,5.6-30.5,10-46.3,12.7
		c-4.6,0.8-9.2,1.4-13.8,1.9c-4.1,0.5-9.4,0.2-12.4,3.4c-2.8,3.1-2,8.1-1.8,12c0.1,2.8,0.4,5.7,0,8.5c-0.3,2.4-1.6,3.9-3.3,1.3
		c-1.5-2.5-2.8-5.6-3.4-8.4c-1.6-8.3-2.3-17.8,1.7-25.5c4.3-8.2,12.5-12.8,20.9-15.4c9.4-2.9,19.3-4.6,29.1-5.9
		c11.1-1.4,22.2-1.9,33.4-1.6c4.9,0.2,11.2-0.5,15.7,1.7C127.3,78.2,126.9,79.6,125.5,81.1z M134.7,85.3c-2.1,2.8-5.2,5.2-7.9,6.3
		c-0.5,0.2,5.4-4.5,6.5-11.7c0.2-1.2-0.4-2.5,0.7-3.1c2.8-1.5,3.2,2.1,2.9,3.8C136.7,82.2,135.8,83.8,134.7,85.3z M147.9,80.3
		c-0.2,1.4-0.8,2.5-1.3,3.8c-1,2.3-0.5,4.4-0.6,6.8c0,0.5-0.5,0.7-0.9,0.4c-2.1-1.9-3.5-4.8-4-7.7c-0.4-2.3-0.3-5.8,1.9-7.1
		C145.3,75.2,148.4,77.5,147.9,80.3z M205.8,116c-0.2,2.3-2,19-6.8,14.7c-1.5-1.4-1.5-4.7-2.6-6.5c-1.7-2.7-4.7-3.9-7.3-5.4
		c-9-4.8-16.9-11.7-23.7-19.5c-1.9-2.1-3.7-4.4-5.4-6.7c-1.5-2.1-2.9-4.3-4-6.6c-0.6-1.4-1.8-4.6-0.6-6c2.8-3.3,8.4-1.8,11.9-1.3
		c10.3,1.6,22.1,4.6,30.5,11.5C204.8,96.1,206.5,106.9,205.8,116z"/>
	<g>
		<path class="st24" d="M36.3,147.7c0,0-1.8-9.8-8.5-8.9c-6.7,0.9-10,10.3-7.7,19c2.3,8.7,13.6,16.6,17.5,6.4
			C39.9,158.2,36.3,147.7,36.3,147.7z"/>
		<path class="st25" d="M32.6,158.9c0-1.4-0.3-2.8-0.7-4.2c-0.5-1.9-1.1-4.2-2.4-5.7c-0.6-0.7-1.7-1.4-2.6-1.5c-2.4-0.4-4,2-4.2,4.2
			c-0.2,2.4,0.3,4.8,1.5,6.9c1,1.9,3,4.1,5.1,4.5c1,0.2,2.5-0.4,2.9-1.5C32.5,160.8,32.6,159.8,32.6,158.9z"/>
		<path class="st25" d="M26.2,149.8c-1,2.1-0.4,5.2,0.6,7.2c1,2,4.9,6.2,5.9,1.9c0,0,0-0.1,0-0.1c0-1.4-0.3-2.8-0.7-4.2
			c-0.5-1.9-1.1-4.2-2.4-5.7C28.4,148.4,26.9,148.3,26.2,149.8z"/>
		<g>
			<path class="st24" d="M191.2,145.5c0,0,4.7-8.1,11.4-6c6.7,2.1,7.3,10.8,3.6,18.3c-3.7,7.5-16.5,12.6-18.9,2.5
				C185.9,154.5,191.2,145.5,191.2,145.5z"/>
			<path class="st25" d="M193.6,158.3c0.2,1.1,1.6,2,2.6,1.9c2.1-0.1,4.4-1.9,5.7-3.6c1.4-1.8,2.3-4.1,2.5-6.5
				c0.1-2.2-1.1-4.8-3.6-4.8c-0.9,0-2.1,0.5-2.8,1c-1.6,1.2-2.4,3.3-3.3,5.1c-0.6,1.3-1.1,2.6-1.3,3.9
				C193.4,156.5,193.4,157.4,193.6,158.3z"/>
			<path class="st25" d="M196.5,157.9c2.3-0.9,4-3.1,4.9-5.5c1-2.6,0.7-6-2.6-5.9c-0.3,0-0.6,0.1-0.9,0.1c-1.4,1.2-2.3,3.2-3,4.9
				c-0.6,1.3-1.1,2.6-1.3,3.9c0,0.3-0.1,0.7-0.1,1C194,157.8,194.9,158.6,196.5,157.9z"/>
		</g>
	</g>
	<path class="st24" d="M34.5,113.5c0,0-14.2,98.2,74.2,98.6c91.4,0.4,85.9-85,85.9-85s-30.5-14.5-44.4-43.4c0,0-2.6,5.1-2,12.7
		c0,0-7.1-3.4-9.5-14.5c0,0-4.7,11.9-17.9,14.5c0,0,8.8-6.8,10.7-15.4C131.5,81.1,92.9,111.6,34.5,113.5z"/>
	<path class="st26" d="M194.6,127.1c0,0-30.5-14.5-44.4-43.4c0,0-2.6,5.1-2,12.7c0,0-7.1-3.4-9.5-14.5c0,0-4.7,11.9-17.9,14.5
		c0,0,8.8-6.8,10.7-15.4c0,0-38.6,30.6-97.1,32.5c0,0-14.2,98.7,74.2,98.6C201.1,212.1,194.6,127.1,194.6,127.1z M171.6,181
		c-8.4,10.5-19.5,18.6-31.5,23.2c-5.5,2.1-11.4,3.8-17.2,4.8c-31.1,5-65.1-7.8-78.2-40.3c-4.6-11.5-11.2-28.2-4.8-40.3
		c3.6-6.8,11.7-10.2,18.5-11.5c12-2.2,23.7-3.1,35.2-7.9c3.3-1.4,6.5-3,9.6-4.9c2.9-1.8,5.6-4.3,8.9-5.1c3.4-0.8,2.9,5.3,2.8,7.9
		c19.4-6.1,20.8-18.6,27.1-11.3c2.8,3.2,5.7,6.3,9.3,8.4c-0.4-0.4,1.3-5.1,2.7-4.6c1.3,0.5,1.9,2.5,2.5,3.6
		c2.7,5.1,6.8,9.2,11.3,12.4c5.4,3.8,11.6,7.1,15.8,12.6c7.1,9.2,3.3,21.5,0,31.5C180.9,167.3,176.8,174.6,171.6,181z"/>
	<path class="st15" d="M26.6,91.5c0,0-0.5-14.1-9.5-22.7c-9-8.6-6.8-21.8,23.3-38.6c30.2-16.8,77.6-27.1,115-16.5
		c37.4,10.6,62.7,32.5,64.4,41.6c1.7,9-17.6,23.2-17.9,33.8c0,0-18.2-16.2-85.7-17.3C48.7,70.7,26.6,91.5,26.6,91.5z"/>
	<path class="st27" d="M38.6,45.2c2.1-1.4,4.1-2.9,6-4c5.7-3.2,12.7-4.9,18.9-2.3c7.4,3.2,13.9,3.4,20.6-1.4
		C87.7,35,91,31.8,95,30.2c3.9-1.5,7.4-1.9,11.4-0.4c4,1.5,7.1,5,11.3,6c10.8,2.6,18.8-7.3,29.1-8.4c9.8-1.1,17.3,7,25.9,10.4
		c2.8,1.1,5.7,2.3,8.7,2.9c2.2,0.4,8.4,1.3,9.6-1.6c5.6-13.3-28.3-21-34.6-22.7c-16.9-4.5-34.6-4.7-51.9-2.8
		c-16.7,1.9-33.7,6.2-49.3,12.7C46.7,29.8,37,34.3,30,40.4c-1.8,1.5-4.7,4.2-2.6,6.6C30,50.2,36.1,46.9,38.6,45.2z"/>
	<g>
		<path class="st26" d="M143.2,148.1c0,3.3-2.5,6-5.7,6c-3.1,0-5.6-2.7-5.6-6c0-3.3,2.5-6,5.6-6
			C140.7,142.1,143.2,144.8,143.2,148.1z"/>
		<path class="st28" d="M142.2,148.1c0,2.7-2.1,5-4.7,5s-4.7-2.2-4.7-5c0-2.7,2.1-5,4.7-5S142.2,145.3,142.2,148.1z"/>
		<path class="st29" d="M140.2,148.1c0,1.6-1.2,2.9-2.7,2.9c-1.5,0-2.7-1.3-2.7-2.9c0-1.6,1.2-2.9,2.7-2.9
			C139,145.2,140.2,146.5,140.2,148.1z"/>
		<path class="st30" d="M137.1,147.1c0,0.8-0.6,1.5-1.4,1.5c-0.8,0-1.4-0.7-1.4-1.5c0-0.8,0.6-1.5,1.4-1.5
			C136.4,145.6,137.1,146.3,137.1,147.1z"/>
		<ellipse class="st30" cx="140.4" cy="150.5" rx="0.8" ry="0.8"/>
	</g>
	<g>
		<path class="st26" d="M84.3,146.6c0,3.3-2.5,6-5.7,6c-3.1,0-5.6-2.7-5.6-6c0-3.3,2.5-6,5.6-6C81.8,140.6,84.3,143.3,84.3,146.6z"
			/>
		<path class="st28" d="M83.3,146.6c0,2.7-2.1,5-4.7,5c-2.6,0-4.7-2.2-4.7-5c0-2.7,2.1-5,4.7-5C81.2,141.6,83.3,143.9,83.3,146.6z"
			/>
		<path class="st29" d="M81.3,146.7c0,1.6-1.2,2.9-2.7,2.9c-1.5,0-2.7-1.3-2.7-2.9c0-1.6,1.2-2.9,2.7-2.9
			C80.1,143.7,81.3,145,81.3,146.7z"/>
		<path class="st30" d="M78.1,145.6c0,0.8-0.6,1.5-1.4,1.5c-0.8,0-1.4-0.7-1.4-1.5c0-0.8,0.6-1.5,1.4-1.5
			C77.5,144.1,78.1,144.8,78.1,145.6z"/>
		<path class="st30" d="M82.3,149c0,0.4-0.3,0.8-0.8,0.8c-0.4,0-0.8-0.4-0.8-0.8c0-0.4,0.3-0.8,0.8-0.8
			C81.9,148.2,82.3,148.5,82.3,149z"/>
	</g>
	<path class="st31" d="M129.6,183c-2.7-0.6-4.8-2.7-6-5.3c-0.2-0.5-0.8-0.2-0.7,0.3c0.5,1.4,1.3,3,2.4,4.1
		c-3.9,5.8-8.9,9.2-15.8,9.6c-7.7,0.4-15.2-4.6-18.7-11.8c-0.1-0.3-0.5-0.1-0.4,0.2c4.5,16.2,26.9,19,35.8,2.9
		c1,0.8,2.1,1.2,3.3,1.2C130.3,184.2,130.2,183.1,129.6,183z"/>
	<path class="st26" d="M129.8,182c-2.2-0.5-4.1-2.2-5.3-4.7c-0.2-0.5-0.7-0.8-1.2-0.8c-0.4,0-0.8,0.2-1.1,0.6
		c-0.3,0.4-0.3,0.8-0.2,1.3c0.4,1.4,1.2,2.8,2,3.9c-3.9,5.5-8.6,8.2-14.6,8.5c-7.2,0.4-14.4-4.2-17.8-11.3c-0.2-0.4-0.6-0.7-1.1-0.7
		c-0.4,0-0.7,0.2-1,0.5c-0.2,0.3-0.3,0.7-0.2,1.1c2.4,8.6,10,14.4,19.1,14.4c7.3,0,14-3.9,18-10.4c0.9,0.5,1.9,0.8,2.8,0.8l0.2,0
		c0.8,0,1.4-0.6,1.4-1.5C131.1,182.9,130.6,182.2,129.8,182z"/>
	<g class="st32">
		<path class="st33" d="M148.8,134.5c-0.8-3.6-2.4-6.7-4.5-8.5c-1.5-1.4-3.4-2.1-5.3-2.1c-3,0-6.1,1.7-8.2,4.5c-1,1.3-1.8,2.6-2.5,4
			c-0.4,0.8-0.9,1.9-1.2,3c-0.1,0.4-0.3,1.3,0.1,2.1c0.3,0.4,0.7,0.7,1.2,0.8l0.2,0c0.8,0,1.4-0.6,1.7-1l0.1-0.1
			c0.6-0.5,1.1-1,1.7-1.4c3.5-2.5,7.3-2.8,10.4-0.8c1.1,0.7,2.2,1.6,3.1,2.5c0.4,0.3,0.8,0.5,1.3,0.5c0.6,0,1.1-0.3,1.5-0.8
			C149,136.8,149.1,135.8,148.8,134.5z"/>
		<path class="st33" d="M87.8,132.4c-0.7-1.3-1.5-2.7-2.5-4c-2.2-2.8-5.3-4.5-8.2-4.5c-1.9,0-3.8,0.7-5.3,2.1
			c-2.1,1.8-3.7,5-4.5,8.6c-0.3,1.2-0.1,2.2,0.4,2.9c0.4,0.5,0.9,0.8,1.5,0.8c0.5,0,0.9-0.2,1.3-0.5c1-0.9,2-1.8,3.1-2.5
			c3.1-2.1,6.9-1.8,10.4,0.8c0.6,0.4,1.2,0.9,1.7,1.4l0.1,0.1c0.3,0.4,0.9,1,1.7,1l0.2,0c0.5-0.1,1-0.4,1.2-0.8
			c0.5-0.8,0.3-1.7,0.1-2.2C88.8,134.3,88.2,133.3,87.8,132.4z"/>
	</g>
	<g class="st5">
		<path class="st34" d="M51.3,62.9c-1-3.4-2.1-6.5-3.9-9.5c-0.1-0.1-0.3,0-0.2,0.1c3.3,6.1,5,13.7,5.6,20.6c0,0.4,0.6,0.4,0.6-0.1
			C53.3,70.2,52.3,66.5,51.3,62.9z"/>
		<path class="st34" d="M97.5,65c0.2-8.7-1.7-17.6-4.3-25.7c0-0.1-0.3-0.1-0.2,0.1c2.5,8.4,3.4,16.9,3.4,25.6
			C96.8,64.9,97.1,65,97.5,65z"/>
		<path class="st34" d="M137.3,65.8c-0.2-3.4-0.3-6.9,0-10.3c0.5-5.2,2.5-10.1,4.3-14.9c0.1-0.2-0.2-0.4-0.3-0.1
			c-2,4.6-3.9,9-4.7,14c-0.6,3.7-0.6,7.5-0.3,11.2C136.7,65.7,137,65.7,137.3,65.8z"/>
		<path class="st34" d="M189.1,53.2c-4.7,5.9-8.3,13.3-8,21.2c0,0.5,0.7,0.4,0.7-0.1c0.2-7.9,3-14.7,7.6-20.9
			C189.6,53.3,189.3,53,189.1,53.2z"/>
	</g>
	<path class="st35" d="M25.4,84c1.5,4.6,1.2,7.5,1.2,7.5s22.1-20.8,89.6-19.7C183.7,72.8,202,89,202,89c0.1-2.1,0.9-4.4,2.2-6.8
		c-15.6-10.6-42.4-19.8-87.9-19.8C62.8,62.5,37.2,74.2,25.4,84z"/>
	<path class="st36" d="M219.9,55.2c-0.6-3-3.7-7.4-9.1-12.4c2.3,4.5,3.3,10.3-0.3,14.4c-3.3,3.8-10.4,6.2-14.7,2.8
		c-3.9-3.1-4.7-7.9-3.9-12.7c-5,5.4-10.4,9.5-17.9,8.7c-8.5-0.9-16.1-3.4-23-8.6c-3.7-2.8-6.2-6.8-7.3-11
		C136.9,50.9,120,56,104.8,50c-3.8-1.5-8.5-4.6-11.6-8.6c-2.6,6.8-8.8,11.5-15.2,14.4c-8.5,3.9-18.1,3.3-26.4-0.8
		c-1.8-0.9-3.6-1.9-5-3.2c0.2,2.6-0.3,5.2-1.4,7.7C39.6,72,19.7,70.3,15.8,57.2C15,54.6,15,52.2,15.6,50c-5.1,7.6-3.5,13.9,1.5,18.8
		c9,8.7,9.5,22.7,9.5,22.7s22.1-20.8,89.6-19.7C183.7,72.8,202,89,202,89C202.3,78.4,221.6,64.3,219.9,55.2z"/>
	<path class="st37" d="M61.6,103.1c35-7.2,69-24.8,40.6-16.9c-28.3,7.9,15.7-12.5-12.5-7.2c-51.7,9.8,10.6-8.5-34.6,3.1
		c-32.8,8.4,26.8,0.5,3.3,5.2c-18.8,3.8-37.5,13.3-7.6,7c29.9-6.4,21.6-1.7-6.3,6.6C16.5,109.2,39.1,107.7,61.6,103.1z"/>
	<path class="st37" d="M168.4,98c19.8,22.1,36,26,29.5,21.3c-13.6-9.6-24-23.7-8.6-12.3c13.3,10,13.9,6.3,2.4-6.2
		c-8-8.7,20.7,9.5,6.5-6.3c-9.4-10.5-18-12.9-9.5-3.3c8.5,9.6-22-15.1-13-3.6c9,11.6,12.9,16.8-3.2,2.7
		C156.3,76.2,156.9,85.1,168.4,98z"/>
	<path class="st38" d="M147.4,134.9c-0.6-2.9-2-5.9-4-7.7c-3.7-3.3-8.6-1.5-11.5,2.2c-0.9,1.1-1.7,2.4-2.3,3.7
		c-0.4,0.9-0.9,1.8-1.1,2.7c-0.1,0.3-0.3,1,0.2,1c0.3,0,0.7-0.5,0.9-0.7c0.6-0.5,1.2-1,1.8-1.5c3.8-2.7,8.1-3.4,12-0.8
		c1.1,0.8,2.2,1.7,3.3,2.6C147.1,136.9,147.8,136.6,147.4,134.9z"/>
	<path class="st38" d="M69.4,136.5c1.1-0.9,2.1-1.8,3.3-2.6c3.9-2.6,8.3-1.9,12,0.8c0.6,0.5,1.2,1,1.8,1.5c0.2,0.2,0.6,0.8,0.9,0.7
		c0.4-0.1,0.3-0.7,0.2-1c-0.2-1-0.7-1.9-1.1-2.7c-0.7-1.3-1.5-2.6-2.4-3.7c-2.9-3.8-7.8-5.5-11.5-2.2c-2,1.8-3.4,4.8-4,7.7
		C68.3,136.6,68.9,136.9,69.4,136.5z"/>
	<g>
		<path class="st39" d="M147.4,134.9c-0.6-2.9-2-5.9-4-7.7c-3.7-3.3-8.6-1.5-11.5,2.2c-0.9,1.1-1.7,2.4-2.3,3.7
			c-0.4,0.9-0.9,1.8-1.1,2.7c-0.1,0.3-0.3,1,0.2,1c0.3,0,0.7-0.5,0.9-0.7c0.6-0.5,1.2-1,1.8-1.5c3.8-2.7,8.1-3.4,12-0.8
			c1.1,0.8,2.2,1.7,3.3,2.6C147.1,136.9,147.8,136.6,147.4,134.9z M145.1,134c-0.9-0.6-1.7-1.3-2.7-1.8c-3.2-1.8-6.7-1.4-9.7,0.5
			c-0.5,0.3-1,0.7-1.5,1c-0.2,0.1-0.5,0.5-0.7,0.5c-0.3,0-0.2-0.5-0.1-0.7c0.2-0.7,0.6-1.3,0.9-1.9c0.5-0.9,1.2-1.8,1.9-2.6
			c2.3-2.6,6.3-3.8,9.3-1.5c1.7,1.2,2.8,3.3,3.3,5.3C146.1,134.1,145.5,134.3,145.1,134z"/>
	</g>
	<g>
		<path class="st39" d="M69.4,136.5c1.1-0.9,2.1-1.8,3.3-2.6c3.9-2.6,8.3-1.9,12,0.8c0.6,0.5,1.2,1,1.8,1.5c0.2,0.2,0.6,0.8,0.9,0.7
			c0.4-0.1,0.3-0.7,0.2-1c-0.2-1-0.7-1.9-1.1-2.7c-0.7-1.3-1.5-2.6-2.4-3.7c-2.9-3.8-7.8-5.5-11.5-2.2c-2,1.8-3.4,4.8-4,7.7
			C68.3,136.6,68.9,136.9,69.4,136.5z M70.3,132.9c0.5-2,1.6-4.1,3.3-5.3c3-2.3,7-1.1,9.3,1.5c0.7,0.8,1.4,1.7,1.9,2.6
			c0.3,0.6,0.7,1.2,0.9,1.9c0.1,0.2,0.2,0.7-0.1,0.7c-0.2,0-0.6-0.4-0.7-0.5c-0.5-0.4-1-0.7-1.5-1c-3-1.9-6.6-2.3-9.7-0.5
			c-0.9,0.5-1.8,1.2-2.7,1.8C70.5,134.3,70,134.1,70.3,132.9z"/>
	</g>
	<g>
		<g>
			<g>
				<path class="st40" d="M51.6,328.8c-0.2,0.4-6.5,0.2-6.6,0.4v3.1c0,2.6,2.2,4.7,4.9,4.7h114.8c2.7,0,4.9-2.1,4.9-4.7v-3.1
					c-0.1-0.3-7.6-3.2-7.7-3.5L51.6,328.8z"/>
				<path class="st41" d="M169.5,329.2c0,2.6-0.5,4.7-4.9,4.7H49.9c-2.7,0-4.9-2.1-4.9-4.7l16.4-44.1c1.4-3.6,5.6-4.7,8.3-4.7h80.7
					c3.7,0,6.1,1.5,7.8,8.6L169.5,329.2z"/>
				<path class="st42" d="M167.7,329.1c0,2.5-2.1,4.5-4.6,4.5H51.5c-2.6,0-4.6-2-4.6-4.5L63.4,287c1.3-3.4,5.3-4.5,7.9-4.5h77.1
					c3.6,0,5.8,1.4,7.4,8.2L167.7,329.1z"/>
				<path class="st43" d="M118,282.5c-3.7,2.5-7.4,6-7.3,11.1c0.1,4,2.3,6.9,5.7,8.5c7.5,3.7,17.2,2.6,24.6-1.2
					c5-2.5,8.7-6.3,10.2-12.1c0.4-1.7,0.7-3.7,0.6-5.6c-1-0.5-2.1-0.7-3.4-0.7H118z"/>
				<path class="st43" d="M69.5,282.7c-2.4,1.9-4.5,3.9-5.6,7.3c-1.2,4-0.4,7.8,3.4,9.8c6.3,3.3,15,2,21.4-0.2
					c6-2.1,14.8-5.7,18.2-11.7c1-1.8,1.5-3.6,1.5-5.4h-37C70.8,282.5,70.1,282.6,69.5,282.7z"/>
				<path class="st43" d="M92.2,301.7c-0.1,0-0.3,0-0.4,0c-1.5,0.6-3,1.3-4.5,1.9c-4.6,2-9.1,4.6-13.9,5.8c-0.3,0.1-0.6-0.1-0.7-0.3
					c-3.1,1.1-6.1,2.4-8.9,4.1c-3.9,2.4-11.1,7.5-10.6,13.2c0.5,5.4,5.8,6.9,10.4,7.3h8.4c3.3-0.3,6.6-0.8,9.8-1.8
					c8.3-2.5,18.7-8.2,21-18C104.5,306.5,98.3,302,92.2,301.7z"/>
				<path class="st43" d="M159.3,321c2.8-4.4,3.6-11.6-1.8-14.2c-3.6-1.7-7.8-1.6-11.6-1c-5.5,1-10.9,2.9-16.1,4.8
					c-4.6,1.6-9.3,2.8-13.9,4.3c-3,4.2-4.8,11.2-1.1,15.1c3.3,3.5,8.4,3.5,12.8,3.5c6.3-0.1,12.6-1,18.6-3.4
					C150.9,328.3,156.3,325.6,159.3,321z"/>
			</g>
			<g>
				<g>
					<path class="st44" d="M105.5,274.3c-3.2-3.1-7.6-2.9-11.6-2.4c-5.8,0.7-11.2,2.1-16.5,4.8c-3.7,1.9-8.1,4.2-10.7,7.6
						c-1.5,2-2.6,4.9-2.2,7.5c0.6,3.5,4.3,5.6,7.2,6.7c5.9,2.1,11.9,1.3,17.6-0.8c5.7-2.1,11.7-5.6,15.8-10.3
						C108,284.1,108.8,277.5,105.5,274.3z"/>
					<path class="st45" d="M105.5,274.3c-0.5-0.5-1.1-1-1.8-1.3c0.3,0.6,0.6,1.2,0.7,2c1.9,8.9-8.4,15.6-14.7,18.6
						c-5.6,2.6-11.2,4.1-17.4,3.3c-2.4-0.3-5.8-1.6-7.6-3.8c1.1,2.8,4.3,4.5,6.8,5.4c5.9,2.1,11.9,1.3,17.6-0.8
						c5.7-2.1,11.7-5.6,15.8-10.3C108,284.1,108.8,277.5,105.5,274.3z"/>
					<path class="st46" d="M101.4,276.5c-1-4.9-9.6-5.9-12.8-3.5c-0.3,0.2-0.1,0.8,0.2,0.7c2.5-0.1,4.7,0.5,7,1.6
						c1.6,0.7,2.9,2,4.6,2.3C101.1,277.8,101.5,277.2,101.4,276.5z"/>
					<path class="st46" d="M94.1,282.4c-2-7.1-13.5-6.9-18.3-4c-0.3,0.2-0.1,0.7,0.2,0.7c6.3-1.1,11.3,2.1,16.8,4.5
						C93.6,284,94.3,283.2,94.1,282.4z"/>
					<path class="st46" d="M84.1,287.8c-2.3-5.7-12.3-7-16.8-3.8c-0.3,0.2-0.1,0.7,0.2,0.7c3.1-0.1,5.7-0.1,8.7,1.2
						c2.3,1,4.3,2.8,6.7,3.5C83.7,289.6,84.4,288.6,84.1,287.8z"/>
					<path class="st46" d="M97.8,274.2c-3.3-2-6-2-9-0.5c0,0,0,0,0,0c2.5-0.1,4.7,0.5,7,1.6c1.6,0.7,2.9,2,4.6,2.3
						c0.2,0,0.3,0,0.4-0.1C100.2,276.3,99.2,275.1,97.8,274.2z"/>
					<path class="st46" d="M77,278.9c5.8-0.7,10.6,2.4,15.8,4.7c0,0,0.1,0,0.1,0C89.4,278.2,83,276.2,77,278.9z"/>
					<path class="st46" d="M78.3,284.8c-3.7-1.7-7-1.7-10-0.1c2.8-0.1,5.2,0.1,7.9,1.2c2.3,1,4.3,2.8,6.7,3.5c0.1,0,0.2,0,0.3,0
						C82.1,287.4,80.5,285.8,78.3,284.8z"/>
				</g>
				<g>
					<path class="st47" d="M99.6,303.7c-3.5-3.5-8.5-3.2-12.9-2.7c-6.5,0.8-12.5,2.4-18.4,5.4c-4.1,2.1-9,4.6-11.9,8.4
						c-1.7,2.2-2.9,5.5-2.4,8.3c0.7,3.9,4.7,6.2,8,7.4c6.5,2.4,13.3,1.4,19.6-0.9c6.3-2.3,12.9-6.2,17.6-11.4
						C102.4,314.6,103.3,307.4,99.6,303.7z"/>
					<path class="st22" d="M100,304.1c3,8.8-9.8,16.9-15.8,19.8c-7.4,3.6-22.3,8.9-28.8,0.3c-0.6-0.9-1.1-1.7-1.4-2.6
						c0,0.5,0,1.1,0.1,1.6c0.7,3.9,4.7,6.2,8,7.4c6.5,2.4,13.3,1.4,19.6-0.9c6.3-2.3,12.9-6.2,17.6-11.4
						C102.3,314.7,103.2,307.9,100,304.1z"/>
					<path class="st46" d="M95,306.3c-1.1-5.4-10.6-6.6-14.2-3.9c-0.4,0.3-0.1,0.8,0.3,0.8c2.8-0.1,5.3,0.6,7.8,1.7
						c1.7,0.8,3.3,2.3,5.1,2.6C94.8,307.6,95.2,306.9,95,306.3z"/>
					<path class="st46" d="M86.9,312.8c-2.2-7.9-15-7.6-20.3-4.4c-0.3,0.2-0.1,0.8,0.2,0.7c7-1.3,12.5,2.4,18.6,5
						C86.4,314.5,87.2,313.7,86.9,312.8z"/>
					<path class="st46" d="M75.8,318.8c-2.6-6.3-13.7-7.8-18.7-4.3c-0.3,0.2-0.1,0.8,0.3,0.8c3.5-0.2,6.3-0.1,9.6,1.3
						c2.6,1.1,4.8,3.1,7.4,3.9C75.4,320.8,76.2,319.7,75.8,318.8z"/>
					<path class="st46" d="M82,303.2c2.4,0,4.6,0.7,6.9,1.7c1.7,0.8,3.3,2.3,5.1,2.6c0.4,0.1,0.7-0.1,0.9-0.4c0-0.1-0.1-0.1-0.1-0.2
						C91.6,303.3,86.5,301.6,82,303.2z"/>
					<path class="st46" d="M68.4,308.9c6.3-0.5,11.5,2.8,17.1,5.2c0.2,0.1,0.4,0.1,0.6,0.1C81.7,309,74.6,306.4,68.4,308.9z"/>
					<path class="st46" d="M57.9,315.3c3.3-0.1,6,0,9.2,1.3c2.6,1.1,4.8,3.1,7.4,3.9c0.1,0,0.1,0,0.2,0
						C70.3,315.5,63.6,312.1,57.9,315.3z"/>
				</g>
				<g>
					<path class="st44" d="M151.8,283.2c0.4-2.8-0.3-5.6-2.7-8c-2.2-2.2-5.4-3.1-8.3-3.4c-7-0.6-14.5,2-20.4,5.9
						c-3.2,2.2-6.4,5.1-8.6,8.5c-2.2,3.4-2.7,7.4-0.4,10.9c2.5,3.7,7.7,4,11.6,4.1c2.9,0.1,5.7-0.3,8.5-1c5.3-1.3,11.2-3.5,15.2-7.6
						C149.2,290.1,151.3,286.7,151.8,283.2z"/>
					<path class="st45" d="M149.1,275.3c-1.7-1.8-4.1-2.7-6.5-3.1c3.3,0.8,6,2.8,5.9,7c-0.4,8.1-9.5,15-16.1,17.6
						c-5.5,2.2-16.5,5-20.6-1.6c-1.1-1.7-1.6-3.6-1.6-5.5c-0.7,2.5-0.4,5.1,1.2,7.5c2.5,3.7,7.7,4,11.6,4.1c2.9,0.1,5.7-0.3,8.5-1
						c5.3-1.3,11.2-3.5,15.2-7.6c2.5-2.6,4.6-6,5-9.4C152.2,280.5,151.5,277.7,149.1,275.3z"/>
					<path class="st46" d="M145.7,279c-2.1-6.4-12.1-6.8-16.7-3.8c-0.3,0.2-0.1,0.8,0.2,0.7c3-0.6,5.8-0.2,8.7,0.8
						c2.4,0.9,4.4,2.8,6.9,3.4C145.4,280.3,145.9,279.6,145.7,279z"/>
					<path class="st46" d="M138.9,284.8c-3-6.5-13.1-8.7-18.5-4.9c-0.4,0.2-0.2,0.9,0.3,0.9c6.3-1.1,11.4,1.4,16.2,5.5
						C137.8,287.1,139.5,286.1,138.9,284.8z"/>
					<path class="st46" d="M131.3,290.6c-2.1-6.1-13.7-7.4-17.8-3.2c-0.3,0.3,0.1,0.7,0.4,0.6c3.6-0.9,6.1-0.5,9.5,0.8
						c2.2,0.9,4,2.5,6.2,3.4C130.5,292.6,131.7,291.7,131.3,290.6z"/>
					<path class="st46" d="M130.7,275.8c2.5-0.2,4.8,0.2,7.2,1c2.4,0.9,4.3,2.8,6.7,3.3C141.2,276.1,135.7,273.8,130.7,275.8z"/>
					<path class="st46" d="M121.7,280.7c5.8-0.7,10.6,1.8,15.2,5.6c0.4,0.3,0.8,0.3,1.2,0.2C135,280.9,127.3,278.1,121.7,280.7z"/>
					<path class="st46" d="M115.3,287.7c2.9-0.5,5.1-0.1,8,1.1c2.2,0.9,4,2.5,6.2,3.4c0.3,0.1,0.6,0.1,0.9,0
						C127.2,287.4,120.4,285,115.3,287.7z"/>
				</g>
				<g>
					<path class="st47" d="M159.4,311.7c0.4-3.1-0.3-6.2-3-8.9c-2.4-2.5-6-3.5-9.3-3.8c-7.9-0.7-16.3,2.2-22.8,6.6
						c-3.6,2.4-7.2,5.7-9.6,9.5c-2.5,3.8-3.1,8.3-0.4,12.1c2.8,4.2,8.6,4.5,13,4.6c3.2,0.1,6.4-0.3,9.5-1.1c6-1.4,12.6-3.9,17-8.6
						C156.5,319.4,158.8,315.6,159.4,311.7z"/>
					<path class="st22" d="M158.3,305.5c-0.4,9.4-11.4,16.6-18.6,20c-6.1,2.9-18.8,7.2-24.6,1.1c-1.6-1.7-2.4-3.7-2.6-5.8
						c-0.2,2.2,0.3,4.4,1.7,6.5c2.8,4.2,8.6,4.5,13,4.6c3.2,0.1,6.4-0.3,9.5-1.1c6-1.4,12.6-3.9,17-8.6c2.8-2.9,5.1-6.7,5.6-10.5
						C159.6,309.6,159.4,307.5,158.3,305.5z"/>
					<path class="st46" d="M152.6,307c-2.3-7.2-13.6-7.7-18.7-4.2c-0.3,0.2-0.1,0.9,0.3,0.8c3.4-0.6,6.5-0.3,9.7,0.9
						c2.7,1,4.9,3.2,7.7,3.8C152.2,308.5,152.8,307.7,152.6,307z"/>
					<path class="st46" d="M144.9,313.5c-3.3-7.2-14.7-9.7-20.7-5.4c-0.4,0.3-0.2,1.1,0.3,1c7-1.3,12.7,1.6,18.1,6.1
						C143.7,316,145.6,314.9,144.9,313.5z"/>
					<path class="st46" d="M136.4,319.9c-2.4-6.8-15.4-8.3-19.9-3.6c-0.3,0.4,0.1,0.8,0.5,0.7c4-1,6.8-0.6,10.6,0.9
						c2.5,1,4.5,2.8,6.9,3.8C135.6,322.2,136.9,321.2,136.4,319.9z"/>
					<path class="st46" d="M134.1,303.6C134.1,303.6,134.1,303.6,134.1,303.6c3.4-0.6,6.5-0.3,9.7,0.9c2.7,1,4.9,3.2,7.7,3.8
						c0.3,0.1,0.7-0.1,0.9-0.3C147.3,303,141.1,300.3,134.1,303.6z"/>
					<path class="st46" d="M136.1,307.9c-4.2-1.4-7.6-0.8-11.1,1.1c6.8-1.1,12.4,1.7,17.7,6.2c0.4,0.3,0.9,0.4,1.3,0.2
						C142.5,311.8,139.7,309.2,136.1,307.9z"/>
					<path class="st46" d="M127.3,315.4c-3.1-0.6-6.6-0.3-9.3,1.5c3.5-0.7,6.1-0.3,9.6,1.1c2.5,1,4.5,2.8,6.9,3.8
						c0.1,0.1,0.3,0.1,0.4,0.1C133.6,318.5,131,316.1,127.3,315.4z"/>
				</g>
			</g>
		</g>
		<g>
			<path class="st22" d="M137.1,277.1c-0.7-0.2-1.5-0.3-2.2-0.4c-0.7-0.1-1.5-0.2-2.2-0.3c-1.6-0.1-3.1-0.1-4.7,0.3
				c-0.4,0.1-1,0.2-1.2,0.5c-0.3,0.6,1.1,0.2,2.6,0.4c2.6,0.4,5.2,1.3,7.2,3c0.9,0.8,2.2,2.2,3.5,1.9c1.6-0.4,1.4-2.5,0.6-3.4
				C139.8,278,138.5,277.5,137.1,277.1z"/>
			<path class="st22" d="M129.1,283.1c-0.7-0.1-1.3-0.2-2-0.3c-0.7-0.1-1.3-0.1-2-0.2c-1.4-0.1-2.8,0-4.1,0.3
				c-0.3,0.1-0.9,0.1-1.1,0.4c-0.3,0.4,1,0.1,2.3,0.3c2.3,0.3,4.6,0.9,6.4,2.3c0.8,0.6,1.9,1.7,3.1,1.4c1.4-0.3,1.2-1.9,0.5-2.6
				C131.5,283.8,130.3,283.4,129.1,283.1z"/>
			<path class="st22" d="M121.8,289.4c-2.1-0.8-5.1-0.1-5.6,0.5c-0.6,0.6,0.8,0.7,1.4,0.8c1.2,0.3,2.3,1.1,3.4,1.7
				c0.8,0.4,2.1,0.7,2.6-0.3C124.3,290.8,123.1,289.9,121.8,289.4z"/>
		</g>
		<g>
			<path class="st22" d="M93.3,274.8c-0.7-0.2-1.5-0.3-2.2-0.4c-0.7-0.1-1.5-0.2-2.2-0.3c-1.6-0.1-3.1-0.1-4.7,0.3
				c-0.3,0.1-1,0.2-1.2,0.5c-0.3,0.6,1.1,0.2,2.6,0.4c2.6,0.4,5.2,1.3,7.2,3c0.9,0.8,2.2,2.2,3.5,1.9c1.6-0.4,1.4-2.5,0.6-3.4
				C95.9,275.7,94.6,275.1,93.3,274.8z"/>
			<path class="st22" d="M82,280.4c-0.6-0.2-1.3-0.3-1.9-0.4c-0.6-0.1-1.3-0.2-2-0.2c-1.4-0.1-2.8-0.1-4.1,0.2
				c-0.3,0.1-0.9,0.1-1.1,0.4c-0.3,0.4,1,0.1,2.3,0.3c2.3,0.3,4.6,1,6.4,2.4c0.8,0.6,1.9,1.7,3.1,1.5c1.4-0.3,1.2-1.9,0.5-2.6
				C84.4,281.2,83.2,280.7,82,280.4z"/>
			<path class="st22" d="M72.4,286.1c-2.1-0.8-5.1-0.1-5.6,0.5c-0.6,0.6,0.8,0.7,1.4,0.8c1.2,0.3,2.3,1.1,3.5,1.7
				c0.8,0.4,2.1,0.8,2.6-0.3C74.9,287.5,73.7,286.6,72.4,286.1z"/>
		</g>
		<g>
			<path class="st22" d="M85.7,304.4c-0.7-0.2-1.5-0.3-2.2-0.4c-0.7-0.1-1.5-0.2-2.2-0.3c-1.6-0.1-3.1-0.1-4.7,0.3
				c-0.4,0.1-1,0.2-1.2,0.5c-0.3,0.6,1.1,0.2,2.6,0.4c2.6,0.4,5.2,1.3,7.2,3c0.9,0.8,2.2,2.2,3.5,1.9c1.6-0.4,1.4-2.5,0.6-3.4
				C88.3,305.3,87,304.7,85.7,304.4z"/>
			<path class="st22" d="M73,311c-0.6-0.2-1.3-0.3-1.9-0.4c-0.7-0.1-1.3-0.2-2-0.2c-1.4-0.1-2.8-0.1-4.1,0.2
				c-0.3,0.1-0.9,0.1-1.1,0.4c-0.3,0.4,1,0.1,2.3,0.3c2.3,0.3,4.6,1,6.4,2.4c0.8,0.6,1.9,1.7,3.1,1.5c1.4-0.3,1.2-1.9,0.5-2.6
				C75.3,311.7,74.2,311.2,73,311z"/>
			<path class="st22" d="M63.4,316.6c-2.1-0.8-5.1-0.1-5.6,0.5c-0.6,0.6,0.8,0.7,1.4,0.8c1.2,0.3,2.3,1.1,3.4,1.7
				c0.8,0.4,2.1,0.8,2.6-0.3C65.9,318,64.7,317.1,63.4,316.6z"/>
		</g>
		<g>
			<path class="st22" d="M142.8,305c-0.7-0.2-1.5-0.4-2.2-0.5c-0.7-0.1-1.5-0.2-2.2-0.3c-1.6-0.1-3.1-0.1-4.7,0.2
				c-0.4,0.1-1,0.2-1.2,0.5c-0.3,0.6,1.1,0.2,2.5,0.5c2.6,0.5,5.1,1.4,7.2,3.2c0.9,0.8,2.1,2.2,3.5,2c1.6-0.3,1.4-2.4,0.7-3.4
				C145.4,306,144.1,305.4,142.8,305z"/>
			<path class="st22" d="M133.1,311.6c-0.6-0.2-1.3-0.3-1.9-0.4c-0.6-0.1-1.3-0.2-2-0.3c-1.4-0.1-2.8-0.1-4.1,0.1
				c-0.3,0-0.9,0.1-1.1,0.4c-0.3,0.4,1,0.2,2.2,0.4c2.3,0.4,4.5,1.1,6.3,2.5c0.8,0.6,1.9,1.7,3.1,1.5c1.4-0.2,1.3-1.9,0.6-2.6
				C135.4,312.4,134.3,311.9,133.1,311.6z"/>
			<path class="st22" d="M124.4,318.2c-2.1-0.9-5.1-0.2-5.6,0.3c-0.6,0.6,0.8,0.7,1.4,0.8c1.2,0.3,2.3,1.2,3.4,1.8
				c0.8,0.4,2.1,0.8,2.6-0.2C126.9,319.7,125.7,318.7,124.4,318.2z"/>
		</g>
		<path class="st48" d="M149.7,312.7c-0.4,0-0.4,0.7,0.1,0.7C150.2,313.4,150.1,312.7,149.7,312.7z"/>
		<path class="st48" d="M148.8,309.7c-0.6,0-0.5,1,0.1,1C149.5,310.8,149.4,309.7,148.8,309.7z"/>
		<path class="st48" d="M154,306.7c-0.7,0-0.6,1.1,0.1,1.1C154.7,307.7,154.6,306.7,154,306.7z"/>
		<path class="st48" d="M151.7,302.1c-0.6,0-0.5,0.9,0.1,0.9C152.4,303,152.3,302.1,151.7,302.1z"/>
		<path class="st48" d="M130.6,304.1C130.6,304.1,130.5,304.1,130.6,304.1c0-0.6-0.8-0.5-0.8,0c0,0.2,0.1,0.3,0.3,0.4
			C130.3,304.7,130.7,304.4,130.6,304.1z"/>
		<path class="st48" d="M133.2,309.9c-0.3-0.1-0.6,0.3-0.4,0.6c0,0,0,0,0,0c0.1,0.2,0.3,0.2,0.5,0.1c0,0,0,0,0,0
			C133.6,310.4,133.5,309.9,133.2,309.9z"/>
		<path class="st48" d="M122,310C122,310,122,310,122,310c-0.3-0.6-1.1-0.3-0.9,0.2c0,0,0,0.1,0,0.1
			C121.4,310.9,122.3,310.6,122,310z"/>
		<path class="st48" d="M127.5,312.4c-0.5,0-0.4,0.8,0.1,0.8C128.1,313.2,128,312.4,127.5,312.4z"/>
		<path class="st48" d="M138.1,313.1c-0.5,0-0.4,0.8,0.1,0.8C138.7,313.9,138.6,313.1,138.1,313.1z"/>
		<path class="st48" d="M143.2,317.2L143.2,317.2c-0.1-0.6-0.7-0.4-0.8,0c0,0,0,0.1,0,0.1C142.2,318,143.4,318,143.2,317.2z"/>
		<path class="st48" d="M138.2,318.4c-0.4,0-0.4,0.7,0.1,0.7C138.7,319.1,138.7,318.4,138.2,318.4z"/>
		<path class="st48" d="M130.6,322.8c-0.1,0-0.1,0-0.2-0.1c-0.2-0.1-0.4,0.1-0.5,0.3c0,0,0,0.1,0,0.1c0,0.2,0.1,0.4,0.2,0.5
			c0,0,0.1,0,0.1,0.1C130.7,323.9,131.1,323,130.6,322.8z"/>
		<path class="st48" d="M127.1,319.8L127.1,319.8c0,0.7,1,0.6,1,0v-0.1C128.1,319,127.1,319.1,127.1,319.8z"/>
		<path class="st48" d="M114.3,319.6c-0.4,0-0.4,0.7,0.1,0.7C114.8,320.3,114.7,319.6,114.3,319.6z"/>
		<path class="st48" d="M118.3,324.6C118.3,324.6,118.3,324.6,118.3,324.6c-0.5-0.5-1,0.7-0.3,0.7c0.3,0,0.4-0.1,0.5-0.4
			C118.5,324.8,118.4,324.7,118.3,324.6z"/>
		<path class="st48" d="M121.2,321c-0.6,0-0.5,0.9,0.1,0.9C121.8,321.9,121.8,321,121.2,321z"/>
		<path class="st48" d="M125.5,327.2L125.5,327.2c-0.4-0.8-1.2,0.5-0.4,0.6c0,0,0.1,0,0.1,0C125.5,327.8,125.7,327.5,125.5,327.2z"
			/>
		<path class="st48" d="M118.8,312.2c-0.3,0-0.3,0.5,0,0.5C119.2,312.7,119.1,312.2,118.8,312.2z"/>
		<path class="st48" d="M56.5,318.1C56.5,318.1,56.5,318.1,56.5,318.1c0.1,0.4,0.5,0.3,0.6,0c0,0,0-0.1,0-0.1
			C57.3,317.5,56.4,317.5,56.5,318.1z"/>
		<path class="st48" d="M57.2,322.1c-0.1-0.1-0.2-0.1-0.4-0.2c-0.6-0.1-0.6,0.9,0,0.8c0.2,0,0.3-0.1,0.4-0.2
			C57.3,322.4,57.3,322.2,57.2,322.1z"/>
		<path class="st48" d="M63.6,321.3c-0.1-0.6-0.9-0.5-0.8,0.1c0,0,0,0.1,0,0.1c0,0.2,0.2,0.4,0.3,0.4c0,0,0.1,0,0.1,0
			c0.2,0,0.3-0.1,0.4-0.3C63.6,321.5,63.6,321.4,63.6,321.3z"/>
		<path class="st48" d="M65.5,325.2c-0.1-0.1-0.1-0.1-0.2-0.2c-0.7-0.4-0.8,1.3,0.1,0.8c0,0,0.1-0.1,0.1-0.1
			C65.6,325.6,65.6,325.4,65.5,325.2z"/>
		<path class="st48" d="M67.7,320.1c-0.3,0.2-0.2,0.9,0.3,0.8c0,0,0,0,0.1,0c0.2,0,0.3-0.1,0.3-0.3c0,0,0,0,0-0.1
			C68.4,320.1,68,319.8,67.7,320.1z"/>
		<path class="st48" d="M68.4,309.1c-0.5,0-0.4,0.8,0.1,0.8C69,309.9,68.9,309.1,68.4,309.1z"/>
		<path class="st48" d="M79.7,312.9L79.7,312.9c-0.1,0.7,0.8,0.9,0.9,0.3c0,0,0,0,0-0.1C80.8,312.5,79.7,312.3,79.7,312.9z"/>
		<path class="st48" d="M73.1,313.4c-0.1,0-0.2,0-0.3,0.1c-0.1,0.1-0.1,0.3,0,0.4c0.1,0.1,0.1,0.2,0.3,0.2
			C73.5,314.1,73.5,313.3,73.1,313.4z"/>
		<path class="st48" d="M65.5,311.5c0,0-0.1,0.1-0.1,0.1c-0.2,0.2-0.2,0.3-0.1,0.6c0.1,0.3,0.4,0.2,0.6,0
			C66.4,311.9,65.9,311.2,65.5,311.5z"/>
		<path class="st48" d="M77.8,304c-0.1,0-0.1,0-0.2-0.1c-0.5-0.4-1.1,0.5-0.5,0.8c0.3,0.2,0.6,0,0.8-0.3C78,304.3,78,304.1,77.8,304
			z"/>
		<path class="st48" d="M92.8,307.7c0,0-0.1-0.1-0.1-0.1c-0.2-0.3-0.6-0.2-0.7,0.1c-0.1,0.1-0.2,0.3-0.1,0.4c0,0.1,0.1,0.1,0.1,0.2
			c0.1,0.2,0.3,0.2,0.5,0.2l0.1,0C92.8,308.3,93,307.9,92.8,307.7z"/>
		<path class="st48" d="M84.7,304.8c0-0.1-0.1-0.2-0.2-0.2c-0.1-0.1-0.3-0.1-0.4,0c-0.4,0.2-0.5,0.8,0,1
			C84.5,305.8,85,305.3,84.7,304.8z"/>
		<path class="st48" d="M94.5,301.9c-0.2-0.2-0.4-0.2-0.6-0.2c-0.6,0-0.5,1,0.1,0.9c0.2,0,0.4-0.1,0.5-0.2
			C94.7,302.3,94.6,302.1,94.5,301.9z"/>
		<path class="st48" d="M98.7,304.6c-0.6,0-0.5,1,0.1,1C99.3,305.6,99.3,304.6,98.7,304.6z"/>
		<path class="st48" d="M91.5,310.9c-0.5,0-0.4,0.8,0.1,0.8C92,311.6,91.9,310.9,91.5,310.9z"/>
		<path class="st48" d="M100.7,272.7c-0.3-0.5-1.1,0.2-0.5,0.6c0.1,0.1,0.2,0.1,0.3,0.1c0.1,0,0.2-0.2,0.2-0.3
			C100.8,272.9,100.8,272.8,100.7,272.7z"/>
		<path class="st48" d="M101.6,279.1c0,0-0.1,0.1-0.1,0.1c-0.2,0.3,0,0.7,0.3,0.7c0,0,0.1,0,0.1,0
			C102.8,279.7,102,278.5,101.6,279.1z"/>
		<path class="st47" d="M100.1,278.9c-0.6,0-0.6,1.1,0.1,1.1C100.8,280,100.7,278.9,100.1,278.9z"/>
		<path class="st47" d="M100.4,281.9c-0.1,0-0.1,0.1-0.2,0.2c-0.2,0.2-0.1,0.5,0,0.6c0.1,0.1,0.1,0.1,0.2,0.2
			c0.3,0.2,0.7-0.2,0.7-0.5C101.1,281.9,100.7,281.7,100.4,281.9z"/>
		<path class="st47" d="M94.7,281.2C94.7,281.2,94.6,281.3,94.7,281.2c-0.1,0.5,0.4,0.8,0.7,0.4c0,0,0-0.1,0.1-0.1
			C95.8,281,94.8,280.5,94.7,281.2z"/>
		<path class="st47" d="M89.5,286.6c-0.4,0-0.4,0.7,0.1,0.7C90,287.3,89.9,286.6,89.5,286.6z"/>
		<path class="st47" d="M86.7,281.9c-0.3-0.3-0.7,0-0.7,0.4c0,0,0,0.1,0,0.1c0,0.2,0.2,0.3,0.4,0.3c0,0,0.1,0,0.1,0
			C86.8,282.7,87,282.1,86.7,281.9z"/>
		<path class="st47" d="M73,280.5c-0.1,0.1-0.1,0.2-0.1,0.4c0,0.1,0.1,0.2,0.2,0.2c0.1,0,0.2,0,0.3-0.1
			C73.7,280.6,73.2,280.1,73,280.5z"/>
		<path class="st47" d="M76.6,289.1C76.6,289.2,76.6,289.2,76.6,289.1c0,0.3,0.1,0.4,0.2,0.5c0,0,0,0,0.1,0c0.2,0,0.4-0.1,0.4-0.3
			c0,0,0-0.1,0-0.1C77.5,288.6,76.6,288.5,76.6,289.1z"/>
		<path class="st47" d="M67.8,289c-0.4,0-0.4,0.7,0.1,0.7C68.3,289.7,68.3,289,67.8,289z"/>
		<path class="st47" d="M68.7,292.3c-0.4,0-0.3,0.6,0.1,0.6C69.2,293,69.1,292.3,68.7,292.3z"/>
		<path class="st47" d="M74.7,292.4L74.7,292.4c-0.5-0.4-1,0.5-0.4,0.8c0,0,0,0,0.1,0C74.8,293.6,75.1,292.7,74.7,292.4z"/>
		<path class="st47" d="M115,291.6C114.9,291.5,114.9,291.5,115,291.6c-0.1-0.1-0.2-0.2-0.3-0.1c0,0,0,0,0,0
			C114.2,292,115.3,292,115,291.6z"/>
		<path class="st47" d="M117,282.2c-0.5,0-0.4,0.8,0.1,0.8C117.6,283.1,117.5,282.2,117,282.2z"/>
		<path class="st47" d="M124.8,276.7c-0.3-0.1-0.6,0.3-0.5,0.6c0.1,0.3,0.6,0.5,0.8,0.2C125.4,277.1,125.2,276.8,124.8,276.7z"/>
		<path class="st47" d="M144.8,274c-0.1-0.8-1.1-0.1-0.6,0.3c0.1,0.1,0.3,0.2,0.5,0.1c0.1-0.1,0.2-0.2,0.1-0.3
			C144.8,274.1,144.8,274.1,144.8,274z"/>
		<path class="st47" d="M144.7,283.4C144.7,283.1,144.8,283.2,144.7,283.4c-0.1,0.1-0.1,0.2,0,0.4c0.1,0.1,0.2,0.2,0.3,0.3
			c0.2,0.1,0.4,0.1,0.5,0c0.2-0.1,0.2-0.3,0.3-0.5C146,282.7,144.7,282.5,144.7,283.4z"/>
		<path class="st47" d="M137.9,286.7C137.9,286.7,137.9,286.7,137.9,286.7c0.1,0.6,0.9,0.4,1,0c0,0,0,0,0,0
			C139.2,285.8,137.7,285.7,137.9,286.7z"/>
		<path class="st47" d="M134.4,291.2c-0.1,0-0.1,0.1-0.2,0.2c-0.2,0.2-0.2,0.5,0.1,0.7c0.2,0.1,0.3,0.1,0.6,0
			C135.4,291.8,134.9,290.8,134.4,291.2z"/>
		<path class="st47" d="M132.2,286.4c-0.6,0-0.5,1,0.1,1C132.8,287.3,132.7,286.4,132.2,286.4z"/>
		<path class="st47" d="M125,291.3c-0.6,0-0.5,1,0.1,1C125.6,292.3,125.5,291.3,125,291.3z"/>
		<path class="st47" d="M123.5,295C123.5,295,123.6,295,123.5,295c-0.1,0.1-0.1,0.3,0.1,0.3c0.1,0,0.2,0,0.3-0.1
			C124.3,294.9,123.6,294.5,123.5,295z"/>
		<path class="st47" d="M118.1,293.5c-0.4,0-0.3,0.6,0,0.6C118.5,294.2,118.5,293.5,118.1,293.5z"/>
		<path class="st47" d="M117.2,289c-0.1,0-0.2,0.1-0.2,0.2c-0.1,0.1-0.1,0.3,0,0.5c0.1,0.1,0.1,0.1,0.2,0.2
			C118,290.2,117.9,288.8,117.2,289z"/>
		<path class="st47" d="M115.5,287c-0.3,0-0.3,0.6,0,0.6C115.9,287.6,115.8,287,115.5,287z"/>
		<path class="st47" d="M122.5,281.2c-0.6,0-0.5,1,0.1,1C123.2,282.2,123.1,281.2,122.5,281.2z"/>
	</g>
	<g>
		<path class="st24" d="M176,257.1c-0.3-0.6-0.7,1.6-1,1.2c-0.9-1.3-2.6-1.2-3.9-1.1c-3.1,0.4-7.7,0.2-9.6,3.3
			c-0.3,0.5-0.1,1.2,0.5,1.3c3.6,7.8,3.4,17.3,1.1,25.7c-0.9-0.1-1.9,0.2-2.9,1c-1.2,1-2.1,2.3-3.4,3.2c-1.6,1.2-3.4,1.9-5.2,2.8
			c-1.7,0.9-2.7,2.6-1.4,4.4c1,1.4,3.2,2.1,4.8,2.3c2.2,0.2,4.2-0.6,5.9-2c0.5,1.8,4.5,16.5,4.8,16.5c3.8-0.7,7-4.7,8.4-8.3
			c1-2.6,1.1-5,0.6-7.3c4.5-4.4,6.6-11.3,6.7-17.7C181.8,274.8,180.8,263.1,176,257.1z"/>
		<path class="st49" d="M157.3,292.3c-1.9,1.2-3.9,1.8-5.9,2.7c0,0-0.1,0-0.1,0c-1.2,0.9-2,2.9,0.1,3.1c1.6,0.1,2.5-1.2,3.6-2.1
			c1.4-1.1,3.1-1.5,4.6-2.2c1.1-0.5,4.3-2.8,2.9-4.5C161.5,288,158.2,291.7,157.3,292.3z"/>
		<path class="st49" d="M169,287c0.4-0.1,0.8-0.4,1.1-0.7c2.9-3.7,3.1-10.3,0.7-14.3c-0.5-0.8-1.5-1.8-2.4-1.7c-1.1,0.1-1,1.3-1,2.1
			c0.1,3.6-0.2,7.2-0.8,10.8C166.3,285.2,166.2,287.8,169,287z"/>
		<path class="st50" d="M176,257.1c-0.3-0.6-0.7,1.6-1,1.2c-0.9-1.3-2.6-1.2-3.9-1.1c-3.1,0.4-7.7,0.2-9.6,3.3
			c-0.3,0.5-0.1,1.2,0.5,1.3c1.1,2.5,1.9,5.1,2.3,7.8c-0.1-0.5,4.6-1.4,5.2-1.4c2.4-0.3,5.3,0.3,7,2.2c1.8,2,2.1,4.8,2.2,7.5
			c0.2,6.3-0.1,13.7-5.5,17.6c-2,1.4,0,4.9,0.3,6.7c0.3,2-0.2,4.9-1.9,6c-4.1,2.7-7-5.6-7.5-8.5c-0.2-0.8-0.3-1.7-0.3-2.6
			c0-0.3,0-2.3-0.1-2.4c0,0-0.1-0.1-0.1-0.1c-1.3-0.4-2.7,0.9-3.6,1.6c-1.3,1-2.6,1.8-4.1,2.4c-1.5,0.5-3.6,1.1-5.1,0.3
			c-0.4-0.2-0.7-0.4-0.9-0.7c0.1,0.3,0.2,0.5,0.4,0.8c1,1.4,3.2,2.1,4.8,2.3c2.2,0.2,4.2-0.6,5.9-2c0.5,1.8,4.5,16.5,4.8,16.5
			c3.8-0.7,7-4.7,8.4-8.3c1-2.6,1.1-5,0.6-7.3c4.5-4.4,6.6-11.3,6.7-17.7C181.8,274.8,180.8,263.1,176,257.1z"/>
		<path class="st51" d="M162.9,294.6c-1.9,4.7-7.3,8.1-11.9,5.1c0,0-0.1,0,0,0.1c4.1,3.3,11.8,0.9,12.4-5
			C163.4,294.5,163,294.4,162.9,294.6z"/>
	</g>
	<g>
		<path class="st24" d="M35.6,282.3c0.2,6.4,2.3,13.3,6.7,17.7c-0.5,2.3-0.4,4.7,0.6,7.3c1.4,3.6,4.6,7.5,8.4,8.3
			c0.3,0.1,4.4-14.7,4.8-16.5c1.7,1.4,3.7,2.2,5.9,2c1.6-0.2,3.8-0.9,4.8-2.3c1.3-1.8,0.3-3.5-1.4-4.4c-1.8-0.9-3.5-1.6-5.2-2.8
			c-1.3-0.9-2.2-2.2-3.4-3.2c-1-0.9-2-1.1-2.9-1c-2.3-8.4-2.5-17.9,1.1-25.7c0.6-0.1,0.8-0.7,0.5-1.3c-2-3-6.6-2.9-9.6-3.3
			c-1.4-0.2-0.5-6.3-1.4-5c-0.3,0.4-2.4,0.4-2.7,0.9C37.2,259.1,35.4,274.8,35.6,282.3z"/>
		<path class="st49" d="M59.8,292.3c1.9,1.2,3.9,1.8,5.9,2.7c0,0,0,0,0.1,0c1.2,0.9,1.9,2.9-0.1,3.1c-1.6,0.1-2.5-1.2-3.6-2.1
			c-1.4-1.1-3.1-1.5-4.6-2.2c-1.1-0.5-4.3-2.8-2.9-4.5C55.6,288,58.9,291.7,59.8,292.3z"/>
		<path class="st49" d="M48.5,286.1c-0.4-0.1-0.8-0.4-1.1-0.8c-3-4-3.2-11.1-0.7-15.5c0.5-0.9,1.5-2,2.5-1.8c1.1,0.2,1.1,1.4,1,2.3
			c-0.1,3.9,0.2,7.8,0.8,11.7C51.3,284.2,51.5,287,48.5,286.1z"/>
		<path class="st50" d="M66.5,298.8c-1.5,0.8-3.6,0.2-5.1-0.3c-1.5-0.5-2.9-1.4-4.1-2.4c-0.9-0.7-2.3-2-3.6-1.6c0,0-0.1,0-0.1,0.1
			c-0.2,0.1-0.1,2.1-0.1,2.4c-0.1,0.9-0.2,1.7-0.3,2.6c-0.5,2.9-3.4,11.2-7.5,8.5c-1.7-1.1-2.2-4-1.9-6c0.3-1.8,2.2-5.3,0.3-6.7
			c-5.6-4-5.9-12.5-5.8-18.9c0-2.4,0.3-4.9,1.1-7.2c2.3-6.3,9.3-5,13.9-1.9c0.4-1.9,1.1-3.8,1.9-5.7c0.6-0.1,0.8-0.7,0.5-1.3
			c-2-3-6.6-2.9-9.6-3.3c-1.4-0.2-3-0.2-3.9,1.1c-0.3,0.4-0.3-4.4-0.6-3.8c-4.7,6-6.1,20.3-5.9,27.8c0.2,6.4,2.3,13.3,6.7,17.7
			c-0.5,2.3-0.4,4.7,0.6,7.3c1.4,3.6,4.6,7.5,8.4,8.3c0.3,0.1,4.4-14.7,4.8-16.5c1.7,1.4,3.7,2.2,5.9,2c1.6-0.2,3.8-0.9,4.8-2.3
			c0.2-0.3,0.3-0.5,0.4-0.8C67.2,298.3,66.9,298.6,66.5,298.8z"/>
		<path class="st51" d="M54.2,294.6c1.9,4.7,7.3,8.1,11.9,5.1c0,0,0.1,0,0,0.1c-4.1,3.3-11.8,0.9-12.4-5
			C53.7,294.5,54.1,294.4,54.2,294.6z"/>
	</g>
	<g>
		<path class="st52" d="M167.7,255.6c3.3-0.9,16.1-3.4,17.6-2.5c1.5,0.9,2.4,9.3,2.2,9.9c-0.2,0.7-6.6,0.6-17.9,3.5
			c-11.3,2.9-13.1,4.3-14.1,3.7c-1-0.6-2.8-7.2-1.8-8.1C154.5,261.1,162.4,257,167.7,255.6z"/>
		<path class="st20" d="M182.9,261.6c-1.9,0.5-4,0.6-5.6,0.8c-2.9,0.4-5.7,1.6-8.7,1.8c-2.8,0.1-6.7-2.2-4.6-5.8
			c0.5-0.9,1.2-1.6,2-2.3c-5.1,1.7-11.6,5.1-12.5,5.9c-1,0.9,0.8,7.5,1.8,8.1c1,0.6,2.8-0.8,14.1-3.7c11.3-2.9,17.7-2.8,17.9-3.5
			c0.1-0.3,0-2.2-0.3-4.2C186.2,260.3,184.6,261.1,182.9,261.6z"/>
		<path class="st20" d="M161.3,267.2c-2.7-1.9-3.3-5.9-1.6-8.5c-3.1,1.4-5.6,2.8-6.1,3.3c-1,0.9,0.8,7.5,1.8,8.1
			c0.8,0.5,2.1-0.3,8.6-2.2C162.9,267.9,162,267.6,161.3,267.2z"/>
	</g>
	<g>
		<path class="st52" d="M32.2,250.7c1-0.8,10.4-0.9,18.9,3.1c8.5,4.1,11.4,9.7,11.7,11.4c0.2,1.7-1.4,5-2.1,5
			c-0.7,0.1-6.6-6.4-14.4-9c-7.8-2.5-14.2-1.7-15.3-2.4C29.8,258.2,31.1,251.6,32.2,250.7z"/>
		<path class="st20" d="M62.8,265.2c-0.2-1.7-3.2-7.3-11.7-11.4c0,0,0,0-0.1,0c0.4,0.7,0.7,1.5,0.9,2.5c1.1,5.3-4.8,4-10.3,2.5
			c-2.9-0.8-7-0.4-9.3-1c-0.8-0.2-1.3-0.8-1.8-1.3c-0.1,1.2,0,2.2,0.4,2.5c1.2,0.7,7.6-0.1,15.3,2.4c7.8,2.5,13.6,9,14.4,9
			C61.4,270.2,63.1,266.9,62.8,265.2z"/>
		<path class="st20" d="M62.8,265.2c-0.2-1.2-1.8-4.6-6-7.9c0.5,0.6,0.8,1.3,1,2.2c0.3,1.8,0,3.6-1.7,4.5c-0.9,0.5-2,0.7-3,0.6
			c4.2,2.7,7.1,5.7,7.6,5.6C61.4,270.2,63.1,266.9,62.8,265.2z"/>
	</g>
</g>
</svg>
