<?xml version="1.0" encoding="utf-8"?>
<!-- Generator: Adobe Illustrator 21.1.0, SVG Export Plug-In . SVG Version: 6.00 Build 0)  -->
<svg version="1.1" id="Warstwa_1" xmlns="http://www.w3.org/2000/svg" xmlns:xlink="http://www.w3.org/1999/xlink" x="0px" y="0px"
	 viewBox="0 0 34.5 112.9" style="enable-background:new 0 0 34.5 112.9;" xml:space="preserve">
<style type="text/css">
	.st0{fill:#3C3C3B;}
</style>
<path class="st0" d="M28.7,62.5c0.3-8.9-1.5-15.6-7.4-16.2c1.7-8.2,4.8-15.8,7.6-23.6c1.7-4.5,6.5-13.5,2.6-18.2
	c-2.5-3-6.9-1.9-9.5,0.3c-4.8,4-5.2,11-4.6,16.9c-0.8-2.5-1.8-4.9-3.2-7.1C12.8,12.3,7,7.2,4.2,9.6c-4.6,1.8-0.9,9.4,0.8,12.2
	c2.1,3.5,4.9,6.5,7,9.9c2.8,4.6,4.3,9.6,5.6,14.9c0,0,0,0,0,0.1C7.2,49.1,6,63.1,6.3,72.1c0.4,12.9,4,25.9,11.3,36.4
	c0.1,0.2,0.3,0.2,0.4,0.1c0.3,0.1,0.7,0,0.8-0.4c0.6-1.9,2.1-6.8,3.8-13.1c0.3-0.1,0.5-0.5,0.2-0.9c1.6-6.1,3.4-13.3,4.5-20.3
	c0.1-0.1,0.1-0.3,0.1-0.4c0.5-3.3,0.9-6.6,1.1-9.7c0.5,0,0.9-0.6,0.5-1C29,62.7,28.9,62.6,28.7,62.5z M18.2,22.8
	c0.2-5.9-0.2-12.9,4.8-16.9c2.3-1.9,3-1.8,5.6-0.3c1.6,2,2.4,4,2.6,6.7c0,0,0,0.1,0,0.1c-0.4,2.3-1.3,4.7-2.1,6.9
	c-2.7,7.9-6.1,15.5-8,23.7c1.5-10,3.9-19.8,5.7-29.7c0-0.3-0.3-0.4-0.4-0.1c-4,10.3-5.6,22-6.8,33.1c0,0.1,0,0.1,0,0.2
	c0,0-0.1,0-0.1,0c0,0,0-0.1,0-0.1c0.5-7.2,0.4-15.7-1.6-23.1C18,23.1,18.1,23,18.2,22.8z M12.3,29.7c-2.2-3.2-12.1-13.9-8.5-18.5
	c2.9-3.4,8.2,2.2,9.8,4.8c1.6,2.7,2.5,6,3.3,9.1c0.7,3.2,1.1,6.3,1.3,9.5c-1.3-6.4-4.5-12.3-9.4-16.6c-0.2-0.2-0.5,0.1-0.3,0.3
	c6.3,7,9.8,15.4,9.5,24.9C17,38.3,15,33.7,12.3,29.7z M13.6,60.8c0.1,0.3,0.5,0.2,0.5-0.1c0.1-0.9,7.5,0,7.7,0
	c2.1,0.4,4.1,1,5.8,2.3c-0.1,3.2-0.5,6.3-1.1,9.4c-2.2-1.6-6-1.9-8.3-1.2c-0.3,0.1-0.2,0.5,0.1,0.5c1.7-0.1,3.2-0.1,4.9,0.4
	c1.2,0.3,2.1,1,3.2,1.5c-0.2,0.8-0.3,1.6-0.5,2.4c-0.5,2.5-1.1,5-1.7,7.5c-2.9-2.9-8.1-2.4-11.8-2c-0.3,0-0.4,0.6,0,0.6
	c2.3-0.1,4.6-0.2,6.9,0.3c1.8,0.4,3.1,1.3,4.6,2.3c-0.7,2.8-1.4,5.5-2.1,8.3c-2.1-1.7-4.8-2.3-7.4-1.6c-0.4,0.1-0.2,0.8,0.2,0.7
	c2.6-0.5,5.1,0.2,7,2c-1.1,4.4-2.3,8.8-3.6,13.1c-4.9-9-8.5-18.6-9.7-28.9C7.1,69,6.3,54.1,15.9,48.9c5.2-2.8,8.5-0.1,10.2,4
	c-2.2-1.4-4.7-2-7.2-1.6c-0.3,0-0.2,0.5,0.1,0.5c2.8-0.2,5.4,0.7,7.5,2.6c0.1,0.1,0.1,0.1,0.2,0.1c0.5,1.6,0.8,3.3,0.9,4.8
	c0,0.7,0.1,1.5,0.1,2.2c-1.8-1.2-3.9-1.7-6.1-2c-2.1-0.3-6-0.9-7.9,0.5c-0.1,0.1-0.2,0.2-0.1,0.4C13.5,60.6,13.6,60.7,13.6,60.8z"/>
</svg>
