<?xml version="1.0" encoding="utf-8"?>
<!-- Generator: Adobe Illustrator 21.1.0, SVG Export Plug-In . SVG Version: 6.00 Build 0)  -->
<svg version="1.1" id="Warstwa_1" xmlns="http://www.w3.org/2000/svg" xmlns:xlink="http://www.w3.org/1999/xlink" x="0px" y="0px"
	 viewBox="0 0 311.3 468.6" style="enable-background:new 0 0 311.3 468.6;" xml:space="preserve">
<style type="text/css">
	.st0{fill:#FCD7A4;}
	.st1{opacity:0.5;}
	.st2{fill:#FCCF93;}
	.st3{fill:#EEE6E3;}
	.st4{fill:#454444;}
	.st5{fill:#5B2710;}
	.st6{fill:#383838;}
	.st7{fill:#F2CC9E;}
	.st8{fill:#E3BC84;}
	.st9{fill:#441A09;}
	.st10{fill:#D6C8C4;}
	.st11{opacity:0.5;fill:#FFFFFF;}
	.st12{opacity:0.3;fill:#EEE6E3;}
	.st13{fill:#FFFFFF;}
	.st14{opacity:0.5;fill:#FCCF93;}
	.st15{fill:#FDE5C3;}
	.st16{opacity:0.5;fill:#D9D3C0;}
	.st17{fill:#894624;}
	.st18{opacity:0.5;fill:#A05830;}
	.st19{fill:#1D1D1B;}
	.st20{fill:#F1F1F1;}
	.st21{fill:#811527;}
	.st22{fill:#D9D3C0;}
	.st23{fill:#F19C99;}
	.st24{fill:#A05830;}
	.st25{opacity:0.5;fill:#968E77;}
</style>
<g>
	<g>
		<path class="st0" d="M223.3,241.2c0,0,23.9,32,28.6,55.7c0,0-3.2,1.1-3.2,4.8c0,3.7-0.4,6.8-2.6,9.9c-2.1,3.1,1.9,10.7,6.7-4.4
			c7.1,6.6,8.2,8.8,8.4,13.8c0.2,5,8.8,7.2-0.2-13.6c5.8,7.5,9,14.7,10.7,14.3c1.7-0.4,0.4-7-5.6-15.6c5.4,2.2,9.2,10.7,11.4,9.9
			c2.1-0.9-3-8.6-7.9-12.7c5.4,0.9,11.6,5,12.7,2.9c1.1-2.2-9.9-9.2-20.4-10.5c-5.4-25.9-18.5-56.6-29-66.9
			C228.7,232.8,223.3,241.2,223.3,241.2z"/>
		<g class="st1">
			<path class="st2" d="M280.6,303.4c0.1,1.4-2,1.9-4.7,0.6c-4.9-2.4-10.5-4.1-6.1,0.3c6.6,6.3,7,11,3.8,7
				c-3.2-4.3-10.6-8.8-8.7-5.9c3.8,5.1,7,13.9,6,14.3c-1,0.4-5.7-8.3-8.2-12.1c-2.6-3.8-3.1-1.4,0.2,6.7c3.3,8.1-0.3,9.7-0.6,6.1
				c-0.3-3.6-1.3-7.2-4.9-11.5c-3.5-4.3-6.1-8.6-3.5-10.9c2.6-2.3,1-3.6-2.6-14.1c-6.8-18.1-23.5-42.5-20.9-45.4
				c1.5-1.8,4-4.4,5.7-6.3c-1.1-1.4-2.1-2.5-3.1-3.5c-4.1,4.2-9.5,12.5-9.5,12.5s23.9,32,28.6,55.7c0,0-3.2,1.1-3.2,4.8
				c0,3.7-0.4,6.8-2.6,9.9c-2.1,3.1,1.9,10.7,6.7-4.4c7.1,6.6,8.2,8.8,8.4,13.8c0.2,5,8.8,7.2-0.2-13.6c5.8,7.5,9,14.7,10.7,14.3
				c1.7-0.4,0.4-7-5.6-15.6c5.4,2.2,9.2,10.7,11.4,9.9c2.1-0.9-3-8.6-7.9-12.7c5.4,0.9,11.6,5,12.7,2.9
				C282.5,305.5,281.9,304.5,280.6,303.4z"/>
		</g>
	</g>
	<g>
		<path class="st3" d="M65.9,177.3H12.2c0,0,9.2,6.6,7.4,8.8c-11.8,14.8-11.6,26.3-3.3,37c8.4,10.7,43.6,14,50.9-2.5
			c7.2-16.5,0-29-6.4-34.9C58.1,181.9,61.5,180.6,65.9,177.3z"/>
		<rect x="24.6" y="176.8" class="st4" width="29.7" height="4.4"/>
		<path class="st5" d="M12.4,209.9c0,0,1.1,21,29.4,21c28.3,0,26.7-20.9,26.7-20.9L12.4,209.9z"/>
		<g>
			<path class="st6" d="M87.6,206.6c-0.5-9.7-3.5-19.4-10.8-22.9c-8.7-3.5-15.1,3.1-15.1,3.1c1.1,1.1,2,2.1,2.9,3.2
				c1.8-1.1,5-2.5,8.8-1.7c7.7,1.6,8.5,16.6,6.7,23.7c-1.9,7.4-7.4,9.1-11.8,6.8c-0.6,1.5-1.2,2.9-1.9,4.2
				C83.7,228.2,88.1,216.3,87.6,206.6z"/>
			<g class="st1">
				<path class="st6" d="M79.1,189.6c-6.4-8-12.9-0.6-12.6-4.1c0.1-1,0.7-1.7,1.4-2.3c-3.8,1.1-6.2,3.5-6.2,3.5
					c1.1,1.1,2,2.1,2.9,3.2c1.8-1.1,5-2.5,8.8-1.7c7.7,1.6,8.5,16.6,6.7,23.7c-1.9,7.4-7.4,9.1-11.8,6.8c-0.6,1.5-1.2,2.9-1.9,4.2
					c3.3,1,6.1,1.3,8.5,1.2c-1.3-1-1.1-2.8,1.8-3.8c9.9-5.4,4.7-17.9,7.9-18.1c1-0.1,1.9,0.4,2.8,1.2c-0.4-3.9-1.3-7.8-2.8-11.1
					C83,192.7,80.8,191.9,79.1,189.6z"/>
			</g>
		</g>
		<path class="st7" d="M76,189.2c0,0-7.2,0-2.8,10.9c-2.4,1.9-1.8,6.3,0.3,7.3c-1.8,2.3-0.3,3.9,1,4.6c-2.1,1.4-1.9,5,1.3,5
			c3.2-0.1,5.6-3.6,3.5-4.7c2.1-1.5,2.8-5.6,0.9-5.6c2-2.4,1.5-4.6-0.1-4.7C81.3,199,79.9,192.8,76,189.2z"/>
		<g>
			<path class="st8" d="M80.3,201.4c-1.3,1.4-2.7,1.4-4.3,0.6c-1-0.5-1.8-1.6-2.7-2.4c-0.1,0-0.2,0.1-0.1,0.2c1.2,1.4,2.1,2.9,4,3.3
				c1.3,0.3,2.5-0.5,3.2-1.6C80.5,201.4,80.4,201.2,80.3,201.4z"/>
			<path class="st8" d="M80.4,206.2c-1.5,1.7-4.8,2.5-6.7,1.1c-0.1-0.1-0.2,0.2-0.2,0.2c1.7,2,5.8,1,7-1.2
				C80.7,206.1,80.5,206,80.4,206.2z"/>
			<path class="st8" d="M80.5,210.7c-1.5,1.5-4.1,1.7-6.1,1c-0.1,0-0.3,0.3-0.2,0.3c1.9,0.9,5.2,0.9,6.4-1.2
				C80.8,210.6,80.7,210.5,80.5,210.7z"/>
		</g>
		<ellipse class="st9" cx="40.5" cy="209.9" rx="28.1" ry="2.7"/>
		<ellipse cx="39.4" cy="165.9" rx="2" ry="2.6"/>
		<path class="st6" d="M57.6,177.2c-1.8-5.9-9.3-10.3-18.2-10.3c-9,0-16.4,4.4-18.2,10.3H57.6z"/>
		<g>
			<path class="st10" d="M60.9,185.7c-2.7-3.8,0.7-5.2,5.1-8.4H12.2c0,0,1.2,0.9,2.7,2.1c8.1-0.2,28.6-0.5,40-0.4
				c5.8,0.5-3.7,2.6,2.6,8.2c6.8,6.1,9.8,14.3,8.7,23.2c-1.1,8.9-12.6,20.1-32,16.9c-19.5-3.1-22.4-22.4-16.9-31.9
				c5.2-9.3,5.5-9,1.3-12.6c1.1,1.3,1.8,2.6,1.2,3.3c-11.8,14.8-11.6,26.3-3.3,37c8.4,10.7,43.6,14,50.9-2.5
				C74.6,204.1,67.3,191.6,60.9,185.7z"/>
		</g>
		<g class="st1">
			<path class="st6" d="M57.6,177.2c-1.8-5.9-9.3-10.3-18.2-10.3c-3.7,0-7.1,0.8-10,2.1c6.5-1.7,16.9-3,23.1,6
				c-17-0.2-26.4,0.5-30.5,0.5c-0.3,0.6-0.6,1.2-0.7,1.8H57.6z"/>
		</g>
		<path class="st11" d="M30,171c3.2-2.2,5.1-2.5,5.4-2.5c-3.8,0.2-6.7,1.5-8.7,2.9C27.8,171.2,28.9,171.1,30,171z"/>
		<path class="st11" d="M24.9,172.7c-1.1,1-1.7,1.8-1.7,1.8s0,0,2.3,0c0.9-0.8,1.7-1.5,2.5-2.1C27,172.5,26,172.6,24.9,172.7z"/>
		<ellipse class="st12" cx="35.7" cy="205.3" rx="22.6" ry="19.5"/>
		<g>
			<path class="st13" d="M25.8,198.3c-1.3,2.7-3.9,4-5.8,3c-1.9-1-2.3-3.9-1-6.6c1.3-2.7,3.9-4,5.8-3
				C26.7,192.7,27.1,195.7,25.8,198.3z"/>
			<path class="st13" d="M19.8,207.1c-0.5,1.2-1.5,2-2.4,1.7c-0.8-0.3-1.1-1.6-0.6-2.9c0.5-1.2,1.5-2,2.4-1.7
				C20,204.6,20.3,205.8,19.8,207.1z"/>
		</g>
		<path class="st11" d="M77.5,184.9c-2.2-1.3-4.1-1.6-6.5-1.1c-0.1,0-0.3,0.3-0.2,0.3c1-0.1,1.9-0.3,2.9-0.1c1.4,0.3,2.8,1.1,4,1.8
			c1.8,1.1,3.2,2.6,4.6,4.3c0.1,0.1,0.5-0.3,0.4-0.5C81.5,187.6,79.6,186,77.5,184.9z"/>
		<path class="st11" d="M85.4,214c-0.4,3.8-3.7,7.4-7,9c-0.2,0.1-0.5,0.8-0.2,0.7c3.6-1.3,7.2-5.9,7.4-9.8
			C85.6,213.6,85.4,213.9,85.4,214z"/>
	</g>
	<path class="st0" d="M126.9,222.2c0,0-6.8,9.9-13.4,9.5c-6.6-0.3-20.1-16.8-20.1-16.8s4-8.1,0-14.6c-4-6.6-14.5-9.4-15.1-5.9
		c-0.6,3.5,8.2,6.9,8.2,6.9s-2.7,5.9,0.8,11.5c-1.3,3.6-2.3,6.3-5,8.2c-1.6,1.6,3.4,2.1,3.4,2.1s9.7,22.7,26.4,23.9
		c11.4,0.2,19.2-6.1,24-11.7C130.7,230.1,126.9,222.2,126.9,222.2z"/>
	<path class="st14" d="M126.9,222.2c0,0-0.7,1.1-1.9,2.5c4.5,1.8,5,10.4-1,11.9c-5,1.2-7.2-1.5-7.9-5.2c-0.6,0.2-1.3,0.3-1.9,0.3
		c0.1,1.3,0,2.6-0.5,3.7c-3.2,7.1-13.2-1.4-16.5-4.4c-1.9-1.7-9.2-11-3.6-12.8c0.9-0.3,2-0.1,3,0.4c-1.9-2.1-3.2-3.7-3.2-3.7
		s0.1-0.2,0.2-0.5c-0.8,0.4-1.8,0.5-2.8-0.2c-5.1-3.2-4.5-9.3-2.2-14.1c-3,0.1-8.1-1.6-8.7-4.8c-0.2-0.9-0.1-1.7,0.2-2.3
		c-1,0.1-1.7,0.6-1.9,1.4c-0.6,3.5,8.2,6.9,8.2,6.9s-2.7,5.9,0.8,11.5c-1.3,3.6-2.3,6.3-5,8.2c-1.6,1.6,3.4,2.1,3.4,2.1
		s9.7,22.7,26.4,23.9c11.4,0.2,19.2-6.1,24-11.7C130.7,230.1,126.9,222.2,126.9,222.2z"/>
	<g>
		<g>
			<g>
				<path class="st0" d="M159.9,451.5c5.7-0.1,15.1-8.4,20.2-17.7c-0.1-0.8-0.3-1.6-0.4-2.4c-1.1-5.9-1.2-32.7-2.7-48.5
					c-1.5-15.8-0.4-39.9-0.4-39.9l-28.3-2.8c0,0,3.1,22.4,10.3,58.5c4.8,27.3,5.1,35,5.1,35s-4.4,6-7.4,12.4
					C156.1,448.9,156.8,451.6,159.9,451.5z"/>
				<path class="st6" d="M159.9,451.5c-3.2,0.1-3.8-2.7-3.7-5.4c-2.4,4.9-3.9,10.1-2.1,12.9c3.6,4,14.8-0.1,21.6-8.8
					c4.9-6.8,5.2-11.5,4.4-16.4C175,443.2,165.6,451.4,159.9,451.5z"/>
				<path class="st6" d="M154,452.1c2.1-0.1,3.5,1.8,5.6,1.7c3.7-0.1,7-2.8,9.8-5c1.3-1,2.9-2.5,4.6-2.8c1.7-0.4,2.8,0.5,3.3,1.8
					c3.3-5.6,3.5-9.7,2.9-14c-5.2,9.3-14.5,17.6-20.2,17.7c-3.2,0.1-3.8-2.7-3.7-5.4C155.3,448.2,154.5,450.2,154,452.1z"/>
			</g>
			<g class="st1">
				<path class="st2" d="M179.8,431.4c-1.1-5.9-1.2-32.7-2.7-48.5c-1.5-15.8-0.4-39.9-0.4-39.9l-28.3-2.8c0,0,0.4,3,1.3,8.6
					c7.4-1.3,27-1.1,20.1,37.8c5.8,19.1,5.8,35.5,4.5,43.1c1.3,6.6-2.9,11.5-8.4,16.5c-4,3.6-8.7,3.9-9.3-0.6
					c-0.1,0.2-0.2,0.4-0.3,0.6c-0.1,2.7,0.5,5.4,3.7,5.4c5.7-0.1,15.1-8.4,20.2-17.7C180.1,433,179.9,432.2,179.8,431.4z"/>
			</g>
			<path class="st14" d="M157.4,387.2c0,0,1.2,1.5,4.1,1.3c2.8-0.2,0.9,1.7-1.7,1.3C157.2,389.3,156.4,387,157.4,387.2z"/>
		</g>
		<path class="st15" d="M158.2,383.5c0,0-4.6-4.6-5.7-21.2c-0.9-14.1,9.7-8.4,14.1,2.6C170.9,375.9,165.4,391.4,158.2,383.5z"/>
		<path class="st15" d="M160.1,397.6c-0.5,4.4,3.8,32.9,7.5,32.2c3.7-0.7,7.7-16.2,4-27C167.9,391.9,160.8,391.4,160.1,397.6z"/>
		<path class="st15" d="M163.9,435.5c0,0-7.5,5.9-4.7,9.9C162,449.4,171.9,430.1,163.9,435.5z"/>
	</g>
	<g>
		<g>
			<g>
				<path class="st0" d="M211.7,447.8c6.2-1.2,14.5-14,16.3-31.1c-0.3-0.2-0.5-0.3-0.8-0.4c-3.9-2.4-10.1-13.6-14.4-21.5
					c-4.3-7.9-15-30.7-15-54.4c-8.2,1.1-25.3,3.3-25.3,3.3s4.5,26.8,16.5,49.8c13.5,23.3,22.5,28.5,21.5,34.2
					c-0.6,3.1-2.8,10.5-3.3,17C207.8,446.7,209.1,448.3,211.7,447.8z"/>
				<path class="st6" d="M228,416.7c-1.8,17.1-10.1,29.9-16.3,31.1c-2.6,0.5-3.9-1.1-4.6-3.2c-0.5,5.4,0.2,10.2,3.8,11.5
					c7.9,2.9,19.8-20.6,21-28.5C233,420.9,231.2,418.6,228,416.7z"/>
				<path class="st6" d="M208.6,448.9c1.6,0,2.4,1.2,3.8,1.4c2.4,0.5,4.6-2.4,5.9-4c2.5-3.2,4.5-6.8,6.4-10.4c0.9-1.7,4-7.9,7-6.8
					c0.1-0.5,0.2-1,0.3-1.5c1-6.7-0.8-9.1-3.9-11c-1.8,17.1-10.1,29.9-16.3,31.1c-2.6,0.5-3.9-1.1-4.6-3.2c-0.1,1.7-0.2,3.3-0.1,4.8
					C207.5,449.1,208,448.9,208.6,448.9z"/>
			</g>
			<path class="st14" d="M186.4,384.6c0,0,1.6,1.1,4.3,0.1c2.7-1,1.3,1.4-1.3,1.7C186.7,386.7,185.3,384.7,186.4,384.6z"/>
			<g class="st1">
				<path class="st2" d="M227.2,416.2c-3.9-2.4-10.1-13.6-14.4-21.5c-4.3-7.9-15-30.7-15-54.4c-8.2,1.1-25.3,3.3-25.3,3.3
					s0.4,2.6,1.4,6.8c6.6-2.3,20.1-6.1,20.6,1.7c0.6,10.2,6.1,20.7,2.9,30.6c9.7,10.2,21.3,32.6,20.9,37.2
					c6.4,3.3,2.9,12.8-1.3,19.7c-3.4,5.6-8.1,5.8-9.2,0.1c-0.3,1.6-0.5,3.3-0.7,4.9c0.7,2.1,2,3.7,4.6,3.2
					c6.2-1.2,14.5-14,16.3-31.1C227.8,416.5,227.5,416.4,227.2,416.2z"/>
			</g>
		</g>
		<path class="st15" d="M184.8,381c0,0-4.6-4.6-5.7-21.2c-0.9-14.1,9.7-8.4,14.1,2.6C197.5,373.3,192,388.8,184.8,381z"/>
		<path class="st15" d="M192.5,394.2c1.4,4.1,16.8,28.3,19.3,26.5c2.5-1.8-1-17.1-8.4-25.6C196,386.6,190.4,388.5,192.5,394.2z"/>
		<path class="st15" d="M212.1,429c0,0-4.7,9.3-1.7,11.6C213.5,442.9,220.2,421.6,212.1,429z"/>
	</g>
	<path class="st6" d="M142.4,284.8c0,0-12,41.2-15.5,50.7c0,0,40.5,30.1,104.2-7.8L213.6,284C213.6,284,180.8,299.1,142.4,284.8z"/>
	<path class="st6" d="M135.2,327.9c0.1-0.1,0.3-0.1,0.4,0c2.2,2.2,4.4,5.2,7.2,6.6c2.8,1.5,5.8,1.3,8.9,0.8c0.2,0,0.2,0.2,0.3,0.3
		c1.7,6.8,11.5,6.6,15.8,2.8c0.1-0.1,0.3-0.1,0.4,0c2.9,2.8,7.9,5.9,12,3.8c2.7-1.4,4.5-3.8,7.5-4.5c5.8-1.4,12,1.5,13.4-6.9
		c0-0.3,0.3-0.7,0.7-0.6c7.5,2.3,9.5-6,12.1-11.3c1.5-3.1,4.3-5,7.5-2.3c3.5,3,5.5,8,7,12.3c0,0.1,0.1,0.3,0.1,0.4
		c0.9-0.5,1.8-1,2.7-1.6L213.6,284c0,0-32.8,15.1-71.2,0.8c0,0-12,41.2-15.5,50.7c0,0,0.7,0.5,2,1.3
		C130.6,333.5,132.2,330.2,135.2,327.9z"/>
	<g>
		<path class="st6" d="M127.9,218.1l-1-1.4l-3.3,2.9c0,0,10.1,16.3,17.8,20.3l1.6-2.6c0,0,0,0.4,0,1.2c0.2-0.6,0.3-1.3,0.5-2
			C138.5,231.4,127.9,218.1,127.9,218.1z"/>
		<path class="st13" d="M231.7,224.3c0,0-29.9-41.8-61.2-34c0,0-14.9-1.9-42.7,27.8c0,0,10.7,13.3,15.6,18.3c-0.2,0.7-0.4,1.3-0.5,2
			c-0.1,5.4-0.6,27.9,1.1,40.6c29,10.5,57.3,5.3,68.6-1.6c-1.3-25.7-3.9-43.1-3.9-43.1l7.1,6.6L231.7,224.3z"/>
		<path class="st16" d="M155.7,196.9c1.1,3.5-0.2,8.7,2.1,11.6c2.6,3.3,7.4,0.7,10.4-0.6c1.8-0.8,3.8-1.8,5.8-1.8
			c2,0,3.6,0.7,5.4,1.3c2.6,0.8,6.6,2.3,9.3,1.3c3.5-1.3,1.8-5.5,2.9-7.9c1.3-2.6,3.6-4.2,6.2-5c0.5-0.2,1.1-0.3,1.6-0.4
			c-8.9-4.8-18.8-7.4-29-4.9c0,0-5.4-0.7-15.7,5.2C155.2,195.8,155.5,196.3,155.7,196.9z"/>
		<path class="st16" d="M231.7,224.3c0,0-2.6-3.7-7.2-8.7c-0.5,1.3-1.1,2.6-1.7,3.8c-1.8,3.6-4.5,7.9-8.4,9.3
			c-9.3,3.4-14.6-7.3-20.1-13.7c3.1,6.6,7.4,12.2,7.7,20c0.2,4.3,0.1,8.6,0.7,12.9c0.4,3.4,1.1,6.8,0.9,10.2
			c-0.2,6.1-2.9,10.9-8.1,13.9c-5.3,3-12.2,5-18.4,4.3c-7.1-0.8-14.1-3.3-20-7.4c-5.8-4.1-9-10.7-9.8-17.7
			c-0.8-7.2-0.7-14.8-0.6-22.1c0.1-4.5,0.4-9.2,1.9-13.4c-1,1.5-2,3.1-3,4.5c-1,1.4-2.8,5-4.6,5.3c-3.1,0.6-5.9-3.1-7.5-5.4
			c-1-1.5-2.2-3.2-3-5c-0.9,0.9-1.9,1.9-2.8,2.9c0,0,10.7,13.3,15.6,18.3c-0.2,0.7-0.4,1.3-0.5,2c-0.1,5.4-0.6,27.9,1.1,40.6
			c29,10.5,57.3,5.3,68.6-1.6c-1.3-25.7-3.9-43.1-3.9-43.1l7.1,6.6L231.7,224.3z"/>
	</g>
	<path class="st17" d="M282.1,109.2c0,0,26.7,8.9,21.6,44.4c-5.8,17.4-11.9,27.3-22.2,36.5c-9.7,7.6-9.3,15.8-5.5,20.1
		c3.9,4.3,3.9,7.2,1.6,12.8c-2.3,5.6,2.9,9.5,5.8,8.2c-1.9,6.9-7.4,3.6-7.4,3.6s10.6,3.6-2.6,16.5c-3.2,2.6-3.2,2.6-3.2,2.6
		s5-6.4-7.6-7c-11.5-0.8-13.3-10.1-10.6-17.3c-3.9,4.2-8.1,2.3-11.1-0.5c8.5-2.7,10.6-9.5,1-18.1c-9.6-8.6-20-23.1,0.7-41.4
		C269.5,153.4,280.5,142.9,282.1,109.2z"/>
	<path class="st18" d="M281.5,190.2c1.6-1.5,3.2-3,4.6-4.5c-2.6,1.6-5.1,3.2-7.6,4.9c-3.9,2.6-8.4,6.6-7.8,12c0.4,3.4,2,6.3,2.7,9.5
		c0.6,2.8,0.4,5.6-0.1,8.4c-0.7,4.3-0.3,7.3,2.4,10.8c0.3,0.4-0.1,1.3-0.6,1.1c-2.1-0.5-3.5-2.5-5.2-3.6c-2.2-1.4-2.8,0.9-2,3
		c0.5,1.4,1.4,2.6,2.3,3.7c2.8,3.2,5.9,6.4,2.9,10.6c-0.2,0.3-0.6,0.5-0.7,0c-1.6-7.6-9.5-5.1-13.7-10.3c-4.4-5.4-0.8-11-1-17
		c-1.4,2.1-3.5,3.5-6,4.2c-0.5,0.2-0.4-0.7-0.2-0.9c1.6-2.5,2.8-5.3,2.1-8.4c-1.7-8.1-10.2-12.8-11-21.4c-0.5-5.4,1.8-10.3,5.8-13.8
		c5.9-5.1,13.5-7,19.7-11.6c6-4.6,9.5-10.6,12.8-17.4c3.1-6.4,11.6-24.5,21.1-17c0.3,0.2,0.6,0.5,0.9,0.8
		c-4.8-19-20.9-24.3-20.9-24.3c-1.6,33.7-12.6,44.2-39.5,60.5c-20.6,18.3-10.2,32.7-0.7,41.4c9.6,8.6,7.5,15.5-1,18.1
		c2.9,2.8,7.2,4.7,11.1,0.5c-2.8,7.1-1,16.4,10.6,17.3c12.5,0.7,7.6,7,7.6,7s0,0,3.2-2.6c10.8-10.5,5.6-14.9,3.4-16.1
		c1.6,0.6,5.1,1.3,6.6-4c-2.9,1.3-8.1-2.6-5.8-8.2c2.3-5.6,2.3-8.6-1.6-12.8C272.1,206,271.8,197.7,281.5,190.2z"/>
	<path class="st6" d="M283.7,108.8c0,0,7.7-13.2,12.5-15.5c2.6-0.9,4.5,7.5,0.6,20.3C294.7,117.2,283.7,108.8,283.7,108.8z"/>
	<path class="st6" d="M284.2,110.1c0,0,7.7,7.8,10.4,16.6c-5.8,4.4-7,6.5-7,6.5S283.3,122.5,284.2,110.1z"/>
	<g>
		<path class="st6" d="M227.2,269.8c0,0,0.8,7.6,1,10.4c-8.7,1.7-14.7,0.5-14.7,0.5S219,272,227.2,269.8z"/>
		<path class="st6" d="M213.5,280.7c0,0,10.4,5.3,17,15.7c-2.8,4.1-3.3,4.7-3.3,4.7S213.2,287.9,213.5,280.7z"/>
	</g>
	<path class="st13" d="M140.7,284.2c0,0-7.7,1.4-3.5,7.3c-6,3.8-3.9,10.7-1.3,11.7c-4.8,3.9-3.9,12.2,1.8,11.7
		c-3.9,4.1-2.4,12,4.8,9.7c-0.5,7.1,5.5,11.4,12.1,7.1c2.4,6.4,8.9,8.7,14.3,2c2.6,6.4,13.4,9.2,17.4-2.3c5.6,6.1,12.6,2.5,12.9-6.1
		c7.2,3,10-3.1,6.8-8.6c7.4-0.8,9.7-8.2,4.7-12.5c6.6-2.5,4.3-8.6,0.6-10.7c4.5-2.3,4.4-8.6,0.1-8.7
		C211.4,284.8,180.7,298.7,140.7,284.2z"/>
	<path class="st16" d="M140.7,284.2c0,0-7.7,1.4-3.5,7.3c-6,3.8-3.9,10.7-1.3,11.7c-4.8,3.9-3.9,12.2,1.8,11.7
		c-3.9,4.1-2.4,12,4.8,9.7c-0.5,7.1,5.5,11.4,12.1,7.1c2.4,6.4,8.9,8.7,14.3,2c2.6,6.4,13.4,9.2,17.4-2.3c5.6,6.1,12.6,2.5,12.9-6.1
		c7.2,3,10-3.1,6.8-8.6c7.4-0.8,9.7-8.2,4.7-12.5c6.6-2.5,4.3-8.6,0.6-10.7c4.5-2.3,4.4-8.6,0.1-8.7
		C211.4,284.8,180.7,298.7,140.7,284.2z"/>
	<path class="st0" d="M254.9,95.7l-21.3-4c0,0,1-16.7-4.5-28.9c1,9.8-1.8,29.3-1.8,29.3h-33.2c0,0-0.8-16.5,6.1-32.6
		C189.2,70.8,188,94.4,188,94.4h-25c0,0-0.6-15.3,4.9-25.9c-10.4,9.8-10.4,26.2-10.4,26.2l-28.1,0.2c0,0-0.4-21.1,9.2-36.6
		c-16,11.3-15.2,36.6-15.2,36.6s0,0-21.5,1.5c-6.1,7.7-6.2,32.3-6.2,32.3c1.9,16.4,8.9,64.8,73.9,66.1c26.7-1,41.2-1,65.4-21.1
		C265.7,146.7,254.9,95.7,254.9,95.7z"/>
	<path class="st14" d="M141.1,160.4c0,0,32.5,7.4,60.7-6.2c1.2,11.5-10.3,29.5-30.8,31.1C150.5,186.9,142.1,164.4,141.1,160.4z"/>
	<path class="st14" d="M130.5,121.7c0,0,2.8,0.3,4.6-1.4c1.8-1.7,6.8-3.3,9.7,1.5c2.9,4.8-1.5,11.3-7.2,9.5
		c-4.5-1.5-2.8-5.3-4.6-6.1C131.2,124.4,128.8,122.2,130.5,121.7z"/>
	<path class="st14" d="M208.8,120.3c0,0-2.8,0.3-4.6-1.4c-1.8-1.7-6.8-3.3-9.7,1.5c-2.9,4.8,1.5,11.3,7.2,9.5
		c4.5-1.5,2.8-5.3,4.6-6.1C208.1,122.9,210.5,120.7,208.8,120.3z"/>
	<path class="st14" d="M147.1,117.8c-0.5,0-0.9-0.3-1.2-0.7c-2.2-4.6-4.9-6.9-8-6.9c-4.3,0-8.2,4.3-8.2,4.4c-0.3,0.3-0.6,0.4-1,0.4
		c-0.2,0-0.5-0.1-0.7-0.2c-0.5-0.3-0.8-1-0.6-1.6c3.2-9.4,7.8-10.8,10.2-10.8c5.2,0,9.8,6,10.6,13.9c0.1,0.6-0.3,1.2-0.9,1.4
		C147.3,117.8,147.2,117.8,147.1,117.8z"/>
	<path class="st14" d="M185.6,116.3c-0.2,0-0.5-0.1-0.7-0.2c-0.5-0.3-0.8-1-0.5-1.6c5.4-13.4,12.5-15.4,16.3-15.4
		c6.4,0,12.2,5.3,14.2,13c0.2,0.6-0.1,1.2-0.7,1.5c-0.2,0.1-0.4,0.1-0.6,0.1c-0.4,0-0.7-0.2-1-0.5c-3.1-3.9-6.7-5.9-10.6-5.9
		c-8.2,0-15.4,8.4-15.5,8.5C186.3,116.2,185.9,116.3,185.6,116.3z"/>
	<g>
		<path d="M144.3,123.8c0,0-0.8-4.2-4.7-4.2c-3.9,0-5,3.8-7.1,3.2c-2.1-0.6,0.9,2.3,2.6,2.4C136.7,125.3,144.3,123.8,144.3,123.8z"
			/>
		<path class="st4" d="M144.5,125.5c0,2.8-2.3,5.1-5,5.1c-2.8,0-5-2.3-5-5.1c0-2.8,2.2-5.1,5-5.1
			C142.3,120.4,144.5,122.7,144.5,125.5z"/>
		<path class="st19" d="M142.3,125.5c0,1.7-1.3,3-2.9,3c-1.6,0-2.9-1.3-2.9-3c0-1.7,1.3-3,2.9-3C141,122.5,142.3,123.9,142.3,125.5z
			"/>
		<path class="st20" d="M138.9,124.5c0,0.8-0.7,1.5-1.5,1.5c-0.8,0-1.5-0.7-1.5-1.5c0-0.8,0.7-1.5,1.5-1.5
			C138.3,122.9,138.9,123.6,138.9,124.5z"/>
		<ellipse class="st20" cx="142.5" cy="127.9" rx="0.8" ry="0.8"/>
	</g>
	<path class="st17" d="M128.7,113.7c0,0,10.9-12.5,18.4,2.8C145.8,103.8,134.4,97,128.7,113.7z"/>
	<path class="st17" d="M185.6,115c0,0,15.6-18.3,28.1-2.5C210.3,99.8,194.7,92.4,185.6,115z"/>
	<path class="st21" d="M143.1,162.2c0,0,27.7,8.2,57.2-6.1c-4.2,19.3-19.8,27-32.2,27S146.2,168.6,143.1,162.2z"/>
	<g>
		<path class="st22" d="M174.2,171.6c13.3-2.5,18.5-9.2,20.4-13c-17.7,7-34.2,6.4-43.5,5.1C153.6,167.5,160.1,174.3,174.2,171.6z"/>
		<path class="st13" d="M174,171c12.2-2.3,17-8.2,18.7-11.5c-16.3,6.2-31.3,5.7-39.9,4.6C155.1,167.4,161.1,173.4,174,171z"/>
		<path class="st23" d="M161,181.5c2.2,1,4.6,1.6,7.1,1.6c5.2,0,11.1-1.4,16.4-4.5C174.6,170.8,164.6,178.2,161,181.5z"/>
		<path class="st23" d="M171.1,180.4c-1.9,0.1-5.1-0.3-6.6-1.5c-1.4,1-2.6,1.9-3.4,2.7c2.2,1,4.6,1.6,7.1,1.6
			c5.2,0,11.1-1.4,16.4-4.5c-0.9-0.7-1.9-1.3-2.8-1.8C178.8,179.1,175.1,180.1,171.1,180.4z"/>
	</g>
	<g>
		<path class="st17" d="M105.1,71.7c-10.3,10.7-9.7,26-9.7,26l-9.5,0.6c0,0-1,20,10,30.3c0,0,0-24.6,6.2-32.3
			C102,96.3,100.9,84.7,105.1,71.7z"/>
		<path class="st24" d="M282.1,89.1c-4.8-39.8-32.2-49.4-32.2-49.4s1.6-2,9.7-3.3c0,0-6.1-5.3-13.2-0.7c1-7.6-4.8-12.5-4.8-12.5
			s3.5,5.3,1,11.5c-8-13.8-36.1-28.3-72.1-26c-53.8,6.9-64.4,32.6-64.4,32.6C71.5,59.5,81.5,98.7,81.5,98.7l4.4-0.4l9.5-0.6
			c0,0-0.6-15.3,9.7-26c-4.2,13-3.1,24.6-3.1,24.6c21.5-1.5,21.5-1.5,21.5-1.5s-0.8-25.3,15.2-36.6c-9.6,15.5-9.2,36.6-9.2,36.6
			l28.1-0.2c0,0,0-16.3,10.4-26.2c-5.5,10.7-4.9,25.9-4.9,25.9h25c0,0,1.2-23.6,12.3-34.9c-7,16.1-6.1,32.6-6.1,32.6h33.2
			c0,0,2.9-19.5,1.8-29.3c5.5,12.1,4.5,28.9,4.5,28.9l21.3,4c0,0,10.7,51.1-19.9,78.1C262.8,175,293.7,149.4,282.1,89.1z"/>
		<g>
			<path class="st18" d="M282.1,89.1c-4.8-39.8-32.2-49.4-32.2-49.4s1.6-2,9.7-3.3c0,0-6.1-5.3-13.2-0.7c1-7.6-4.8-12.5-4.8-12.5
				s3.5,5.3,1,11.5c-8-13.8-36.1-28.3-72.1-26c-27,3.5-43.1,11.7-52.5,19c0.2,0,0.4,0.1,0.6,0.1c80.8-41.8,123.1,13,123.1,13
				s2.7-1.7,3.3-6.2c1.1,2.6,0.3,7.9,0.3,7.9s1.8-5.6,5.7-5.6c-4.8,2.3-3.7,6.4-3.7,6.4c45.1,28.1,22.3,86.4,21.9,72.4
				c-0.9-14.5-6.9-40.4-17.6-51.3c6.4,18,4.3,25.4,4.3,25.4l-18.5-2.2c0,0,0.4-25-12-39.1c4.7,14-2.6,38.6-2.6,38.6L200,87
				c0,0,0.9-23.3,6.9-36c-20.6,13.2-21.5,37.3-21.5,37.3l-15.5-0.9c0,0-1.7-15.4,8.2-37.7c-21.9,16.2-23.6,37.3-24.5,38.6
				c-0.9,1.3-18,0.4-18,0.4s1.3-21.5,12.9-44.3c-27.9,16.7-29.2,45.2-29.2,45.2l-14.2-0.4c0,0,1.3-13.2,9.4-30.7
				c-21.5,11-22.8,32.9-22.8,32.9s0,0-8.2-0.4C81,79,84.7,66,88.5,56.7c-12.9,18.9-7,42-7,42l4.4-0.4l9.5-0.6c0,0-0.6-15.3,9.7-26
				c-4.2,13-3.1,24.6-3.1,24.6c21.5-1.5,21.5-1.5,21.5-1.5s-0.8-25.3,15.2-36.6c-9.6,15.5-9.2,36.6-9.2,36.6l28.1-0.2
				c0,0,0-16.3,10.4-26.2c-5.5,10.7-4.9,25.9-4.9,25.9h25c0,0,1.2-23.6,12.3-34.9c-7,16.1-6.1,32.6-6.1,32.6h33.2
				c0,0,2.9-19.5,1.8-29.3c5.5,12.1,4.5,28.9,4.5,28.9l21.3,4c0,0,10.7,51.1-19.9,78.1C262.8,175,293.7,149.4,282.1,89.1z"/>
		</g>
	</g>
	<path class="st17" d="M105.9,41.4c0,0,0.2-0.2,0.5-0.4c0.3-0.3,0.7-0.6,1.3-0.9c0.6-0.3,1.2-0.8,1.9-1.1c0.7-0.3,1.5-0.6,2.3-1
		c0.4-0.1,0.8-0.3,1.2-0.4c0.4-0.1,0.8-0.2,1.2-0.3c0.8-0.2,1.5-0.3,2.2-0.4c1.3-0.2,2.1-0.2,2.1-0.2s-0.8,0.4-2,0.9
		c-0.6,0.2-1.3,0.5-2,0.7c-0.4,0.1-0.8,0.2-1.2,0.4c-0.4,0.2-0.8,0.3-1.2,0.5c-0.8,0.3-1.6,0.6-2.3,0.8c-0.8,0.2-1.4,0.5-2,0.7
		c-0.6,0.2-1.1,0.3-1.5,0.5C106.2,41.4,105.9,41.4,105.9,41.4z"/>
	<path class="st0" d="M95.8,128.6c0,0-11.9-7-13.8,9.3c0.5,11.4,11.9,15.7,17.5,9.3C96.8,137.3,95.8,128.6,95.8,128.6z"/>
	<path class="st14" d="M95.8,128.6c0,0-11.9-7-13.8,9.3c0.5,11.4,11.9,15.7,17.5,9.3C96.8,137.3,95.8,128.6,95.8,128.6z"/>
	<path class="st8" d="M95,139.4c0,0-0.6-6-3.9-5.7c-3.3,0.3-5.3,5.6-1.8,9.7C92,146,95.6,144.2,95,139.4z"/>
	<path class="st0" d="M256,131c0,0-0.6,9.4-4.7,18.6c7.9,4.8,18.9,1.3,20.4-8.6C273.2,131.3,265.9,122.7,256,131z"/>
	<path class="st14" d="M256,131c0,0-0.6,9.4-4.7,18.6c7.9,4.8,18.9,1.3,20.4-8.6C273.2,131.3,265.9,122.7,256,131z"/>
	<path class="st8" d="M257.7,138.5c0,0-2.8,7.7,4.1,6.8c6.9-0.9,4.9-9,1.9-10.1C260.7,134.1,259,135.6,257.7,138.5z"/>
	<g>
		<path class="st6" d="M170.4,199.2c0,0-9.6-4.1-11.5-3.6c-2,0.5-0.3,12.1,0.4,13c0.7,0.9,9.5-3.5,11.2-4.8
			C172.1,202.4,170.4,199.2,170.4,199.2z"/>
		<path class="st6" d="M174.2,199.4c0,0,8.9-4.6,11.4-5.1c2.5-0.6,1.5,4.8,1.5,9.7c0,4.9,0.4,5.5-3,4.4c-3.3-1.1-10.9-4.5-10.9-4.5
			S172.8,200.6,174.2,199.4z"/>
		<path d="M171.6,198.9c0,0-1.6-0.1-1.8,2.1c-0.2,2.2-0.1,3.2,2,3.2s2.6-0.8,2.6-3.2C174.5,198.5,174,198.8,171.6,198.9z"/>
	</g>
	<path class="st6" d="M215.7,240.8l3.6,3.8c0,0,12.7-11,16.1-17.6c-3.5-3-3.5-3-3.5-3L215.7,240.8z"/>
	<path class="st6" d="M143.9,279l-3.5-0.9l-0.8,5.3c0,0,31.1,17.3,74.9,0.2l-1.2-6.6C213.3,277,185.8,293.3,143.9,279z"/>
	<path class="st13" d="M140.7,284.2c0,0-20,48.7,26,49.6c35.4-0.7,45.5-16,44.7-48.9C195.7,289.2,175.3,296,140.7,284.2z"/>
	<path class="st16" d="M211.4,284.8c-15.7,4.4-36.1,11.2-70.6-0.7c0,0-0.3,0.8-0.8,2.1c9.6,6.5,21.2,9.6,32.5,10.9
		c6.5,0.7,13.1,1.1,19.6,0.1c4.6-0.7,9.4-2.9,14.1-1.6c0.3,0.1,0.2,0.6,0.1,0.8c-4.8,12.1-20.2,11.9-31.1,14.6
		c8,2.2,16.5-1.5,24.5-2c0.4,0,0.3,0.6,0.2,0.8c-3.5,8.8-12.4,14.8-21.1,17.6c-8.9,2.9-18.4,2.8-27.2-0.5c-4.1-1.5-8-3.5-11.7-5.8
		c4,7.1,11.9,12.4,26.8,12.7C202.1,333.1,212.2,317.7,211.4,284.8z"/>
	<path class="st25" d="M148,217c-4.1,7.2-5.6,15.7-5.8,24c0,0.6,0.9-0.4,1-0.7c0.9-8,1.6-16,5.3-23.3
		C148.8,216.4,148.2,216.6,148,217z"/>
	<path class="st25" d="M209.3,233.1c-1.9-2.2-3.9-4.3-6-6.4c-2.1-2.1-6.5-8.9-8.4-11.1c-0.2-0.2-0.8,0.6-0.7,0.8
		c1.5,2.3,5.6,9,7.4,10.9c2.2,2.4,4.4,4.8,6.8,7C208.8,234.7,209.6,233.5,209.3,233.1z"/>
	<g>
		<path d="M195.1,122.4c0,0,0.8-4.2,4.7-4.2c3.9,0,5,3.8,7.1,3.2c2.1-0.6-0.9,2.3-2.6,2.4C202.6,123.9,195.1,122.4,195.1,122.4z"/>
		<g>
			<path class="st4" d="M204.8,124.2c0,2.8-2.3,5.1-5,5.1c-2.8,0-5-2.3-5-5.1c0-2.8,2.2-5.1,5-5.1
				C202.6,119,204.8,121.3,204.8,124.2z"/>
			<path class="st19" d="M202.7,124.2c0,1.7-1.3,3-2.9,3c-1.6,0-2.9-1.3-2.9-3c0-1.7,1.3-3,2.9-3
				C201.4,121.2,202.7,122.5,202.7,124.2z"/>
			<path class="st20" d="M199.3,123.1c0,0.8-0.7,1.5-1.5,1.5c-0.8,0-1.5-0.7-1.5-1.5c0-0.8,0.7-1.5,1.5-1.5
				C198.6,121.6,199.3,122.3,199.3,123.1z"/>
			<ellipse class="st20" cx="202.9" cy="126.6" rx="0.8" ry="0.8"/>
		</g>
	</g>
	<path class="st16" d="M153.1,197c-4.1,1.6-7.8,4.6-11.3,7.4c-4,3.2-7.6,6.8-10.9,10.9c-0.1,0.1-0.1,0.2,0,0.1
		c6.6-7.1,13.5-13.3,22-18C153.1,197.3,153.3,197,153.1,197z"/>
	<path class="st16" d="M222.5,212.6c-5.9-6.9-13.8-12.2-21.5-16.7c-0.1-0.1-0.3,0.2-0.2,0.3c7.6,5.2,14.7,10.5,21.3,16.9
		C222.3,213.2,222.6,212.8,222.5,212.6z"/>
	<g class="st1">
		<path class="st2" d="M80.2,206.7c2-2.4,1.5-4.6-0.1-4.7c1.2-3-0.2-9.2-4.1-12.8c0,0-2,0-3.3,1.6c1.5-0.2,3.5,0.4,5,3.4
			c2.7,5.4,1.3,8.9-5.1,4.1c0.2,0.6,0.4,1.1,0.6,1.8c-0.6,0.5-1,1.1-1.3,1.9c0.4,0,0.9,0.1,1.5,0.6c1.5,1.5,3.4,2.5,5.7,1
			c2.2-1.5,0,7.1-6.1,3.6c0.2,0.1,0.3,0.3,0.5,0.3c-0.3,0.4-0.6,0.8-0.7,1.2c1,0.5,2.7,1,4.7,0.1c2.8-1.3,2.8,4.1-3.1,3.2
			c0,0,0,0,0,0c-0.7,0.4-1.1,1.1-1.3,1.8c1.5-0.4,4.6-1,5.5,0c1,1.2-1.3,3.1-4.8,2.6c0.4,0.4,1.1,0.7,2,0.7c3.2-0.1,5.6-3.6,3.5-4.7
			C81.5,210.8,82.1,206.7,80.2,206.7z"/>
	</g>
	<g class="st1">
		<path class="st2" d="M254.9,95.7l-21.3-4c0,0,1-16.7-4.5-28.9c1,9.8-1.8,29.3-1.8,29.3h-33.2c0,0-0.8-16.5,6.1-32.6
			C189.2,70.8,188,94.4,188,94.4h-25c0,0-0.6-15.3,4.9-25.9c-10.4,9.8-10.4,26.2-10.4,26.2l-28.1,0.2c0,0-0.4-21.1,9.2-36.6
			c-16,11.3-15.2,36.6-15.2,36.6s0,0-21.5,1.5c-6.1,7.7-6.2,32.3-6.2,32.3c1.9,16.4,8.9,64.8,73.9,66.1c26.7-1,41.2-1,65.4-21.1
			C265.7,146.7,254.9,95.7,254.9,95.7z M169.1,191.1c-56.4-2.6-73.7-50.7-59.9-90.8l15.8-1.6c0,0,0.3-6.3,1.9-10.2
			c0,10.5,1.3,11.2,1.3,11.2l30-0.7c0,0,0.6-6.6,2.9-9.5c-0.3,7.2,3.2,10.5,3.2,10.5l25.8-1.3l1.6-7.9l1.3,6.9l35.4,0.7
			c0,0,2.9-4.3,2.6-8.2c1.9,6.6,1.3,9.5,1.3,9.5l14.5,1.6C246.7,101.3,263.7,192.8,169.1,191.1z"/>
	</g>
	<path class="st18" d="M90.2,83c0,0,0.6-20.4,31.4-31.8c-5.6,7-11.5,33.1-11.5,33.1h6.8c0,0,1.6-33.7,40.1-47.1
		c0,0-15.2,15.6-17.7,45.2c11.2,0.3,13.1,0.3,13.1,0.3S159,48,189.8,39.7c-10,8.6-16.5,41.7-15.6,41c0.9-0.6,8.7-0.6,8.7-0.6
		s9.6-30.2,31.7-38.2c-8.1,11.8-12.5,39.8-11.5,39.4c0.9-0.3,17.4,0.3,17.4,0.3s5.6-27.3,2.5-38.5c11.5,8,17.1,28.3,18.1,39.4
		c11.5,1.3,11.5,1.3,11.5,1.3s1.6-21.3-11.2-35.9c13.1,7.3,25.2,31.5,25.2,31.5s-5.6-32.1-29.3-36.9c-8.4-19.7-66.6-43.9-117-10.5
		c15.6-5.7,22.7-4.5,22.7-4.5S91.4,41,84.9,80.5C87.4,81.1,90.2,83,90.2,83z"/>
	<path class="st18" d="M294.5,137.9c0,0,1.7,25.8-25,37.7c-14.8,6.2-19.7,14.8-14.5,23.7c5.2,8.9,4.1,11,1.2,16.3
		c5.8-5.3,7.6-10.4,7.6-10.4s2,7.7-1.5,13.7c-3.5,5.9-2,11.3,2.9,15.4c-1.7-9.8,4.1-16.9,4.1-16.9s-0.3,5.9,2.3,9.2
		c0.6-11,1.5-9.8-2.9-20.5c-4.4-10.7-4.1-13.4,10.7-23.7C294.2,172,305.2,156.6,294.5,137.9z"/>
</g>
</svg>
